
<svg width="883pt" height="349pt" viewBox="0 0 883 349" version="1.1" id="weather davis airlink" xmlns="http://www.w3.org/2000/svg">
<g id="#9b9b9bb8" fill="#9b9b9b" opacity="0.72">
<path  d=" M 233.55 54.49 C 251.59 49.99 270.76 50.37 288.66 55.31 C 295.19 57.20 301.82 60.90 304.65 67.41 C 307.11 72.02 305.90 77.38 304.93 82.22 C 299.39 109.23 293.45 136.17 287.70 163.14 C 286.97 165.72 288.06 168.26 288.73 170.72 C 277.12 170.47 265.50 170.74 253.89 170.58 C 253.96 168.54 254.08 166.51 254.27 164.48 C 246.64 169.07 237.63 170.39 228.96 171.60 C 222.14 172.64 215.24 171.52 208.52 170.36 C 199.28 168.59 192.47 160.24 190.90 151.22 C 188.01 138.25 193.26 125.08 200.37 114.41 C 208.45 103.96 221.09 97.50 234.08 95.78 C 244.17 94.25 254.40 93.62 264.41 91.54 C 266.76 90.90 269.82 90.45 270.82 87.86 C 272.32 84.21 272.13 79.62 269.67 76.42 C 267.56 73.77 263.93 73.88 260.87 73.53 C 255.39 72.93 249.54 73.72 244.86 76.80 C 240.89 79.66 240.50 84.96 239.41 89.33 C 227.28 89.35 215.16 89.32 203.03 89.35 C 205.22 80.83 206.70 71.59 212.41 64.57 C 217.62 58.26 225.95 56.26 233.55 54.49 M 231.49 124.48 C 227.62 128.67 226.35 135.25 228.31 140.61 C 229.53 144.16 233.43 145.78 236.92 145.96 C 243.66 146.36 250.81 144.40 255.93 139.87 C 262.12 133.54 262.75 124.23 264.68 116.05 C 253.34 116.82 240.55 116.46 231.49 124.48 Z" />
<path  d=" M 480.07 58.08 C 497.60 50.63 517.59 51.44 535.70 56.23 C 544.46 58.37 551.30 65.69 553.75 74.23 C 554.83 78.87 554.40 83.72 553.45 88.35 C 542.75 88.33 532.04 88.32 521.34 88.35 C 520.54 85.60 519.82 82.46 517.47 80.60 C 511.08 76.87 503.03 76.37 496.20 79.18 C 493.54 80.27 491.66 83.13 492.11 86.03 C 492.14 89.49 495.49 91.41 498.23 92.73 C 507.76 97.08 518.27 98.65 527.87 102.83 C 535.80 105.80 544.27 110.49 547.16 119.00 C 549.95 128.36 549.69 139.08 544.60 147.64 C 538.83 158.06 528.67 165.53 517.60 169.53 C 506.49 173.64 494.36 172.90 482.78 171.88 C 472.67 170.47 461.38 168.86 454.16 160.84 C 446.66 152.50 446.39 140.38 448.17 129.89 C 458.80 129.87 469.42 129.88 480.04 129.88 C 480.15 134.55 479.94 140.63 484.77 143.14 C 492.45 146.66 501.72 146.75 509.52 143.48 C 512.30 142.34 514.68 139.21 513.68 136.11 C 512.40 132.11 508.75 129.45 504.95 128.05 C 498.41 125.60 491.46 124.48 484.87 122.21 C 477.62 119.81 470.78 116.06 465.05 111.02 C 461.48 107.95 458.85 103.76 458.13 99.07 C 457.01 88.93 458.64 78.07 464.54 69.55 C 468.25 64.10 473.98 60.37 480.07 58.08 Z" />
<path  d=" M 95.35 55.88 C 113.58 55.91 131.80 55.83 150.03 55.92 C 160.58 56.84 171.82 58.67 180.14 65.77 C 188.94 73.58 194.37 85.22 194.15 97.04 C 194.49 106.46 192.57 115.82 189.66 124.74 C 186.76 133.07 183.01 141.39 176.78 147.79 C 171.54 153.25 166.27 158.94 159.52 162.58 C 150.43 167.39 140.35 170.49 130.01 170.53 C 109.98 170.75 89.94 170.56 69.91 170.62 C 78.46 132.39 86.89 94.13 95.35 55.88 M 122.45 83.01 C 118.69 102.50 114.45 121.91 110.78 141.42 C 116.15 141.86 121.54 141.59 126.93 141.68 C 130.20 141.61 133.64 142.09 136.71 140.67 C 144.46 137.35 151.07 131.02 154.17 123.11 C 156.76 117.08 159.14 110.72 158.91 104.04 C 159.00 97.65 158.92 89.94 153.26 85.72 C 149.64 82.41 144.53 82.93 140.00 82.82 C 134.15 83.12 128.30 82.96 122.45 83.01 Z" />
<path  d=" M 310.39 55.88 C 321.44 55.88 332.50 55.88 343.56 55.87 C 345.90 77.63 348.27 99.39 350.73 121.13 C 360.85 99.49 370.53 77.63 380.41 55.87 C 392.36 55.90 404.32 55.87 416.28 55.88 C 398.06 94.12 379.85 132.36 361.68 170.63 C 348.60 170.63 335.52 170.60 322.44 170.65 C 318.46 132.38 314.33 94.14 310.39 55.88 Z" />
<path  d=" M 396.03 170.66 C 404.51 132.39 412.97 94.12 421.46 55.85 C 433.22 55.92 444.98 55.86 456.73 55.88 C 448.32 94.12 439.79 132.34 431.35 170.58 C 419.58 170.70 407.80 170.55 396.03 170.66 Z" />
<path  d=" M 588.26 55.89 C 597.41 55.87 606.57 55.89 615.73 55.88 C 614.92 59.65 614.13 63.43 613.26 67.18 C 610.01 66.26 606.75 65.41 603.46 64.65 C 605.84 69.25 608.45 73.72 610.85 78.32 C 606.05 99.48 601.46 120.70 596.73 141.89 C 596.47 143.33 595.21 144.22 594.25 145.20 C 590.02 148.98 585.76 152.74 581.66 156.66 C 585.83 155.76 589.98 154.73 594.13 153.70 C 592.86 159.34 591.58 164.97 590.39 170.62 C 581.20 170.63 572.02 170.62 562.83 170.62 C 571.39 132.40 579.84 94.15 588.26 55.89 Z" />
<path  d=" M 618.50 68.43 C 619.47 64.23 620.45 60.03 621.53 55.85 C 628.01 55.91 634.50 55.87 640.99 55.88 C 639.57 61.66 638.44 67.51 637.02 73.29 C 630.82 71.76 624.65 70.14 618.50 68.43 Z" />
<path  d=" M 643.49 74.97 C 644.86 68.59 646.25 62.22 647.71 55.87 C 652.89 55.89 658.06 55.87 663.23 55.89 C 661.41 63.51 659.83 71.20 658.06 78.84 C 653.20 77.57 648.33 76.34 643.49 74.97 Z" />
<path  d=" M 670.10 55.88 C 674.43 55.88 678.77 55.88 683.11 55.88 C 680.95 65.15 679.00 74.47 676.85 83.75 C 672.76 82.71 668.70 81.59 664.62 80.56 C 666.42 72.33 668.27 64.11 670.10 55.88 Z" />
<path  d=" M 693.14 55.88 C 696.81 55.88 700.48 55.88 704.16 55.88 C 701.71 66.93 699.09 77.95 696.87 89.05 C 693.42 88.03 689.94 87.16 686.48 86.23 C 688.59 76.09 690.97 66.01 693.14 55.88 Z" />
<path  d=" M 716.26 55.89 C 719.25 55.88 722.24 55.88 725.23 55.89 C 722.33 68.63 719.44 81.38 716.80 94.18 C 713.97 93.45 711.15 92.71 708.35 91.92 C 710.92 79.90 713.76 67.93 716.26 55.89 Z" />
<path  d=" M 729.55 97.54 C 732.58 83.64 735.65 69.75 738.78 55.88 C 741.29 55.88 743.80 55.88 746.32 55.88 C 743.21 70.40 739.80 84.85 736.77 99.38 C 734.36 98.78 731.96 98.14 729.55 97.54 Z" />
<path  d=" M 762.35 55.88 C 764.48 55.88 766.60 55.88 768.74 55.88 C 765.44 72.31 761.86 88.68 758.53 105.10 C 756.29 104.50 754.05 103.90 751.82 103.29 C 755.34 87.49 758.87 71.69 762.35 55.88 Z" />
<path  d=" M 788.93 55.88 C 790.70 55.88 792.48 55.88 794.27 55.89 C 785.85 94.15 777.31 132.38 768.89 170.64 C 767.10 170.63 765.32 170.62 763.55 170.61 C 771.90 132.34 780.45 94.12 788.93 55.88 Z" />
<path  d=" M 816.25 56.27 C 823.20 54.54 830.62 60.83 830.05 67.97 C 830.07 75.39 821.72 81.25 814.79 78.43 C 809.11 76.65 805.58 69.96 807.50 64.30 C 808.64 60.24 812.14 57.11 816.25 56.27 M 810.87 73.03 C 813.53 77.41 819.16 77.66 823.58 76.26 C 820.99 73.68 819.78 69.73 816.36 68.07 C 816.17 70.15 816.10 72.24 816.05 74.34 C 815.51 74.33 814.42 74.33 813.88 74.33 C 813.88 69.84 813.88 65.35 813.88 60.87 C 816.85 61.17 820.48 60.00 822.94 62.17 C 824.76 64.76 823.29 68.09 820.35 68.96 C 821.84 71.08 824.14 72.97 823.96 75.82 C 825.79 73.61 827.98 71.19 827.91 68.11 C 828.38 62.70 823.43 57.43 817.92 58.02 C 810.86 58.20 806.44 67.47 810.87 73.03 M 816.10 62.99 C 816.11 64.33 816.14 65.66 816.18 67.00 C 818.28 66.97 820.47 66.89 822.10 65.36 C 821.82 64.78 821.26 63.62 820.97 63.04 C 819.34 63.02 817.71 63.00 816.10 62.99 Z" />
<path  d=" M 614.94 85.81 C 617.02 89.51 619.02 93.24 621.10 96.94 C 618.87 106.45 616.80 115.99 614.61 125.50 C 614.32 127.29 612.74 128.34 611.53 129.51 C 608.89 131.83 606.31 134.22 603.68 136.56 C 607.39 119.64 611.10 102.71 614.94 85.81 Z" />
<path  d=" M 749.01 116.86 C 751.07 115.44 753.97 115.43 756.37 114.65 C 752.06 133.31 747.73 151.97 743.35 170.62 C 741.18 170.62 739.01 170.62 736.86 170.62 C 741.13 152.75 744.58 134.68 749.01 116.86 Z" />
<path  d=" M 724.15 122.37 C 726.78 121.77 729.41 121.14 732.05 120.57 C 728.22 137.23 724.69 153.97 720.88 170.64 C 718.37 170.62 715.87 170.63 713.37 170.65 C 716.91 154.54 720.34 138.41 724.15 122.37 Z" />
<path  d=" M 700.24 128.18 C 703.38 127.46 706.50 126.69 709.61 125.86 C 706.47 140.82 702.98 155.70 699.77 170.63 C 696.78 170.63 693.79 170.63 690.81 170.55 C 694.13 156.47 697.20 142.32 700.24 128.18 Z" />
<path  d=" M 675.90 134.06 C 679.72 133.11 683.55 132.19 687.40 131.34 C 684.57 144.44 681.49 157.50 678.77 170.63 C 675.09 170.62 671.42 170.63 667.75 170.62 C 670.43 158.42 673.10 146.22 675.90 134.06 Z" />
<path  d=" M 651.45 140.24 C 655.85 138.47 660.63 137.89 665.20 136.64 C 662.67 147.95 660.10 159.26 657.72 170.60 C 653.36 170.64 648.99 170.63 644.63 170.61 C 647.03 160.51 649.04 150.33 651.45 140.24 Z" />
<path  d=" M 629.03 145.36 C 634.06 144.04 639.14 142.93 644.19 141.68 C 642.03 151.33 639.86 160.97 637.77 170.63 C 632.61 170.62 627.46 170.62 622.30 170.63 C 623.89 163.04 625.65 155.49 627.29 147.90 C 627.59 146.92 627.62 145.39 629.03 145.36 Z" />
<path  d=" M 600.16 152.18 C 606.99 150.79 613.74 149.01 620.56 147.53 C 619.01 155.25 617.14 162.91 615.56 170.62 C 609.06 170.65 602.57 170.56 596.08 170.69 C 597.43 164.52 598.85 158.36 600.16 152.18 Z" />
</g>
<g id="#ebebebff" fill="#ebebeb">
<path  d=" M 165.21 189.54 C 177.69 189.53 190.16 189.54 202.64 189.54 C 213.68 223.36 224.70 257.18 235.74 291.00 C 225.15 291.00 214.56 291.00 203.97 291.00 C 202.20 284.28 200.46 277.55 198.70 270.82 C 188.39 270.83 178.07 270.82 167.76 270.82 C 166.00 277.55 164.23 284.26 162.49 290.99 C 152.37 291.01 142.24 291.00 132.12 291.00 C 143.15 257.18 154.19 223.36 165.21 189.54 M 173.18 249.80 C 179.88 249.80 186.58 249.80 193.28 249.80 C 189.91 237.36 186.81 224.85 183.27 212.47 C 179.55 224.80 176.59 237.37 173.18 249.80 Z" />
<path  d=" M 245.03 189.54 C 254.97 189.53 264.91 189.54 274.85 189.54 C 274.85 223.36 274.84 257.18 274.85 291.00 C 264.91 291.00 254.97 291.00 245.03 291.00 C 245.03 257.18 245.03 223.36 245.03 189.54 Z" />
<path  d=" M 289.03 189.54 C 304.35 189.58 319.67 189.44 334.98 189.61 C 345.77 189.81 357.35 191.93 365.54 199.49 C 373.58 206.92 375.97 218.65 374.69 229.16 C 373.44 238.91 367.64 248.14 358.73 252.58 C 365.15 265.39 371.56 278.20 377.98 291.00 C 366.84 290.96 355.70 291.08 344.56 290.93 C 339.33 279.57 333.92 268.30 328.62 256.97 C 325.36 256.96 322.10 256.96 318.85 256.97 C 318.85 268.31 318.84 279.65 318.85 291.00 C 308.91 291.00 298.97 291.00 289.03 291.00 C 289.03 257.18 289.03 223.36 289.03 189.54 M 318.85 211.55 C 318.84 220.12 318.85 228.70 318.85 237.28 C 325.40 236.83 332.51 238.54 338.62 235.48 C 346.73 231.17 346.54 217.78 338.55 213.43 C 332.51 210.23 325.38 212.01 318.85 211.55 Z" />
<path  d=" M 387.03 189.54 C 396.97 189.53 406.91 189.54 416.85 189.54 C 416.85 215.46 416.85 241.38 416.85 267.30 C 430.11 267.30 443.38 267.30 456.64 267.30 C 456.64 275.20 456.64 283.10 456.64 291.00 C 433.44 291.00 410.23 291.00 387.03 291.00 C 387.03 257.18 387.03 223.36 387.03 189.54 Z" />
<path  d=" M 468.03 189.54 C 477.97 189.53 487.91 189.54 497.85 189.54 C 497.85 223.36 497.84 257.18 497.85 291.00 C 487.91 291.00 477.97 291.00 468.03 291.00 C 468.03 257.18 468.03 223.36 468.03 189.54 Z" />
<path  d=" M 511.03 189.54 C 518.74 189.53 526.45 189.54 534.16 189.54 C 547.44 207.18 560.36 225.09 573.86 242.57 C 573.95 224.89 573.87 207.21 573.90 189.54 C 583.27 189.54 592.64 189.54 602.01 189.54 C 602.01 223.36 602.02 257.18 602.02 291.00 C 594.40 291.00 586.78 291.00 579.16 291.00 C 565.82 273.05 552.72 254.92 539.22 237.09 C 539.07 255.06 539.20 273.03 539.16 291.00 C 529.78 291.00 520.40 291.00 511.03 291.00 C 511.03 257.18 511.03 223.36 511.03 189.54 Z" />
<path  d=" M 617.03 189.54 C 626.97 189.53 636.91 189.54 646.85 189.54 C 646.89 204.05 646.77 218.56 646.91 233.08 C 657.69 218.69 668.11 204.03 678.76 189.54 C 689.19 189.54 699.62 189.53 710.04 189.54 C 698.92 204.57 687.78 219.59 676.66 234.61 C 688.31 253.41 699.95 272.21 711.60 291.00 C 700.04 291.00 688.49 291.00 676.94 291.00 C 669.55 278.58 662.17 266.16 654.79 253.73 C 652.23 257.40 649.19 260.76 646.94 264.63 C 646.71 273.42 646.91 282.21 646.85 291.00 C 636.91 291.00 626.97 291.00 617.03 291.00 C 617.03 257.18 617.03 223.36 617.03 189.54 Z" />
</g>
</svg>