<?xml version="1.0" standalone="no"?>
<!DOCTYPE svg PUBLIC "-//W3C//DTD SVG 20010904//EN"
 "http://www.w3.org/TR/2001/REC-SVG-20010904/DTD/svg10.dtd">
<svg version="1.0" xmlns="http://www.w3.org/2000/svg"
 width="512.000000pt" height="512.000000pt" viewBox="0 0 512.000000 512.000000"
 preserveAspectRatio="xMidYMid meet">
<metadata>
Created by potrace 1.11, written by Peter Selinger 2001-2013
</metadata>
<g transform="translate(0.000000,512.000000) scale(0.100000,-0.100000)"
fill="#000000" stroke="none">
<path d="M976 5109 c-449 -58 -826 -387 -936 -818 -40 -158 -41 -209 -38
-1796 4 -1427 5 -1535 22 -1605 56 -235 147 -403 305 -561 162 -161 337 -256
571 -306 80 -17 172 -18 1660 -18 1488 0 1580 1 1660 18 234 50 409 145 571
306 158 158 249 326 305 561 17 70 18 177 22 1600 2 1025 -1 1557 -8 1624 -28
268 -134 492 -319 677 -182 182 -405 289 -666 319 -112 12 -3049 11 -3149 -1z
m2114 -981 l0 -133 30 36 c39 48 77 62 150 57 72 -5 106 -27 138 -88 20 -41
22 -57 22 -232 l0 -188 -70 0 -70 0 0 155 c0 178 -10 220 -57 231 -57 15 -103
-1 -122 -43 -7 -14 -11 -88 -11 -183 l0 -160 -70 0 -70 0 0 340 0 340 65 0 65
0 0 -132z m-300 12 l0 -60 45 0 45 0 0 -50 0 -50 -45 0 -45 0 0 -134 c0 -147
5 -160 60 -158 30 1 30 0 30 -54 l0 -54 -70 0 c-44 0 -82 6 -100 15 -52 27
-60 57 -60 230 l0 155 -35 0 -35 0 0 50 0 50 35 0 35 0 0 60 0 60 70 0 70 0 0
-60z m-922 -62 c81 -24 141 -112 150 -215 l5 -63 -177 0 c-108 0 -176 -4 -176
-10 0 -5 7 -27 16 -49 30 -75 129 -91 183 -29 23 25 32 28 83 28 67 0 71 -9
37 -69 -60 -108 -242 -137 -359 -56 -129 90 -124 350 9 438 64 42 143 51 229
25z m562 -11 c25 -12 55 -37 67 -56 22 -32 23 -43 23 -232 l0 -199 -65 0 -65
0 0 36 0 37 -25 -27 c-92 -100 -272 -57 -300 71 -13 64 31 137 100 163 17 7
70 15 120 18 96 7 104 13 91 67 -13 50 -108 57 -145 9 -16 -21 -27 -24 -81
-24 l-62 0 6 31 c23 115 199 171 336 106z m1398 11 c81 -24 141 -112 150 -215
l5 -63 -177 0 c-108 0 -176 -4 -176 -10 0 -5 7 -27 16 -49 30 -75 129 -91 183
-29 23 25 32 28 83 28 67 0 71 -9 37 -69 -60 -108 -242 -137 -359 -56 -129 90
-124 350 9 438 64 42 143 51 229 25z m512 -50 l0 -63 -49 0 c-93 0 -111 -41
-111 -247 l0 -138 -70 0 -70 0 0 250 0 250 70 0 70 0 0 -37 1 -38 15 27 c19
35 59 57 107 58 l37 0 0 -62z m-3427 -15 c8 -38 25 -120 38 -183 l23 -115 44
183 44 182 68 0 69 0 43 -179 c23 -99 43 -179 45 -178 2 2 73 344 73 353 0 2
32 4 71 4 62 0 70 -2 65 -17 -3 -10 -28 -106 -56 -213 -28 -107 -56 -212 -61
-233 l-10 -38 -76 3 -76 3 -42 162 c-22 89 -43 164 -46 167 -3 3 -20 -56 -39
-132 -18 -75 -37 -152 -42 -169 l-9 -33 -74 0 -74 0 -15 53 c-25 89 -116 434
-116 440 0 4 31 7 69 7 l69 0 15 -67z m3477 -698 c62 -32 91 -88 91 -177 1
-110 -58 -183 -158 -195 -125 -14 -212 66 -213 197 0 95 52 171 131 190 41 10
115 3 149 -15z m-2760 -145 c403 -43 635 -276 598 -600 -21 -178 -154 -326
-352 -391 l-69 -23 69 -12 c128 -22 207 -60 291 -138 69 -64 107 -128 128
-217 58 -248 -65 -504 -300 -626 -300 -155 -727 -144 -988 26 -216 141 -310
386 -191 497 61 58 183 65 254 14 15 -11 49 -53 74 -94 86 -139 176 -193 337
-203 228 -15 389 102 389 283 0 118 -53 208 -151 256 -74 35 -142 48 -260 48
-62 0 -112 5 -132 14 -128 54 -120 245 12 285 21 6 79 11 129 11 123 0 204 25
270 85 61 55 87 115 86 200 -2 180 -148 279 -374 253 -123 -15 -208 -77 -270
-198 -52 -101 -106 -140 -198 -140 -63 0 -130 34 -157 80 -33 58 -26 151 18
244 90 189 310 322 572 346 117 10 112 10 215 0z m2174 -36 c60 -23 130 -84
156 -135 34 -66 40 -160 40 -681 l0 -508 78 0 c137 0 202 -54 202 -168 0 -116
-68 -172 -210 -172 l-67 0 -5 -124 c-4 -93 -11 -134 -26 -169 -53 -120 -241
-144 -331 -42 -41 47 -51 91 -51 222 l0 112 -413 3 -413 3 -59 30 c-145 74
-165 236 -56 447 125 243 618 998 711 1089 56 55 122 94 184 110 51 13 206 3
260 -17z"/>
<path d="M1735 3978 c-28 -15 -55 -50 -55 -70 0 -16 11 -18 100 -18 57 0 100
4 100 10 0 24 -26 63 -51 76 -33 17 -66 18 -94 2z"/>
<path d="M2291 3791 c-38 -5 -59 -13 -71 -29 -42 -52 17 -102 95 -81 42 12 65
42 65 86 0 36 5 35 -89 24z"/>
<path d="M3695 3978 c-28 -15 -55 -50 -55 -70 0 -16 11 -18 100 -18 57 0 100
4 100 10 0 24 -26 63 -51 76 -33 17 -66 18 -94 2z"/>
<path d="M4241 3224 c-31 -39 -30 -133 2 -170 26 -30 74 -37 101 -15 37 31 37
151 0 192 -26 29 -78 25 -103 -7z"/>
<path d="M3527 2728 c-105 -153 -279 -415 -359 -543 -80 -129 -218 -368 -218
-379 0 -3 146 -6 325 -6 l325 0 0 510 c0 281 -2 510 -4 510 -3 0 -33 -42 -69
-92z"/>
</g>
</svg>
