<?xml version="1.0" encoding="UTF-8" ?>
<!DOCTYPE svg PUBLIC "-//W3C//DTD SVG 1.1//EN" "http://www.w3.org/Graphics/SVG/1.1/DTD/svg11.dtd">
<svg width="512pt" height="512pt" viewBox="0 0 512 512" version="1.1" xmlns="http://www.w3.org/2000/svg">
<g id="#484c5aff">
<path fill="#484c5a" opacity="1.00" d=" M 114.85 0.00 L 397.52 0.00 C 424.54 1.24 451.06 11.71 471.32 29.68 C 495.80 50.94 510.73 82.50 512.00 114.87 L 512.00 396.25 C 511.23 417.48 504.91 438.52 493.45 456.44 C 482.48 473.77 466.98 488.20 448.89 497.87 C 433.21 506.38 415.58 510.97 397.81 512.00 L 115.77 512.00 C 92.61 511.18 69.69 503.67 50.78 490.24 C 29.91 475.62 13.92 454.16 6.00 429.93 C 2.50 419.57 0.72 408.71 0.00 397.82 L 0.00 115.06 C 1.17 82.64 16.13 51.02 40.64 29.73 C 61.00 11.67 87.69 1.14 114.85 0.00 M 300.49 107.49 C 300.46 125.32 300.48 143.15 300.47 160.98 C 303.89 161.01 307.31 161.01 310.72 160.99 C 310.73 154.34 310.71 147.69 310.71 141.04 C 310.80 138.65 310.71 136.09 311.93 133.94 C 313.92 130.21 319.25 129.14 322.78 131.22 C 325.41 132.79 325.84 136.12 325.90 138.90 C 326.01 146.26 325.88 153.63 325.94 161.00 C 329.35 161.00 332.76 161.00 336.17 161.00 C 336.16 152.66 336.24 144.33 336.15 135.99 C 336.17 131.31 334.64 126.11 330.43 123.54 C 323.76 119.47 313.98 121.79 310.63 129.10 C 310.47 121.90 310.59 114.70 310.54 107.49 C 307.19 107.48 303.84 107.48 300.49 107.49 M 110.09 110.26 C 114.54 127.18 119.05 144.07 123.50 160.99 C 126.85 161.01 130.21 161.01 133.57 160.99 C 136.91 149.51 139.64 137.84 143.40 126.50 C 146.84 137.94 149.89 149.50 153.18 160.99 C 156.50 161.00 159.82 161.00 163.15 161.00 C 167.65 144.10 172.13 127.19 176.61 110.28 C 172.95 110.25 169.29 110.25 165.63 110.27 C 162.90 122.58 160.42 134.94 157.55 147.21 C 154.08 134.96 151.12 122.57 147.82 110.27 C 144.85 110.26 141.89 110.26 138.92 110.22 C 135.55 122.47 132.77 134.88 129.31 147.11 C 126.33 134.89 123.92 122.54 121.14 110.27 C 117.46 110.25 113.78 110.26 110.09 110.26 M 274.05 113.04 C 274.04 116.23 274.03 119.43 274.01 122.62 C 272.01 122.65 270.00 122.61 268.00 122.65 C 268.00 125.23 268.00 127.82 268.00 130.41 C 270.00 130.45 272.01 130.40 274.02 130.43 C 274.11 137.31 273.92 144.20 274.09 151.08 C 274.11 154.11 275.05 157.49 277.81 159.15 C 282.19 161.68 287.52 161.23 292.36 160.72 C 292.34 158.25 292.34 155.78 292.34 153.31 C 289.55 153.25 285.04 153.65 284.52 149.91 C 283.98 143.43 284.43 136.92 284.30 130.43 C 286.98 130.44 289.66 130.41 292.34 130.42 C 292.34 127.82 292.33 125.23 292.33 122.64 C 289.65 122.64 286.97 122.61 284.30 122.63 C 284.30 119.43 284.29 116.23 284.28 113.04 C 280.87 113.02 277.46 113.02 274.05 113.04 M 186.79 128.83 C 182.93 134.73 182.51 142.37 184.20 149.08 C 185.61 154.79 190.18 159.62 195.95 161.00 C 204.98 163.55 217.32 160.22 219.86 150.11 C 216.74 150.03 213.62 150.01 210.50 150.08 C 207.47 154.72 200.23 155.54 196.24 151.75 C 194.10 149.78 193.83 146.76 193.30 144.08 C 202.23 144.04 211.16 144.09 220.09 144.06 C 220.25 137.37 219.28 129.72 213.70 125.26 C 205.82 119.20 192.52 120.29 186.79 128.83 M 232.01 125.03 C 229.34 126.86 228.11 129.95 227.35 132.97 C 230.44 133.03 233.53 133.04 236.62 132.97 C 239.12 129.10 244.67 128.25 248.49 130.55 C 250.81 132.17 250.29 135.28 250.53 137.73 C 243.81 138.44 236.36 137.53 230.43 141.42 C 224.16 145.45 224.81 156.15 231.38 159.56 C 237.59 163.48 246.42 161.54 250.57 155.51 C 250.59 157.34 250.62 159.17 250.64 161.00 C 253.95 161.01 257.26 161.00 260.56 160.97 C 260.46 151.69 260.74 142.40 260.44 133.13 C 260.27 127.81 256.01 123.39 250.94 122.26 C 244.65 120.79 237.40 121.14 232.01 125.03 M 352.33 124.36 C 344.92 129.16 343.27 139.11 344.76 147.22 C 345.76 153.67 350.51 159.51 356.98 161.01 C 366.01 163.54 378.32 160.21 380.86 150.11 C 377.73 150.03 374.61 150.01 371.49 150.08 C 368.47 154.72 361.24 155.54 357.25 151.76 C 355.10 149.79 354.83 146.76 354.30 144.08 C 363.23 144.04 372.16 144.09 381.09 144.06 C 381.11 138.47 380.73 132.43 377.18 127.83 C 371.49 120.46 359.94 119.70 352.33 124.36 M 390.13 122.29 C 390.10 135.19 390.12 148.09 390.12 161.00 C 393.53 161.00 396.95 161.00 400.37 161.00 C 400.40 154.32 400.34 147.65 400.37 140.98 C 400.37 137.95 400.91 134.51 403.53 132.60 C 406.68 130.10 410.93 130.62 414.67 130.92 C 414.66 127.93 414.65 124.94 414.63 121.95 C 411.63 121.71 408.44 121.43 405.66 122.81 C 402.96 123.97 401.50 126.66 399.97 128.99 C 400.01 126.75 400.04 124.52 400.05 122.29 C 396.74 122.27 393.43 122.27 390.13 122.29 M 421.29 166.30 C 414.80 167.64 409.87 173.28 408.67 179.70 C 407.60 185.90 408.01 192.88 411.95 198.07 C 417.48 205.36 428.56 206.38 436.34 202.38 C 443.51 198.54 446.00 189.59 444.96 181.99 C 444.45 176.98 442.16 171.98 437.98 169.00 C 433.19 165.67 426.89 164.89 421.29 166.30 M 114.73 196.68 C 101.78 203.18 90.83 214.28 85.95 228.06 C 84.33 234.04 83.50 240.85 86.44 246.57 C 88.77 251.26 93.83 254.02 98.91 254.55 C 104.61 255.23 111.05 254.56 115.40 250.44 C 120.77 245.39 122.44 237.78 127.24 232.28 C 132.87 225.04 141.85 221.06 150.88 220.46 C 160.44 219.76 170.97 220.99 178.55 227.39 C 186.18 233.77 188.42 244.80 186.13 254.17 C 184.47 260.80 179.91 266.51 174.04 269.93 C 166.86 274.30 158.29 275.48 150.02 275.45 C 144.62 275.51 138.73 274.95 133.97 278.04 C 126.89 282.43 125.78 293.00 130.25 299.62 C 133.26 304.07 138.85 305.73 143.99 305.69 C 153.65 305.73 163.63 305.47 172.79 309.05 C 180.03 311.68 186.51 317.06 189.34 324.37 C 192.80 333.39 192.27 344.40 186.30 352.28 C 180.23 360.47 169.95 364.48 160.03 365.09 C 150.33 365.68 140.08 364.45 131.66 359.28 C 124.54 355.11 120.00 348.01 116.14 340.95 C 110.73 331.14 96.81 329.00 87.69 334.68 C 82.59 337.89 80.29 344.16 80.52 350.00 C 80.57 358.05 84.63 365.35 89.24 371.70 C 99.46 385.37 115.53 393.59 131.99 397.03 C 150.00 400.59 168.90 400.35 186.64 395.44 C 200.48 391.55 213.76 384.23 222.84 372.88 C 233.75 359.42 237.33 340.59 232.83 323.95 C 229.94 313.11 222.27 303.96 212.75 298.24 C 204.19 292.95 194.23 291.02 184.46 289.41 C 187.09 287.99 190.06 287.51 192.87 286.61 C 202.89 283.22 212.23 277.19 218.52 268.58 C 226.18 258.24 228.81 244.62 226.42 232.05 C 224.36 220.17 217.24 209.51 207.59 202.41 C 194.50 192.69 178.05 188.63 161.98 187.78 C 145.86 187.08 129.20 189.20 114.73 196.68 M 346.42 192.46 C 335.96 197.50 328.96 207.25 322.60 216.59 C 304.45 243.68 286.24 270.78 269.85 298.99 C 264.37 308.70 258.16 318.59 257.11 329.96 C 256.25 337.06 257.83 344.80 262.91 350.09 C 267.97 355.58 275.66 357.73 282.94 357.71 C 307.98 357.78 333.03 357.71 358.08 357.75 C 358.18 364.84 357.91 371.93 358.21 379.02 C 358.43 385.31 361.34 391.82 366.96 395.05 C 373.46 398.77 381.90 398.85 388.59 395.55 C 394.42 392.66 397.85 386.32 398.25 379.97 C 398.72 372.57 398.31 365.14 398.49 357.74 C 405.25 357.44 412.43 358.77 418.80 355.86 C 430.24 350.53 430.32 331.42 419.06 325.86 C 412.66 322.74 405.30 324.17 398.46 323.83 C 398.46 289.89 398.45 255.94 398.46 221.99 C 398.45 215.93 397.72 209.65 394.64 204.31 C 390.64 196.94 382.98 192.18 374.95 190.36 C 365.55 188.31 355.27 188.34 346.42 192.46 Z" />
<path fill="#484c5a" opacity="1.00" d=" M 193.35 137.64 C 193.84 132.85 197.92 128.29 203.06 129.26 C 207.39 129.54 209.64 133.80 210.09 137.67 C 204.51 137.68 198.93 137.71 193.35 137.64 Z" />
<path fill="#484c5a" opacity="1.00" d=" M 354.35 137.64 C 354.83 132.85 358.92 128.30 364.05 129.26 C 368.38 129.53 370.64 133.80 371.09 137.67 C 365.51 137.68 359.92 137.71 354.35 137.64 Z" />
<path fill="#484c5a" opacity="1.00" d=" M 238.55 145.55 C 242.36 144.06 246.57 144.42 250.58 144.05 C 250.29 146.40 250.55 149.10 248.91 151.02 C 246.37 154.10 241.38 155.03 237.99 152.90 C 235.34 151.28 235.59 146.71 238.55 145.55 Z" />
<path fill="#484c5a" opacity="1.00" d=" M 423.17 174.11 C 427.37 171.66 432.70 174.62 433.96 179.06 C 435.26 184.01 435.46 189.92 432.36 194.27 C 430.32 197.11 426.19 197.46 423.18 196.16 C 419.59 194.19 418.42 189.79 418.39 185.98 C 418.19 181.63 419.18 176.57 423.17 174.11 Z" />
<path fill="#484c5a" opacity="1.00" d=" M 354.70 227.74 C 355.95 225.85 357.33 224.06 358.83 222.38 C 359.06 256.57 358.87 290.77 358.93 324.96 C 337.18 324.94 315.42 325.03 293.66 324.92 C 311.31 290.92 333.10 259.30 354.70 227.74 Z" />
</g>
<g id="#b8b8b9ff">
<path fill="#b8b8b9" opacity="1.00" d=" M 300.49 107.49 C 303.84 107.48 307.19 107.48 310.54 107.49 C 310.59 114.70 310.47 121.90 310.63 129.10 C 313.98 121.79 323.76 119.47 330.43 123.54 C 334.64 126.11 336.17 131.31 336.15 135.99 C 336.24 144.33 336.16 152.66 336.17 161.00 C 332.76 161.00 329.35 161.00 325.94 161.00 C 325.88 153.63 326.01 146.26 325.90 138.90 C 325.84 136.12 325.41 132.79 322.78 131.22 C 319.25 129.14 313.92 130.21 311.93 133.94 C 310.71 136.09 310.80 138.65 310.71 141.04 C 310.71 147.69 310.73 154.34 310.72 160.99 C 307.31 161.01 303.89 161.01 300.47 160.98 C 300.48 143.15 300.46 125.32 300.49 107.49 Z" />
<path fill="#b8b8b9" opacity="1.00" d=" M 110.09 110.26 C 113.78 110.26 117.46 110.25 121.14 110.27 C 123.92 122.54 126.33 134.89 129.31 147.11 C 132.77 134.88 135.55 122.47 138.92 110.22 C 141.89 110.26 144.85 110.26 147.82 110.27 C 151.12 122.57 154.08 134.96 157.55 147.21 C 160.42 134.94 162.90 122.58 165.63 110.27 C 169.29 110.25 172.95 110.25 176.61 110.28 C 172.13 127.19 167.65 144.10 163.15 161.00 C 159.82 161.00 156.50 161.00 153.18 160.99 C 149.89 149.50 146.84 137.94 143.40 126.50 C 139.64 137.84 136.91 149.51 133.57 160.99 C 130.21 161.01 126.85 161.01 123.50 160.99 C 119.05 144.07 114.54 127.18 110.09 110.26 Z" />
<path fill="#b8b8b9" opacity="1.00" d=" M 274.05 113.04 C 277.46 113.02 280.87 113.02 284.28 113.04 C 284.29 116.23 284.30 119.43 284.30 122.63 C 286.97 122.61 289.65 122.64 292.33 122.64 C 292.33 125.23 292.34 127.82 292.34 130.42 C 289.66 130.41 286.98 130.44 284.30 130.43 C 284.43 136.92 283.98 143.43 284.52 149.91 C 285.04 153.65 289.55 153.25 292.34 153.31 C 292.34 155.78 292.34 158.25 292.36 160.72 C 287.52 161.23 282.19 161.68 277.81 159.15 C 275.05 157.49 274.11 154.11 274.09 151.08 C 273.92 144.20 274.11 137.31 274.02 130.43 C 272.01 130.40 270.00 130.45 268.00 130.41 C 268.00 127.82 268.00 125.23 268.00 122.65 C 270.00 122.61 272.01 122.65 274.01 122.62 C 274.03 119.43 274.04 116.23 274.05 113.04 Z" />
<path fill="#b8b8b9" opacity="1.00" d=" M 186.79 128.83 C 192.52 120.29 205.82 119.20 213.70 125.26 C 219.28 129.72 220.25 137.37 220.09 144.06 C 211.16 144.09 202.23 144.04 193.30 144.08 C 193.83 146.76 194.10 149.78 196.24 151.75 C 200.23 155.54 207.47 154.72 210.50 150.08 C 213.62 150.01 216.74 150.03 219.86 150.11 C 217.32 160.22 204.98 163.55 195.95 161.00 C 190.18 159.62 185.61 154.79 184.20 149.08 C 182.51 142.37 182.93 134.73 186.79 128.83 M 193.35 137.64 C 198.93 137.71 204.51 137.68 210.09 137.67 C 209.64 133.80 207.39 129.54 203.06 129.26 C 197.92 128.29 193.84 132.85 193.35 137.64 Z" />
<path fill="#b8b8b9" opacity="1.00" d=" M 232.01 125.03 C 237.40 121.14 244.65 120.79 250.94 122.26 C 256.01 123.39 260.27 127.81 260.44 133.13 C 260.74 142.40 260.46 151.69 260.56 160.97 C 257.26 161.00 253.95 161.01 250.64 161.00 C 250.62 159.17 250.59 157.34 250.57 155.51 C 246.42 161.54 237.59 163.48 231.38 159.56 C 224.81 156.15 224.16 145.45 230.43 141.42 C 236.36 137.53 243.81 138.44 250.53 137.73 C 250.29 135.28 250.81 132.17 248.49 130.55 C 244.67 128.25 239.12 129.10 236.62 132.97 C 233.53 133.04 230.44 133.03 227.35 132.97 C 228.11 129.95 229.34 126.86 232.01 125.03 M 238.55 145.55 C 235.59 146.71 235.34 151.28 237.99 152.90 C 241.38 155.03 246.37 154.10 248.91 151.02 C 250.55 149.10 250.29 146.40 250.58 144.05 C 246.57 144.42 242.36 144.06 238.55 145.55 Z" />
<path fill="#b8b8b9" opacity="1.00" d=" M 352.33 124.36 C 359.94 119.70 371.49 120.46 377.18 127.83 C 380.73 132.43 381.11 138.47 381.09 144.06 C 372.16 144.09 363.23 144.04 354.30 144.08 C 354.83 146.76 355.10 149.79 357.25 151.76 C 361.24 155.54 368.47 154.72 371.49 150.08 C 374.61 150.01 377.73 150.03 380.86 150.11 C 378.32 160.21 366.01 163.54 356.98 161.01 C 350.51 159.51 345.76 153.67 344.76 147.22 C 343.27 139.11 344.92 129.16 352.33 124.36 M 354.35 137.64 C 359.92 137.71 365.51 137.68 371.09 137.67 C 370.64 133.80 368.38 129.53 364.05 129.26 C 358.92 128.30 354.83 132.85 354.35 137.64 Z" />
<path fill="#b8b8b9" opacity="1.00" d=" M 390.13 122.29 C 393.43 122.27 396.74 122.27 400.05 122.29 C 400.04 124.52 400.01 126.75 399.97 128.99 C 401.50 126.66 402.96 123.97 405.66 122.81 C 408.44 121.43 411.63 121.71 414.63 121.95 C 414.65 124.94 414.66 127.93 414.67 130.92 C 410.93 130.62 406.68 130.10 403.53 132.60 C 400.91 134.51 400.37 137.95 400.37 140.98 C 400.34 147.65 400.40 154.32 400.37 161.00 C 396.95 161.00 393.53 161.00 390.12 161.00 C 390.12 148.09 390.10 135.19 390.13 122.29 Z" />
<path fill="#b8b8b9" opacity="1.00" d=" M 421.29 166.30 C 426.89 164.89 433.19 165.67 437.98 169.00 C 442.16 171.98 444.45 176.98 444.96 181.99 C 446.00 189.59 443.51 198.54 436.34 202.38 C 428.56 206.38 417.48 205.36 411.95 198.07 C 408.01 192.88 407.60 185.90 408.67 179.70 C 409.87 173.28 414.80 167.64 421.29 166.30 M 423.17 174.11 C 419.18 176.57 418.19 181.63 418.39 185.98 C 418.42 189.79 419.59 194.19 423.18 196.16 C 426.19 197.46 430.32 197.11 432.36 194.27 C 435.46 189.92 435.26 184.01 433.96 179.06 C 432.70 174.62 427.37 171.66 423.17 174.11 Z" />
<path fill="#b8b8b9" opacity="1.00" d=" M 114.73 196.68 C 129.20 189.20 145.86 187.08 161.98 187.78 C 178.05 188.63 194.50 192.69 207.59 202.41 C 217.24 209.51 224.36 220.17 226.42 232.05 C 228.81 244.62 226.18 258.24 218.52 268.58 C 212.23 277.19 202.89 283.22 192.87 286.61 C 190.06 287.51 187.09 287.99 184.46 289.41 C 194.23 291.02 204.19 292.95 212.75 298.24 C 222.27 303.96 229.94 313.11 232.83 323.95 C 237.33 340.59 233.75 359.42 222.84 372.88 C 213.76 384.23 200.48 391.55 186.64 395.44 C 168.90 400.35 150.00 400.59 131.99 397.03 C 115.53 393.59 99.46 385.37 89.24 371.70 C 84.63 365.35 80.57 358.05 80.52 350.00 C 80.29 344.16 82.59 337.89 87.69 334.68 C 96.81 329.00 110.73 331.14 116.14 340.95 C 120.00 348.01 124.54 355.11 131.66 359.28 C 140.08 364.45 150.33 365.68 160.03 365.09 C 169.95 364.48 180.23 360.47 186.30 352.28 C 192.27 344.40 192.80 333.39 189.34 324.37 C 186.51 317.06 180.03 311.68 172.79 309.05 C 163.63 305.47 153.65 305.73 143.99 305.69 C 138.85 305.73 133.26 304.07 130.25 299.62 C 125.78 293.00 126.89 282.43 133.97 278.04 C 138.73 274.95 144.62 275.51 150.02 275.45 C 158.29 275.48 166.86 274.30 174.04 269.93 C 179.91 266.51 184.47 260.80 186.13 254.17 C 188.42 244.80 186.18 233.77 178.55 227.39 C 170.97 220.99 160.44 219.76 150.88 220.46 C 141.85 221.06 132.87 225.04 127.24 232.28 C 122.44 237.78 120.77 245.39 115.40 250.44 C 111.05 254.56 104.61 255.23 98.91 254.55 C 93.83 254.02 88.77 251.26 86.44 246.57 C 83.50 240.85 84.33 234.04 85.95 228.06 C 90.83 214.28 101.78 203.18 114.73 196.68 Z" />
</g>
<g id="#ff8841ff">
<path fill="#ff8841" opacity="1.00" d=" M 346.42 192.46 C 355.27 188.34 365.55 188.31 374.95 190.36 C 382.98 192.18 390.64 196.94 394.64 204.31 C 397.72 209.65 398.45 215.93 398.46 221.99 C 398.45 255.94 398.46 289.89 398.46 323.83 C 405.30 324.17 412.66 322.74 419.06 325.86 C 430.32 331.42 430.24 350.53 418.80 355.86 C 412.43 358.77 405.25 357.44 398.49 357.74 C 398.31 365.14 398.72 372.57 398.25 379.97 C 397.85 386.32 394.42 392.66 388.59 395.55 C 381.90 398.85 373.46 398.77 366.96 395.05 C 361.34 391.82 358.43 385.31 358.21 379.02 C 357.91 371.93 358.18 364.84 358.08 357.75 C 333.03 357.71 307.98 357.78 282.94 357.71 C 275.66 357.73 267.97 355.58 262.91 350.09 C 257.83 344.80 256.25 337.06 257.11 329.96 C 258.16 318.59 264.37 308.70 269.85 298.99 C 286.24 270.78 304.45 243.68 322.60 216.59 C 328.96 207.25 335.96 197.50 346.42 192.46 M 354.70 227.74 C 333.10 259.30 311.31 290.92 293.66 324.92 C 315.42 325.03 337.18 324.94 358.93 324.96 C 358.87 290.77 359.06 256.57 358.83 222.38 C 357.33 224.06 355.95 225.85 354.70 227.74 Z" />
</g>
</svg>
