<svg xmlns="http://www.w3.org/2000/svg" width="504" height="425.333" viewBox="0 0 378 319" ><path fill="hsl(44, 98%, 61%)" d="M60.53 31.4c16.05-13.13 38-18.49 58.35-14.82 5 1.17 10.38 2 14.71 4.9-5.05 1.1-10.31 1.66-15 3.96-.05.02-.15.06-.2.09l-4.76 1.96-.35.15-.51.23-1.08.63-3.11 1.91-.29.17-.43.25-1.08.47c-4.73 2.91-8.99 6.49-13.15 10.16l-.17.17C90.72 44.8 88 48 85.58 51.41c-.03.05-.1.15-.13.2l-1.84 2.81c-.07.11-.21.35-.28.46l-.49.88-.79 1.74-.39.72c-.07.14-.21.4-.28.53l-.29.54-.51 1.2c-3.81 8.27-5.02 17.36-5.62 26.36-3.13 1.16-6.28 2.26-9.32 3.62-.06.03-.18.08-.24.11-10.38 5.21-19.79 12.86-25.65 23.01l-1.18 1.48C26.99 86.35 36.02 50.56 60.53 31.4z"/>
<title>Windy</title><path fill="#e6e8ef" d="M133.59 21.48c16.56-2.66 34.11-.23 48.95 7.77 10.97 5.64 20.24 14.38 26.81 24.78 13.82-8.52 31.65-10.38 46.76-4.27 14.76 5.62 26.44 19.46 28.21 
35.33 15.88 2.6 31.3 10.63 40.89 23.81 9.5 13.37 12.45 31.6 6.35 47-8.65 22.08-32.32 35.91-55.57 35.9-59.66-.04-119.32.1-178.98.07-8.07.02-16.23-.65-23.94-3.18-15.45-4.94-29.2-16.12-35.7-31.17-6.3-13.96-4.43-30.51 2.38-43.93 5.86-10.15 15.27-17.8 25.65-23.01.06-.03.18-.08.24-.11 3.04-1.36 6.19-2.46 9.32-3.62.6-9 1.81-18.09 5.62-26.36l.51-1.2.29-.54.28-.53.39-.72.79-1.74.49-.88c.07-.11.21-.35.28-.46l1.84-2.81c.03-.05.1-.15.13-.2C88 48 90.72 44.8 93.46 41.63l.17-.17c4.16-3.67 8.42-7.25 13.15-10.16l1.08-.47.43-.25.29-.17 3.11-1.91 1.08-.63.51-.23.35-.15 4.76-1.96c.05-.03.15-.07.2-.09 4.69-2.3 9.95-2.86 15-3.96m14.78 51.94c-6.31.53-12.67 2.35-17.83 6.12-4.58 3.44-8.26 8.6-8.53 14.47-.17 2.45 1.74 4.48 3.91 5.3 2.87.69 6.2-1.4 6.51-4.41.52-4.73 4.8-7.92 8.98-9.4 7.24-2.41 15.14-2.54 22.53-.75 9.71 2.08 17.72 8.43 27.15 11.31 14.5 4.76 31.22 3.46 44.26-4.73 4.39-2.71 8.6-6.37 10.37-11.36 1.38-3.54-2.03-7.58-5.76-6.73-3.88.19-4.13 4.99-6.9 6.84-10.78 8.74-26.21 10.41-39.12 5.88-8.6-2.92-16.09-8.46-24.94-10.75-6.68-2-13.72-2.24-20.63-1.79m90.96 35.09c-1.68.32-2.81 1.79-3.5 3.25-1.58 3.34-4.87 5.35-7.97 7.09-11.2 6.09-25.15 6.28-36.79 1.27-6.33-2.38-11.99-6.24-18.38-8.48-10.79-3.79-22.82-4.43-33.8-1.05-7.31 2.3-14.18 7.66-16.32 15.28-.69 2.44-1.09 5.64 1.18 7.39 2.67 2.85 7.95 1.09 8.62-2.68.25-3.89 3.19-6.98 6.53-8.65 6.17-2.94 13.36-3.66 20.09-2.72 8.65.71 16.31 5 23.9 8.82 14.45 7.29 32.15 8.33 46.99 1.55 6.38-3.02 12.98-7.24 15.75-14.04 1.7-3.84-2.33-8.24-6.3-7.03m-96.81 36.37c-9.55 1.89-19.36 8.77-20.46 19.1-.88 4.22 4.55 7.78 8 5.12 3.19-1.88 1.9-6.2 4.53-8.56 5.91-6.33 15.42-6.59 23.48-6.16 13.49.73 23.98 10.5 36.87 13.39 15.21 3.92 32.49 1.04 44.78-9.02 2.89-2.55 5.69-5.76 6.28-9.7.21-4.15-5.14-7.2-8.44-4.38-1.91 1.72-2.38 4.74-4.72 6.2-7.26 5.68-16.65 8.46-25.85 7.9-9.22.26-17.75-3.86-25.73-8.01-11.71-6.34-25.67-8.84-38.74-5.88z"/>
<path d="M148.37 73.42c6.91-.45 13.95-.21 20.63 1.79 8.85 2.29 16.34 7.83 24.94 10.75 12.91 4.53 28.34 2.86 39.12-5.88 2.77-1.85 3.02-6.65 6.9-6.84 3.73-.85 
7.14 3.19 5.76 6.73-1.77 4.99-5.98 8.65-10.37 11.36-13.04 8.19-29.76 9.49-44.26 4.73-9.43-2.88-17.44-9.23-27.15-11.31-7.39-1.79-15.29-1.66-22.53.75-4.18 
1.48-8.46 4.67-8.98 9.4-.31 3.01-3.64 5.1-6.51 4.41-2.17-.82-4.08-2.85-3.91-5.3.27-5.87 3.95-11.03 8.53-14.47 5.16-3.77 11.52-5.59 17.83-6.12zm90.96 
35.09c3.97-1.21 8 3.19 6.3 7.03-2.77 6.8-9.37 11.02-15.75 14.04-14.84 6.78-32.54 5.74-46.99-1.55-7.59-3.82-15.25-8.11-23.9-8.82-6.73-.94-13.92-.22-20.09 
2.72-3.34 1.67-6.28 4.76-6.53 8.65-.67 3.77-5.95 5.53-8.62 2.68-2.27-1.75-1.87-4.95-1.18-7.39 2.14-7.62 9.01-12.98 16.32-15.28 10.98-3.38 23.01-2.74 33.8 
1.05 6.39 2.24 12.05 6.1 18.38 8.48 11.64 5.01 25.59 4.82 36.79-1.27 3.1-1.74 6.39-3.75 7.97-7.09.69-1.46 1.82-2.93 3.5-3.25zm-96.81 36.37c13.07-2.96 
27.03-.46 38.74 5.88 7.98 4.15 16.51 8.27 25.73 8.01 9.2.56 18.59-2.22 25.85-7.9 2.34-1.46 2.81-4.48 4.72-6.2 3.3-2.82 8.65.23 8.44 4.38-.59 3.94-3.39 
7.15-6.28 9.7-12.29 10.06-29.57 12.94-44.78 9.02-12.89-2.89-23.38-12.66-36.87-13.39-8.06-.43-17.57-.17-23.48 6.16-2.63 2.36-1.34 6.68-4.53 8.56-3.45 
2.66-8.88-.9-8-5.12 1.1-10.33 10.91-17.21 20.46-19.1z" fill="#00a4b4"/></svg>