<?xml version="1.0" encoding="UTF-8" ?>
<!DOCTYPE svg PUBLIC "-//W3C//DTD SVG 1.1//EN" "http://www.w3.org/Graphics/SVG/1.1/DTD/svg11.dtd">
<svg id="weather34 31" width="378pt" height="319pt" viewBox="0 0 378 319" version="1.1" xmlns="http://www.w3.org/2000/svg">
<g id="#f05e40">
<path fill="#bbb" opacity="1" d=" M 167.71 4.44 C 168.14 4.65 168.99 5.06 169.42 5.27 C 173.38 5.25 177.19 6.42 181.11 6.81 C 194.14 9.98 206.75 15.38 217.54 23.45 C 233.85 35.37 246.11 52.65 252.16 71.91 C 259.96 95.79 257.25 122.58 245.84 144.85 C 235.67 164.77 218.17 180.74 197.52 189.30 C 180.72 196.45 161.92 198.28 143.94 195.43 C 129.12 192.88 115.06 186.48 102.88 177.72 C 117.26 178.43 131.81 176.47 145.19 171.04 C 169.06 161.63 188.90 142.31 198.63 118.53 C 207.22 98.27 208.18 75.00 201.91 53.96 C 197.06 37.82 187.92 22.97 175.57 11.49 C 173.18 8.88 170.02 7.13 167.71 4.44 Z" />
</g>
</svg>