<svg xmlns="http://www.w3.org/2000/svg" width="504" height="425.333" viewBox="0 0 378 319"><path fill="#bbb" d="M58.84 32.83c19.63-17.2 49.07-22.21 73.27-12.43L131 21.58l-5.6 1.37c-2.27-.16-4.5.27-6.1 2.01l-.33.04c-1.53.04-2.87.81-4.08 1.68-3.55 1.69-7.08 3.46-10.29 5.74-.05.04-.15.11-.21.14l-2.17 1.53c-1.26.07-2.08.68-2.48 1.85-4.58 3.59-8.76 7.72-12.18 12.44-.04.05-.12.16-.16.21-1.39 1.78-2.69 3.64-3.82 5.6-.07.13-.21.37-.29.5-1.36 2.27-2.54 4.65-3.45 7.13l-.92 2.24.03.73-1.02 2.22-.02.79-.88 2.28-.27 1.68c-.95.92-1.19 2.02-.72 3.32-.05.5-.17 1.51-.23 2.01-1.41 2-1.03 4.53-.67 6.8a6.04 6.04 0 0 1-.91 3.25l-2.35.76-.77.09c-1.62-.08-3.01.78-4.21 1.77-4.91 2.07-9.56 4.82-13.68 8.22-1.22.15-2.04.79-2.46 1.93-2.06 1.83-4 3.78-5.83 5.84-1.16.4-1.78 1.22-1.88 2.46l-1.49 2.18c-.04.05-.11.15-.14.2l-1.55 2.42-1.55 1.99c-4.12-11.88-5.96-24.66-3.97-37.16 2.48-17.25 11.02-33.79 24.49-45.01z"/><path fill="#565f67" d="M132.11 20.4l.09-.09 1.39 1.16c16.6-2.63 34.19-.21 49.04 7.84 10.92 5.63 20.17 14.34 26.71 24.72 13.6-8.36 31.05-10.34 46.01-4.56 15.14 5.45 27.16 19.49 28.99 35.64 15.85 2.57 31.21 10.59 40.81 23.7 9.36 13.12 12.4 30.92 6.76 46.16-8.33 22.6-32.35 36.86-55.94 36.83-58.65-.05-117.31.1-175.96.07-8.03.07-16.16-.19-23.95-2.31-18.15-4.75-34.39-18.21-40.34-36.29-4.4-13.3-1.84-27.88 4.15-40.26l1.55-2.42c.03-.05.1-.15.14-.2l1.49-2.18c1.59-.09 2.21-.92 1.88-2.46 1.83-2.06 3.77-4.01 5.83-5.84 1.57.32 2.39-.32 2.46-1.93 4.12-3.4 8.77-6.15 13.68-8.22 1.69.9 3.86.26 4.21-1.77l.77-.09 2.35-.76a6.04 6.04 0 0 0 .91-3.25c1.58-1.96 1.45-4.55.67-6.8l.23-2.01c1.23-.86 1.47-1.97.72-3.32l.27-1.68.88-2.28.02-.79 1.02-2.22-.03-.73.76-.38.16-1.86c.91-2.48 2.09-4.86 3.45-7.13.08-.13.22-.37.29-.5 1.13-1.96 2.43-3.82 3.82-5.6.04-.05.12-.16.16-.21 3.42-4.72 7.6-8.85 12.18-12.44 1.54.34 2.37-.28 2.48-1.85l2.17-1.53c.06-.03.16-.1.21-.14 3.21-2.28 6.74-4.05 10.29-5.74 1.51 1.15 4.01.37 4.08-1.68l.33-.04 2.62.65c1.2-.83 2.33-1.75 3.48-2.66 1.85-.51 3.73-.91 5.6-1.37l1.11-1.18m14.27 53.2c-8.79 1.14-17.99 5.21-22.34 13.35-1.68 3.31-3.5 8.31-.13 11.17 2.83 2.88 8.18.61 8.54-3.26.61-5 5.24-8.22 9.69-9.63 10.89-3.33 22.88-1.54 32.91 3.59 6.34 3.32 12.79 6.62 19.79 8.32 15.12 3.84 32.25 1.15 44.57-8.71 3.09-2.7 6.32-6.14 6.6-10.44-.11-3.95-4.91-6.11-8.13-4.11-2.19 1.87-2.83 5.04-5.33 6.66-9.15 6.93-21.4 9.33-32.58 7.03-10.15-1.69-18.5-8.24-28.1-11.46-8.15-2.93-16.94-3.36-25.49-2.51m-1.17 35.51c-9.06 1.26-18.54 6.12-22.05 15.04-1.2 3.03-2.16 7.49 1.14 9.57 3.09 2.41 7.93-.05 8.21-3.85.63-5.03 5.47-7.96 9.87-9.41 7.62-2.27 15.87-2.08 23.5.06 9.51 2.68 17.57 8.9 27.14 11.43 12.72 3.77 26.82 2.67 38.72-3.25 5.5-2.88 10.99-6.73 13.65-12.54.99-2.09.76-4.92-1.15-6.4-2.27-2.32-6.75-1.68-8.05 1.36-1.94 4.3-6.22 6.73-10.28 8.7-7.7 3.7-16.55 4.56-24.94 3.24-7.68-1.29-14.68-4.93-21.52-8.49-10.48-5.31-22.63-7.42-34.24-5.46m-1.82 35.59c-8.12 1.56-16.38 6.06-19.86 13.92-1.32 3-2.61 7.14.03 9.83 2.58 2.92 7.96 1.35 8.7-2.43.41-3.98 3.27-7.21 6.77-8.91 6.87-3.33 14.82-3.27 22.23-2.37 9.48 1.37 17.39 7.06 26.1 10.57 15.47 6.32 34.06 5.56 48.27-3.57 4.36-2.81 8.68-6.52 10.21-11.66 1.07-3.74-3.17-7.74-6.8-6.18-3.08.92-3.28 4.71-5.65 6.48-9.37 7.96-22.56 9.88-34.35 7.59-6.79-1.46-12.96-4.74-19.08-7.88-11.15-5.73-24.24-7.95-36.57-5.39z"/><path fill="#623e38" opacity=".76" d="M119.3 24.96c1.6-1.74 3.83-2.17 6.1-2.01l-3.48 2.66-2.62-.65z"/><path fill="#72504c" opacity=".85" d="M114.89 26.68c1.21-.87 2.55-1.64 4.08-1.68-.07 2.05-2.57 2.83-4.08 1.68z"/><path fill="#8e4a3c" opacity=".78" d="M104.39 32.56c.06-.03.16-.1.21-.14-.05.04-.15.11-.21.14z"/><path fill="#7a514b" opacity=".85" d="M99.74 35.94c.4-1.17 1.22-1.78 2.48-1.85-.11 1.57-.94 2.19-2.48 1.85z"/><path fill="#874a3f" opacity=".78" d="M87.4 48.59l.16-.21-.16.21z"/><path fill="#81493f" opacity=".77" d="M83.29 54.69l.29-.5-.29.5z"/><path fill="#704a47" opacity=".79" d="M78.92 64.06l.92-2.24-.16 1.86-.76.38z"/><path fill="#5e4a4b" opacity=".79" d="M77.93 67.01l1.02-2.22-1.02 2.22z"/><path fill="#664946" opacity=".77" d="M77.03 70.08l.88-2.28-.88 2.28z"/><path fill="#644a47" opacity=".78" d="M76.04 75.08c-.47-1.3-.23-2.4.72-3.32.75 1.35.51 2.46-.72 3.32z"/><path d="M146.38 73.6c8.55-.85 17.34-.42 25.49 2.51 9.6 3.22 17.95 9.77 28.1 11.46 11.18 2.3 23.43-.1 32.58-7.03 2.5-1.62 3.14-4.79 5.33-6.66 3.22-2 8.02.16 8.13 4.11-.28 4.3-3.51 7.74-6.6 10.44-12.32 9.86-29.45 12.55-44.57 8.71-7-1.7-13.45-5-19.79-8.32-10.03-5.13-22.02-6.92-32.91-3.59-4.45 1.41-9.08 4.63-9.69 9.63-.36 3.87-5.71 6.14-8.54 3.26-3.37-2.86-1.55-7.86.13-11.17 4.35-8.14 13.55-12.21 22.34-13.35zm-1.17 35.51c11.61-1.96 23.76.15 34.24 5.46 6.84 3.56 13.84 7.2 21.52 8.49 8.39 1.32 17.24.46 24.94-3.24 4.06-1.97 8.34-4.4 10.28-8.7 1.3-3.04 5.78-3.68 8.05-1.36 1.91 1.48 2.14 4.31 1.15 6.4-2.66 5.81-8.15 9.66-13.65 12.54-11.9 5.92-26 7.02-38.72 3.25-9.57-2.53-17.63-8.75-27.14-11.43-7.63-2.14-15.88-2.33-23.5-.06-4.4 1.45-9.24 4.38-9.87 9.41-.28 3.8-5.12 6.26-8.21 3.85-3.3-2.08-2.34-6.54-1.14-9.57 3.51-8.92 12.99-13.78 22.05-15.04zm-1.82 35.59c12.33-2.56 25.42-.34 36.57 5.39 6.12 3.14 12.29 6.42 19.08 7.88 11.79 2.29 24.98.37 34.35-7.59 2.37-1.77 2.57-5.56 5.65-6.48 3.63-1.56 7.87 2.44 6.8 6.18-1.53 5.14-5.85 8.85-10.21 11.66-14.21 9.13-32.8 9.89-48.27 3.57-8.71-3.51-16.62-9.2-26.1-10.57-7.41-.9-15.36-.96-22.23 2.37-3.5 1.7-6.36 4.93-6.77 8.91-.74 3.78-6.12 5.35-8.7 2.43-2.64-2.69-1.35-6.83-.03-9.83 3.48-7.86 11.74-12.36 19.86-13.92z" fill="#00a4b4"/><path fill="#6d4b47" opacity=".8" d="M75.14 83.89c-.36-2.27-.74-4.8.67-6.8.78 2.25.91 4.84-.67 6.8z"/><path fill="#6e4a45" opacity=".78" d="M71.88 87.9l2.35-.76-2.35.76z"/><path fill="#6e504d" opacity=".85" d="M66.9 89.76c1.2-.99 2.59-1.85 4.21-1.77-.35 2.03-2.52 2.67-4.21 1.77z"/><path fill="#78504b" opacity=".85" d="M50.76 99.91c.42-1.14 1.24-1.78 2.46-1.93-.07 1.61-.89 2.25-2.46 1.93z"/><path fill="#7b514a" opacity=".85" d="M43.05 108.21c.1-1.24.72-2.06 1.88-2.46.33 1.54-.29 2.37-1.88 2.46z"/><path fill="#7b483f" opacity=".76" d="M41.42 110.59c.03-.05.1-.15.14-.2-.04.05-.11.15-.14.2z"/></svg>