<svg id="weather34 nt_storm 3" width="302pt" height="340" viewBox="0 0 302 255" xmlns="http://www.w3.org/2000/svg"><path fill="#565f67" stroke="#565f67" 
stroke-width=".1" d="M81.5 27.7c21.6-16.2 54-15.5 74.8 2 4.5 3.7 8.3 8.2 11.4 13.2 15-10 36.8-8.2 49.8 4.5 5.6 5.3 9.2 12.6 10 20.3 14.8 2 28.8 10.6 35.8 24 6.3 11.3 6.2 26 0 37.2-7.8 
14-23.2 22.8-39 23.8-5.7.3-11.5 0-17.3.2H87c-7.7-.2-15.4.6-23-1-13.3-2.7-25.6-11-32-23-6-10.2-6.6-23-2-34 5.4-12.8 17.3-22.2 30.6-25.7C60 53 68.4 37 81.6 27.7m106.3 58c-6 2.7-10.2 
8.8-10.2 15.3-5.7 1.8-10.8 6.7-10.8 13-.3 8 7.4 14 15 14h47c4 0 8-1 11.2-3.8 4.4-3.5 6-10 3.7-15.2-2.2-4.7-7-7.4-11.8-8.4-1-2.5-1.8-5.2-4-7-4.3-3.7-10.7-3.8-15.6-1-5.2-8-16.2-10.8-24.7-6.8z"/>
<path fill="#00a4b4" stroke="#999" stroke-width=".1" d="M188 85.8c8.4-4 19.4-1 24.6 6.7 5-2.7 11.3-2.6 15.6 1.2 2.2 1.7 3 4.4 4 7 4.8 1 9.6 3.6 11.7 8.3 2.3 5.2.6 11.7-3.8 15.2-3 2.7-7.2 
4-11.2 3.8h-47c-7.6 0-15.3-6-15-14 0-6.3 5-11.2 10.8-13 0-6.5 4-12.6 10-15.2z"/>
<path fill="#777" d="M76.35 155.46c2.49-1.25 5.61-.05 6.93 2.33 6.74 10.92 13.27 21.96 19.99 32.89 1.09 1.87 2.53 3.96 1.8 6.23-.73 3.12-4.66 4.73-7.44 3.27-1.88-1.07-2.89-3.08-4-4.84-6.46-10.84-13.15-21.54-19.54-32.41a5.24 5.24 0 0 1 2.26-7.47zM111.3 155.4c2.5-1.17 5.53.08 6.81 2.43 11.42 18.65 22.64 37.42 34.04 56.08 1.04 1.78 2.35 3.77 1.75 5.95-.64 2.92-4.09 4.67-6.85 3.65-2.02-.68-3.11-2.67-4.19-4.35-11.25-18.74-22.7-37.37-33.91-56.13a5.25 5.25 0 0 1 2.35-7.63zM147.21 155.06c2.67-.61 5.04 1.27 6.21 3.52 6.87 11.44 13.9 22.78 20.68 34.27 2.39 3.5-.98 8.56-5.12 7.84-2.55-.21-4.01-2.53-5.21-4.49-6.59-11.03-13.36-21.96-19.92-33-2.17-2.97-.28-7.59 3.36-8.14zM180.4 155.65c2.63-1.59 6.1-.27 7.46 2.36 11.5 18.89 22.92 37.83 34.4 56.73 1.37 2.01 2.04 4.8.45 6.9-2.11 3-7.1 2.79-8.89-.46-11.72-19-23.15-38.18-34.77-57.25-2.02-2.55-1.66-6.68 1.35-8.28zM216.18 155.23c2.59-.96 5.36.6 6.58 2.92 6.94 11.43 13.9 22.85 20.77 34.33 2.06 2.79.6 7.31-2.88 8.01-2.8 1-5.47-1.07-6.72-3.44-6.78-11.22-13.61-22.4-20.35-33.64-2.11-2.79-.79-7.19 2.6-8.18z"/>
<path fill="#d05f2d" stroke="#d05f2d" stroke-width=".1" d="M104.2 153H131l-1.5 2-3 4.3 5.4.7 6.8 1 15.7 2-10 9c-1.4 1.5-3 2.8-4.4 
4.2l-12 11-4.4 4c-3 3-6.3 6-9.5 8.8l-24.8 22.8 18-29 10-15.5c1-2 2.3-4 3.5-6l-7.2-1-18.5-2.2h-.6c3-5.4 6.5-10.6 9.8-16z"/>
<path fill="#d05f2d" stroke="#d05f2d" stroke-width=".1" d="M169 153h21.6l-4.5 6.3h-.3v.6l-2 2.8 4.5.6c5.8.6 11.6 2 17.5 2l.4.2-11.4 10.5c-1.5 1.5-3 2.8-4.4 
4L178.4 191l-4.8 4.4-5.3 4.8-14.3 13 8.2-13c2.3-3.6 4.6-7.2 6.8-11h1l-.8-1 .7-.3 3.5-5.6 5.7-9c-3.6-.4-7.3-1-11-1.3l-7-.8-3-.5c.4-1 1-1.8 1.6-2.7 1.2-2 2.3-4 3.6-5.8l5.6-9z"/>
</svg>