<svg xmlns="http://www.w3.org/2000/svg" width="100%" height="100%" viewBox="0 0 812 448" fill-rule="evenodd" stroke-linejoin="round" stroke-miterlimit="1.41421"><style><![CDATA[.B{fill-rule:nonzero}.C{fill-opacity:.98}]]></style><g fill="#f26c4f" class="B"><path d="M588.93 43h15.86l-.04 5.72-15.8-.02-.02-5.7zm-272.7 46.16c3.2-.77 6.53-.34 9.8-.42l152 .05c3.98.07 8-.33 11.95.25 2.6.65 4.16 3.37 3.87 5.96l.01 124.04c-.02 2.4-.6 5.65-3.26 6.46-3.84.57-7.74.15-11.6.24-51.97.03-103.94-.05-155.92.03-2.67-.17-5.64.52-8.1-.82-3.1-2.77-2.48-7.27-2.5-11V95c-.2-2.5 1.57-4.8 3.75-5.84m2.2 11.3l3.63-1.3.38 1.74-2.32.3 3.07 2.1c-1.6 1.02-3.35.08-5-.06 1.17 1.26 2.92 3.03 4.73 1.73 1.47-.62.8-2.17.75-3.38-.23-1.05.37-2.82-1.04-3.18-1.86-.97-3.25.7-4.2 2.06m11.87.52c.2 1.7.03 3.63 1.45 4.9.2-2.72.16-5.45-.04-8.16-1.28.87-4 1.97-1.4 3.26m3.25 2.45l4.64 1.46 1.14-1.04c-.42-2-.78-4.03-1.14-6.04-2.5.9-3.52 3.44-4.64 5.62m9.77-4.33c-.22 1.28-.4 2.57-.55 3.86a18.62 18.62 0 0 1 9.6-2.82c-2.62-2.28-6.02-.52-9.06-1.04m18.98-.84c-3.06 1.46-2.22 7.7 1.63 7.13 3.36-1.36 2.45-8.3-1.63-7.13m4.28 1.93l2.3.22c.01 1.82.07 3.64.18 5.46 2.24-2.1 1.1-5.36 1.24-8.04-1.28.74-2.52 1.52-3.73 2.36m5.5 7.25c2.03-3.06 2.73-6.74 3.2-10.3-2.4 2.86-3.04 6.7-3.2 10.3m3.35-7.4l2.34.42c.1 1.9-.18 4 1.23 5.5.4-2.7.37-5.4.34-8.1a114.39 114.39 0 0 0-3.91 2.17m5.15.14l2.35.25c.01 1.82.06 3.64.16 5.46 2.28-2.1 1.1-5.38 1.26-8.06a76.64 76.64 0 0 0-3.77 2.35m-55.06.07c-.5 1.62.05 2.17 1.68 1.64.5-1.63-.06-2.18-1.68-1.64m85.2 2.7c1.74-.56 3.48-2.44 5.34-1.03-.56 3.06-3.34 4.97-5.07 7.37l5.76.24c.25-.3.77-.86 1.03-1.15l-4.54.05c1.46-2.2 5.93-4.98 2.97-7.7-2.12-1.72-4.5.25-5.5 2.22m7.7-.16l3-.62c-.06 2.7-.08 5.45.5 8.12 1.34-3.36.77-7.02.6-10.53-1.43.94-2.82 1.92-4.1 3.03m13.94-2.5c-1.54 2.33-3 4.7-4.33 7.16l4.5.12.74 2.23 2.07-2.65c-1.47-1.96-1.06-4.46-1.13-6.75l-1.84-.1m19 2.62l3.06-1c.18 2.65-.86 5.82 1.22 7.96.26-3.22.45-6.47.02-9.68-1.75-1.08-3.17 1.7-4.3 2.73m6.06-.32l3.15-.53c.2 2.6-.97 5.78 1.23 7.82.3-3.48.2-6.96-.03-10.43-1.53.92-3 1.94-4.35 3.14m9.75-2.2c1.7.8 3.55.82 5.38 1-1.5 2.7-2.98 5.45-4.04 8.36 3.17-2.3 4.26-6.22 5.8-9.63-2.4-.01-4.77.01-7.14.26m-141.45 3.66c.18 3.35 2.96-1.58 0 0m21.33 3.42l.4 1.53-1.63 2.24c1-.47 2-1 2.96-1.56l1.2 1.07 1.25-1.5c8.74 1.4 17.15 6.48 20.9 14.7 1.34 2.34 1.27 5.94 4.43 6.66-1.66-11.07-10.6-20.17-21.36-22.8-2.03-.36-4.08-.65-6.12-.93l-.6.92-.55-.6-.85.25m117.4-.02c-.55 1.6-.01 2.17 1.64 1.67.54-1.6 0-2.17-1.64-1.67M321.5 131.7c2.95-.77 2.83-4.1 3.94-6.37 3.15-8.34 11.1-13.8 19.54-15.78l1-2.16c-12.42 1.38-23.23 11.78-24.47 24.3m103.75-23.85c-.46 1.63.12 2.16 1.73 1.6.46-1.64-.12-2.17-1.73-1.6m-41.58 14.9c2.5-.76 5.65-1.8 6.12-4.8 1.08-3.72-2.2-7.6-6.03-7.26-.47 4-.2 8.05-.1 12.07M411 112.34v5.38l4.22.05-.4-2.6c.94 1.02 1.95 2 2.95 2.98l-.14-6.26-.86 3.98-2.52-3.54-3.24.02m8.5.22c-1.7.6.07 4.2 1.18 1.7.2-.2.63-.65.84-.87l2.2.37c-.95-1.16-2.87-2.75-4.23-1.2m4.8.01c-.8 1.27-1.2 4.22.33 4.9.78-1.28 1.13-4.2-.33-4.9m1.76-.7l-.05 6.4c2.16-.23 4.43-.58 5.18-3.02l-4.03 1.62.52-3.62 3.43 1.66c-.6-2.57-2.87-2.86-5.05-3.04m5.58.15l-.06 6.03 3.7-.13-2.1-1.2.14-3.3 1.86-1.25-3.54-.15m16.1 5.25c1.6 2.06 3.88.04 5.2-1.23l1.35 2.36c1.14-.5 2.78-.38 3.46-1.6a55.72 55.72 0 0 0 .47-4.27l-1.42.14-1.06 4.95c-.84-1.7-1.35-3.55-1.76-5.4l-1.42 1.97-1.8-2.6c-2.77.15-5.36 3.27-3.03 5.66M459.1 112l1.52 6.6c.82-2.13 1.4-4.35 1.94-6.57-.86 0-2.6-.02-3.46-.02m4.1 1.88l3.75 3.15-3.8-.75 1.18 1.63 3.46-.85a64.25 64.25 0 0 0 3.18 1.32c1.8-.42 4.8-.74 4.24-3.37.54-2.6-2.4-2.8-4.16-3.3l-.02 1.04c-1.33-.02-3-.93-3.93.47-.8-2.84-2.73-.62-3.9.66m12.8-1.78l-.05 5.87 4.2.04-1.94-1.34.17-3.24 1.72-1.33c-1.38-.01-2.75 0-4.1 0m-67.8 3c.04 3.34 3.02-1.46 0 0m12.45-.82l1.36 2.84-3.63-.8c.93 1.2 2.76 2.6 4.2 1.27 1.9-1.36-.48-3.08-1.92-3.3m15.8.88c.15 1.42.8 1.66 1.97.73-.16-1.42-.82-1.66-1.97-.73m7.8-.01c.2 3.33 2.94-1.6 0 0m37.02-.03c.17 3.33 2.97-1.57 0 0m-71.7 8.02c1.2-.65 2.36-1.33 3.53-2.02l2.18 1.45-3.48 2.44 3.6 1.05c-.6 3.56-3.94 2-6.07 1.04 1.5 3.48 5.9 3.28 7.57.08l-1.66-2.24c.08-1.17 1.46-2.63.33-3.6-1.7-2.45-5.42-.83-6 1.8m8.5.8c.5 2.63 3.74 2.74 5.8 2.14l-2 2.4-4.2-1.17c1.1 1.46 2.86 3.15 4.87 2.23 2.82-1.57 2.94-5.87 1.2-8.27-1.8-2.6-6.54-.46-5.66 2.66m7.6-.26l2.33 1.36 2.3-1.37c-.33-1.33-.36-4.02-2.36-3.67-1.96-.2-1.87 2.4-2.27 3.68m5.57.85l-.18 1.12c1.48-1.8 2.83-3.73 3.87-5.83-1.67 1.12-3.56 2.5-3.7 4.7m22.43-3.85l-.6 5.35c1.62-.2 3.54-1.4 4.9.1.22 1.4-.8 2.4-1.54 3.45l-3.73-2.48c.4 2.6 3.52 4.5 5.66 2.4 1.93-1.5.62-3.86-.24-5.52l-3.95.18c.7-2.48 3.44-2.13 5.42-2.77-1.93-.56-3.94-.64-5.93-.7m17.2 5.2l1.92-2.13c.8-1.66-.97-2.7-1.82-3.8-2.37 1.47-2.58 4.4-.1 5.94m-8.97-.78c-.27 1.2-1.16 2.42-.72 3.7 1.42 1.8 4.44 2.24 5.98.35 1.32-1.18-.02-2.7-.34-4 .44-1.43.78-3.6-1.05-4.24-2.6-1.4-5.7 1.7-3.87 4.2m8.16 5.4c3.66-2.28 5.5-6.42 7.76-9.92-3.7 2.24-5.5 6.42-7.76 9.92m-129.56-7.97l-.6 7.95c2.04-.63 4.56-3 6.48-.92 1.76 1.9.3 5.4-2.3 5.33-1.8-.74-3.15-2.43-5.2-2.54 1.28 1.72 2.54 4.33 5.13 4.04 4.17.56 6.6-5.3 3.56-8-1.5-1.85-3.98-.9-5.95-.7l.5-3.7 5.96.02.5-1.48a435.04 435.04 0 0 0-8.08.02m10.74 8.56c-.01 2.92 2.58 5.9 5.67 5.27 3.84-.17 5.72-5.54 2.76-8.04-2-2.13-5-.7-7.3 0 .96-1.64 1.3-4.25 3.53-4.7 1.9.34 3.46 1.62 5.2 2.4-.7-2.66-3.38-4.8-6.2-3.72-3.62 1.14-4.04 5.6-3.67 8.8M427 130.1c2.26-1.03 3.6-3.16 4.2-5.5a19.19 19.19 0 0 0-4.21 5.5m4.85-4.14l.08 3.37c1.87.9 4.84.47 4.3-2.28-.42-2.53-2.7-1.88-4.38-1.1m43.7.54c-2 1.52.48 3.4 1.4 4.63a47.19 47.19 0 0 0 2.45-3.04c-.52-1.63-2.45-3.67-3.84-1.6m-93.1 6c-1 4.13 4.94 3.63 7.4 5-.7 1.64-1.37 3.3-1.9 4.98 1.65-1.2 1.9-3.34 2.67-5.1a66.76 66.76 0 0 1 1.72 1.66l-1.47 3.46c1.45-1.46 2-3.46 2.5-5.4l1.32.76-.54 4.86c.63-1.52 1.05-3.1 1.42-4.7 1.45-1.2 3.76-2.3 2.93-4.58-2.68-2.98-6.98-3.57-10.6-4.8-2.08.83-3.93 2.23-5.46 3.84m-54.66 2.16l4 1.66v-3.95l-4 2.3m46.06 2.37l2.82.06-.15-5.47c-2.72.62-2.8 3.05-2.67 5.4m-53.82-3.37l.8 3.05 3.3.06.78-3.17-4.88.06m114.45 2c-2.57.97-2.7 4.08-2.36 6.4.07 2.36 3.36 4.5 5.14 2.35 2.7-2.44 1.68-9.58-2.78-8.74m21.24 4.34c-.44 2.57 1.44 4.45 3.24 5.93 3.7-1.67 4.88-7.08 1.78-9.85-2.5-1.94-5.3 1.4-5.02 3.92m-30.45-1.22l3.03-1.36-.1 7.47 1.4-.1c-.04-3.22-.05-6.44-.33-9.65-1.47 1.05-2.84 2.23-3.98 3.63m14.2-.01l3.2-1.16c.12 2.67-.76 5.7.94 8.06.5-3.43.47-6.9.33-10.35-1.75.8-3.3 1.92-4.47 3.45m6.12-.25l3.26-.75-.22 7.03 1.54.03c.04-3.26.06-6.54-.56-9.75a101.23 101.23 0 0 0-4.02 3.44m-59.2-.04c-1.2.6-1.72 2.46-.9 3.54 1.76.75 2.7-3.3.9-3.54m-64.93.1c1.18 12.52 12.03 23.17 24.54 24.26-.06-2.34-2.4-2.37-3.96-3.02-8.04-2.13-14.8-8.6-17.28-16.53-.68-1.87-.94-4.24-3.3-4.7m51.6 5.4c-3.2 9.66-12.7 16.14-22.64 17.1l1.08 1.77c12.9-.7 24.06-11.87 25.2-24.7-2.94.5-2.66 3.7-3.64 5.82m-31.48-1.87l.45 6.32.98-2.52 3.2 2.38-2-3.33 1.76-3-2.46 1.98-1.92-1.83m5.88-.35c-.14 2.14-.2 4.3-.28 6.45l1.64-2.52.77 2.43 2.2-1.96 1.9 3.03c.58-2.2 1.24-4.43 2.42-6.4.08 1.74.1 3.48.1 5.23.78-.76 1.5-1.66 2.55-2.08l1.9 2.2a61.09 61.09 0 0 1 .27-6.05 3.88 3.88 0 0 1-2 2.1 7.64 7.64 0 0 1-2.85-1.42l-1.25-.08-1.92 4.74-.53-5.63c-.86 1.46-1.66 2.96-2.44 4.47-.83-1.5-1.62-3.03-2.5-4.5m105.27 1.53c-.53 1.63.03 2.18 1.66 1.65.5-1.62-.05-2.17-1.66-1.65m-120.72 4.7l4.73-.18-.1-1.03-2.5.24 1.34-3.15c-1.2 1.32-2.34 2.72-3.45 4.12m4.26 6.14l5.23-.7-2.94-.9.96-2.84c-1.17 1.4-2.24 2.9-3.25 4.43m96.77-2.52l-.1 5.22c1.4-.25 2.8-.23 4.16.2l.55-4.27c-1.4-.9-2.96-1.27-4.6-1.15m27.28-.02v6.03c1.6-.3 4.04-.43 4.23-2.53.92-2.63-2.28-3.42-4.23-3.5m-69.16.92c.2 1.85.2 3.78 1.25 5.4-2.1 1.2-2.87 2.98-1.7 5.2l-1.63 2.14c1.55 3.43 6.1 3.4 7.77.07l-1.66-2.25c.3-1.02.54-2.04.75-3.08-.86-.7-1.75-1.35-2.67-1.95 2.06-1.3 2.5-3.34 1.9-5.55l-4.02.01m5.43-.73l.1 6.23 3.5.06c-.68-.77-1.4-1.5-2-2.3l1.57-1.37-2.14-1 2.84-1-3.85-.63m4.36.04c.42 2.08.96 4.13 1.6 6.15a93.96 93.96 0 0 0 1.38-3.99l1.98 3.75c.7-1.93 1.36-3.86 1.93-5.83l-2.6 3.22-.44-3.26-2.1 3.07-1.74-3.1m36.57 5.15c1.7-.57 3.43-.66 5.06.22l4.67.13-.36-3 2.9 3.34c.46-2.04.7-4.16-.03-6.17l-.53 3.9-2.7-3.34-1.05.76-2.25-1.42c-.28 1.73-.62 3.45-.7 5.2-.42-1.94-1.4-3.66-2.42-5.32l-2.6 5.7m29.6-5.56l-1.43 5.24 1.9-.57 2.5 1.1c-.93-1.96-1.9-3.9-2.98-5.77m2.45.7l2.35 5.44 2.36-5.42c-1.56.46-3.17.5-4.7-.02m-68 11.35c1.66 2 4.33.56 6.43.44-.54-1.83-.45-4.37-2.5-5.28-2.7-1.55-6.34 2.45-3.92 4.84m-54.57-3.14l.05.22.1 3.96c.94-.45 1.85-.95 2.74-1.5a59.41 59.41 0 0 0-.15-4.43c-.93.56-1.83 1.15-2.73 1.75m96.28 3.56l3.17-1.18-.15 7.2 1.45.1c.02-3.3-.02-6.58-.5-9.83-1.4 1.15-2.75 2.38-3.98 3.7m10.23.04c1.62-.76 3.8-3.77 4.86-.76-.74 2.72-3.32 4.5-4.9 6.76 2.32-.01 4.66-.05 6.98-.26-1.5-.36-3-.64-4.5-.9 1.34-1.52 2.9-2.93 3.8-4.78.5-1.98-1.94-3.86-3.74-3.2-1.54.35-1.93 1.92-2.5 3.15m-134.1 1.66l1.87 5.67 1.6-3.67 1.86 3.7c.43-1.56.8-3.13 1.1-4.7.55 1.47 1.04 2.97 1.5 4.48l3.58.03.07-2.1 2.95 2.54.23-6.42h-1.13l-.38 3.1-1.96-2.87-5.32-.04.1.27-1.02 3.14c-.5-1.2-.95-2.44-1.63-3.55l-1.06 3.23-1.57-2.9c-.2.02-.58.08-.77.1m15.93-.1c-.3 1.88-.27 3.8-.3 5.7 1.8-.15 4.8.35 5.07-2.2.92-2.76-2.48-4.92-4.77-3.5m65.13-.06c1.45 2.78 4.64 2.87 7 1.15l-1.37-2c-.22 4.02-3.62 1-5.62.85m-2.66.73c-.44 1.64.14 2.16 1.75 1.54.42-1.65-.16-2.17-1.75-1.54m52.4 2.22c-.57 1.62-.03 2.18 1.62 1.7.55-1.63.01-2.2-1.62-1.7m-131.95 8.35l.03 33.83 71-.08c.4-11.26 0-22.54.12-33.8l-71.15.06m88 4.48l-.08 7.27c1.86.03 3.72-.23 5.42-1.03-.4-1.93-.72-3.88-1.3-5.75-1.34-.26-2.7-.35-4.04-.5m6.03 7.53c1.6-1.34 2.55-3.1 2.44-5.24l1 .27c.4 1.8 1.04 3.56 2.22 5.02-.45-2.75-1.47-5.34-2.58-7.88a40.91 40.91 0 0 0-3.1 7.83m6.98-7.48l-.08 6.75a59.25 59.25 0 0 0 1.3.06l.2-2.7 3.73 3.2-1.3-3.24 1.72-1.92c-1.37-1.78-3.43-2.22-5.57-2.15m9.12.1c-.03 2.52-.01 5.06.63 7.52l.98-3.46 3.4 2.88c-.83-1.77-.52-3.54.36-5.2-1.28-1.78-3.38-1.78-5.37-1.73m6.93.22c-.74 1.9-.8 4.34-.01 6.24 1.4-1.06 1.3-5.1.01-6.24m2.1 1.46c.77 1.86 3.02 2.5 4.23 4.08-1.63-.05-3.23-.17-4.85-.26 1.4.85 3.3 2.93 4.87 1.13 2.86-1.87-1.07-3.82-2.77-4.38l.24-1.44 3.97.8c-1.5-1.57-4.83-2.78-5.7.08m7.16 4.88c.75-1.96.76-4.47-.03-6.42-1.26 1.23-1.27 5.24.03 6.42m2.14-7c-.15 2.67-.4 5.42.47 8l.9-5.08c1.06 1.5 2.14 3 3.4 4.37l2.4-3.86c-.6 2.73 2.53 5.62 4.9 3.62 1.64-.95.66-3.02-.12-4.16l-.26 3.83c-3.7.64-4.7-3.7-2.04-5.63a126.55 126.55 0 0 0 3.93 1.11c-1.62-2-5.85-2.8-6.05.73l-2.03.7.17-3.03c-.26-.03-.8-.08-1.06-.1l.1 4.95-4.7-5.45m-40.74 13.36c.24 2.43 3.35 2.8 4.4 4.85-1.7-.25-3.35-.56-5.03-.83 1.37 1.87 5.24 2.76 5.9-.15-1.06-1.77-3-2.76-4.33-4.3l4.63.94c-1.27-2.12-4.08-3-5.56-.52m6.15 5.76l5.32-.03-3.46-1.6-.25-6.07c-2.77 1.54-1.3 5.13-1.6 7.7m7.07-6.88c-3.5 1.82-1.44 8.4 2.62 7 4.5-1.3 1.73-9.8-2.62-7m5.8-.7c.22 2.68.84 5.3 1.55 7.9l3.33-4.58c.23 1.64.44 3.37 1.32 4.82.66-2.06 1.2-4.16 1.73-6.26h.83c.8 1.7.65 3.68.87 5.53l4.67-.1-3.6-1.13v-5.46l-3.3.16-1.48 3.36-1.87-4.05c-.8 1.24-.9 2.7-1.02 4.13l-1.28-.08c-.55-1.43-1.1-2.85-1.76-4.23m13.86.17c1.15 2.5 2.17 5.06 2.86 7.73.5-2.48 1.36-4.88 2.8-6.98l-1.05-.17-1.8 2.38-2.8-2.96m-14.1 16.16l3.1-.98c-.06 2.64-.04 5.3.27 7.9 1.72-2.95 1.78-7.3.16-10.27-1.27 1.02-2.43 2.16-3.54 3.34m9.77-.5c2.14-.6 4.8-2.58 5.88.53l-3.72 1.78 3.84.95-1.88 3a87.81 87.81 0 0 0-4.2-1.96c1.1.93 1.84 2.7 3.47 2.82 2.07.34 3.2-1.66 4.3-3l-2.12-2.16 1.76-2.3c-.95-.8-1.83-1.72-2.94-2.3-1.97-.5-3.08 1.62-4.4 2.65m-2.72 5.08c-.58 1.6-.05 2.17 1.6 1.7.57-1.6.03-2.18-1.6-1.7zm38.4-91.18c1.4-.4 1.86.1 1.38 1.5-1.42.4-1.88-.1-1.38-1.5zm6.72 4.8c1.3.67 1.3 1.35 0 2.04-1.3-.7-1.3-1.37 0-2.04z"/><path d="M387.97 136.04c-1.05-2.98 3.16-3.72 4.8-5.42 1.72 1.62 6.53 2.46 4.24 5.5-2.98.6-6.1.58-9.05-.08zm-69.3 41.3c5.53-.15 11.07-.23 16.6.07l.01 9.55-3 1.78 3.2 1.14c-.12 1.37-.67 3.5-2.48 3.27-4.82.35-9.7.35-14.44-.54.08-2.1.07-4.2.34-6.28 1.5-1 3.07-1.1 4.74-.33.2-2.7-3.3-1.34-4.9-1.97l-.06-6.7m5.8 10.06c-.55 1.63-.01 2.2 1.6 1.7.54-1.63.01-2.2-1.6-1.7m2.93.05c-.52 1.65.03 2.2 1.63 1.67.5-1.65-.03-2.2-1.63-1.67m2.9-.06c-.58 1.6-.05 2.18 1.6 1.7.56-1.62.03-2.2-1.6-1.7zm5.4-10.1l16.66.1c.14 4.53-.02 9.05-.48 13.56l-1.4-.46-1.25 2.92-1.44-3.43-1.28 3.52-.8-3.26-1.95 1.78-1.95-2.07-.32 2.87-6.13-.08 1.14-3.37c1.04-.47 2.16-.6 3.34-.42l.54 1.04-.36-3.4-.67 1.54c-1.18-.4-2.4-.77-3.6-1.04l-.04-9.78z"/><path d="M352.6 177.25c5.52.03 11.05-.12 16.57.17.07 5.26.47 10.53-.12 15.77-3.83-.03-7.66-.16-11.48-.03l-.57-3.1-1.68 1.75-3.13-1.4c.47-4.37.56-8.77.4-13.16zm17.06-.05h15.98l.17 6.28-2.63 1.57 3.7 1.62-1.1 6.65-15.2-.6.6-1.02-1.36-2-.17-12.5m11.43 6.96c-.52 1.63.04 2.18 1.68 1.64.5-1.62-.06-2.17-1.68-1.64m-8.64 5.07c1.58-.74 3.17-.75 4.78-.03l-.42-2.04-1.82.62c-1.55-.47-2.97-.62-2.54 1.45m5.8-1.78c-.54 1.62 0 2.18 1.65 1.68.53-1.6-.02-2.17-1.65-1.68zm-59.44 6.1c5.48.3 10.97.38 16.45.01-.03 5.22.13 10.44-.05 15.66l-1.27.23c-5.05.14-10.1.03-15.16-.07-.07-5.28-.05-10.55.03-15.83z"/><path d="M335.73 193.6l16-.02.08 15.85-16.05.01-.03-15.84zm16.7 0h6.03l-.08 2.65 2-1.14 1.67.7 1.72-.63 1.77 1 .4-2.62 2.63 2.72.22 13.12c-5.46.03-10.92.04-16.38-.03l.04-15.8zm18.14.97l1.13-.85c4.63-.3 9.27.1 13.9.05l.01 15.73c-5.37 0-10.72.03-16.08-.06.08-4.6-.2-9.2.1-13.8l.92-1.08z"/></g><g fill="#353535" class="B"><path d="M588.95 48.7l15.8.02.05 172.8c-7.24.02-14.48-.02-21.72.03l.03-17.66 5.87-.07-.03-155.12zM343.32 99.1c3.04.52 6.44-1.24 9.06 1.04-3.43.05-6.7 1.03-9.6 2.82.15-1.3.33-2.58.55-3.86m.97 1.17c.55.5.55.5 0 0zm113.1 2.33c1.34-1.2 2.82-2.22 4.35-3.14.24 3.47.32 6.95.03 10.43-2.2-2.04-1.04-5.23-1.23-7.82l-3.15.53zm5.82 11.27c1.17-1.28 3.1-3.5 3.9-.66l-.2 2.55.88 1.3-3.46.85-1.18-1.63 3.8.75-3.75-3.15m2.6-.5c.17.3.17.3 0 0zm-83.3 19.05c1.53-1.6 3.38-3 5.46-3.84 3.62 1.22 7.92 1.8 10.6 4.8.83 2.3-1.48 3.4-2.93 4.58-.37 1.6-.8 3.2-1.42 4.7l.54-4.86-1.32-.76c-.52 1.93-1.06 3.93-2.5 5.4l1.47-3.46a66.76 66.76 0 0 0-1.72-1.66c-.76 1.76-1.02 3.9-2.67 5.1.54-1.7 1.2-3.34 1.9-4.98-2.47-1.38-8.4-.88-7.4-5m1.6-.05c-2.08 1.08.68 2.47 1.5 3.23 1.55-1.88 3.58-3.44 4.65-5.67-2.46-.96-4.37 1.1-6.15 2.44m3.88 3.66c2.96.66 6.07.68 9.05.08 2.3-3.04-2.52-3.88-4.24-5.5-1.65 1.7-5.86 2.44-4.8 5.42zm-67.92-2.46l4.88-.06-.78 3.17-3.3-.06-.8-3.05zm21.53 8.43l1.92 1.83 2.46-1.98-1.76 3 2 3.33-3.2-2.38-.98 2.52-.45-6.32zm-5.3 12l3.25-4.43-.96 2.84 2.94.9-5.23.7zm124.05-2.54c1.95.08 5.15.87 4.23 3.5-.2 2.1-2.63 2.24-4.23 2.53v-6.03m1.03 1.74c-.85.98-.3 3.37 1.3 2.9 2.1-.7.5-4.72-1.3-2.9zm-60.4-1.5l1.74 3.1 2.1-3.07.44 3.26 2.6-3.22-1.93 5.83-1.98-3.75-1.38 4-1.6-6.15z"/><path d="M445.5 152.7l1.05-.76 2.7 3.34.53-3.9c.74 2 .5 4.13.03 6.17l-2.9-3.34-1.42-1.52zm-39.17 28.4l4.04.5c.58 1.87.9 3.82 1.3 5.75-1.7.8-3.56 1.06-5.42 1.03l.08-7.27m1.83 1.1l-.84 1.03c.93 3.1 4.3-1.43.84-1.03m.07 2.87c-1.83.37-.66 2.93.9 2.25 1.82-.4.65-2.96-.9-2.25zm20.23-3.82c2-.05 4.1-.05 5.37 1.73-.88 1.67-1.2 3.44-.36 5.2l-3.4-2.88-.98 3.46c-.64-2.46-.66-5-.63-7.52m1.8 1.7c.07 3.4 3-1.5 0 0zm7.24-.01c.86-2.86 4.18-1.65 5.7-.08l-3.97-.8-.24 1.44c1.7.56 5.63 2.5 2.77 4.38-1.58 1.8-3.48-.28-4.87-1.13l4.85.26c-1.2-1.57-3.46-2.22-4.23-4.08zm78.37 7.13c.3-1.6 3.15-1.46 3.63-.05-.36 1.53-3.26 1.63-3.63.05zm-109.8 4.1c1.48-2.5 4.3-1.6 5.56.52l-4.63-.94c1.33 1.53 3.27 2.52 4.33 4.3-.66 2.9-4.53 2.02-5.9.15l5.03.83c-1.04-2.05-4.15-2.42-4.4-4.85zm-37.5 2.12c.6-1.24 1.3-2.43 2.02-3.6 5.06.32 10.14.34 15.2.6l.84.13c-.02 5.18-.2 10.37.07 15.54l1.52.82 1.14.57c-23.67.14-47.33-.02-71 .08-.1-5.64-.06-11.28-.01-16.92l.46.02-.03 15.83c5.05.1 10.1.2 15.16.07l1.83-.02 16.05-.01-.08-15.85a16.81 16.81 0 0 0 .71.01l-.04 15.8 16.38.03c.04-4.38-.13-8.75-.22-13.12m2.02-1.73l-.92 1.08c-.32 4.6-.03 9.2-.1 13.8l16.08.06-.01-15.73c-4.64.06-9.28-.36-13.9-.05l-1.13.85zm54.5-2.2c.66 1.38 1.2 2.8 1.76 4.23l1.28.08c.1-1.43.23-2.9 1.02-4.13l1.87 4.05 1.48-3.36 3.3-.16-.01 5.46 3.6 1.13-4.67.1c-.22-1.85-.06-3.82-.87-5.53H433l-1.73 6.26c-.88-1.45-1.1-3.18-1.32-4.82l-3.33 4.58c-.7-2.6-1.33-5.2-1.55-7.9z"/></g><path d="M289.9 67c-.3-2.75 1.26-5.77 4.13-6.34 3-.34 6-.12 9-.16h274.02c3.66-.47 6.6 3.02 6.06 6.55l-.04 255.74c-6-1.04-12.1-.8-18.14-.74l-257.94.02c-5.68.2-11.85-1.16-17.08 1.72V67m26.32 22.16c-2.18 1.05-3.95 3.34-3.75 5.84l-.02 118.95c.02 3.73-.6 8.23 2.5 11 2.45 1.34 5.42.65 8.1.82l155.92-.03c3.87-.1 7.77.33 11.6-.24 2.67-.8 3.24-4.05 3.26-6.46L493.82 95c.3-2.6-1.28-5.3-3.87-5.96-3.96-.58-7.97-.18-11.95-.25-50.66.03-101.33-.06-152-.05-3.26.08-6.6-.35-9.8.42m187.18.45c-4.43 1.42-5.12 8.27-2.4 11.36l-1-.6-.2 6.82.05 4.08 71.85.04.08 1.47c-24-.03-48.02-.16-72.03.08.28 2-.86 4.83 1.27 6.08l-1.07-.68v6.7l1.18-.7c-1.38.37-2.53 3.42-.12 3l70.72.12.1 1.4c-22.3.01-44.58.08-66.87-.05-1.54.1-3.2-.17-4.6.56-1.08 1.93-.7 4.3-.94 6.44l1.63 1.16-.68.18c-.83 1.9-.47 4.03-.58 6.04l-.02 6.15 71.94.1c.01.35.05 1.04.07 1.4-22.6-.03-45.2.02-67.8-.02-1.26.01-2.5.13-3.72.36-1.37.96-.57 3.2.75 3.8l-1.06-.68.02 6.72 1.22-.72c-2.18 1.1-1.22 3.97-1.75 5.92l.66 2.06c-.33 1.25-.36 2.48-.1 3.7l1 1-.67.17c-.83 1.5-.7 3.3-.1 4.88l.64.6-.83.63c-.53 1.57-.35 3.27-.4 4.9L499.6 221c.13 2-.1 4.38 1.53 5.86 1.77 1.85 4.55 1.47 6.87 1.6l59.93-.07c3.44.26 6.07-3.1 5.65-6.37l-.02-127.07c.1-3.38-3.3-6.07-6.57-5.6l-53.05.02c-3.52.04-7.07-.3-10.56.25m-184.12 148.6c-2.38.83-3.28 3.44-3.16 5.76l-.06 69.03c.1 2.16-.1 4.7 1.62 6.34 1.27 1.65 3.47 1.58 5.35 1.68l227-.05c2.95.15 6.63-1.52 6.12-5.02l.06-73c.4-3.54-3.07-5.7-6.28-5.27-73.65-.02-147.3.07-220.96-.02-3.23.07-6.56-.35-9.7.54zm13.04 34.9c.75 1.07 1.22 2.3 1.64 3.55l1.68 2.23-3.47-.37.15-5.4zm144.9 1.36c1.35.22 1.58.92.7 2.1-1.37-.22-1.6-.92-.7-2.1z" fill="#6c6d6e" class="B"/><path d="M233 74.6c1.7-3.02 3.2-6.8 7-7.64 4.87-1.45 8.75 3 10.1 7.22 2.27-1.66 2.84-5.4 5.9-6.37 5.46-3.08 12.84 2 12.4 8.12.04 5.85-6.82 10.27-12.12 7.72-3.44-1.35-4.86-4.97-5.8-8.24-1.57 2.87-3.6 5.44-6.48 7.1 2.28-.06 4.57-.1 6.86-.04-.1 1.8-.24 3.62-.46 5.42-5.64.17-11.3.38-16.9-.12l-1.86-.17.15-5.15c2.68-.06 5.36-.03 8.04.07-3.2-1.5-5.1-4.4-7.1-7.15-.5 4.04-2.5 8.45-6.83 9.5-6.16 2.1-12.93-4.8-10.63-10.88 1.32-4.34 6.3-7.32 10.72-5.83 3.35.77 4.9 4.12 7 6.45zM85.52 163.13l12.07-28.5c8.35 2.15 16.8 3.86 25.2 5.87-4.5 9.7-8.58 19.6-13 29.37l-24.28-6.73zm46.82 14.07c45.32-4.14 90.8-6.66 136-12.1-2.1 3.03-4.38 5.9-6.62 8.82l-34.63 2.5-.62 2.98h35.7l-1.27.8-34.45.05-.87 6.5-.74 5.33 36.1.13.98 1.56c-8.98-.06-17.95.04-26.92-.04-7.36-.18-14.67 1.05-22.04.72l-4.2-.03H189c-17.3-.01-34.6.02-51.9-.01l-3.3 22.4-8.12.3-.08 6.67 22.44-5.8c2.94-.6 4.6-3.32 6.6-5.28 4.4-4.6 8.6-9.5 13.36-13.7 6.4-1.57 13.16-1.22 19.7-1.97-4.24 10.68-9.8 20.8-14.24 31.4-1.33 3.18.65 6.27 2.16 8.96 4.53 7.9 8.6 16.04 13.4 23.8-6.06.1-12.02 1.37-18.06 1.6-2.17.36-3.72-1.33-5.28-2.5l-16.34-13.63c-.88-.85-1.97-1.4-3.2-1.42l-73.7-6.72c.9-.93 1.98-1.65 3.28-1.87l45.14-11.6.02-7.76-8.1.24-2.53-22.86-32.3-16.9c.88-2.6-.42-6.9 2.64-8.1 8.5 2.6 17.13 4.63 25.57 7.4l-3.74.14c3.06 1.22 6.3 2.04 9.63 1.98 7.37-.04 14.74.05 22.1-.45l-1.8-1.5m120.23-9.75c2.84.9 5.83.6 8.7.01-2.86-.77-5.84-.77-8.7-.01m-9.74 1.12c2.78.56 5.64.56 8.43.03-2.72-1.17-5.67-.9-8.43-.03m-7.32.8c.27 1.28 2.55.7 3.55.8.44.02 3.33-.36 1.9-1.15-1.75-.44-3.85-.65-5.44.34m-12.57 1.32c3.4.65 6.9.6 10.27-.23-3.37-1.12-6.92-.78-10.27.23m-12.25 1.03c3.8.56 7.66.45 11.44-.2-3.76-1.05-7.72-1.12-11.44.2m-12 .84c3.76.93 7.65.6 11.4-.17-3.76-.92-7.68-1-11.4.17m-25.05 2.14c3.8.68 7.68.46 11.45-.32-3.8-.87-7.74-1-11.45.32m-38.8 3c4.1.64 8.25.6 12.3-.2-4.04-1.26-8.28-.88-12.3.2z" fill="#2f383c" class="B"/><g fill="#f2f2f5" class="B"><path d="M112.5 87.3c1.23-1.7 3.87-1.06 5.54-.4 1.2 7.32.12 14.97 2.22 22.18.48 4.33.3 8.7.68 13.04-.05 1.94 1.98 2.58 3.47 3.07 8.55 2.92 17.6 4.03 26.6 4.42 17.05.36 34.37.38 51-3.95 3.56-.9 6.87-2.54 10.1-4.27.2 2.2-.2 4.6.8 6.67 3.97 1.73 8.34 2.43 12.5 3.64.48-3.53.74-7.1 1.28-10.6.8-2.6 3.38-4.37 3.77-7.14 1.28-8.7 2.03-17.44 3.05-26.17 5.62.5 11.27.3 16.9.12.37 8.4 1.1 16.8 1.53 25.2-.22 3.82 4.04 6 3.87 9.8.76 10.4 1 20.86 2.07 31.23 1.2 3.27 5.15 3.9 8.08 4.86 2.52 1 2.45 3.8 2.38 6.1-45.2 5.44-90.67 7.96-136 12.1-8.7.46-17.55 1.04-26.2-.16-8.44-2.76-17.08-4.8-25.57-7.4-.83-.16-1.67-.3-2.5-.38 4.7-15.06 10.87-30.02 20.97-42.3 3.2-1.3 6.93-1 10.36-1.1.84-6.9-.1-14.08 2.06-20.76.47-5.9.37-11.9 1.06-17.78m-27 75.82l24.28 6.73 13-29.37-25.2-5.87c-4.17 9.44-7.95 19.04-12.07 28.5M222.7 151.7c-.87 3.5-.86 7.33-2.67 10.52-1.43.78-2.87.76-4.32-.05.1-3.35 1.1-6.58 1.85-9.83l-2.16-.06c-.72 3.2-1.6 6.4-1.8 9.7.73 4.36 7.82 3.6 9.02-.16 1.15-3.33 1.46-6.88 2.25-10.3l-2.18.2m5.1-.27c-.66 4.15-1.5 8.28-2.46 12.38l7.4-.54.9-2-5.97.38 1.02-3.32 5.5-.78c-.27-2.8-3.3-.87-5.04-1.05l.34-3.2c2.25-.72 5.6.17 6.45-2.74-2.73.15-5.43.56-8.13.88m-25.58 2.24c.35 4.15.82 8.3 1.53 12.4l2.7-.36c2.03-4.52 4.33-8.92 6.4-13.42l-2.6 1.1c-1.9 3.17-2.98 6.76-4.75 10.02-.68-3.25-.88-6.56-.95-9.86l-2.33.12m-13.8 1.15c-.26.88-.5 1.76-.72 2.66l-.4-2-4.36-.32.34.7c-6.36-2.76-12.12 6.16-8.43 11.28 1.26 1.83 3.6 1.5 5.53 1.4 1.78-.14 3.53-.44 5.27-.84 2.63-.34 5.28-.56 7.9-.97l.04-2.07-5.27.96.54-3.78 5.38-.4.25-2.04-5.07.9.4-3.58 5.6-.4.4-2.05c-2.47.22-4.94.42-7.42.55m-21.3 3.13c-2.22 4.18-4.3 8.42-6.37 12.68 2.23-.32 3.25-2.2 4.17-4l4.27-.28c-.48 2.2.34 3.25 2.45 3.2l-1.48-12.04c-.54-1.87-2.37-.48-3.04.45m-13.7.7l-.7 2.12 3.88-.47c-.87 3.74-1.67 7.5-2.23 11.3l2.1-1.28c1.02-3.23 1.3-6.63 2.06-9.92 1.78-.4 4.03-.33 4.38-2.62a126.25 126.25 0 0 1-9.51.86m-6.24 9c-1.76-2.93-2.96-6.2-5.2-8.83-1.72 4.4-2.04 9.16-3.22 13.7l2.33-.22c.46-2.88.95-5.75 1.63-8.58 1.63 2.83 3 5.82 4.57 8.68 3.1-3.86 2.55-9.4 3.68-14.02-3.87 1.24-2.46 6.3-3.8 9.27m-29.9-5.78c.38 4.28 1.14 8.5 1.48 12.8l2.77-1.14c2.36-4.18 4.23-8.62 6.36-12.92-1.08.5-2.72.44-3.1 1.83-1.5 3-2.56 6.2-4.22 9.12-.63-3.27-.9-6.6-.98-9.9l-2.3.2m15.1-1.16l-6.76 13.53c2.32-.24 3.4-2.17 4.36-4 1.32-.02 2.63.02 3.95.1l.56 2.85 2.16-.5c-.64-4.05-1.16-8.12-1.5-12.2l-2.78.22z"/><path d="M132 114.9c20.3-4.73 41.47-5.38 62.14-3.04 6.14 1.24 13.3 1.45 17.97 6.17-1.08 1.93-2.44 3.86-4.6 4.63-7.12 2.97-14.84 4.12-22.45 5.06-15.62 1.76-31.5 2.15-47.07-.26-4.98-.78-9.97-1.9-14.52-4.16-.77-.72-1.5-1.47-2.2-2.25 2.46-3.64 6.8-4.82 10.74-6.15zm382.3 65.33l1.12-.12 1.3 2.04.2-1.88c2.25.57 4.56.22 6.75-.44l-.2 4.66c2-1.08 2.96-3.15 4.05-5 .97.7.47 4.17 2.34 3.35l.03-3.28 4.8.87c1.1.57 2.76.86 3.47-.57l-.25 5.1-1.82-2.62-1.9 2.58-.48-3.63c-1.9-2.05-1.47 2.26-2.12 3.35l-4.23-.67-5.95.93.1-3.76-1.54.22-.83 3.98-1.66-2.6-1.5 2.5-1.68-4.98z"/></g><g fill="#515151" class="B"><path d="M503.4 89.6c3.5-.55 7.04-.2 10.56-.25l53.05-.02c3.27-.47 6.67 2.22 6.57 5.6L573.6 222c.42 3.28-2.2 6.63-5.65 6.37-19.97.1-39.95-.1-59.93.07-2.32-.14-5.1.24-6.87-1.6-1.63-1.48-1.4-3.87-1.53-5.86l.02-36.93c.05-1.63-.13-3.33.4-4.9l.83-.63c1.54-1.08 3.12-2.1 4.72-3.1l-4.6-2.55-1-1c-.26-1.2-.23-2.44.1-3.7 8.32 1.06 16.74 0 25.1.65l-3.28 4.43 3.45 3.75 3.7-3.67-3.36-4.55c15.36-.53 30.74.07 46.1-.14l.1-2.56c-24.16-.04-48.32-.14-72.48.03.53-1.95-.43-4.82 1.75-5.92a94.34 94.34 0 0 1 4.4-2.5l-4.57-2.8c-1.32-.6-2.12-2.85-.75-3.8 1.22-.23 2.46-.35 3.72-.36l67.8.02-.07-1.4c-23.98-.01-47.96.2-71.94-.1l.02-6.15 5.8-3.3c-1.5-1-3-2-4.55-2.93l-1.63-1.16c.23-2.14-.14-4.5.94-6.44 1.4-.73 3.06-.46 4.6-.56l66.87.05-.1-1.4c-23.57-.1-47.16.25-70.72-.12-2.4.4-1.26-2.64.12-3 1.46-.9 2.95-1.7 4.45-2.55l-4.56-2.76c-2.13-1.25-1-4.08-1.27-6.08l72.03-.08-.08-1.47c-23.95.1-47.9.18-71.85-.04l-.05-4.08 5.75-3.53-4.55-2.68c-2.7-3.1-2.02-9.94 2.4-11.36m10.97 11.56l1.53 2-.13 2.73 1.48-.04-.4-3.58 1.94-.02c.27 1.18.5 2.37.67 3.57l2.16.42c-.13-1.75-.1-3.5.25-5.24a110.4 110.4 0 0 1-7.5.16m8.03 4.83c1.75-.63 4.85.98 5.75-1.23l-.18-.8c1.7-.5-.4-3.96-1.28-1.95l-1.4 1.18-.27-.82-.25-1.86c-2.3.93-2.05 3.43-2.36 5.48m7-5.13c-.08 1.62-.24 3.25-.15 4.88 1.68.08 2.93-2 4.36-2.77-.7 2.5.84 3.34 3 3.5-1.2-1.9-1.4-4.12.05-5.97l-3.33 1.7c-1.3-.48-2.62-.93-3.94-1.35m8.3-.2c-.08 1.86-.13 3.73-.16 5.6l2.02-1.27 1.76 1.47c0-1.52-.02-3.03-.07-4.54-1.14-.55-2.32-.97-3.55-1.25m3.96 5.27l2.64-.83 4.35 1c-.47-1.76-.02-2.84 1.35-3.25 1.52.67 1.7 2.68 2.67 3.88l2.3-1.73-.47-4.38-1.15 4.7c-1.35-.88-1.38-2.5-1.68-3.9-1.76-.2-3.52-.33-5.28-.43.4 1.26 1.53 2.58.47 3.8-2 .43-1.44-3.22-2.53-4.2a188.91 188.91 0 0 0-2.66 5.33m13.95-4.6l.35 4.87 1.43-1.06 5.3 1.04c-.24-1.96-.25-4 .92-5.7a28.63 28.63 0 0 0-3.63 1.93c-1.3-1-2.8-1.3-4.37-1.07m-40.7 22.14c.7-4.2 2.66-.88 4.1-.17-.14-1.78-.24-3.56-.34-5.35l-2.26 2.6-1.38-2.9a15.2 15.2 0 0 0-.12 5.82m7.14.16c2.6-.96 1.58-3.93 1.47-5.98-.55 1.67-1 3.38-1.5 5.07-.72-1.62-1.25-3.3-1.8-5-.23 2.1-.93 5.18 1.83 5.9m3.22-5.86c-.1 1.6-.12 3.22-.18 4.83a84.57 84.57 0 0 1 4.78-.04l-.48-4.76-2.13 3.14-2-3.17m7.66 1.13a44.91 44.91 0 0 0-.26 4.5c2.6.27 4.28-1.2 5.22-3.5-1.42-.68-3.56-2.8-4.96-1m4.94-.35c.07 1.73.14 3.46.37 5.18a18.01 18.01 0 0 1 1.53-5c1.16 1.37 1.78 3.02 1.87 4.93.42-1.54.77-3.1 1.33-4.6 2.1.08 2.27 3.03 3.32 4.5l2.03-5.73-1.9 1.55c-2.68-1.3-5.68-.98-8.55-.83m-6.8.74c-.82.74-1 3.22.44 3.24.78-.75.98-3.24-.44-3.24m17.13 15.1l-1.34 1.2.66-1.88-3.85-.1.3 1.04-1.05 4.6c-.85-.4-1.7-.78-2.55-1.14l-1.5-.3-.7-4.42c-.74 1.05-1.44 2.12-2.12 3.2a82.98 82.98 0 0 0-2.06-3.4l-2.04.7c-2.5-1.72-5.13 2.64-2.5 4.18l-3.75.28 2.26-.84c-.95-.95-2-1.8-3.05-2.6l3.36.23-4.16-1.76-.2 4.03-.72-.1-1.9-4.12-2.6 4.42c.5-3.1-1.6-4.04-4.13-4.23.01 1.7.13 3.36.38 5.03a34.6 34.6 0 0 0-1.3 2.58l1 .1c.02 1.77.07 3.55.17 5.32l4.47-3.48-.44 2.88a60.67 60.67 0 0 1 3.82-.12l-.06-4.04 1.9-.18c-1.04.97-1.14 3.9.43 4.22.8-1.24.67-2.87 1.36-4.2l1 .2a7.28 7.28 0 0 0 2.94 2.67l-1.95.86c.5 1.2 1.35 1.4 2.53.62l.68-.23 2.67.95 2.13-1.77.2.48c1.16.94 2.48 1.22 3.98.82.25.02.75.08 1 .1l2.1-1.2 1.55 1.42.05-1.9.68-1.32-.15 2.84 3.57.27c-.53-1.83-.55-3.73-.2-5.6l4.96-1.13c-.96-.42-1.9-.86-2.83-1.32l.8-3.75-3.38 1.67 2.8-2.3c-1.05.12-2.63-.8-3.23.45m4.18-.4l.62 4.2.7-.48c1.23-1.27 2.26.65 3.37 1.13.83-.5 1.64-1.04 2.43-1.6l-3.5-.1v-2.2l3.53.57c-.8-.62-1.4-1.6-2.4-1.92-1.52.8-3.17 1.88-4.75.4m-12 4.1l.45-.07c.75-1.2.82-2.46.22-3.73-1.43.22-1.1 2.76-.67 3.8m-25.67 18.4l-.23 4.8 3.97.23c-.1-1.43-.25-2.86-.45-4.27l-3.3-.77m3.92 5.3l2.56-1.3 2.5 1.5c-1.1-1.4-.8-4.75-2.77-5.18-.88 1.6-1.55 3.3-2.28 4.98m5.76-4.37c-.7 1.12-.7 2.23.02 3.35 1.46.12 1.42-3.45-.02-3.35m2.23-.8l-.5 4.08c1.5-.42 2.87.1 4.22.78l-.7-5.12-.75 2.8-2.28-2.53m4.8.4l-.16 4.66 2.78-2.14-1.2-1.16 1.8-1.62-3.22.26m4.94-.37c-.73 1.78-1.3 3.6-1.8 5.45l2.17-1.7 2.3 1.44 4.64.28.04-1.6.03 1.22 3.5-.23-2.36-1.5-.15-3.13-1.1-.2-.22 1.04c-1.32-.45-2 .13-2.06 1.74l-1.3-2.16-1.84 2.16c-.14-1.35-.75-2.28-1.83-2.8m-21 13.7l-.07 5.32 4.6-.67-.06-4-4.47-.65m16.86.1l-1.96 4.5c1.48.26 2.97.64 4.5.58 1.6-1.23.37-3.4.3-5.05l-2.84-.02m5.04 2.83l3.84 3.56c1.26-1.26 2.56-2.5 3.7-3.87-1.17-1.23-2.48-2.3-3.76-3.4l-3.77 3.72m-22.95 6.95l1.68 4.98-.83 1.36.86.45c-.6.98-1.3 1.9-1.66 2.98.01 1.47 1.57 2.22 2.4 3.24l2.1-1.94c1.26.58 2.55 1.12 3.86 1.6l1.55.9-.1-.8.75-3.08 2.53 2.88.63-4.42.9-.43a137.49 137.49 0 0 1 1.4 5.02c.48-1.8.96-3.6 1.66-5.34l.65-.02.37 4.7 2.63.76.15-5.82c3.87-.7 7.78-1.08 11.66-1.77l-.76-.43c-.02-1.52.05-3.03-.04-4.54-1.08-.28-2.17-.52-3.25-.73l-.33 4.15c1.17-.1 2.24.2 3.2.9-1.25-.07-2.5-.06-3.73.05l-1.14-3.24 1.28-1.93-3.92.15.52 5.34-1.12.12c-.07-.1-.2-.3-.28-.4l.25-5.1c-.7 1.43-2.36 1.14-3.47.57-1.6-.34-3.2-.6-4.8-.87l-.03 3.28c-1.87.82-1.37-2.64-2.34-3.35-1.1 1.86-2.05 3.93-4.05 5a72.29 72.29 0 0 1 .19-4.66c-2.2.66-4.5 1-6.75.44l-.2 1.88-1.3-2.04-1.12.12m22.98 7.13l-.22 5.25 1.63-1.55 2 1.9c-.06-1.6-.04-3.18-.18-4.76-1.06-.33-2.14-.6-3.22-.83M514.8 201c-1.02 2.53 2.56 5.5 4.43 3.08 1.9-1 .3-2.3-.9-3l-.8 3.25c-.65-1.1-1.42-2.14-1.66-3.4a35.46 35.46 0 0 1 4-1.47c-1.8-.87-4.78-1.08-5.07 1.54m6.17-2.04l-.1 4.9 1.58-.76c1.74 1.76 3.78 1.15 5.62-.02l2.16 1.73a49.99 49.99 0 0 0-2.45-6.25c-1.14 1.27-1.05 5.43-3.5 4.32a8.52 8.52 0 0 1 .8-3.15l-4.1-.78m9.86-.4l.35 6.34c1.5-1.33 3.04-2.63 4.36-4.15-.67-2.04-3.07-1.7-4.7-2.2m4.67 5.97c.92-.8 1.84-1.64 2.83-2.37l1.3 2.17c2.35.28 5.46 1.2 6.44-1.74l-3.37-2.45 3.23-.25c-1.9-1.32-4.14-.72-6.22-.47l-1.7 1.8-1.97-2.44-.53 5.76m-20.27 3.28l1.4 6.37c.8-2.1 1.53-4.23 2.3-6.34l-3.7-.03m4.52.02l.52 6.2 1.1-2.26 2.52 1.97.05-5.68-4.18-.22m5.06.02l.28 5.86 3.16.13-1.87-2.32 1.7-1.17-2.07-.92 2.5-1.48-3.72-.1m9.84.07l.4 6.12c1.78-.35 3.97-.33 4.94-2.2.14-1.4-.48-2.7-.77-4l-4.56.08m6.3-.1c-.58 2.1 1.3 3.4 2.4 4.9l-3.13-.68c1.1 1.95 3.28 2.36 4.85.7-.12-1.9-2.07-2.7-3.28-3.85l3.38.07c-1.27-1-2.68-1.38-4.23-1.14m-25.83 8.84l1.54 6.5 2.27-6.4-3.8-.08m5.24.6c-3.16 2.25 1 8.03 3.7 4.72 2.93-2.2-.9-7.45-3.7-4.72m5.24-.5c.4 2.2.9 4.4 1.6 6.54.64-2.2 1.2-4.4 1.76-6.62l-3.37.08m13.6.34c-.88 1.86 1.12 2.8 2.14 4l-2.97.25c1.1.64 3 2.6 4.1 1 2.2-1.56-.85-3-1.72-4.35l2.87-.18c-1.4-.7-2.9-1.64-4.43-.7zm17.93-114.93c3.35.1-1.5 2.97 0 0zm-12.8 78.84c3.1-1.14-.3 3.34 0 0zm-150.04 84.7l1-.1c3.07 2.24 7.17.8 10.7 1.36 2.8-.1 5.88 2.02 5.87 5.02.14 3 .46 6.27-.83 9.1-1.92 3-5.98 2.5-9.04 2.67-4.3-.15-8.75.5-12.9-.82-2.5-.78-2.85-3.73-3-5.94-.08-2.97-.4-6.65 2.13-8.78 1.85-1.16 3.96-1.88 6.05-2.5m5.47 12.13c1.52-1.43.75-3.65.84-5.46-.85 1.57-1.52 3.23-2.24 4.86l-1.02-4.97c-1.15 2.1-1.02 6.64 2.42 5.57m2.35-5.52l-.52 5.08a88.47 88.47 0 0 1 5.4.05l-.47-4.72c-1.2.5-1.72 1.78-2.5 2.74l-1.92-3.15m-10.58.2l-.3 5.13 1.68-.03.16-2.1 2.52 2.76c.07-1.95.07-3.9.06-5.84l-1.96 2.56-2.15-2.48zm-29.24-5.24c5.2-.8 10.53-.48 15.77-.36 2.57-.1 5.2 1.57 5.73 4.16.54 2.93.5 5.98-.01 8.9-.63 2.45-3.36 3.7-5.73 3.7-4.87.1-9.78.22-14.64-.2-3.12-.35-5.2-3.48-5.2-6.47-.33-3.57-.13-8.55 4.07-9.73m.4 5.8c-.44 1.4.27 3.04.8 4.36 1.38-.6 2-5.76-.8-4.36m2.9.1l.73 4.63 3.05.3c-.62-1.82-1.2-3.77.15-5.44l-3.93.5m4.3 4.23l5.9.12-.57-5.14-2.45 2.9-1.45-2.94c-.97 1.5-1.13 3.32-1.44 5.05m5.58-2.98l3.98-.18-3.05 1 .1 2.83 4.15-3.42c-1.3-1.5-3.87-2.46-5.2-.23zm41.95-7.08c4.1-1 8.4-.3 12.58-.5 2.96.2 7-.67 8.72 2.47 1.7 3.13 1.3 6.95.84 10.36-.5 3.02-3.83 3.98-6.47 4-4.88.1-9.8.34-14.65-.16-3.17-.3-4.42-3.7-4.4-6.47-.2-3.43-.44-8.12 3.4-9.7m-.75 5.56l1.74 5.3 1.7-2.3 1.43 2.28 2.16-5.18-3.67.73c-1.12-.25-2.25-.53-3.35-.8m7.6.55c-.77 1.12-.8 2.93.08 4 1.5-.16 1.36-3.88-.08-4m1.6-.9l.34 5.7 1.14-2.27 2.6 2.1.25-5.6-1.68 2.34-2.64-2.25m5.38.7c-.3 1.43-.52 2.88-.67 4.34 1.65.1 4.34.67 4.63-1.7.73-2.2-2.23-4-3.96-2.65zm11.15-2.97c1.44-3.24 5.27-3.66 8.4-3.5l3.17.06c4.15.6 9.67-1.26 12.72 2.44.8 4.44 2.36 11.3-2.63 13.82-4.24 1.1-8.72.42-13.05.6-3-.07-6.98-.02-8.62-3.05-.75-3.37-.9-7 .01-10.36m4.37 2.68l.05 5.12 1.65-1.74 1.77 1.83c.12-1.55.28-3.1.47-4.63-1.32-.22-2.63-.4-3.94-.58m6.4.42c-.84.7-2.15 3.48-.1 3.32 2.66.9 1.82-3.23.1-3.32m3.32 3.42c1.4-.1 1.14-2.6.4-3.4-1.43.07-1.12 2.6-.4 3.4m2-4.3c-.02 1.95.01 3.9.24 5.84l1.2-2.5 2.48 2.3.26-5.1h-1.38l-.1 1.84-2.72-2.37zm15.83-5.2c4.18-.76 8.47-.28 12.7-.4 2.96.08 6.52-.17 8.65 2.34.92 3.13.84 6.5.47 9.7-.12 3-3.32 4.76-6.05 4.68-4.7.08-9.4.17-14.08-.07-2.44-.13-4.97-2-5.05-4.6-.37-4-1.12-9.65 3.36-11.66m1.48 6.02c-.18 1.44-.18 2.9-.22 4.37l3.9-.23 2.8-.45c1.53.4 3.1.38 4.67.15l1.7.83.03-4.17c-1.06-.65-2.3-.92-3.45-1.33l-.4 4.74-2.45-4.8c-.93 1.5-1.8 3.02-2.7 4.53.8-2.42-1.55-5.64-3.9-3.64z"/><path d="M338.9 278.02c-2.35-2.5 1.12-5.56 3.86-4.14-1.13.82-2.42 1.4-3.67 1.98l.77 1.73a14.99 14.99 0 0 1 2.76-2.2c.4 1.86-2.25 5.05-3.72 2.63zm6.32-2.32c1.42-2.22 4.32-1.73 6.54-2.24L350 279.1c-.72-1.18.16-4.73-1.87-3.9-.47 1.22-.86 2.47-1.15 3.75l-1.34-2.52-2.42 2.07.17-4.96 1.82 2.14zm103.18-1.52c.54.63.54.63 0 0zm38.04.1c.62.5.62.5 0 0zm-126.3 15.87c2-2.16 5.23-1.76 7.9-1.9 4.08.08 8.24-.33 12.28.45 3.26.8 4 4.4 4.1 7.28.58 3.8-1.7 7.2-3.2 10.5l-.6 1.14-.9-2.28-5.76.1-2.23-.1-.87-.45c-1.13 1.3-1.47 4-3.53 3.97-.72-1.44-1.3-2.9-1.92-4.38l-.37 4.6c-1.04-1.43-2.02-2.9-3.22-4.2-4.52-3.24-5.37-10.52-1.67-14.7m-1 3.95c.42 2.1 1.03 4.12 1.74 6.13l1.53-3.1 1.3 2.93 1.67-4.32c.84 1.05.97 2.34.86 3.64l2.6.08-.5-2.97c-1.28-.62-2.53-1.24-3.77-1.92l-.9 2.03-1.15-2.2-1.26 1.7-2.13-2m9.86 1.76c.62 1.46 1 3.16 2.45 4.06.98-.53 1.93-1.1 2.85-1.73l-3.33.02-.1-2.37 3.5.32c-1.5-2.1-3.6-1.87-5.36-.3m5.67-.94l-.05 4.46 3.47.3-1.65-1.34.26-4.17-2.03.76m4.06-.8l-.1 5.88 1.68-2.3c.8.7 1.6 1.47 2.4 2.22l.14-5.76-1.72 2.53-2.4-2.58zm8.27-3.1c1.95-3.03 5.92-2.58 9-2.52 4.56.3 9.26-.46 13.7.75 2.83 2.64 3 7.1 2.23 10.67-.72 2.5-2.63 5.35-5.6 4.96l-4.02.1-1.7.03-2 .04-.6 3.7-1.7-3.73-2.6.24c-2.8-.02-6.1-1.07-7.17-3.94-1.32-3.27-1.07-7.16.45-10.3m1.83 3.6c-2.42 1.1-1.74 4.35.53 5.2 1.86-.03 2.2-2.15 2.94-3.4l-3.5 1.98.07-2.56 3.25.6c-.85-.5-1.97-3.1-3.3-1.8m7.68 4.72c1.88-1.02 3.86-.47 5.77.05l4.22-3.56-.6 3.8a70.56 70.56 0 0 1 2.69-2.16l1.47 2.52c.35-2.02.35-4.1-.12-6.1l-1.34 2.82-1.67-1.8-1.28.66a111.78 111.78 0 0 0-3.74-1.34l-.2 4.92c-.93-1.72-1.8-3.47-2.68-5.2l-2.5 5.4m-2.34-5.66c-1.56 1.73-2.1 3.8-1.6 6.22l1.94-1.87 1.6 2.1-.02-5.86c-.76.93-1.45 1.9-2.15 2.9l.22-3.47zm23.77-4.98c4.28-.9 8.72-.47 13.07-.52 2.98-.02 6.77.36 8.3 3.35 1.2 4.55 1 9.83-2.3 13.5l-2.9-.2-2.4.02a4.84 4.84 0 0 0-2 1.78l-1.7-1.93-2.83.4-.36 4.4-2.23-1.53.1-2.43c-1.92-.25-3.83-.53-5.72-.93-2.04-1.34-3.12-3.6-2.44-6.04l.53.26 1.64.9c1.3.9 2.92 1.15 4.48 1.3l.07-.26c.5-1.8 1.05-3.6 1.63-5.37l.7 4.4 2.37-.57.77-.24c2.32 1.3 5.42 0 4.47-3.02-.67-2.84-4.34-1.35-4.28 1.08-.4-1.02-1.13-1.66-2.17-1.9l-3.02-.96-1.07 4.46-.9-.05-.12-4.4-.02-.6c-1.2-.16-2.4.23-3.36.96l-.98.63-.52.27c-1.33-2.7.2-6.2 3.2-6.74m16.2 6.5l-1 1.3-.74-2.23-.3.76c-.04 1.68.65 3.24 1.1 4.83l1.56-2.2 1.83 2.12c.5-1.78 1.05-3.55 1.6-5.32-1.28.64-2.65.94-4.07.75zm8.23-3.92c2.52-4.4 8.4-2.86 12.58-3.13 3.77.35 8.65-1.03 11.37 2.4 1.38 2.5 1.07 5.56 1.03 8.33-.02 2.25-.8 5.15-3.24 5.83-5.67.27-11.36.42-17.04.26l-.35 4.17-1.2-3.86-.44-.48c-4.2-3.18-3.73-8.95-2.72-13.53m4.15 2.4c1.14 1.34 1.3 3.06 1.48 4.74.26.01.78.01 1.05.02.37-1.32-.57-4.6 1.72-3.3l.52 3.28h1.08l.14-4.4c-2-.2-4-.3-6-.32m6.57 4l5.38.1-.46-4.7-2.08 3.14c-.7-1-1.44-2-2.17-2.96-.28 1.46-.46 2.93-.67 4.4m6.05.47l2.48.8c-.06-1.93-.07-3.85-.03-5.77-2.76.23-2.1 3.03-2.45 4.97zm12-6.13c.4-2.27 2.77-3.42 4.9-3.38 5.3-.2 10.6-.37 15.9.06 2.63.14 4.5 2.63 4.33 5.18.18 3.93.98 10.4-4.52 10.8l-1.02.25-.56.15-.7.22a131.95 131.95 0 0 0-1.2 4l-1.06-4.17-5.36-.25c-.34 0-1-.01-1.34-.02l-2.6.03h-1.32c-.66 0-1.98-.02-2.64-.02-4.06-2.9-3.52-8.54-2.8-12.84m7.4 3.2c-1.18-1.26-2.8-1.57-4.43-1.74-.01 1.78.02 3.56.1 5.35 1.67-.15 3.23-.7 4.54-1.77l1.8 2.14c1.33-.5 2.2-1.44 2.6-2.8l1.84 2.6.7-2.53 2.42 2.6.1-5.4-.82.14-.4 2-2.02-2-1.8 1.35c-1.38-2.56-3.17-1.48-4.64.1m10.12-1.44l-.03 4.47 3.75.8c-.38-1.88-1.04-3.84.1-5.63l-3.8.35z"/></g><g fill="#12262f" class="B"><path d="M318.43 100.45c.95-1.36 2.34-3.03 4.2-2.06 1.4.36.8 2.13 1.04 3.18.05 1.2.72 2.76-.75 3.38-1.8 1.3-3.56-.47-4.73-1.73 1.65.14 3.4 1.08 5 .06l-3.07-2.1 2.32-.3-.38-1.74-3.63 1.3zm43.87-2.2c4.08-1.16 5 5.77 1.63 7.13-3.85.58-4.7-5.67-1.63-7.13m1.8 6.37c.37-2.13.44-4.3-1.05-6.07-1.04 2.04-1.77 5.1 1.05 6.07zm46.6-1.68c1-1.97 3.37-3.94 5.5-2.22 2.96 2.72-1.5 5.5-2.97 7.7l4.54-.05-1.03 1.15-5.76-.24c1.73-2.4 4.5-4.3 5.07-7.37-1.86-1.4-3.6.47-5.34 1.03zm21.64-2.64l1.84.1c.07 2.3-.34 4.8 1.13 6.75l-2.07 2.65-.74-2.23-4.5-.12 4.33-7.16m-.08 2.8c-1.24.3-2.18 1.95-1.65 3.15l1.85-.44c.77-1.1.7-2-.2-2.7zm-106.55.97c2.96-1.58.18 3.35 0 0zm138.73 3.4c1.64-.5 2.18.06 1.64 1.67-1.65.5-2.2-.06-1.64-1.67zm-142.95 24.27c1.24-12.53 12.05-22.93 24.47-24.3l-1 2.16c-8.45 1.97-16.4 7.44-19.54 15.78-1.1 2.27-1 5.6-3.94 6.37zm31-23.9h2.68c10.75 2.64 19.7 11.74 21.36 22.8-3.16-.72-3.1-4.32-4.43-6.66-3.75-8.23-12.16-13.32-20.9-14.7l1.3-1.44zm-11.94 14.67l8.08-.02-.5 1.48-5.96-.02-.5 3.7c1.97-.18 4.46-1.14 5.95.7 3.05 2.7.6 8.56-3.56 8-2.6.3-3.85-2.32-5.13-4.04 2.06.1 3.4 1.8 5.2 2.54 2.6.07 4.05-3.42 2.3-5.33-1.92-2.07-4.44.3-6.48.92l.6-7.95zm10.74 8.56c-.37-3.2.05-7.65 3.67-8.8 2.8-1.08 5.5 1.06 6.2 3.72-1.73-.78-3.3-2.06-5.2-2.4-2.24.45-2.57 3.06-3.53 4.7 2.3-.7 5.3-2.13 7.3 0 2.96 2.5 1.08 7.87-2.76 8.04-3.1.62-5.68-2.35-5.67-5.27m3.04-1.7c-3.2 2.18.92 7.5 3.77 4.78 3.53-2.23-.8-7.68-3.77-4.78zm-26.5 5.25l4-2.3-.01 3.95-4-1.66zm97.47 4.1c1.14-1.4 2.5-2.58 3.98-3.63.28 3.2.3 6.43.33 9.65l-1.4.1.1-7.47-3.03 1.36zm-103.8-.2c2.36.47 2.62 2.84 3.3 4.7 2.48 7.94 9.24 14.4 17.28 16.53 1.55.65 3.9.68 3.96 3.02-12.5-1.1-23.36-11.74-24.54-24.26zm51.6 5.4c.98-2.1.7-5.3 3.64-5.82-1.14 12.82-12.3 24-25.2 24.7l-1.08-1.77c9.94-.96 19.43-7.44 22.64-17.1zm-53.64 21.6l.77-.1 1.57 2.9 1.06-3.23c.68 1.1 1.13 2.34 1.63 3.55l1.02-3.14.36 1.02-1.1 4.7-1.86-3.7-1.6 3.67-1.87-5.67zm81.06-.17c2 .16 5.4 3.17 5.62-.85l1.37 2c-2.35 1.72-5.54 1.63-7-1.15z"/><path d="M397.86 166.06c1.6-.63 2.17-.1 1.75 1.54-1.6.62-2.2.1-1.75-1.54zm-79.54 10.57l71.15-.06c-.12 11.27.27 22.55-.12 33.8l-1.14-.57c.16-5.33.27-10.67.05-16l-1.64-.36-.84-.13c.43-2.2.75-4.43 1.1-6.65l-3.7-1.62 2.63-1.57-.17-6.28h-15.98l.17 12.5 1.36 2-.6 1.02c-.73 1.16-1.4 2.35-2.02 3.6l-2.63-2.72-.4 2.62-1.77-1a119.11 119.11 0 0 0-1.72.63l-1.67-.7-2 1.14.08-2.65a1212.05 1212.05 0 0 1-6.03-.02c-.18 0-.53 0-.7-.01-5.34-.02-10.67.03-16 .02l.03 15.84-1.83.02 1.27-.23c.18-5.22.02-10.44.05-15.66-5.48.37-10.97.28-16.45-.01l-.46-.02-.02-16.9m.34.7l.06 6.7c1.6.63 5.1-.73 4.9 1.97-1.67-.76-3.25-.66-4.74.33-.27 2.08-.26 4.18-.34 6.28 4.75.9 9.62.9 14.44.54 1.8.24 2.36-1.9 2.48-3.27l-3.2-1.14 3-1.78-.01-9.55c-5.53-.3-11.07-.22-16.6-.07m17.05-.07l.04 9.78c1.2.27 2.42.65 3.6 1.04l.67-1.54.36 3.4-.54-1.04c-1.18-.2-2.3-.05-3.34.42l-1.14 3.37 6.13.08.32-2.87 1.95 2.07 1.95-1.78.8 3.26 1.28-3.52 1.44 3.43 1.25-2.92 1.4.46c.46-4.5.62-9.03.48-13.56-5.55-.18-11.1-.1-16.66-.1m16.9-.01c.15 4.4.06 8.8-.4 13.16l3.13 1.4 1.68-1.75.57 3.1c3.82-.13 7.65 0 11.48.03.6-5.24.2-10.5.12-15.77-5.52-.3-11.05-.14-16.57-.17m34.5.8c-.6 1.54-1.1 4.76.45 5.63.5-1.62.86-4.54-.45-5.63m.38 8.32c-.57 1.87-1.05 4.3-.2 6.12 1.57-.95 1.48-5.1.2-6.12zm24.88 2.25a40.52 40.52 0 0 1 3.1-7.83c1.1 2.54 2.13 5.13 2.58 7.88-1.18-1.46-1.82-3.22-2.22-5.02l-1-.27c.1 2.13-.85 3.9-2.44 5.24zm-87.9-1.24c1.62-.5 2.15.07 1.6 1.7-1.62.5-2.16-.07-1.6-1.7zm2.93.04c1.6-.53 2.14.02 1.63 1.67-1.6.54-2.15-.02-1.63-1.67zm45.05 1.8c-.43-2.07 1-1.92 2.54-1.45l1.82-.62.42 2.04a5.52 5.52 0 0 0-4.78.03zm5.8-1.78c1.63-.5 2.18.07 1.65 1.68-1.65.5-2.2-.06-1.65-1.68z"/></g><g fill="#1c2c31" class="B"><path d="M330.3 100.97c-2.6-1.3.13-2.4 1.4-3.26.2 2.7.25 5.44.04 8.16-1.42-1.27-1.25-3.2-1.45-4.9zm3.25 2.45c1.12-2.18 2.14-4.72 4.64-5.62l1.14 6.04-1.14 1.04-4.64-1.46m2.47-2.33c-1.6 2.98 3.34.17 0 0zm30.56-.9l3.73-2.36c-.15 2.68 1 5.94-1.24 8.04l-.18-5.46-2.3-.22zm5.5 7.25c.15-3.62.8-7.45 3.2-10.3-.46 3.57-1.16 7.25-3.2 10.3zm3.35-7.4l3.9-2.17c.03 2.7.05 5.4-.34 8.1-1.4-1.52-1.14-3.62-1.23-5.5l-2.34-.42zm5.15.14l3.77-2.35c-.16 2.68 1.02 5.97-1.26 8.06l-.16-5.46-2.35-.25zm37.82 2.6c1.3-1.1 2.68-2.1 4.1-3.03.17 3.5.74 7.17-.6 10.53-.58-2.67-.56-5.4-.5-8.12l-3 .62zm48.75-2.38c2.37-.25 4.75-.27 7.14-.26-1.54 3.4-2.63 7.34-5.8 9.63 1.06-2.9 2.54-5.65 4.04-8.36-1.83-.2-3.7-.22-5.38-1zm-41.92 7.48c1.6-.58 2.2-.05 1.73 1.6-1.6.57-2.2.04-1.73-1.6zm-8.47 7.98l.86-3.98.14 6.26-2.95-2.98-.57-2.84 2.52 3.54zm-7.16 7.27c.58-2.62 4.3-4.24 6-1.8 1.13.96-.25 2.42-.33 3.6l1.66 2.24c-1.68 3.2-6.06 3.4-7.57-.08 2.13.97 5.47 2.52 6.07-1.04l-3.6-1.05 3.48-2.44-2.18-1.45-3.53 2.02zm8.5.8c-.88-3.12 3.86-5.26 5.66-2.66 1.74 2.4 1.62 6.7-1.2 8.27-2 .92-3.76-.77-4.87-2.23l4.2 1.17 2-2.4c-2.07.6-5.32.5-5.8-2.14m3.1-3.3l-1.13 1.54c-2.16 1.45 1.64 4.65 2.58 2.42 1.76-1.52-.6-2.73-1.45-3.96zm10.08 3.88c.13-2.2 2.02-3.6 3.7-4.7-1.04 2.1-2.4 4.02-3.87 5.83l.18-1.12zm30.67.56c-1.83-2.5 1.28-5.6 3.87-4.2 1.83.63 1.5 2.8 1.05 4.24.32 1.3 1.66 2.82.34 4-1.54 1.9-4.56 1.46-5.98-.35-.44-1.27.45-2.48.72-3.7m1.38-2.75c-1.2 1.44 1.3 3.17 2.32 1.68 1.17-1.43-1.3-3.17-2.32-1.68m-1.4 4.68l2.34 2.82a13.91 13.91 0 0 0 2.4-2.85c-1.35-1.73-3.22-.88-4.73.03z"/><path d="M427.06 130.02a19.19 19.19 0 0 1 4.21-5.5c-.6 2.34-1.95 4.47-4.2 5.5zm7.46 5.56c4.46-.84 5.5 6.3 2.78 8.74-1.78 2.14-5.07.01-5.14-2.35-.35-2.3-.2-5.42 2.36-6.4m-.23 1.72c-1.5 2.06-1.4 6.3 1.6 6.88 1.16-1.48 1.75-3.38 1.32-5.25-.04-1.12-2.35-3.96-2.92-1.63zm21.47 2.63c-.3-2.52 2.53-5.86 5.02-3.92 3.1 2.77 1.93 8.18-1.78 9.85-1.8-1.48-3.68-3.36-3.24-5.93m2.44-2.82c-1.45 1.9-1.58 5.65.76 6.87 2.33-.16 2.08-3.3 1.95-5 .02-1.2-1.6-3.64-2.7-1.87zm-67 15.32l4.02-.01c.6 2.2.16 4.25-1.9 5.55.92.6 1.8 1.25 2.67 1.95l-.75 3.08 1.66 2.25c-1.66 3.32-6.22 3.36-7.77-.07l1.63-2.14c-1.18-2.22-.4-4 1.7-5.2-1.05-1.63-1.06-3.56-1.25-5.4m1.26 1.07c-.86.98-.27 3.33 1.3 2.87 2.17-.68.48-4.66-1.3-2.87m-.35 6.5c-.5 1.6.1 2.13 1.76 1.58.48-1.6-.1-2.14-1.76-1.58m-1.47 5.68l2.36 1.2 2.36-1.22c-.55-2.9-4.18-2.85-4.72.02zm10.97-2.3c-2.42-2.4 1.2-6.4 3.92-4.84 2.06.9 1.97 3.45 2.5 5.28-2.1.12-4.77 1.56-6.43-.44m1.33-.26c1.97.98 2.9-.8 3.85-2.18l-2.9-1.6c-1.7.9-2.03 2.17-.96 3.78zm40.4.7a37.66 37.66 0 0 1 3.98-3.7c.47 3.25.5 6.54.5 9.83l-1.45-.1.15-7.2-3.17 1.18zm10.23.03c.58-1.23.97-2.8 2.5-3.15 1.8-.66 4.23 1.22 3.74 3.2-.92 1.85-2.47 3.26-3.8 4.78l4.5.9c-2.32.2-4.66.25-6.98.26 1.57-2.27 4.15-4.04 4.9-6.76-1.07-3-3.24 0-4.86.76zm-6.76 17l4.7 5.45-.1-4.95 1.06.1-.17 3.03 2.03-.7c.2-3.54 4.43-2.74 6.05-.73l-3.93-1.1c-2.66 1.93-1.66 6.27 2.04 5.63l.26-3.83c.78 1.14 1.76 3.2.12 4.16-2.37 2-5.5-.9-4.9-3.62l-2.4 3.86c-1.25-1.36-2.33-2.87-3.4-4.37l-.9 5.08c-.87-2.58-.62-5.33-.47-8zm-12.2 27.36c1.3-1.03 2.42-3.14 4.4-2.65 1.1.57 2 1.5 2.94 2.3l-1.76 2.3 2.12 2.16c-1.1 1.35-2.23 3.35-4.3 3-1.63-.12-2.37-1.9-3.47-2.82l4.2 1.96 1.88-3-3.84-.95 3.72-1.78c-1.08-3.1-3.74-1.14-5.88-.53zm-2.7 5.08c1.63-.47 2.17.1 1.6 1.7-1.65.46-2.18-.1-1.6-1.7z"/></g><path d="M325.52 100.24c1.62-.54 2.17.01 1.68 1.64-1.63.53-2.2-.02-1.68-1.64zm58.13 22.54c-.1-4.02-.38-8.07.1-12.07 3.82-.34 7.1 3.54 6.03 7.26-.47 3-3.6 4.05-6.12 4.8zm87.25 3.08c-2.48-1.55-2.27-4.47.1-5.94.85 1.12 2.63 2.15 1.82 3.8l-1.92 2.13m-.62-3.7c-.5 1.4-.04 1.9 1.38 1.5.48-1.4.03-1.9-1.38-1.5zm-.18 8.32c2.26-3.5 4.07-7.68 7.76-9.92-2.27 3.5-4.1 7.64-7.76 9.92zm-30.58 8.23c1.16-1.53 2.72-2.66 4.47-3.45.14 3.45.17 6.92-.33 10.35-1.7-2.35-.82-5.4-.94-8.06l-3.2 1.16zm-92.02 2.98l2.5 4.5 2.44-4.47.53 5.63 1.92-4.74 1.25.08c.86.67 1.8 1.15 2.85 1.42.9-.43 1.58-1.13 2-2.1a61.09 61.09 0 0 0-.27 6.05l-1.9-2.2c-1.06.42-1.77 1.32-2.55 2.08l-.1-5.23c-1.18 1.98-1.84 4.2-2.42 6.4l-1.9-3.03-2.2 1.96-.77-2.43-1.64 2.52.28-6.45zm-15.46 6.22l3.45-4.12-1.34 3.15 2.5-.24.1 1.03-4.73.18zm92.8 60.78c1.1-1.18 2.27-2.32 3.54-3.34 1.62 2.98 1.56 7.32-.16 10.27-.3-2.62-.33-5.27-.27-7.9l-3.1.98zm-.1 86.52c1.04.25 1.77.9 2.17 1.9l-.2 1.94-.77.24c-.9-1.18-1.5-2.6-1.2-4.1zm55.54.17c1.6-.52 2.14.06 1.6 1.7-1.6.5-2.15-.07-1.6-1.7zm-51.86.8c1.6-.5 2.1.1 1.56 1.77-1.6.47-2.12-.12-1.56-1.77z" fill="#2b2e33" class="B"/><path d="M344.3 100.26c.55.5.55.5 0 0z" fill="#d0624a" class="B"/><path d="M364.1 104.62c-2.82-.98-2.1-4.03-1.05-6.07 1.5 1.76 1.42 3.94 1.05 6.07zm68.16-1.54c.9.7.97 1.6.2 2.7l-1.85.44c-.53-1.2.4-2.85 1.65-3.15zm-11.06 17.55c.86 1.23 3.2 2.44 1.45 3.96-.94 2.23-4.74-.97-2.58-2.42l1.13-1.54zm42.12 1.7c1-1.5 3.5.25 2.32 1.68-1.03 1.5-3.52-.24-2.32-1.68zM461.9 127c1.5-.9 3.38-1.76 4.73-.03-.66 1.06-1.46 2-2.4 2.85L461.9 127zm-77.8 5.38c1.78-1.35 3.7-3.4 6.15-2.44-1.07 2.23-3.1 3.8-4.65 5.67-.82-.76-3.58-2.15-1.5-3.23zm74.1 4.72c1.12-1.77 2.73.66 2.7 1.87.13 1.7.38 4.84-1.95 5-2.34-1.22-2.2-4.97-.76-6.87zM392.1 160c1.65-.56 2.24-.03 1.76 1.58-1.67.55-2.26.02-1.76-1.58zm10.85 3.1c-1.07-1.6-.75-2.87.96-3.78l2.9 1.6c-.95 1.4-1.88 3.16-3.85 2.18zm-12.32 2.58c.54-2.87 4.17-2.92 4.72-.02l-2.36 1.22-2.36-1.2zm17.53 16.52c3.47-.4.1 4.13-.84 1.03l.84-1.03zm22.1.77c3-1.5.07 3.4 0 0zm-22.04 2.1c1.54-.7 2.7 1.86.9 2.25-1.55.68-2.72-1.88-.9-2.25zm-21.6 8.37l1.64.36c.22 5.33.1 10.67-.05 16l-1.52-.82c-.27-5.17-.1-10.36-.07-15.54z" fill="#ff7252" class="B"/><path d="M451.34 102.9c1.13-1.02 2.55-3.8 4.3-2.73.43 3.2.24 6.46-.02 9.68-2.08-2.14-1.04-5.3-1.22-7.96l-3.06 1zm2.36 17.77c2 .07 4 .15 5.93.7-1.98.64-4.73.3-5.42 2.77l3.95-.18c.86 1.66 2.17 4.03.24 5.52-2.14 2.1-5.25.2-5.66-2.4l3.73 2.48c.75-1.04 1.76-2.04 1.54-3.45-1.36-1.5-3.28-.3-4.9-.1l.6-5.35zm21.9 5.75c1.4-2.08 3.32-.04 3.84 1.6l-2.45 3.04c-.9-1.24-3.4-3.1-1.4-4.63m1.42.54c-1.3.67-1.3 1.35 0 2.04 1.3-.7 1.3-1.37 0-2.04zm-31.37 11.47l4.02-3.44c.62 3.2.6 6.5.56 9.75l-1.54-.03.22-7.03-3.26.75zm7.12 4.76c1.6-.52 2.17.03 1.66 1.65-1.63.53-2.2-.02-1.66-1.65zm-33.42 37.96c2.14-.07 4.2.37 5.57 2.15l-1.72 1.92 1.3 3.24-3.73-3.2-.2 2.7-1.3-.06.08-6.75m1.72 1.53c-.4 1.4.1 1.87 1.5 1.38.4-1.42-.12-1.88-1.5-1.38zm17.87 9.83l2.8 2.96 1.8-2.38 1.05.17c-1.45 2.1-2.3 4.5-2.8 6.98-.7-2.67-1.7-5.23-2.86-7.73zm53.43 54c2.3-1.4 1.74 4.23-.27 3.3-1.66.1-.7-2.76.27-3.3zm-30.3 2.57c3.04-1.48.05 3.32 0 0z" fill="#2e3234" class="B"/><path d="M336.02 101.1c3.34.17-1.6 2.98 0 0z" fill="#dc684d" class="B"/><path d="M500 100.36l1 .6 4.55 2.68-5.75 3.53.2-6.82zm-.06 17.9l1.07.68 4.56 2.76-4.45 2.55-1.18.7v-6.7zm.4 18.8l.68-.18 4.55 2.93-5.8 3.3c.1-2-.25-4.14.58-6.04zm-.4 17.15l1.06.68 4.57 2.8-4.4 2.5-1.22.72-.02-6.72z" fill="#b6b6b6" class="B"/><path d="M514.37 101.17l7.5-.16c-.34 1.73-.38 3.5-.25 5.24l-2.16-.42-.67-3.57-1.94.02.4 3.58-1.48.04.13-2.73-1.53-2zm.53 22.3a15.2 15.2 0 0 1 .12-5.82l1.38 2.9 2.26-2.6.34 5.35c-1.44-.7-3.4-4.02-4.1.17zm18.02-4.57c1.4-1.8 3.54.32 4.96 1-.94 2.3-2.63 3.77-5.22 3.5a44.91 44.91 0 0 1 .26-4.5m1.2 1.2c-.43 1.44.04 1.92 1.43 1.44.42-1.43-.05-1.9-1.43-1.44zm18.26 13.9c1.58 1.48 3.23.4 4.75-.4 1 .3 1.6 1.3 2.4 1.92l-3.53-.57v2.2l3.5.1-2.43 1.6c-1.1-.48-2.14-2.4-3.37-1.13l-.7.48-.62-4.2zm-10.65 6.8l3.43 1.1v2.65l-.05 1.9-1.55-1.42-2.1 1.2.27-5.44m1.38 1.43c-1.6 2.95 3.32.22 0 0zm-6.7-.77l1.5-.03.05 3.6.97-.05 1.34-4.6.2 5.78c-1.5.4-2.82.12-3.98-.82l-.07-3.88zM516 187.02l3.28 1.75 2.02-1.83 1.4 5.97-3.86-1.6-2.1 1.94c-.83-1.02-2.4-1.77-2.4-3.24.37-1.08 1.07-2 1.66-2.98m-.13 3.05c.37 1.58 3.27 1.48 3.63-.05-.48-1.4-3.33-1.54-3.63.05zm-146 87.32c.3-1.73.47-3.54 1.44-5.05l1.45 2.94 2.45-2.9.57 5.14-5.9-.12z" fill="#ddd" class="B"/><path d="M522.4 106c.3-2.05.06-4.55 2.36-5.48l.25 1.86c-2.33-.82-1.1 2.87.27.82l1.4-1.18 1.28 1.95.18.8c-.9 2.2-4 .6-5.75 1.23z" fill="#acacac" class="B"/><path d="M526.7 102.02c.87-2 3 1.45 1.28 1.95l-1.28-1.95z" fill="#e0e0e0" class="B"/><path d="M529.4 100.87l3.94 1.35 3.33-1.7c-1.44 1.85-1.24 4.08-.05 5.97-2.17-.16-3.7-1-3-3.5-1.43.77-2.68 2.85-4.36 2.77-.1-1.63.07-3.26.15-4.88zm-14.76 40.26c2.1.25 4.24.4 6.37.3l1.6.27.06 4.04-3.82.12.44-2.88-4.47 3.48-.17-5.32m1.4 1.27c-1.46 3.04 3.3.04 0 0zm15.38.24l3.33-1.9 1 2.77.53 1.32-2.13 1.77-2.67-.95 2.53-.85-2.58-2.17zM189 194.4h19.75l.1 133.05-19.93.02.04-62.47c.44-3.02.38-6-.02-9l.07-61.58zm235.23 79.06c1.44.12 1.58 3.84.08 4-.88-1.07-.85-2.88-.08-4z" fill="#d7d7d7" class="B"/><path d="M537.7 100.67a16.84 16.84 0 0 1 3.55 1.25l.07 4.54-1.76-1.47-2.02 1.27.16-5.6m1.4 1.43c-1.68 2.9 3.3.33 0 0zm-50.43 191.78l3.8-.35c-1.13 1.8-.47 3.75-.1 5.63l-3.75-.8.03-4.47z" fill="#ccc" class="B"/><path d="M541.66 105.94l2.66-5.33c1.1.98.52 4.63 2.53 4.2 1.06-1.23-.08-2.55-.47-3.8l5.28.43c.3 1.4.33 3.03 1.68 3.9l1.15-4.7.47 4.38-2.3 1.73c-.97-1.2-1.15-3.2-2.67-3.88-1.37.4-1.82 1.5-1.35 3.25l-4.35-1-2.64.83zm-19.62 17.7c-2.76-.72-2.06-3.8-1.83-5.9l1.8 5 1.5-5.07c.1 2.05 1.14 5.02-1.47 5.98zm15.82-5.08c2.87-.15 5.87-.48 8.55.83l1.9-1.55-2.03 5.73c-1.05-1.48-1.22-4.43-3.32-4.5-.56 1.5-.9 3.07-1.33 4.6-.1-1.9-.7-3.56-1.87-4.93a18.01 18.01 0 0 0-1.53 5c-.23-1.72-.3-3.45-.37-5.18zm10.34 15.85c.6-1.26 2.18-.33 3.23-.45l-2.8 2.3 3.38-1.67-.8 3.75-1.72-.87-1.47 1.53.2-4.6zm-33.64-1c2.54.2 4.62 1.12 4.13 4.23l2.6-4.42 1.9 4.12.44.94-6.36-.01-1.06-3.98.35 4.76-1.6-.6c-.25-1.67-.37-3.34-.38-5.03zm14.9 4.7c-2.63-1.54.01-5.9 2.5-4.18l1.5 2.93-2.75 2.48-1.26-1.23m.62-2.7c-.56 1.4-.14 1.92 1.27 1.58.56-1.4.14-1.93-1.27-1.58zm-11.43 26.4l2.28-4.98c1.96.43 1.67 3.77 2.77 5.18l-2.5-1.5-2.56 1.3zm12.77-4.76l3.22-.26-1.8 1.62 1.2 1.16-2.78 2.14.16-4.66zm4.95-.37c1.08.5 1.7 1.44 1.83 2.8l.83 2.4-2.3-1.44-2.17 1.7 1.8-5.45zm7.25.01l1.1.2.15 3.13 2.36 1.5-3.5.23-.03-1.22-.1-3.85zm-.17 23.12l3.25.73c.1 1.5.02 3.02.04 4.54l-.42-.22c-.96-.7-2.03-1-3.2-.9l.33-4.15m.9 1.23c-.3 3.34 3.1-1.14 0 0zm-15.5 6.47l3.18.14c-.7 1.73-1.18 3.53-1.66 5.34l-1.52-5.48zm8.43-.14l3.22.83c.14 1.58.12 3.17.18 4.76l-2-1.9-1.63 1.55.22-5.25m1 1.93c.6.48.6.48 0 0zm-208.23 79.87c1.53-2.3 4.52-2.1 6.94-2.12 4.37.1 8.74-.15 13.1.14 2.83.15 4.82 3.06 4.58 5.77.33 3.96.48 9.26-4.13 10.78-5.75-.13-11.5-.15-17.23.05-2.35-.94-4.47-3-4.3-5.72-.04-2.94-.62-6.3 1.05-8.9m8.88 8.87c1.47 2.42 4.12-.77 3.72-2.63a14.99 14.99 0 0 0-2.76 2.2l-.77-1.73c1.25-.6 2.54-1.16 3.67-1.98-2.74-1.42-6.2 1.63-3.86 4.14m6.3-2.33l-1.82-2.14-.17 4.96 2.42-2.07 1.34 2.52c.3-1.28.68-2.53 1.15-3.75 2.03-.83 1.15 2.72 1.87 3.9.55-1.9 1.12-3.8 1.75-5.66-2.22.5-5.12.02-6.54 2.24m-12.92-2.55c-.12 1.8-.15 3.6-.15 5.4l3.47.37-1.68-2.23c-.42-1.25-.9-2.48-1.64-3.55m4.1 1.3c-.78.73-.9 3.24.54 3.16.8-.74.9-3.24-.54-3.16zm80.23-1.53l3.35.8 3.67-.73-2.16 5.18-1.43-2.28-1.7 2.3-1.74-5.3z" fill="#ebebeb" class="B"/><path d="M555.6 101.33c1.58-.23 3.08.08 4.37 1.07a28.63 28.63 0 0 1 3.63-1.93c-1.17 1.7-1.16 3.75-.92 5.7l-5.3-1.04-1.43 1.06-.35-4.87m1.53.85c-1.5 2.97 3.35.1 0 0m2.3 1.77c.57.55.57.55 0 0zm-15.76 29.68l3.85.1-.66 1.88-.95 2.96-.88-.12-1.05-3.77-.3-1.04z" fill="#d9d9d9" class="B"/><path d="M525.28 103.2c-1.38 2.05-2.6-1.64-.27-.82l.27.82zm-72.1 170.24c1.7.1 2.55 4.22-.1 3.32-2.04.16-.73-2.63.1-3.32zm5.32-.87l2.72 2.37.1-1.84h1.38l-.26 5.1-2.48-2.3-1.2 2.5c-.23-1.94-.26-3.9-.24-5.84zm-24.33 22.7c1.42.2 2.8-.1 4.07-.75l-1.6 5.32-1.83-2.12-1.56 2.2c-.44-1.6-1.13-3.15-1.1-4.83l.3-.76.74 2.23 1-1.3zm-18.9-.02l.98-.63 1.44 1.58 1.94-1.95.12 4.4.9.05 1.07-4.46 3.02.96c-.3 1.5.3 2.9 1.2 4.1l-2.37.57-.7-4.4-1.63 5.37c-1.22-1.1-2.46-2.2-3.87-3.05l-.68 2-1.64-.9c.45-1.17.53-2.38.23-3.63z" fill="#f6f6f6" class="B"/><path d="M539.1 102.1c3.3.33-1.68 2.9 0 0z" fill="#8b8b8b" class="B"/><path d="M559.43 103.95c.57.55.57.55 0 0zm-37.23 96.2c3.35.01-1.43 3.04 0 0zm20.65 2.92c.65.43.65.43 0 0z" fill="#555" class="B"/><path d="M347.03 107.48l.85-.25.55.6-1 1.2-.4-1.53z" fill="#3c3336" class="B"/><path d="M349.04 106.9l6.12.93h-2.68l-1.3 1.44-1.25 1.5c.66-1.4.26-1.76-1.2-1.07-.96.57-1.95 1.1-2.96 1.56l1.63-2.24 1-1.2.6-.92z" fill="#a65444" class="B"/><path d="M348.75 109.7c1.45-.7 1.85-.34 1.2 1.07l-1.2-1.07z" fill="#383235" class="B"/><path d="M411 112.34l3.24-.02.57 2.84.4 2.6-4.22-.05v-5.38z" fill="#a95644" class="B"/><path d="M419.5 112.56c1.36-1.54 3.28.05 4.23 1.2l-2.2-.37-.84.87c-1.1 2.48-2.87-1.1-1.18-1.7z" fill="#854b3f" class="B"/><path d="M424.3 112.57c1.46.7 1.1 3.63.33 4.9-1.52-.7-1.12-3.64-.33-4.9z" fill="#884d40" class="B"/><path d="M426.06 111.86c2.18.18 4.44.47 5.05 3.04l-3.43-1.66-.52 3.62 4.03-1.62c-.75 2.44-3.02 2.8-5.18 3.02l.05-6.4z" fill="#824a3f" class="B"/><path d="M431.64 112l3.54.15-1.86 1.25-.14 3.3 2.1 1.2-3.7.13.06-6.03z" fill="#77473d" class="B"/><path d="M447.73 117.26c-2.33-2.4.26-5.5 3.03-5.66l1.8 2.6 1.42-1.97c.4 1.84.92 3.68 1.76 5.4l1.06-4.95 1.42-.14-.47 4.27c-.68 1.22-2.32 1.1-3.46 1.6l-1.35-2.36c-1.33 1.27-3.62 3.3-5.2 1.23m1.87-4.57l-1.47 2.32 1.46 2.42c1.68-1.4 1.56-3.32.01-4.74z" fill="#81493f" class="B"/><path d="M459.1 112h3.46l-1.94 6.57-1.52-6.6z" fill="#945042" class="B"/><path d="M467.12 113.2c.92-1.4 2.6-.5 3.93-.47l-.06 5.63-3.18-1.32-.88-1.3.2-2.55z" fill="#a45343" class="B"/><path d="M471.07 111.7c1.75.5 4.7.7 4.16 3.3.55 2.63-2.43 2.95-4.24 3.37l.06-5.63.02-1.04m1.2 1.85c-.9.83-.84 2.92.55 3.2 1.95-.17 1.4-4.18-.55-3.2z" fill="#79483e" class="B"/><path d="M476.02 112.1h4.1l-1.72 1.33-.17 3.24 1.94 1.34-4.2-.04.05-5.87z" fill="#8e4e41" class="B"/><path d="M449.6 112.7c1.55 1.42 1.67 3.35-.01 4.74l-1.46-2.42 1.47-2.32z" fill="#e96d4f" class="B"/><path d="M465.82 113.37c.17.3.17.3 0 0z" fill="#f56f50" class="B"/><path d="M472.27 113.55c1.94-1 2.5 3.02.55 3.2-1.4-.27-1.44-2.36-.55-3.2z" fill="#f37151" class="B"/><path d="M408.22 115.1c3.02-1.46.04 3.34 0 0z" fill="#8b4b3f" class="B"/><path d="M420.67 114.27c1.44.22 3.82 1.94 1.92 3.3-1.43 1.33-3.26-.07-4.2-1.27l3.63.8-1.36-2.84z" fill="#804a3e" class="B"/><path d="M436.48 115.15c1.15-.93 1.8-.7 1.97.73-1.16.93-1.82.7-1.97-.73z" fill="#9e5142" class="B"/><path d="M444.28 115.14c2.94-1.6.2 3.33 0 0z" fill="#8e4c40" class="B"/><path d="M481.3 115.1c2.97-1.57.17 3.33 0 0z" fill="#8d4c40" class="B"/><path d="M212.1 118.03l.38-.62-.4 3.98c-3.22 1.73-6.53 3.37-10.1 4.27-16.62 4.33-33.94 4.3-51 3.95-9-.4-18.05-1.5-26.6-4.42l-.96-1.9c4.55 2.25 9.54 3.38 14.52 4.16 15.58 2.4 31.45 2.02 47.07.26 7.6-.94 15.33-2.1 22.45-5.06 2.17-.77 3.53-2.7 4.6-4.63zm320.57 69.6l3.15-.37-.15 5.82-2.63-.76-.37-4.7z" fill="#bdbdbd" class="B"/><g fill="#fdfdfd" class="B"><path d="M525.26 117.77l2 3.17 2.13-3.14.48 4.76a84.57 84.57 0 0 0-4.78.04l.18-4.83zM534 133.2l2.06 3.4 2.12-3.2.7 4.42-5.25-.25.37-4.37zm-6.72 8.55l3.25-.66.25 3.7-.56-.36a7.28 7.28 0 0 1-2.94-2.67zm-.66 14.88l2.28 2.53.75-2.8.7 5.12c-1.35-.67-2.72-1.2-4.22-.78l.5-4.08zm-361.2 8.47l2.97-6.16.5 5.3-3.46.85zm358.1 21.9l2.3 2.5 2.23-1.1-.63 4.42-2.53-2.88-.75 3.08-.62-6.02zm2.27 55.67l2.2-.4c-.46 2.65-.7 5.4-1.76 7.9-1.66 3.37-8.56 2.06-7.27-2.17.5-2.3.33-5.74 3.4-5.95-.4 2.53-1.26 5.03-1.15 7.62 1.22.82 2.23.63 3.02-.58.8-2.06 1.07-4.28 1.55-6.43zm-49.92 2.68l3.03-2.8 1.97 2.97c-2.6 1.42-2.47 4.23-1.1 6.5l-3.85-.8.9-4-.95-1.85zM530 242.5l6.82.08c-.65 2.3-3.1 1.5-4.78 1.86l-.8 1.45 4.56.56c-1.4 1.93-4.4 1.07-5.62 3.22l5.2.77c-1.85 2.16-4.9 1.17-7.37 1.36l1.98-9.3zm-70.13 4.43c1.46-2.66 4.45-2.98 6.84-1.35l-1.14 6.07-4.67.36-2-2.2c1.38-1.74 3.36-2.46 5.53-2.6l-.3-1.22-4.26.94m2.18 2.17c.05 3.32 3.04-1.48 0 0zm19.18-2.53c1.74-2.56 4.53-2.32 6.9-.96l-1.16 6.2c-2.1-.3-5.66 1.06-6.26-1.93.58-2.62 3.64-2.23 5.62-2.93-1.57-.88-3.43-.32-5.1-.38m2.16 2.52c0 3.3 3.1-1.44 0 0zm5.64.9c-.32-1.9.3-4.07 2-5.12 1.94-.32 3.93-.17 5.9-.23-.87 2.92-.84 6.2-2.43 8.86-2.1 1.92-5 .62-6.92-.85 1.98-.23 4.1.28 5.96-.64-1.52-.6-3.68-.3-4.52-2.02m3.33-3.47c-.98.54-1.93 3.4-.27 3.3 2 .93 2.58-4.7.27-3.3zm-116.9 27.9c1.32-2.23 3.9-1.28 5.2.23l-4.15 3.42-.1-2.83 3.05-1-3.98.18zm26.66-2.1l1.92 3.15c.77-.96 1.28-2.25 2.5-2.74l.47 4.72-5.4-.05.52-5.08zm23.73.24l2.64 2.25 1.68-2.34-.25 5.6-2.6-2.1-1.14 2.27-.34-5.7zm5.37.7c1.73-1.34 4.7.46 3.96 2.65-.3 2.36-2.98 1.78-4.63 1.7.15-1.46.37-2.9.67-4.34m.83 1.25c-.46 1.66.1 2.2 1.72 1.62.45-1.65-.12-2.2-1.72-1.62z"/><path d="M446.77 273.02l3.94.58-.47 4.63-1.77-1.83-1.65 1.74-.05-5.12m1.62 1.16c.54.63.54.63 0 0zm-1.85 19.6l6 .32-.14 4.4h-1.08l-.52-3.28c-2.3-1.28-1.35 2-1.72 3.3l-1.05-.02c-.18-1.68-.34-3.4-1.48-4.74zm-87.4.32l2.13 2 1.26-1.7 1.15 2.2.9-2.03 3.77 1.92.5 2.97-2.6-.08c.1-1.3-.02-2.6-.86-3.64l-1.67 4.32-1.3-2.93-1.53 3.1c-.7-2-1.32-4.04-1.74-6.13zm9.85 1.75c1.77-1.57 3.85-1.8 5.36.3l-3.5-.32.1 2.37 3.33-.02c-.92.63-1.87 1.2-2.85 1.73-1.46-.9-1.83-2.6-2.45-4.06zm5.68-.95l2.03-.76-.26 4.17 1.65 1.34-3.47-.3.05-4.46zm21.85 4.5l2.5-5.4 2.68 5.2.2-4.92 3.74 1.34 1.28-.66 1.67 1.8 1.34-2.82c.47 2 .47 4.08.12 6.1l-1.47-2.52-2.7 2.16.6-3.8-4.22 3.56c-1.9-.52-3.9-1.07-5.77-.05m6.7-3.28c.6.58.6.58 0 0zm23.7 1c-.06-2.43 3.6-3.92 4.28-1.08.95 3.02-2.15 4.33-4.47 3.02l.2-1.94m1.5-.93c-.56 1.65-.04 2.24 1.56 1.77.55-1.68.03-2.26-1.56-1.77zm24.7 1.6l.67-4.4 2.17 2.96 2.08-3.14.46 4.7-5.38-.1zm-74.36-3.68l2.4 2.58 1.72-2.53-.14 5.76-2.4-2.22-1.68 2.3.1-5.88z"/></g><path d="M531.07 119.3c1.42 0 1.22 2.5.44 3.24-1.43-.02-1.26-2.5-.44-3.24z" fill="#c5c5c5" class="B"/><path d="M425.7 123.67c.4-1.3.3-3.87 2.27-3.68 2-.35 2.03 2.34 2.36 3.67l-2.3 1.37-2.33-1.36m1.65-1.68c.15 3.33 3-1.55 0 0z" fill="#583e39" class="B"/><path d="M534.13 120.1c1.38-.47 1.85.01 1.43 1.44-1.4.48-1.86 0-1.43-1.44zm-2.18 13.8l2.04-.7-.37 4.37 5.25.25 1.5.3 2.55 1.14 1.05-4.6 1.05 3.77.88.12.95-2.96 1.34-1.2-.2 4.6 1.47-1.53 1.72.87 2.83 1.32-4.96 1.13-2.96.68-.27 1.8-.68 1.32v-2.65l-3.43-1.1-.27 5.44-1-.1c.07-1.93-.04-3.86-.2-5.78l-1.34 4.6-.97.05-.05-3.6-1.5.03.07 3.88-.2-.48-.53-1.32-1-2.77-3.33 1.9 2.58 2.17-3.2 1.08-.02-1.12-.25-3.7-3.25.66-1-.2c-.6-.1-1.2-.12-1.8-.03l-1.9.18-1.6-.27c-2.13.1-4.27-.04-6.37-.3l-1-.1 1.3-2.58 1.6.6-.35-4.76 1.06 3.98h6.36l-.44-.94.72.1-.06 1.18 1.86-.25 3.75-.28 1.26 1.23 2.75-2.48-1.5-2.93zm-64.8 17.42l2.98 5.77-2.5-1.1-1.9.57 1.43-5.24zm71.1 37.98c.6.48.6.48 0 0zm-106.22 85.22c1.6-.57 2.17-.03 1.72 1.62-1.6.58-2.18.04-1.72-1.62z" fill="#474747" class="B"/><path d="M427.35 122c3-1.55.15 3.33 0 0z" fill="#f56e50" class="B"/><path d="M431.9 125.88c1.7-.8 3.96-1.44 4.38 1.1.54 2.75-2.43 3.2-4.3 2.28l-.08-3.37m1.5 1.12c.06 3.33 3.03-1.48 0 0z" fill="#523d39" class="B"/><path d="M433.42 127c3.03-1.48.06 3.33 0 0z" fill="#eb6f50" class="B"/><path d="M354.32 129.35c2.98-2.9 7.3 2.55 3.77 4.78-2.85 2.72-6.96-2.6-3.77-4.78z" fill="#f76d50" class="B"/><path d="M373.9 136.96c-.12-2.36-.05-4.8 2.67-5.4l.15 5.47-2.82-.06z" fill="#8d4c41" class="B"/><path d="M524.1 133.4l4.16 1.76-3.36-.23c1.06.8 2.1 1.64 3.05 2.6l-2.26.84-1.86.25.06-1.18.2-4.03z" fill="#d0d0d0" class="B"/><path d="M540.38 138.1c-.44-1.04-.76-3.58.67-3.8.6 1.27.53 2.52-.22 3.73l-.45.07z" fill="#eaeaea" class="B"/><path d="M530.07 135.38c1.4-.35 1.83.18 1.27 1.58-1.4.34-1.83-.18-1.27-1.58zm-355.2 31.77c-3.7-5.12 2.07-14.04 8.43-11.28a57.37 57.37 0 0 1 1.77 4.01c-1.6-.82-3.16-1.7-4.68-2.66-4.42 1.1-4.68 5.84-3.78 9.5 2.5.06 4.5-1.27 6.2-2.97l-4.28-.76c1.9-1.27 4.16-1.53 6.36-1.83-.76 2.85-1.95 5.68-4.5 7.37-1.92.1-4.27.44-5.53-1.4zm241.4 127.45c.95-.73 2.15-1.12 3.36-.96l.02.6-1.94 1.95-1.44-1.58zm59.9 2.86c-1.42-.9-1.4-1.7.1-2.4 1.45.87 1.4 1.68-.1 2.4zm-59.45 2.3l.68-2c1.4.84 2.65 1.94 3.87 3.05l-.07.26c-1.56-.16-3.17-.4-4.48-1.3z" fill="#000005" class="B"/><path d="M434.3 137.3c.57-2.33 2.88.5 2.92 1.63.43 1.87-.16 3.77-1.32 5.25-3-.58-3.1-4.82-1.6-6.88z" fill="#ff7051" class="B"/><path d="M386.43 138.4c1.8.25.86 4.3-.9 3.54-.82-1.08-.3-2.95.9-3.54z" fill="#874a41" class="B"/><path d="M524.5 141.5c.6-.1 1.2-.08 1.8.03-.7 1.32-.56 2.95-1.36 4.2-1.57-.33-1.47-3.25-.43-4.22z" fill="#d2d2d2" class="B"/><path d="M546.1 141.45l2.96-.68c-.36 1.86-.34 3.76.2 5.6l-3.57-.27.15-2.84.27-1.8z" fill="#c1c1c1" class="B"/><path d="M516.04 142.4c3.3.04-1.46 3.04 0 0zm16.16 28.05l2.84.02c.06 1.64 1.3 3.82-.3 5.05-1.52.06-3-.32-4.5-.58l1.96-4.5z" fill="#6b6b6b" class="B"/><path d="M543.1 142.24c3.32.22-1.6 2.95 0 0z" fill="#919191" class="B"/><path d="M530.22 144.42l.56.36.02 1.12c-1.18.8-2.02.58-2.53-.62l1.95-.86zM365.56 273.17l3.93-.5c-1.35 1.67-.77 3.62-.15 5.44l-3.05-.3-.73-4.63z" fill="#d4d4d4" class="B"/><path d="M222.7 151.7l2.18-.2c-.8 3.42-1.1 6.97-2.25 10.3-1.2 3.75-8.3 4.52-9.02.16.18-3.28 1.07-6.5 1.8-9.7l2.16.06c-.75 3.25-1.75 6.48-1.85 9.83 1.45.8 2.9.83 4.32.05 1.8-3.2 1.8-7.02 2.67-10.52z" fill="#00090d" class="B"/><path d="M227.8 151.44l8.13-.88c-.84 2.9-4.2 2.02-6.45 2.74l-.34 3.2c1.73.18 4.77-1.76 5.04 1.05l-5.5.78-1.02 3.32 5.97-.38-.9 2-7.4.54c.95-4.1 1.8-8.23 2.46-12.38z" fill="#000409" class="B"/><path d="M433.07 151.52c1.64-.12 3.2.25 4.6 1.15l-.55 4.27c-1.37-.43-2.77-.45-4.16-.2l.1-5.22m1.4 1.57c.16 3.32 2.96-1.57 0 0z" fill="#874b3f" class="B"/><path d="M396.62 151.7l3.85.63-2.84 1 2.14 1-1.57 1.37c.62.8 1.33 1.54 2 2.3l-3.5-.06-.1-6.23z" fill="#884b3f" class="B"/><path d="M437.55 156.88l2.6-5.7c1.02 1.66 2 3.38 2.42 5.32l.05.6c-1.63-.88-3.37-.8-5.06-.22z" fill="#7c483e" class="B"/><path d="M443.25 151.3l2.25 1.42 1.42 1.52.36 3-4.67-.13-.05-.6c.07-1.76.4-3.48.7-5.2z" fill="#af5745" class="B"/><path d="M469.6 152.02c1.54.53 3.15.48 4.7.02l-2.36 5.42-2.35-5.44z" fill="#814a3f" class="B"/><path d="M202.2 153.68l2.33-.12c.07 3.3.27 6.6.95 9.86 1.77-3.26 2.84-6.85 4.75-10.02l2.6-1.1-6.4 13.42-2.7.36c-.7-4.1-1.18-8.26-1.53-12.4zm-35.1 4.28c.67-.93 2.5-2.32 3.04-.45.57 4 1.03 8.02 1.48 12.04-2.1.06-2.93-1-2.45-3.2l-4.27.28c-.92 1.8-1.94 3.68-4.17 4 2.06-4.26 4.15-8.5 6.37-12.68m-1.68 7.15a51.33 51.33 0 0 0 3.46-.85c-.07-1.78-.27-3.55-.5-5.3-1.1 2-2.04 4.08-2.97 6.16z" fill="#010c10" class="B"/><path d="M392.45 153.5c1.8-1.8 3.48 2.2 1.3 2.87-1.58.46-2.17-1.9-1.3-2.87z" fill="#e06b4f" class="B"/><path d="M434.46 153.1c2.96-1.57.16 3.32 0 0z" fill="#e57151" class="B"/><path d="M461.38 153.24c1.8-1.8 3.4 2.22 1.3 2.9-1.6.46-2.15-1.93-1.3-2.9z" fill="#eb6e50" class="B"/><path d="M188.42 154.83l7.42-.55-.4 2.05-5.6.4-.4 3.58 5.07-.9-.25 2.04-5.38.4-.54 3.78 5.27-.96-.04 2.07-7.9.97c.78-3.38 1.52-6.78 2.04-10.2.22-.9.46-1.78.72-2.66z" fill="#00070b" class="B"/><path d="M182.95 155.17l4.36.32.4 2c-.52 3.43-1.26 6.83-2.04 10.2-1.74.4-3.5.7-5.27.84 2.55-1.7 3.74-4.52 4.5-7.37-2.2.3-4.46.56-6.36 1.83l4.28.76c-1.7 1.7-3.7 3.03-6.2 2.97-.9-3.67-.64-8.42 3.78-9.5 1.52.96 3.08 1.84 4.68 2.66a57.37 57.37 0 0 0-1.77-4.01l-.34-.7zM130.3 168.6l3.02-5.77.44 5.4-3.46.38zm321.8 73.7l2.26.36.73 5.97c1.7-2.37 2.16-6.45 5.8-6.56-1.55 3.32-3.34 6.52-5.13 9.72l-2.6-.02a175.75 175.75 0 0 1-1.07-9.47zm57.77.27l2.46-.05.47 6c1.9-2.28 2.4-6.27 6-6.43-1.5 3.33-3.35 6.5-5.14 9.68l-2.48.04-1.3-9.24zm-41.27 2.16l5.06-.27c1.7 2.38 1.38 7.08-1.9 7.78.2-2.14.9-4.3.35-6.44-2.98 1.22-1.43 6.03-4.97 6.44l1.45-7.5zm31.34 7.2c-4.18-.57-2.68-7.62 1.1-7.45 2.76-.74 5.5 4.7 1.27 4.8l-.7-3.74c-.97 1.25-3.57 2.9-1.7 4.46l4.63-.15c-1.37.9-2.76 2.83-4.62 2.08z" fill="#fff" class="B"/><path d="M514.7 156.52l3.3.77.45 4.27-3.97-.23.23-4.8m1.57 1.72c.52.58.52.58 0 0z" fill="#d6d6d6" class="B"/><path d="M524.4 157.44c1.44-.1 1.48 3.47.02 3.35-.73-1.12-.73-2.23-.02-3.35z" fill="#d3d3d3" class="B"/><path d="M538.18 159.46l1.84-2.16a4.41 4.41 0 0 0 .15 3.31l1.2-.33 1.27-.36.75-2.2.22-1.04.1 3.85-.04 1.6-4.64-.28-.83-2.4z" fill="#909090" class="B"/><path d="M540.02 157.3l1.3 2.16.04.82-1.2.33a4.41 4.41 0 0 1-.15-3.31z" fill="#dcdcdc" class="B"/><path d="M541.32 159.46c.05-1.6.74-2.2 2.06-1.74l-.75 2.2-1.27.36-.04-.82z" fill="#343434" class="B"/><path d="M153.4 158.66l9.5-.86c-.35 2.3-2.6 2.2-4.38 2.62-.76 3.3-1.04 6.7-2.06 9.92l-2.1 1.28c.56-3.8 1.36-7.57 2.23-11.3l-3.88.47.7-2.12z" fill="#000509" class="B"/><path d="M516.28 158.24c.52.58.52.58 0 0z" fill="#5a5a5a" class="B"/><path d="M147.16 167.66c1.33-2.98-.08-8.03 3.8-9.27-1.13 4.63-.6 10.16-3.68 14.02-1.58-2.86-2.94-5.85-4.57-8.68-.68 2.83-1.17 5.7-1.63 8.58l-2.33.22c1.18-4.54 1.5-9.3 3.22-13.7 2.24 2.63 3.44 5.9 5.2 8.83z" fill="#0d191d" class="B"/><path d="M347.05 160.23l2.73-1.75.15 4.43c-.9.55-1.8 1.05-2.74 1.5l-.1-3.96.22-.03-.27-.2z" fill="#8f4d41" class="B"/><path d="M347.05 160.23l.27.2-.22.03-.05-.22z" fill="#3c3335" class="B"/><path d="M117.27 161.88l2.3-.2c.1 3.3.35 6.63.98 9.9 1.66-2.92 2.73-6.12 4.22-9.12.4-1.4 2.03-1.32 3.1-1.83-2.13 4.3-4 8.74-6.36 12.92l-2.77 1.14c-.34-4.3-1.1-8.52-1.48-12.8z" fill="#00080c" class="B"/><path d="M132.36 160.72l2.78-.22c.33 4.1.85 8.16 1.5 12.2l-2.16.5-.56-2.85c-1.32-.08-2.63-.12-3.95-.1-.97 1.83-2.04 3.76-4.36 4 2.14-4.56 4.57-9 6.76-13.53m-2.05 7.88l3.46-.38-.44-5.4c-1.07 1.9-2.03 3.84-3.02 5.77z" fill="#131e22" class="B"/><path d="M325.4 165.2l5.32.04 1.96 2.87.38-3.1h1.13l-.23 6.42-2.95-2.54-.07 2.1-3.58-.03-1.5-4.48-.36-1.02-.1-.27z" fill="#ab5544" class="B"/><path d="M335.4 165.4c2.3-1.42 5.7.74 4.77 3.5-.26 2.54-3.26 2.04-5.07 2.2.03-1.9-.01-3.8.3-5.7m1.73 1.26c-.94.8-.78 2.93.63 3.07 2-.2 1.3-4.1-.63-3.07z" fill="#75433c" class="B"/><path d="M337.12 166.65c1.94-1.04 2.63 2.88.63 3.07-1.4-.14-1.57-2.27-.63-3.07z" fill="#e86f51" class="B"/><path d="M499.43 166.12l72.48-.03-.1 2.56c-15.36.2-30.74-.4-46.1.14l3.36 4.55-3.7 3.67-3.45-3.75 3.28-4.43c-8.36-.65-16.78.4-25.1-.65l-.66-2.06z" fill="#626262" class="B"/><path d="M252.57 167.44c2.86-.76 5.84-.76 8.7.01-2.87.6-5.86.9-8.7-.01z" fill="#162025" class="B"/><path d="M242.83 168.56c2.76-.88 5.7-1.14 8.43.03-2.8.53-5.65.53-8.43-.03z" fill="#172125" class="B C"/><path d="M450.27 168.28c1.63-.5 2.17.06 1.62 1.7-1.65.5-2.2-.07-1.62-1.7z" fill="#68423b" class="B"/><path d="M235.5 169.37c1.6-1 3.7-.78 5.44-.34 1.44.8-1.45 1.17-1.9 1.15-1-.12-3.28.47-3.55-.8z" fill="#151f23" class="B"/><path d="M222.94 170.7c3.35-1 6.9-1.35 10.27-.23-3.37.83-6.87.88-10.27.23z" fill="#192327" class="B C"/><path d="M515.34 170.36l4.47.65.06 4-4.6.67.07-5.32z" fill="#696969" class="B"/><path d="M537.24 173.28l3.77-3.72 3.76 3.4c-1.13 1.38-2.43 2.6-3.7 3.87l-3.84-3.56zm-134 122.82c.6.58.6.58 0 0z" fill="#646464" class="B"/><path d="M210.7 171.72c3.72-1.3 7.68-1.24 11.44-.2-3.78.64-7.64.75-11.44.2z" fill="#172125" class="B"/><path d="M198.7 172.56c3.73-1.17 7.65-1.1 11.4-.17-3.76.78-7.65 1.1-11.4.17zm-25.05 2.14c3.7-1.3 7.66-1.2 11.45-.32-3.77.78-7.65 1-11.45.32z" fill="#182226" class="B"/><path d="M500.33 173.04l.67-.17 4.6 2.55-4.72 3.1-.64-.6c-.6-1.57-.73-3.37.1-4.88z" fill="#b5b5b5" class="B"/><path d="M227.08 176.4l35.74-2.57.12 5.53-.78.02h-35.7l.62-2.98z" fill="#a2a2a1" class="B"/><path d="M102.4 177.17l3.74-.14c8.65 1.2 17.5.62 26.2.16l1.8 1.5c-7.36.5-14.73.4-22.1.45-3.32.06-6.57-.76-9.63-1.98z" fill="#141e22" class="B"/><path d="M134.84 177.7c4.03-1.1 8.27-1.47 12.3-.2-4.06.8-8.22.85-12.3.2z" fill="#192326" class="B C"/><path d="M387.1 178.04c1.3 1.1.95 4 .45 5.63-1.56-.87-1.06-4.1-.45-5.63z" fill="#ff7b56" class="B"/><path d="M226.44 180.23l34.45-.05 2.2.27-.07 4.96c-12.43.44-24.88.1-37.3.18l.72-5.36zm-1.6 11.82l.74-5.33 32.42-.04c1.62.02 3.3-.1 4.86.43.2 1.7.17 3.4.14 5.12l-2.07-.05c-12.03-.27-24.06 0-36.1-.13zm-11.9 2.37c7.37.33 14.68-.9 22.04-.72l26.92.04 1.24.02c-.28 1.8.5 4.13-1.18 5.45l-47 .07c-2.6.17-1.67-3.25-2.03-4.86zm308 4.6l4.1.78a8.52 8.52 0 0 0-.8 3.15c2.45 1.1 2.36-3.05 3.5-4.32.94 2.03 1.78 4.1 2.45 6.25l-2.16-1.73c-1.84 1.17-3.88 1.78-5.62.02l-1.58.76.1-4.9m1.27 1.1c-1.43 3.04 3.35.01 0 0zm-309.04-.4l44.86-.06c1.58.04 3.22-.15 4.75.36.47 1.86 1.02 5.6-1.85 5.56-15.93-.1-31.88.34-47.8-.24l.04-5.62z" fill="#a1a1a1" class="B"/><path d="M538.8 179.87l3.92-.15-1.28 1.93 1.14 3.24-3.26.32-.52-5.34z" fill="#bbb" class="B"/><path d="M435.4 181.48c1.3 1.14 1.4 5.18-.01 6.24-.78-1.9-.73-4.34.01-6.24z" fill="#5a3e39" class="B"/><path d="M444.66 187.82c-1.3-1.18-1.3-5.2-.03-6.42.8 1.95.78 4.46.03 6.42z" fill="#463a37" class="B"/><path d="M531.6 184.62c.65-1.1.23-5.4 2.12-3.35l.48 3.63 1.9-2.58 1.82 2.62.28.4 1.12-.12 3.26-.32c1.24-.1 2.48-.12 3.73-.05l.42.22.76.43c-3.88.7-7.8 1.07-11.66 1.77-1.05.15-2.1.3-3.15.37l-.65.02-3.18-.14.13.46-.9.43a57.65 57.65 0 0 0-2.23 1.1l-2.3-2.5c.16 2 .34 4.02.62 6.02l.1.8-1.55-.9c-.56-1.97-1-3.97-1.4-5.97l-2.02 1.83-3.28-1.75-.86-.45.83-1.36 1.5-2.5 1.66 2.6.83-3.98 1.54-.22-.1 3.76 5.95-.93c1.4.2 2.82.4 4.23.67zm-48.2 64.48c3.1-1.44 0 3.3 0 0z" fill="#4a4a4a" class="B"/><path d="M421.06 182.7c1.4-.5 1.9-.04 1.5 1.38-1.4.5-1.9.03-1.5-1.38z" fill="#ec7754" class="B"/><path d="M381.1 184.17c1.62-.53 2.18.02 1.68 1.64-1.64.54-2.2-.01-1.68-1.64z" fill="#4d3938" class="B"/><path d="M387.47 186.36c1.28 1.02 1.37 5.17-.2 6.12-.85-1.83-.37-4.25.2-6.12z" fill="#f27654" class="B"/><path d="M330.3 187.38c1.63-.5 2.16.07 1.6 1.7-1.65.5-2.18-.08-1.6-1.7z" fill="#553b39" class="B"/><path d="M412.2 199.94c.3-2.56-1.16-6.15 1.6-7.7l.25 6.07 3.46 1.6-5.32.03z" fill="#7e493e" class="B"/><path d="M419.28 193.06c4.35-2.8 7.1 5.7 2.62 7-4.06 1.4-6.12-5.18-2.62-7m.8.92c-1 1.12-1.1 2.68-1.53 4.05 1.2.23 2.7 1.64 3.62.15 1.85-1.35.2-5.1-2.1-4.2z" fill="#5c3f39" class="B"/><path d="M420.1 193.98c2.3-.9 3.94 2.85 2.1 4.2-.93 1.5-2.43.08-3.62-.15.43-1.37.54-2.93 1.53-4.05z" fill="#f46e50" class="B"/><path d="M514.76 201.07c.3-2.62 3.27-2.4 5.07-1.54-1.37.4-2.7.9-4 1.47.24 1.27 1 2.32 1.66 3.4l.8-3.25c1.2.7 2.8 2 .9 3-1.87 2.43-5.45-.55-4.43-3.08z" fill="#898989" class="B"/><path d="M530.8 198.64c1.64.5 4.04.15 4.7 2.2-1.32 1.52-2.86 2.82-4.36 4.15l-.35-6.34m1.4 1.55c-.47 1.4 0 1.88 1.4 1.43.46-1.4-.01-1.88-1.4-1.43z" fill="#868686" class="B"/><path d="M535.46 204.6l.53-5.76 1.97 2.44 1.7-1.8c2.08-.25 4.33-.85 6.22.47l-3.23.25 3.37 2.45c-.98 2.93-4.1 2.02-6.44 1.74l-1.3-2.17c-1 .73-1.9 1.57-2.83 2.37m5.02-3.2c-.64 1.23 1.4 2.43 2.37 1.65.52-1.2-1.42-2.47-2.37-1.65m2.37 1.65c.65.43.65.43 0 0z" fill="#838383" class="B"/><path d="M532.2 200.2c1.4-.45 1.87.02 1.4 1.43-1.4.45-1.88-.03-1.4-1.43z" fill="#5e5e5e" class="B"/><path d="M540.48 201.4c.95-.82 2.9.44 2.37 1.65-.98.78-3-.42-2.37-1.65z" fill="#575757" class="B"/><path d="M515.2 207.9l3.7.03-2.3 6.34-1.4-6.37z" fill="gray" class="B"/><path d="M519.7 207.9l4.18.22-.05 5.68-2.52-1.97-1.1 2.26-.52-6.2m1.53 1.27c.18 3.34 2.96-1.57 0 0zm17.96 8c1.54-.94 3.02 0 4.43.7l-2.87.18c.87 1.36 3.93 2.8 1.72 4.35-1.1 1.6-3-.35-4.1-1l2.97-.25c-1.02-1.18-3.02-2.13-2.14-4z" fill="#858585" class="B"/><path d="M524.77 207.93l3.72.1-2.5 1.48 2.07.92-1.7 1.17 1.87 2.32-3.16-.13-.28-5.86zm9.83.07l4.56-.08c.3 1.32.9 2.62.77 4-.97 1.86-3.16 1.84-4.94 2.2l-.4-6.12m1.67 1.44c-1.4 1.3.77 3.8 2.13 2.27 1.3-1.3-.8-3.7-2.13-2.27zm-15.93 7.9c2.8-2.73 6.63 2.5 3.7 4.72-2.7 3.3-6.86-2.47-3.7-4.72m.97 1.06c-1.4 1 .1 3.63 1.6 2.45 1.37-1-.13-3.64-1.6-2.45z" fill="#848484" class="B"/><path d="M540.92 207.9c1.55-.24 2.96.14 4.23 1.14l-3.38-.07c1.2 1.16 3.16 1.94 3.28 3.85-1.57 1.65-3.75 1.24-4.85-.7l3.13.68c-1.1-1.48-3-2.8-2.4-4.9z" fill="#8a8a8a" class="B"/><path d="M521.24 209.18c2.96-1.57.18 3.34 0 0z" fill="#595959" class="B"/><path d="M536.28 209.44c1.33-1.43 3.43.98 2.13 2.27-1.36 1.54-3.53-.96-2.13-2.27z" fill="#535353" class="B"/><path d="M515.1 216.75l3.8.08-2.27 6.4-1.54-6.5z" fill="#7f7f7f" class="B"/><path d="M525.57 216.83l3.37-.08-1.76 6.62c-.72-2.13-1.2-4.34-1.6-6.54z" fill="#7c7c7c" class="B"/><path d="M521.3 218.4c1.48-1.2 2.98 1.46 1.6 2.45-1.5 1.18-3-1.46-1.6-2.45z" fill="#454545" class="B"/><path d="M319.26 238.23c3.14-.9 6.47-.47 9.7-.54h220.96c3.2-.44 6.68 1.73 6.28 5.27l-.06 73c.5 3.5-3.17 5.17-6.12 5.02-75.67 0-151.34-.01-227 .05-1.88-.1-4.08-.03-5.35-1.68-1.72-1.64-1.5-4.18-1.62-6.34l.06-69.03c-.12-2.32.78-4.93 3.16-5.76m132.83 4.07c.26 3.17.63 6.33 1.07 9.47l2.6.02c1.8-3.2 3.58-6.4 5.13-9.72-3.65.1-4.1 4.2-5.8 6.56-.32-1.98-.53-3.98-.73-5.97l-2.26-.36m57.78.27l1.3 9.24 2.48-.04c1.8-3.2 3.63-6.35 5.14-9.68-3.58.16-4.1 4.15-6 6.43-.2-2-.34-4-.47-6l-2.46.05m15.94.1c-.48 2.15-.75 4.37-1.55 6.43-.8 1.2-1.8 1.4-3.02.58-.1-2.6.74-5.1 1.15-7.62-3.08.2-2.92 3.66-3.4 5.95-1.3 4.23 5.6 5.54 7.27 2.17 1.05-2.5 1.3-5.25 1.76-7.9l-2.2.4m-49.93 2.68l.95 1.85-.9 4 3.85.8c-1.37-2.27-1.5-5.08 1.1-6.5l-1.97-2.97-3.03 2.8m54.1-2.83l-1.98 9.3c2.46-.2 5.52.8 7.37-1.36l-5.2-.77c1.23-2.15 4.2-1.3 5.62-3.22l-4.56-.56.8-1.45c1.68-.37 4.13.43 4.78-1.86-2.28-.1-4.55-.1-6.82-.08m-70.13 4.42c1.43-.28 2.84-.6 4.26-.94l.3 1.22c-2.17.14-4.15.86-5.53 2.6l2 2.2 4.67-.36 1.14-6.07c-2.4-1.63-5.38-1.3-6.84 1.35m8.73-2.2c-.5 2.5-1.05 5-1.45 7.5 3.54-.4 2-5.22 4.97-6.44.54 2.14-.15 4.3-.35 6.44 3.27-.7 3.6-5.4 1.9-7.78l-5.06.27m12.63 1.84c1.66.06 3.52-.5 5.1.38-1.98.7-5.04.3-5.62 2.93.6 3 4.15 1.64 6.26 1.93l1.16-6.2c-2.36-1.36-5.15-1.6-6.9.96m7.8 3.43c.84 1.7 3 1.4 4.52 2.02-1.87.92-3.98.4-5.96.64 1.92 1.47 4.8 2.77 6.92.85 1.6-2.65 1.56-5.94 2.43-8.86-1.97.06-3.96-.1-5.9.23-1.72 1.05-2.33 3.2-2 5.12m10.9 1.94c1.86.75 3.25-1.2 4.62-2.08l-4.63.15c-1.88-1.57.72-3.2 1.7-4.46l.7 3.74c4.22-.1 1.5-5.54-1.27-4.8-3.78-.17-5.28 6.88-1.1 7.45m-136.58 8.73a149.93 149.93 0 0 0 .48 5.58l1.84-2.7 1.84 2.64.1-5.43-2.07 2.12-2.2-2.2m5.38.38c-.3 2.28-.67 5.4 2.57 5.37l-.86-3.6 1.54-2.1-3.25.35m5.74-.7l-2.35 5c1.66.02 3.33.08 5 .15l-2.64-5.15m2.7.4c.45 1.67.86 3.35 1.27 5.04a36.35 36.35 0 0 1 1.03-.14l-.18-2.85 1.75-1.86-3.87-.2m14.2.18l.1 4.92 2.82-.14c-2.1.63-4.2 1.35-6.05 2.5-2.53 2.13-2.2 5.8-2.13 8.78.15 2.2.5 5.16 3 5.94 4.14 1.33 8.6.67 12.9.82 3.06-.16 7.12.33 9.04-2.67 1.3-2.82.97-6.08.83-9.1.01-3-3.06-5.13-5.87-5.02-3.53-.57-7.63.88-10.7-1.36a49.35 49.35 0 0 0-1.22-2.3l-.88 1.85-.6-3.1c1.1.5 2.24.97 3.38 1.42-.3-2.7-2.8-2.38-4.6-2.56m7.93 5.52c-.5-1.98-.7-4.02-.7-6.05-3.5.26-2.97 6.5.7 6.05m3.65-5.54l-.34 1.8-2.42-1.8 1.36 5.22 1.9-2.14 1.3 2.18 1.87-5.27-2.08.96-1.6-.96m16.2.03c-1.17.9-2.08 2.7-1.1 4.05.8 1.9 3 .96 4.3.25-1.65-.25-2.96-1-3.93-2.28l4.15-.37c-.94-.87-2.08-1.76-3.43-1.65m3.57-.06c.04 1.82-.03 3.65 0 5.5l2.2-2.2 2.1 2.2.08-5.42c-.7.65-1.43 1.27-2.17 1.87-.76-.63-1.5-1.27-2.2-1.93m5.66.65c-.8 1.12-.8 2.9.04 4 1.46-.18 1.43-3.88-.04-4m5.64 4.28l3.38.22-2.1-1.85-.12-3.5c-1.35 1.38-1.06 3.36-1.16 5.13m17.05-4.38l-.26 5.4c-3.13-.15-6.96.27-8.4 3.5-.9 3.35-.76 7-.01 10.36 1.64 3.03 5.6 2.98 8.62 3.05 4.33-.18 8.8.5 13.05-.6 5-2.52 3.42-9.38 2.63-13.82-3.05-3.7-8.57-1.83-12.72-2.44l-.25-4.88c1.5 1.03 1.85 3.05 3.27 4.1 1.2-1.15 1.1-3.13 1.75-4.62-2.57 0-5.13-.01-7.68-.04m-18.7 4.48c.37-1.27-.66-2.73-1.6-3.5-1.86.57-.23 4.48 1.6 3.5m-102.33 3.23c-1.67 2.6-1.1 5.96-1.05 8.9-.16 2.72 1.96 4.78 4.3 5.72l-1.76.16c1.7.82 3.57 1.2 5.46 1.15 5.13-.01 10.28.15 15.4-.48l-1.86-.88c4.6-1.52 4.46-6.82 4.13-10.78.24-2.7-1.75-5.62-4.58-5.77-4.36-.3-8.73-.05-13.1-.14-2.42.01-5.4-.2-6.94 2.12m32.24-1.86c-4.2 1.18-4.4 6.16-4.07 9.73-.02 3 2.07 6.12 5.2 6.47 4.86.43 9.77.32 14.64.2 2.37.01 5.1-1.25 5.73-3.7.52-2.93.55-5.98.01-8.9-.54-2.6-3.16-4.27-5.73-4.16-5.24-.12-10.57-.45-15.77.36m55.1.06c-3.83 1.58-3.6 6.27-3.4 9.7-.01 2.76 1.24 6.16 4.4 6.47 4.86.5 9.77.25 14.65.16 2.64-.01 5.97-.97 6.47-4 .47-3.4.85-7.23-.84-10.36-1.73-3.14-5.76-2.28-8.72-2.47-4.18.2-8.48-.5-12.58.5m56.94.01c-4.48 2-3.73 7.66-3.36 11.66.08 2.6 2.6 4.46 5.05 4.6 4.68.24 9.4.15 14.08.07 2.73.08 5.93-1.68 6.05-4.68.37-3.22.45-6.58-.47-9.7-2.13-2.5-5.7-2.26-8.65-2.34-4.23.13-8.52-.35-12.7.4M360.2 290.14c-3.7 4.17-2.85 11.45 1.67 14.7l-2 5.03 2.53-.73c2.9.66 5.9.7 8.78-.07l2.23.97c-.5-1.6-1.03-3.18-1.64-4.73l2.23.1-.14 4.46 1.6-.62c2.74.18 5.48.2 8.23.3-.14-1.4-.22-2.8-.46-4.18-.94-.65-1.6-.28-1.95 1.1 1.5-3.3 3.78-6.7 3.2-10.5-.1-2.88-.84-6.48-4.1-7.28-4.04-.78-8.2-.37-12.28-.45-2.67.15-5.9-.25-7.9 1.9m26.87.92c-1.52 3.15-1.77 7.04-.45 10.3 1.06 2.87 4.37 3.92 7.17 3.94.02 1.55 1.33 2.47 2.27 3.53l-2-.24.2 1.44 3.7-.87 2.7 1 .03-5.1 1.7-.03c.54 1.94 1.05 3.93 2.18 5.64l.56-3.63 1.28-2.1c2.97.4 4.88-2.45 5.6-4.96.78-3.56.6-8.03-2.23-10.67-4.45-1.2-9.15-.45-13.7-.75-3.1-.06-7.06-.5-9 2.52m30.94-2.3c-3 .54-4.53 4.05-3.2 6.74-1.08.96-1.16 2-.24 3.1-.68 2.43.4 4.7 2.44 6.04-.26 1.5-1.72 3.33-.3 4.67 1.2 1.62 3.78.52 4.13-1.32l-2.92.82v-2.68l2.94.86.36 2.76 6.75.2c-.27-1.74-.28-3.5.07-5.22l1.7 1.93c-.43.96-.83 1.92-1.2 2.9 1.73-.2 3.46-.1 5.18.26-.64-1.66-1.23-3.32-1.96-4.93h2.4l-.22 4.56 4.04.33c-.26-1.56.23-3.4-.9-4.68 3.3-3.66 3.5-8.94 2.3-13.5-1.52-3-5.3-3.37-8.3-3.35-4.35.05-8.8-.38-13.07.52m24.43 2.6c-1 4.58-1.47 10.35 2.72 13.53l-1.1-.1c.05 1.76-.56 4 1.14 5.22 1.15-.07 2.3-.23 3.44-.47a62.17 62.17 0 0 0 1.46.42l1.36-.7 4.52.96.18-4.78c.8 1.78 1.6 3.56 2.53 5.27l.63-4.74 1.7.92v3.42l4.22-1.03-1.1-4.5c2.45-.68 3.22-3.58 3.24-5.83.04-2.77.35-5.83-1.03-8.33-2.72-3.44-7.6-2.06-11.37-2.4-4.2.27-10.06-1.27-12.58 3.13m-111-2.05c-3.24 2.1-2.45 6.48-2.44 9.77-.17 2.84 1.92 5.85 4.96 5.78 5.68.1 11.4.36 17.07-.18 4.58-1.4 3.78-7 3.67-10.73.2-3.55-3.32-6.06-6.66-5.54-5.5.38-11.38-.98-16.6.9m139.77 2.8c-.7 4.3-1.25 9.95 2.8 12.84-1.17 1.52-.5 3.56-.66 5.32 1.57-.3 3.1-.8 4.42-1.73l-2.18-1.8 1.06-1.78h1.32c-.17 1.66-.2 3.34-.23 5.02l3.6-.1-1.82-1.56 1.06-3.38c.33.01 1 .02 1.34.02l1.47 5.26c.8-1.2.36-5.06 2.38-3.96.4 2.23 1.47 4.13 4.05 3.84l.4-4.94.56-.15.28 5.3c1.46-1.27 4.14-1.9 4.1-4.22-.9-1-2-1.44-3.36-1.34 5.5-.4 4.7-6.86 4.52-10.8.17-2.55-1.7-5.04-4.33-5.18-5.3-.43-10.6-.26-15.9-.06-2.13-.04-4.5 1.1-4.9 3.38zm-181.26 31.7c5.23-2.88 11.4-1.5 17.08-1.72l257.94-.02c6.05-.07 12.14-.3 18.14.74 2.34 4.04 1.5 8.78 1.6 13.23-.1 5 .22 9.98-.13 14.96-.36 2.63-3 4.44-5.6 4.02-95-.04-190 .03-285.02-.03-2.75.36-5.16-2.3-4.93-4.96-.12-6 .05-12-.04-18.02.06-2.74-.32-5.66.94-8.2z" fill="#5c5f62" class="B"/><path d="M363.36 260.67l2.2 2.2 2.07-2.12-.1 5.43-1.84-2.64-1.84 2.7-.48-5.58zm11.12-.32l2.64 5.15-5-.15 2.35-5zm2.7.4l3.87.2-1.75 1.86.18 2.85-1.03.14-1.27-5.04zm14.2.18c1.82.18 4.3-.14 4.6 2.56l-3.38-1.42.6 3.1.88-1.85 1.22 2.3-1 .1-2.82.14-.1-4.92zm11.58-.02l1.6.96 2.08-.96-1.87 5.27-1.3-2.18-1.9 2.14-1.36-5.22 2.42 1.8.34-1.8zm31.06 4.9c.1-1.77-.2-3.75 1.16-5.13l.12 3.5 2.1 1.85-3.38-.22zm-102.62 23.5c5.22-1.88 11.1-.52 16.6-.9 3.34-.52 6.87 2 6.66 5.54.1 3.73.9 9.32-3.67 10.73-5.66.54-11.4.28-17.07.18-3.04.07-5.13-2.94-4.96-5.78-.01-3.3-.8-7.67 2.44-9.77m2.47 7l2.82.77-2.54 3.12 3.63.16-.33-1.82.43-2.47c-1.13-1.55-2.68-.2-4 .24m5.28-1.17l-.42 4.7c1.44-.48 2.92-.36 4.37.04l-.3-5-1.1 2.24-2.54-1.96m5.72-.34a14.05 14.05 0 0 0-1.33 5.71c1.5-.54 4.6.15 4.54-2.3l-.5-2.9c-.76.6-1.5 1.2-2.24 1.84l2.05.52-2.24 1.7-.27-4.6zm16.95 10c1.2 1.3 2.18 2.77 3.22 4.2l.37-4.6 1.92 4.38c2.06.03 2.4-2.67 3.53-3.97l.87.45 1.64 4.73-2.23-.97c-2.9.77-5.9.73-8.78.07l-2.53.73 2-5.03zm12.14.57l5.76-.1.9 2.28.6-1.14c.36-1.37 1-1.74 1.95-1.1.24 1.38.32 2.78.46 4.18l-8.23-.3-1.6.62.14-4.46m1.3.86c.53.52.53.52 0 0m2.07 1c-1.75 2.88 3.32.35 0 0zm16.43-1.94l2.6-.24 1.7 3.73.6-3.7 2-.04-.03 5.1-2.7-1-3.7.87-.2-1.44 2 .24c-.94-1.06-2.25-1.98-2.27-3.53zm88.13-.34l5.36.25 1.06 4.17 1.2-4 .7-.22-.4 4.94c-2.58.3-3.64-1.6-4.05-3.84-2.02-1.1-1.57 2.76-2.38 3.96l-1.47-5.26z" fill="#fbaf5d" class="B"/><path d="M368.74 261.05l3.25-.35-1.54 2.1.86 3.6c-3.24.02-2.86-3.1-2.57-5.37z" fill="#e5a55e" class="B"/><path d="M399.3 266.46c-3.66.45-4.18-5.8-.7-6.05-.01 2.03.18 4.07.7 6.05z" fill="#e1a45e" class="B"/><path d="M419.14 260.95c1.35-.1 2.5.78 3.43 1.65l-4.15.37c.97 1.27 2.28 2.03 3.93 2.28-1.32.7-3.52 1.64-4.3-.25-.98-1.35-.07-3.16 1.1-4.05z" fill="#e1a35e" class="B"/><path d="M422.7 260.9l2.2 1.93 2.17-1.87-.08 5.42-2.1-2.2-2.2 2.2v-5.5z" fill="#d99d5f" class="B"/><path d="M428.37 261.54c1.47.13 1.5 3.83.04 4-.84-1.1-.84-2.9-.04-4z" fill="#dea05e" class="B"/><path d="M451.06 261.44l7.68.04c-.65 1.5-.54 3.47-1.75 4.62-1.42-1.04-1.78-3.06-3.27-4.1l.25 4.88-3.17-.06.26-5.4z" fill="#c9955f" class="B"/><path d="M432.36 265.92c-1.83.97-3.46-2.94-1.6-3.5.94.78 1.97 2.24 1.6 3.5z" fill="#dca05e" class="B"/><path d="M362.66 273.08c2.8-1.4 2.17 3.77.8 4.36-.52-1.32-1.23-2.97-.8-4.36z" fill="#ececec" class="B"/><path d="M399.76 277.85c-3.44 1.07-3.57-3.47-2.42-5.57l1.02 4.97 2.24-4.86c-.1 1.8.68 4.03-.84 5.46zm76.04-4.47c2.35-2 4.7 1.22 3.9 3.64l2.7-4.53 2.45 4.8.4-4.74c1.15.4 2.4.68 3.45 1.33l-.03 4.17-1.7-.83c-1.56.23-3.14.25-4.67-.15l-2.8.45-3.9.23.22-4.37m1.4 1.12c-.9 1.18-.68 1.88.7 2.1.9-1.18.66-1.88-.7-2.1m9.25-.23c.62.5.62.5 0 0zm-7.92 21.03c1.47-1.57 3.26-2.65 4.64-.1l1.8-1.35 2.02 2 .4-2 .82-.14-.1 5.4-2.42-2.6-.7 2.53-1.84-2.6c-.4 1.35-1.26 2.28-2.6 2.8l-1.8-2.14c-1.3 1.08-2.87 1.62-4.54 1.77l-.1-5.35c1.62.17 3.25.48 4.43 1.74m-2.4 2.15c1.5-.73 1.55-1.54.1-2.4-1.5.7-1.52 1.5-.1 2.4m4.13-2.1c-.54 1.64 0 2.2 1.6 1.7.53-1.65-.01-2.23-1.6-1.7zm-91.44-.64c1.32-1.3 2.44 1.3 3.3 1.8l-3.25-.6-.07 2.56 3.5-1.98c-.75 1.26-1.08 3.38-2.94 3.4-2.27-.84-2.95-4.1-.53-5.2zm70.3 3.58c.34-1.94-.3-4.74 2.45-4.97l.03 5.77-2.48-.8z" fill="#f7f7f7" class="B"/><path d="M456.5 276.86c-.7-.8-1.02-3.33.4-3.4.73.8 1 3.3-.4 3.4z" fill="#dfdfdf" class="B"/><path d="M336.4 274.43c1.43-.08 1.35 2.42.54 3.16-1.43.08-1.32-2.43-.54-3.16z" fill="#767676" class="B"/><path d="M391.53 272.54l2.15 2.48 1.96-2.56-.06 5.84-2.52-2.76-.16 2.1-1.68.03.3-5.13z" fill="#e5e5e5" class="B"/><path d="M331.53 283.93l1.76-.16c5.74-.2 11.48-.18 17.23-.05l1.86.88c-5.1.63-10.26.47-15.4.48-1.9.04-3.76-.33-5.46-1.15z" fill="#464a4d" class="B"/><path d="M333.85 296.32c1.33-.43 2.88-1.8 4-.24l-.43 2.47.33 1.82-3.63-.16 2.54-3.12-2.82-.77z" fill="#fdf9f8" class="B"/><path d="M339.13 295.15l2.54 1.96 1.1-2.24.3 5c-1.45-.4-2.93-.52-4.37-.04l.42-4.7z" fill="#fffcfb" class="B"/><path d="M394.2 293.73l-.22 3.47 2.15-2.9.02 5.86-1.6-2.1-1.94 1.87c-.5-2.42.04-4.5 1.6-6.22z" fill="#f3f3f3" class="B"/><path d="M414.76 295.5l.52-.27c.3 1.25.22 2.46-.23 3.63l-.53-.26c-.92-1.1-.84-2.14.24-3.1z" fill="#373838" class="B"/><path d="M344.85 294.8l.27 4.6 2.24-1.7-2.05-.52 2.24-1.84.5 2.9c.07 2.44-3.03 1.75-4.54 2.3a14.05 14.05 0 0 1 1.33-5.71z" fill="#fef5eb" class="B"/><path d="M402.35 305.02l4.02-.1-1.28 2.1-.56 3.63c-1.13-1.7-1.64-3.7-2.18-5.64zm88.4-.02l1.02-.25c1.35-.1 2.47.34 3.36 1.34.04 2.32-2.64 2.95-4.1 4.22l-.28-5.3z" fill="#cf995f" class="B"/><path d="M416.96 304.65l5.72.93-.1 2.43 2.23 1.53.36-4.4 2.83-.4c-.35 1.72-.34 3.48-.07 5.22l-6.75-.2-.36-2.76-2.94-.86v2.68l2.92-.82c-.35 1.84-2.93 2.94-4.13 1.32-1.43-1.34.03-3.17.3-4.67zm17.14.23l2.9.2c1.14 1.27.65 3.12.9 4.68l-4.04-.33.22-4.56z" fill="#dea25e" class="B"/><path d="M429.7 306.68c.5-.78 1.18-1.37 2-1.78l1.96 4.93c-1.72-.37-3.45-.46-5.18-.26l1.2-2.9z" fill="#d89e5e" class="B"/><path d="M444.02 304.8l1.1.1.44.48 1.2 3.86.35-4.17c5.68.16 11.37.01 17.04-.26l1.1 4.5-4.22 1.03v-3.42l-1.7-.92-.63 4.74c-.93-1.7-1.74-3.5-2.53-5.27l-.18 4.78-4.52-.96-1.36.7a62.17 62.17 0 0 1-1.46-.42c-1.14.24-2.3.4-3.44.47-1.7-1.22-1.1-3.46-1.14-5.22z" fill="#aa8660" class="B"/><path d="M473.96 304.95l2.64.02-1.06 1.78 2.18 1.8c-1.33.92-2.85 1.43-4.42 1.73.16-1.76-.5-3.8.66-5.32z" fill="#cc985f" class="B"/><path d="M477.92 304.97l2.6-.03-1.06 3.38 1.82 1.56-3.6.1.23-5.02z" fill="#e4a35e" class="B"/><path d="M375.25 306.27c.53.52.53.52 0 0z" fill="#766c62" class="B"/><path d="M377.32 307.28c3.32.35-1.75 2.88 0 0z" fill="#7a6e62" class="B"/></svg>