<svg id="svg" version="1.1" width="400" height="125.08591065292096" xmlns="http://www.w3.org/2000/svg" xmlns:xlink="http://www.w3.org/1999/xlink" style="display: block;"><g id="svgg"><path id="path0" d="" stroke="none" fill="#000000" fill-rule="evenodd"></path><path id="path1" d="M29.583 3.005 C 16.793 3.510,9.777 9.774,8.678 21.667 C 8.433 24.317,8.433 78.421,8.678 80.929 C 9.698 91.385,15.663 97.835,25.667 99.302 C 28.633 99.737,371.867 99.737,374.833 99.302 C 384.731 97.851,390.578 91.692,391.851 81.380 C 392.414 76.815,392.177 22.627,391.580 19.333 C 389.903 10.093,384.095 4.633,374.423 3.203 C 372.470 2.914,36.757 2.722,29.583 3.005 M120.000 21.917 L 120.000 23.833 121.333 23.833 L 122.667 23.833 122.667 24.833 L 122.667 25.833 121.333 25.833 L 120.000 25.833 120.000 30.213 C 120.000 35.467,119.958 35.333,121.593 35.333 L 122.667 35.333 122.667 36.358 L 122.667 37.382 121.025 37.291 C 117.832 37.115,117.833 37.118,117.833 30.680 L 117.833 25.849 116.708 25.799 L 115.583 25.750 115.533 24.792 L 115.483 23.833 116.658 23.833 L 117.833 23.833 117.833 21.917 L 117.833 20.000 118.917 20.000 L 120.000 20.000 120.000 21.917 M156.625 51.875 L 156.583 83.250 146.625 83.293 L 136.667 83.336 136.667 51.918 L 136.667 20.500 146.667 20.500 L 156.668 20.500 156.625 51.875 M210.960 30.458 L 210.917 40.417 196.625 40.459 L 182.333 40.502 182.333 43.334 L 182.333 46.167 192.333 46.167 L 202.333 46.167 202.333 56.167 L 202.333 66.167 192.333 66.167 L 182.333 66.167 182.333 74.751 L 182.333 83.336 172.375 83.293 L 162.417 83.250 162.375 51.875 L 162.332 20.500 186.668 20.500 L 211.003 20.500 210.960 30.458 M265.293 30.458 L 265.250 40.417 258.126 40.460 L 251.001 40.504 250.959 61.877 L 250.917 83.250 240.958 83.293 L 231.000 83.336 231.000 61.918 L 231.000 40.500 223.833 40.500 L 216.667 40.500 216.667 30.500 L 216.667 20.500 241.001 20.500 L 265.336 20.500 265.293 30.458 M319.583 30.500 L 319.583 40.417 312.459 40.460 L 305.335 40.504 305.292 61.877 L 305.250 83.250 295.292 83.293 L 285.333 83.336 285.333 61.918 L 285.333 40.500 278.167 40.500 L 271.000 40.500 271.000 30.499 L 271.000 20.499 295.292 20.541 L 319.583 20.583 319.583 30.500 M373.833 30.500 L 373.833 40.500 366.751 40.500 L 359.668 40.500 359.626 61.875 L 359.583 83.250 349.625 83.293 L 339.667 83.336 339.667 61.918 L 339.667 40.500 332.500 40.500 L 325.333 40.500 325.333 30.500 L 325.333 20.500 349.583 20.500 L 373.833 20.500 373.833 30.500 M39.866 24.082 C 41.365 24.612,42.618 26.050,42.978 27.652 L 43.131 28.333 42.003 28.333 L 40.875 28.333 40.396 27.375 C 39.364 25.310,36.304 24.990,34.634 26.771 C 32.609 28.930,33.075 34.022,35.408 35.227 C 37.522 36.319,40.144 35.335,40.704 33.241 L 40.902 32.500 42.048 32.500 L 43.193 32.500 43.080 33.042 C 41.736 39.493,32.389 39.117,31.177 32.563 C 30.061 26.527,34.508 22.187,39.866 24.082 M54.031 24.157 C 58.966 26.025,59.226 34.672,54.418 36.999 C 50.827 38.738,46.493 36.992,45.321 33.333 C 43.361 27.216,48.318 21.995,54.031 24.157 M68.677 23.935 C 71.149 24.669,71.500 25.716,71.500 32.364 L 71.500 37.333 70.426 37.333 L 69.352 37.333 69.301 32.375 C 69.253 27.743,69.228 27.378,68.911 26.833 C 67.989 25.247,64.940 25.252,63.602 26.842 C 62.789 27.807,62.757 28.009,62.668 32.750 L 62.583 37.250 61.542 37.300 L 60.500 37.349 60.500 30.675 L 60.500 24.000 61.500 24.000 L 62.500 24.000 62.500 24.933 L 62.500 25.867 63.428 25.018 C 64.852 23.717,66.676 23.341,68.677 23.935 M82.817 23.845 C 85.536 24.428,86.040 25.869,85.965 32.833 L 85.917 37.250 84.833 37.250 L 83.750 37.250 83.667 32.128 L 83.583 27.005 82.959 26.381 C 81.520 24.943,78.600 25.594,77.585 27.579 L 77.083 28.559 77.025 32.954 L 76.967 37.348 75.942 37.299 L 74.917 37.250 74.873 30.625 L 74.830 24.000 75.915 24.000 L 77.000 24.000 77.000 25.039 L 77.000 26.077 77.411 25.472 C 78.396 24.023,80.580 23.366,82.817 23.845 M97.241 24.238 C 99.288 25.240,100.667 27.707,100.667 30.368 L 100.667 31.333 95.652 31.333 L 90.637 31.333 90.752 32.042 C 91.378 35.914,97.025 37.208,98.169 33.742 L 98.359 33.167 99.430 33.167 C 100.681 33.167,100.689 33.184,100.023 34.590 C 97.960 38.952,90.743 38.536,89.029 33.957 C 86.662 27.629,91.783 21.568,97.241 24.238 M111.250 24.109 C 112.379 24.526,113.688 25.831,114.054 26.906 C 114.528 28.297,114.505 28.333,113.167 28.333 C 112.190 28.333,112.000 28.288,112.000 28.056 C 112.000 25.499,107.218 24.806,105.609 27.131 C 104.527 28.694,104.366 31.855,105.276 33.636 C 106.797 36.609,111.086 36.336,112.010 33.208 L 112.219 32.500 113.356 32.500 L 114.492 32.500 114.387 33.042 C 113.201 39.201,104.203 39.233,102.560 33.083 C 100.941 27.021,105.732 22.073,111.250 24.109 M49.712 26.016 C 46.279 27.715,46.592 34.409,50.154 35.476 C 53.779 36.563,56.581 32.719,55.225 28.520 C 54.462 26.159,51.834 24.965,49.712 26.016 M93.001 25.932 C 91.924 26.399,91.139 27.389,90.860 28.630 L 90.702 29.333 94.540 29.333 L 98.377 29.333 98.280 28.737 C 97.907 26.439,95.177 24.988,93.001 25.932 M99.167 51.000 L 99.167 52.333 98.083 52.333 L 97.000 52.333 97.000 51.000 L 97.000 49.667 98.083 49.667 L 99.167 49.667 99.167 51.000 M113.000 53.181 L 113.000 56.528 113.777 55.844 C 115.592 54.247,119.286 54.255,120.784 55.861 C 121.698 56.841,121.746 57.172,121.802 62.875 L 121.854 68.167 120.761 68.167 L 119.667 68.167 119.667 63.386 C 119.667 58.899,119.646 58.562,119.323 57.896 C 118.445 56.081,115.170 56.061,113.839 57.862 C 113.078 58.891,113.000 59.454,113.000 63.938 L 113.000 68.167 111.917 68.167 L 110.833 68.167 110.833 59.000 L 110.833 49.833 111.917 49.833 L 113.000 49.833 113.000 53.181 M105.536 52.792 L 105.583 54.750 106.875 54.799 L 108.167 54.847 108.167 55.750 L 108.167 56.653 106.875 56.701 L 105.583 56.750 105.583 61.284 C 105.583 66.452,105.498 66.165,107.068 66.291 L 108.167 66.379 108.167 67.273 L 108.167 68.167 106.753 68.167 C 103.493 68.167,103.432 68.049,103.364 61.625 L 103.311 56.667 102.156 56.667 L 101.000 56.667 101.000 55.750 L 101.000 54.833 102.167 54.833 L 103.333 54.833 103.333 52.833 L 103.333 50.833 104.411 50.833 L 105.489 50.833 105.536 52.792 M78.636 55.375 C 78.719 55.673,79.370 58.017,80.084 60.583 C 81.572 65.939,81.537 65.863,81.878 64.469 C 82.019 63.890,82.601 61.485,83.170 59.125 L 84.206 54.833 85.432 54.833 L 86.657 54.833 86.906 55.708 C 87.043 56.190,87.656 58.594,88.268 61.052 C 88.879 63.509,89.433 65.459,89.499 65.385 C 89.564 65.311,90.151 63.300,90.803 60.917 C 91.455 58.533,92.106 56.190,92.251 55.708 L 92.513 54.833 93.590 54.833 C 94.182 54.833,94.667 54.907,94.667 54.996 C 94.667 55.197,92.833 61.019,91.477 65.125 L 90.472 68.167 89.326 68.167 L 88.180 68.167 88.018 67.542 C 87.929 67.198,87.434 65.267,86.918 63.250 C 85.634 58.229,85.484 57.733,85.337 58.014 C 85.268 58.144,84.659 60.484,83.983 63.215 L 82.753 68.179 81.514 68.131 L 80.276 68.083 79.906 66.917 C 79.703 66.275,78.779 63.361,77.852 60.441 C 76.925 57.521,76.167 55.065,76.167 54.983 C 76.167 54.901,76.688 54.833,77.325 54.833 L 78.484 54.833 78.636 55.375 M99.167 61.500 L 99.167 68.167 98.083 68.167 L 97.000 68.167 97.000 61.500 L 97.000 54.833 98.083 54.833 L 99.167 54.833 99.167 61.500 " stroke="none" fill="#ffffff" fill-rule="evenodd"></path><path id="path2" d="M27.014 1.009 C 22.100 1.411,17.420 3.053,14.782 5.302 C 9.620 9.702,7.496 13.667,6.637 20.500 C 6.313 23.072,6.315 79.647,6.638 82.083 C 7.215 86.434,8.849 91.103,10.365 92.739 C 10.485 92.869,10.882 93.337,11.247 93.779 C 14.732 98.003,18.392 100.067,24.583 101.301 C 26.256 101.634,370.328 101.831,373.833 101.500 C 386.159 100.338,393.130 92.908,394.003 80.000 C 394.273 76.014,394.139 22.105,393.854 20.250 C 392.044 8.438,385.120 1.970,373.251 1.007 C 370.726 0.801,29.524 0.804,27.014 1.009 M375.137 3.219 C 384.575 4.858,390.215 10.544,391.780 20.000 C 392.143 22.195,392.341 75.648,392.002 79.966 C 391.144 90.898,385.453 97.585,375.583 99.261 C 372.457 99.792,363.919 99.819,200.250 99.819 C 36.581 99.819,28.043 99.792,24.917 99.261 C 15.847 97.721,10.166 91.730,8.709 82.167 C 8.319 79.612,8.255 24.030,8.638 21.000 C 10.004 10.191,16.604 3.906,27.536 3.007 C 31.352 2.693,373.309 2.902,375.137 3.219 M117.833 21.909 L 117.833 23.818 116.708 23.867 L 115.583 23.917 115.533 24.792 L 115.483 25.667 116.658 25.667 L 117.833 25.667 117.843 30.458 C 117.856 36.996,117.876 37.040,120.938 37.140 L 122.685 37.198 122.634 36.307 L 122.583 35.417 121.506 35.366 C 119.905 35.291,120.000 35.611,120.000 30.313 L 120.000 25.667 121.342 25.667 L 122.684 25.667 122.634 24.792 L 122.583 23.917 121.292 23.868 L 120.000 23.819 120.000 21.910 L 120.000 20.000 118.917 20.000 L 117.833 20.000 117.833 21.909 M36.008 23.849 C 32.022 24.630,29.955 29.470,31.660 34.027 C 33.573 39.140,41.777 38.526,42.979 33.180 L 43.131 32.500 42.069 32.500 C 41.047 32.500,41.002 32.517,40.900 32.958 C 40.253 35.749,36.509 36.740,34.550 34.639 C 33.089 33.073,32.915 29.157,34.220 27.214 C 35.888 24.729,39.708 25.035,40.682 27.731 L 40.900 28.333 41.950 28.333 C 43.143 28.333,43.225 28.198,42.742 27.036 C 41.705 24.543,38.999 23.262,36.008 23.849 M50.108 23.834 C 44.147 24.889,43.007 34.380,48.535 36.932 C 52.374 38.705,56.806 36.567,57.649 32.533 C 58.768 27.178,55.103 22.950,50.108 23.834 M65.721 23.832 C 64.723 24.042,64.059 24.427,63.238 25.272 L 62.517 26.013 62.467 25.048 L 62.417 24.083 61.458 24.033 L 60.500 23.983 60.500 30.575 L 60.500 37.167 61.488 37.167 L 62.475 37.167 62.529 32.863 L 62.583 28.558 63.086 27.576 C 64.315 25.175,67.552 24.765,68.958 26.832 C 69.326 27.372,69.333 27.476,69.333 32.275 L 69.333 37.167 70.429 37.167 L 71.525 37.167 71.462 32.042 C 71.394 26.628,71.349 26.282,70.562 25.221 C 69.758 24.138,67.438 23.472,65.721 23.832 M80.224 23.832 C 79.184 24.050,78.269 24.577,77.627 25.328 C 76.878 26.203,76.833 26.184,76.833 25.000 L 76.833 24.000 75.917 24.000 L 75.000 24.000 75.000 30.583 L 75.000 37.167 76.000 37.167 L 77.000 37.167 77.000 33.258 C 77.000 26.978,77.717 25.583,80.946 25.583 C 83.529 25.583,83.735 26.068,83.803 32.292 L 83.856 37.167 84.855 37.167 L 85.854 37.167 85.802 31.875 C 85.744 26.025,85.724 25.908,84.557 24.801 C 83.647 23.937,81.748 23.512,80.224 23.832 M93.508 23.840 C 89.201 24.733,87.130 30.037,89.352 34.485 C 91.524 38.831,98.892 38.458,100.253 33.933 L 100.484 33.167 99.450 33.171 L 98.417 33.175 98.060 33.986 C 96.610 37.290,91.103 35.848,90.712 32.062 L 90.620 31.167 95.668 31.167 L 100.716 31.167 100.613 29.958 C 100.253 25.697,97.206 23.074,93.508 23.840 M107.167 23.898 C 103.182 24.784,101.118 30.005,103.069 34.265 C 105.323 39.190,113.288 38.379,114.255 33.125 L 114.370 32.500 113.303 32.500 L 112.236 32.500 112.027 33.279 C 111.346 35.828,107.941 36.625,106.007 34.689 C 104.086 32.764,104.194 28.144,106.200 26.427 C 108.083 24.815,111.179 25.443,111.908 27.583 L 112.134 28.250 113.249 28.300 L 114.363 28.349 114.248 27.800 C 113.625 24.827,110.566 23.142,107.167 23.898 M52.648 25.744 C 56.405 27.069,56.697 33.517,53.086 35.378 C 52.190 35.839,50.652 35.836,49.741 35.371 C 44.858 32.880,47.556 23.947,52.648 25.744 M95.591 25.686 C 96.954 26.029,97.917 27.144,98.419 28.958 L 98.522 29.333 94.574 29.333 L 90.625 29.333 90.733 28.796 C 91.209 26.413,93.262 25.099,95.591 25.686 M97.000 51.000 L 97.000 52.333 98.083 52.333 L 99.167 52.333 99.167 51.000 L 99.167 49.667 98.083 49.667 L 97.000 49.667 97.000 51.000 M110.833 59.000 L 110.833 68.167 111.819 68.167 L 112.805 68.167 112.867 63.792 C 112.955 57.704,113.621 56.504,116.917 56.501 C 119.432 56.499,119.667 57.070,119.667 63.191 L 119.667 68.167 120.763 68.167 L 121.858 68.167 121.804 62.946 L 121.750 57.725 121.250 56.756 C 119.973 54.279,115.133 53.923,113.462 56.182 C 112.871 56.981,112.833 56.805,112.833 53.250 L 112.833 49.833 111.833 49.833 L 110.833 49.833 110.833 59.000 M103.464 52.792 L 103.417 54.750 102.292 54.799 L 101.167 54.849 101.167 55.758 L 101.167 56.667 102.333 56.667 L 103.500 56.667 103.501 61.625 C 103.501 68.031,103.480 67.986,106.540 68.133 L 108.167 68.211 108.167 67.272 L 108.167 66.333 107.167 66.333 C 105.455 66.333,105.500 66.474,105.500 61.167 L 105.500 56.667 106.833 56.667 L 108.167 56.667 108.167 55.750 L 108.167 54.833 106.833 54.833 L 105.500 54.833 105.500 52.833 L 105.500 50.833 104.505 50.833 L 103.511 50.833 103.464 52.792 M76.231 55.125 C 76.469 55.927,79.550 65.599,79.949 66.798 L 80.408 68.180 81.571 68.132 L 82.734 68.083 83.992 62.930 C 84.684 60.096,85.326 57.752,85.419 57.721 C 85.514 57.690,86.161 59.962,86.897 62.916 L 88.205 68.167 89.315 68.167 L 90.426 68.167 92.546 61.624 C 93.712 58.025,94.667 55.025,94.667 54.957 C 94.667 54.889,94.193 54.833,93.614 54.833 L 92.562 54.833 91.097 60.125 C 90.291 63.035,89.574 65.478,89.505 65.552 C 89.436 65.626,89.179 64.876,88.933 63.885 C 88.687 62.894,88.063 60.452,87.545 58.458 L 86.603 54.833 85.425 54.833 L 84.246 54.833 84.040 55.708 C 82.714 61.362,81.598 65.665,81.488 65.554 C 81.366 65.431,80.146 61.167,78.909 56.542 L 78.453 54.833 77.298 54.833 C 76.277 54.833,76.154 54.867,76.231 55.125 M97.111 54.944 C 97.050 55.006,97.000 58.006,97.000 61.611 L 97.000 68.167 98.083 68.167 L 99.167 68.167 99.167 61.500 L 99.167 54.833 98.194 54.833 C 97.660 54.833,97.172 54.883,97.111 54.944 " stroke="none" fill="#77797a" fill-rule="evenodd"></path><path id="path3" d="M29.881 2.957 C 30.412 2.990,31.237 2.990,31.714 2.956 C 32.192 2.922,31.758 2.895,30.750 2.896 C 29.742 2.896,29.351 2.924,29.881 2.957 M368.708 2.956 C 369.235 2.990,370.098 2.990,370.625 2.956 C 371.152 2.923,370.721 2.896,369.667 2.896 C 368.613 2.896,368.181 2.923,368.708 2.956 M386.083 8.500 C 386.535 8.958,386.942 9.333,386.987 9.333 C 387.033 9.333,386.701 8.958,386.250 8.500 C 385.799 8.042,385.392 7.667,385.346 7.667 C 385.300 7.667,385.632 8.042,386.083 8.500 M136.667 51.918 L 136.667 83.336 146.625 83.293 L 156.583 83.250 156.625 51.875 L 156.668 20.500 146.667 20.500 L 136.667 20.500 136.667 51.918 M162.375 51.875 L 162.417 83.250 172.375 83.293 L 182.333 83.336 182.333 74.751 L 182.333 66.167 192.333 66.167 L 202.333 66.167 202.333 56.167 L 202.333 46.167 192.333 46.167 L 182.333 46.167 182.333 43.334 L 182.333 40.502 196.625 40.459 L 210.917 40.417 210.960 30.458 L 211.003 20.500 186.668 20.500 L 162.332 20.500 162.375 51.875 M216.667 30.500 L 216.667 40.500 223.833 40.500 L 231.000 40.500 231.000 61.918 L 231.000 83.336 240.958 83.293 L 250.917 83.250 250.959 61.877 L 251.001 40.504 258.126 40.460 L 265.250 40.417 265.293 30.458 L 265.336 20.500 241.001 20.500 L 216.667 20.500 216.667 30.500 M271.000 30.499 L 271.000 40.500 278.167 40.500 L 285.333 40.500 285.333 61.918 L 285.333 83.336 295.292 83.293 L 305.250 83.250 305.292 61.877 L 305.335 40.504 312.459 40.460 L 319.583 40.417 319.583 30.500 L 319.583 20.583 295.292 20.541 L 271.000 20.499 271.000 30.499 M325.333 30.500 L 325.333 40.500 332.500 40.500 L 339.667 40.500 339.667 61.918 L 339.667 83.336 349.625 83.293 L 359.583 83.250 359.626 61.875 L 359.668 40.500 366.751 40.500 L 373.833 40.500 373.833 30.500 L 373.833 20.500 349.583 20.500 L 325.333 20.500 325.333 30.500 M8.542 22.250 C 8.544 22.617,8.578 22.747,8.618 22.540 C 8.658 22.332,8.656 22.032,8.615 21.873 C 8.573 21.714,8.540 21.883,8.542 22.250 M392.066 25.917 C 392.066 27.200,392.092 27.703,392.124 27.034 C 392.156 26.366,392.155 25.316,392.123 24.701 C 392.091 24.086,392.065 24.633,392.066 25.917 M74.914 30.667 L 74.917 37.250 76.000 37.264 L 77.083 37.278 76.044 37.214 L 75.004 37.151 74.957 30.617 L 74.911 24.083 74.914 30.667 M76.887 25.000 C 76.887 25.596,76.917 25.840,76.954 25.542 C 76.991 25.244,76.991 24.756,76.954 24.458 C 76.917 24.160,76.887 24.404,76.887 25.000 M8.415 51.250 C 8.415 65.825,8.434 71.763,8.458 64.445 C 8.482 57.128,8.482 45.203,8.458 37.945 C 8.434 30.688,8.415 36.675,8.415 51.250 M104.158 25.458 L 103.583 26.083 104.208 25.509 C 104.790 24.974,104.910 24.833,104.783 24.833 C 104.755 24.833,104.474 25.115,104.158 25.458 M46.740 25.542 L 46.250 26.083 46.792 25.594 C 47.297 25.138,47.410 25.000,47.281 25.000 C 47.252 25.000,47.009 25.244,46.740 25.542 M55.500 25.052 C 55.500 25.081,55.744 25.325,56.042 25.594 L 56.583 26.083 56.094 25.542 C 55.638 25.037,55.500 24.923,55.500 25.052 M90.240 25.542 L 89.750 26.083 90.292 25.594 C 90.590 25.325,90.833 25.081,90.833 25.052 C 90.833 24.923,90.696 25.037,90.240 25.542 M37.044 25.620 C 37.297 25.658,37.672 25.657,37.877 25.617 C 38.082 25.578,37.875 25.546,37.417 25.548 C 36.958 25.549,36.791 25.581,37.044 25.620 M51.044 25.620 C 51.297 25.658,51.672 25.657,51.877 25.617 C 52.082 25.578,51.875 25.546,51.417 25.548 C 50.958 25.549,50.791 25.581,51.044 25.620 M66.125 25.618 C 66.331 25.657,66.669 25.657,66.875 25.618 C 67.081 25.578,66.912 25.545,66.500 25.545 C 66.087 25.545,65.919 25.578,66.125 25.618 M80.544 25.620 C 80.797 25.658,81.172 25.657,81.377 25.617 C 81.582 25.578,81.375 25.546,80.917 25.548 C 80.458 25.549,80.291 25.581,80.544 25.620 M94.125 25.618 C 94.331 25.657,94.669 25.657,94.875 25.618 C 95.081 25.578,94.912 25.545,94.500 25.545 C 94.087 25.545,93.919 25.578,94.125 25.618 M108.377 25.620 C 108.631 25.658,109.006 25.657,109.211 25.617 C 109.416 25.578,109.208 25.546,108.750 25.548 C 108.292 25.549,108.124 25.581,108.377 25.620 M116.121 25.787 C 116.417 25.824,116.942 25.824,117.288 25.788 C 117.634 25.752,117.392 25.722,116.750 25.721 C 116.108 25.721,115.825 25.750,116.121 25.787 M120.625 25.789 C 121.015 25.824,121.652 25.824,122.042 25.789 C 122.431 25.754,122.112 25.725,121.333 25.725 C 120.554 25.725,120.235 25.754,120.625 25.789 M85.872 32.458 L 85.833 37.167 84.836 37.167 L 83.839 37.167 83.790 32.542 L 83.742 27.917 83.746 32.583 L 83.750 37.250 84.794 37.300 C 86.112 37.362,86.014 37.780,85.958 32.331 L 85.911 27.750 85.872 32.458 M62.538 33.117 L 62.500 37.151 61.458 37.210 L 60.417 37.269 61.464 37.301 C 62.775 37.341,62.683 37.685,62.625 32.997 L 62.577 29.083 62.538 33.117 M31.039 30.000 C 31.039 30.321,31.073 30.452,31.115 30.292 C 31.157 30.131,31.157 29.869,31.115 29.708 C 31.073 29.548,31.039 29.679,31.039 30.000 M47.220 30.667 C 47.220 31.262,47.250 31.506,47.287 31.208 C 47.324 30.910,47.324 30.423,47.287 30.125 C 47.250 29.827,47.220 30.071,47.220 30.667 M88.379 30.500 C 88.379 30.912,88.411 31.081,88.451 30.875 C 88.491 30.669,88.491 30.331,88.451 30.125 C 88.411 29.919,88.379 30.087,88.379 30.500 M55.545 30.667 C 55.545 31.079,55.578 31.248,55.618 31.042 C 55.657 30.835,55.657 30.498,55.618 30.292 C 55.578 30.085,55.545 30.254,55.545 30.667 M93.125 31.291 C 94.523 31.319,96.810 31.319,98.208 31.291 C 99.606 31.263,98.462 31.241,95.667 31.241 C 92.871 31.241,91.727 31.263,93.125 31.291 M46.333 35.385 C 46.333 35.414,46.577 35.658,46.875 35.927 L 47.417 36.417 46.927 35.875 C 46.471 35.370,46.333 35.257,46.333 35.385 M55.906 35.875 L 55.417 36.417 55.958 35.927 C 56.463 35.471,56.577 35.333,56.448 35.333 C 56.419 35.333,56.175 35.577,55.906 35.875 M112.658 36.125 L 112.083 36.750 112.708 36.176 C 113.290 35.641,113.410 35.500,113.283 35.500 C 113.255 35.500,112.974 35.781,112.658 36.125 M69.788 37.287 C 70.084 37.324,70.609 37.324,70.955 37.288 C 71.300 37.252,71.058 37.222,70.417 37.221 C 69.775 37.221,69.492 37.250,69.788 37.287 M120.796 37.289 C 121.188 37.324,121.788 37.324,122.129 37.288 C 122.471 37.252,122.150 37.223,121.417 37.224 C 120.683 37.224,120.404 37.254,120.796 37.289 M36.795 37.621 C 37.094 37.658,37.544 37.657,37.795 37.619 C 38.045 37.581,37.800 37.551,37.250 37.552 C 36.700 37.553,36.495 37.584,36.795 37.621 M50.961 37.621 C 51.261 37.658,51.711 37.657,51.961 37.619 C 52.212 37.581,51.967 37.551,51.417 37.552 C 50.867 37.553,50.662 37.584,50.961 37.621 M94.295 37.621 C 94.594 37.658,95.044 37.657,95.295 37.619 C 95.545 37.581,95.300 37.551,94.750 37.552 C 94.200 37.553,93.995 37.584,94.295 37.621 M108.128 37.621 C 108.428 37.658,108.878 37.657,109.128 37.619 C 109.378 37.581,109.133 37.551,108.583 37.552 C 108.033 37.553,107.828 37.584,108.128 37.621 M112.871 53.208 C 112.836 56.426,112.911 57.048,113.266 56.474 C 113.339 56.356,113.312 56.327,113.196 56.399 C 113.058 56.484,112.994 55.601,112.958 53.133 L 112.909 49.750 112.871 53.208 M103.397 52.750 C 103.397 53.850,103.424 54.278,103.457 53.702 C 103.490 53.125,103.489 52.225,103.456 51.702 C 103.423 51.178,103.397 51.650,103.397 52.750 M101.052 55.750 C 101.053 56.300,101.084 56.505,101.121 56.205 C 101.158 55.906,101.157 55.456,101.119 55.205 C 101.081 54.955,101.051 55.200,101.052 55.750 M103.407 61.333 C 103.407 63.946,103.430 65.015,103.458 63.708 C 103.486 62.402,103.486 60.265,103.458 58.958 C 103.430 57.652,103.407 58.721,103.407 61.333 M85.243 57.844 C 85.183 57.942,85.178 58.067,85.233 58.122 C 85.288 58.177,85.334 58.116,85.336 57.986 C 85.338 57.792,85.367 57.794,85.500 58.000 C 85.638 58.214,85.662 58.208,85.664 57.958 C 85.667 57.635,85.414 57.567,85.243 57.844 M112.905 64.167 C 112.905 66.412,112.929 67.331,112.958 66.208 C 112.987 65.085,112.987 63.248,112.958 62.125 C 112.929 61.002,112.905 61.921,112.905 64.167 M392.066 76.667 C 392.066 77.996,392.092 78.540,392.124 77.875 C 392.155 77.210,392.155 76.123,392.124 75.458 C 392.092 74.794,392.066 75.337,392.066 76.667 M8.542 80.417 C 8.544 80.783,8.578 80.914,8.618 80.706 C 8.658 80.499,8.656 80.199,8.615 80.040 C 8.573 79.880,8.540 80.050,8.542 80.417 M14.083 93.833 C 14.720 94.475,15.279 95.000,15.324 95.000 C 15.370 95.000,14.887 94.475,14.250 93.833 C 13.613 93.192,13.055 92.667,13.009 92.667 C 12.963 92.667,13.447 93.192,14.083 93.833 M27.960 99.618 C 28.168 99.658,28.468 99.656,28.627 99.615 C 28.786 99.573,28.617 99.540,28.250 99.542 C 27.883 99.544,27.753 99.578,27.960 99.618 M371.960 99.618 C 372.168 99.658,372.468 99.656,372.627 99.615 C 372.786 99.573,372.617 99.540,372.250 99.542 C 371.883 99.544,371.753 99.578,371.960 99.618 M116.805 99.792 C 162.761 99.815,237.911 99.815,283.805 99.792 C 329.700 99.769,292.100 99.750,200.250 99.750 C 108.400 99.750,70.850 99.769,116.805 99.792 " stroke="none" fill="#38a8df" fill-rule="evenodd"></path></g></svg>