<svg xmlns="http://www.w3.org/2000/svg" width="965.333" height="730.667" viewBox="0 0 724 548"><path d="M357.9 67.66c1.4-2.93 3.5-6.07 7.02-6.46 5.72-.4 11.48-.23 17.2-.12 3.92.01 6.55 3.3 8 6.58-2.3-1.86-4.96-3.45-8-3.54-5.4-.36-10.84-.35-16.24-.01-3.04.08-5.7 1.7-8 3.55zm-259.14 6.2c.95-3.53 3.23-7.2 7.2-7.66 5.7-.4 11.47-.23 17.2-.1 4.33.05 7.18 3.9 8.1 7.78-2.3-2-5.06-3.67-8.2-3.75a126.13 126.13 0 0 0-16.15 0c-3.12.1-5.86 1.74-8.14 3.74zM392 202.93l46.14-1.9c6.15-.43 11.3 4.53 12.23 10.44-6.1-.73-12.15-1.65-18.26-2.15-7.38-.62-14.78-.05-22.16.2l-290.4 10.73c-8.13.36-16.27.43-24.4 1.04-11.77.8-23.47-1-35.15-2.07-3.53-.4-8.38.13-9.5 4.2-1.22 6.33-.2 12.83-.22 19.24l2.78 149.38c.12 3.15.55 6.6 2.9 8.95 3.3 3.37 8.05 4.48 12.36 5.93-5.4-.88-10.85-1.4-16.22-2.38-4.2-.87-6.24-5.53-6.1-9.47l.5-165.1c.02-3.73-.33-8.08 2.55-10.94 1.45-1.7 3.8-1.95 5.9-2L392 202.93zm195.58 25.43c27.18-.7 54.34-2.35 81.5-3.33 4.88-.46 9.32 3.97 8.9 8.85v179.2c.48 5.56-4.3 10.52-9.82 10.55L246.3 460.1c-2.4-1.23-5.2-2.44-6.38-5.06-.9-2.2-.9-4.66-.97-7l1.43-194.13c-.24-5.02 3.67-8.78 8.08-10.4L515 231.75l72.57-3.4m28.77 27.18c-4.3 1.4-5.58 6.4-5.36 10.43L612.06 379c.03 3.4.52 7.3 3.44 9.5 3 2.4 7.08 1 10.5.57 4.23-.98 9.4-1.03 12.3-4.78 2.86-3.4 2.77-8.1 2.67-12.3l-2.75-106.57c.03-4.15-2.14-8.9-6.6-9.74-5.03-.68-10.25-1.12-15.27-.17m-44.12.63l-248.36 10.3c-2.4.07-4.93.82-6.33 2.9-3.2 4.15-2.47 9.7-2.54 14.6l.6 127.94c.05 3.9.9 8.66 4.8 10.53 4.1 1.04 8.4 0 12.56-.2l244.1-19.8c5.85.04 8.24-6.47 7.95-11.4l-.6-124c-.1-3.7-.6-8.2-4.07-10.33-2.57-1.02-5.43-.52-8.1-.52m-274.82 58.2c-3.2.85-3.8 5.73-1.13 7.54 2.52 1.82 6.8.37 7-2.96.64-3.23-2.97-5.7-5.87-4.58m355.95 1.02c-8.32 2.56-10.5 13.96-5.26 20.35 4.5 5.7 13.67 5.86 19.2 1.6 5.86-4.6 5.85-14.27.8-19.45-3.83-3.74-9.88-4.23-14.74-2.5M297.4 332.36c-3.16.86-3.8 5.63-1.22 7.5 2.5 1.92 6.9.53 7.13-2.86.66-3.26-2.97-5.78-5.9-4.64m-32.1 10.03c-8.43 2.2-11.06 13.7-6 20.24 4.3 5.6 13.14 6.34 18.84 2.5 6.47-4.47 6.85-15.15 1.03-20.3-3.77-3.2-9.24-3.8-13.87-2.43m32.08 8c-3.2.88-3.76 5.76-1.08 7.55 2.53 1.8 6.8.33 6.98-2.98.64-3.25-3-5.7-5.9-4.57m.01 17.93c-2.6.7-3.64 4.18-2.28 6.38 1.64 3.1 7.13 2.65 8.03-.84 1.44-3.44-2.42-6.88-5.75-5.54m-.75 17.63c-.22 1.37-.15 2.74.2 4.1l3.12.32c1.55-1.12 1.3-3.4 2.04-5-1.8.16-3.6.23-5.36.6z" fill="#970816"/><g fill="#2a2e33"><path d="M357.9 67.66c2.3-1.86 4.95-3.47 8-3.55 5.4-.34 10.84-.35 16.24.01 3.03.1 5.7 1.68 8 3.54 1.28 2.22 1.9 4.77 1.9 7.34v127.93l-36 1.5V81c.04-4.48-.55-9.34 1.9-13.35zm-259.14 6.2c2.28-2 5.02-3.65 8.14-3.74a126.13 126.13 0 0 1 16.15 0c3.13.08 5.9 1.74 8.2 3.75 2.32 3.98 1.7 8.72 1.77 13.12v126.78l-36 1.5L97 81.94c-.06-2.8.4-5.64 1.78-8.1zm517.6 181.7c5.02-.95 10.24-.5 15.27.17 4.46.83 6.63 5.6 6.6 9.74l2.75 106.57c.1 4.2.2 8.88-2.67 12.3-2.9 3.75-8.06 3.8-12.3 4.78-3.42.42-7.5 1.83-10.5-.57-2.92-2.2-3.4-6.1-3.44-9.5L611 265.97c-.22-4.04 1.06-9.03 5.36-10.43m6.05 16.9c-3.14 1.08-3.5 4.73-3.44 7.56l.03 68.05c.06 4.3-.34 8.62.32 12.9.62 3.74 5.7 5.3 8.55 2.93 2.18-1.54 2.06-4.47 2.17-6.84V280c-.1-1.76-.03-3.62-.8-5.25-1.25-2.36-4.4-3.36-6.83-2.3zm-50.18-16.27c2.68 0 5.54-.5 8.1.52 3.48 2.13 3.98 6.63 4.07 10.33l.6 124c.3 4.94-2.1 11.45-7.95 11.4l-244.1 19.8c-4.17.2-8.46 1.25-12.56.2-3.9-1.87-4.74-6.64-4.8-10.53l-.6-127.94c.07-4.9-.67-10.45 2.54-14.6 1.4-2.08 3.94-2.83 6.33-2.9l248.36-10.3M547 275.28l.43 6.42c-2.4-.36-4.84-1.16-7.28-.74-6 2.14-5.24 12.6.75 14.2 3.9.23 7.78-.6 11.7-.34l-1.32-19.77-4.27.24m-37.8 1l.48 6.45c-3.08-.38-6.88-2.05-9.42.54-3.45 3.6-2.36 11.16 2.6 12.85 3.97.35 7.95-.56 11.94-.3l-1.3-19.73-4.32.2m-19.8.82l.62 6.63c-2.8-.6-6.04-2.2-8.7-.37-4.46 3.2-3.48 11.7 1.8 13.52 3.96.1 7.9-.64 11.87-.22-.28-6.65-.72-13.28-1.27-19.9l-4.3.35m-48.4 1.34c.33 6.67.8 13.34 1.32 20 4.07-.77 8.23-.18 12.3-.78 4.46-2.46 4.12-9.7.54-12.8-2.73-2.35-6.35-.77-9.36-.03l-.7-6.35-4.1-.03m-10.28 2.42l-2.8 4.95c2.63 3.3 2.73 7.6 3.86 11.47 1.9 1.37 4.44 1.18 6.65 1.64l.5-2.54-3.78-1.82-.37-6.3c1.1-.7 2.2-1.45 3.27-2.2-1.48-2-3.38-3.63-5.12-5.4l-2.2.18m91.03.96c-5.6 2.65-4.62 12.4 1.46 13.85 4.36 1.52 8.7-.72 11.26-4.26-3.15.4-6.25 1.28-9.43 1.36-1.26-.78-2.33-1.84-3.45-2.77 4.17-.48 8.36-.73 12.55-1-.9-2.1-1.43-4.45-2.96-6.2-2.55-2.2-6.44-2.24-9.43-.98m-60.95 6.22c-1.4 4.67 2.2 9.93 7.2 9.77 3.8.67 6.7-2 8.87-4.7-3.15.42-6.24 1.42-9.44 1.37-1.22-.8-2.26-1.85-3.34-2.83 4.15-.4 8.32-.6 12.5-.84-1.06-2.5-1.46-5.85-4.2-7.15-4.1-2.1-10.65-.7-11.58 4.38m-45.63-3.1l.98 14.38 4.18-.37c-.16-3.22-.5-6.47-.06-9.68 1.72-.93 3.6-1.5 5.43-2.18l-.3-2.8c-3.38.6-6.8.8-10.23.65m-31.92 2c-4.55-1-9.22-.77-13.83-.54l.96 14.4 4.23-.3-.5-10.92c1.52-.12 3.05-.28 4.58-.18 1.48 3.42 1.27 7.24 1.6 10.87h3.97c-.2-3.43-.6-6.87-.25-10.3 1.47-.87 3.2-1.06 4.85-1.5.42 3.83.77 7.66 1.08 11.5l4.26.05c-.38-4.2.1-8.7-1.58-12.67-2.28-3.24-6.4-1.4-9.37-.4m12.96 2.4c3.26-.43 6.5-1 9.73-1.6l1.2 2.65c-2.92.58-6.07.66-8.73 2.12-2.8 1.74-1.27 6.63 1.9 6.9 3.82.13 7.63-.47 11.45-.4-.3-3.9-.16-7.9-1.4-11.63-1.38-2.58-4.85-2.84-7.44-2.6-3 .04-4.86 2.6-6.72 4.55m-43.34 3.8c3.12 2.14 7.52 1.9 10.13 4.98-3.93-.1-7.83-.62-11.75-.9 1.73 1.5 3.25 3.68 5.7 3.98 3.03.36 6.84.16 8.82-2.52 1.1-1.38.96-3.8-.67-4.7-3.12-1.6-6.6-2.3-9.86-3.5l3.4-1.34c2.62.6 5.28 1.12 7.96 1.4-2.13-2.56-5-5.1-8.62-4.32-3.5-.22-7.78 3.43-5.12 6.9m197.4 15.2c-5.1 2.27-5.67 9.24-3.35 13.7 2.28 4.57 9.2 5.07 12.6 1.6 2.95-3.5 2.96-8.95.6-12.77-2.03-3.2-6.55-4-9.87-2.52m-36.3 1.1c.07 5.86.27 11.73.5 17.6l3.6-.33-.25-4.9c2.23-.4 4.55-.54 6.65-1.46 3.63-2.4 3.1-9.1-1.13-10.57-3.07-.68-6.25-.3-9.36-.32m16-.43c.07 5.88.26 11.76.52 17.63l3.57-.45-.3-6.23 2.87.06 3.16 5.95h4.23l-3.53-6.2c2.35-2.7 3.88-7.2.56-9.82-3.34-1.8-7.43-.77-11.1-.97m-73.6 5.2l3.5-1.38c-.68-1.4-1.12-3.22-2.95-3.46-1.8 1.2-.77 3.17-.56 4.84M471 310l.32 6.3c-2.08-.6-4.48-2-6.52-.5-3.6 2.7-3.4 8.8-.42 11.87 2 1.97 4.76.67 7-.03l3.63.96-.5-18.58h-3.5m-40.87 1.76c.08 6.24.35 12.48.63 18.72 1.25-.52 2.5-1.06 3.74-1.64 2.4.96 5.7 1.78 7.37-.84 1.9-3.38 1.85-8.9-1.67-11.23-2.18-1.47-4.5.2-6.48 1.15l-.22-6.6-3.37.44m63.75 5.14c-2.28 4.04-.36 11.12 5.08 10.94 3.06.43 5.1-2.1 6.9-4.15l-2.87-.13c-1.5.52-2.96 1.6-4.6 1.32a30.95 30.95 0 0 1-2.6-2.9l9.9-.54c-.87-2.32-1-5.37-3.38-6.75-2.8-1.5-6.86-.74-8.4 2.2m-101.55-2.2l.22 2.6a80.9 80.9 0 0 0-2.6 2.96l2.63.87c.26 2.85.17 5.77.9 8.56 1.26 1.7 3.8 1.08 5.63 1.64l-.26-2.32c-2.93-1.44-2.56-4.57-2.7-7.3 1.2-1.02 2.35-2.1 3.44-3.23l-3.64-.63v-3.2l-3.63.05m63.6.97l.46 13.4 3.42-.33-.37-13.07-3.5.01m23.77.03c-2.9 2.93-2.73 8.48.3 11.26 2.45 1.97 5.44 0 7.9-.88-.68 1.4-1.12 2.94-2.12 4.14-2.75-.18-5.43-.83-8.16-1.06 1.54 1.47 2.88 3.8 5.32 3.8 2.9.43 6.9-.64 7.45-3.97.43-4.96-.2-9.95-.36-14.9-1.22.43-2.4.88-3.6 1.33-2.2-.4-4.86-1.6-6.74.3m-34.08.12c.17 4.84.28 9.7.8 14.53 4.7-1 2.42-5.9 3.1-9.22.24-2.1 3-1.93 4.45-2.8l-.55-3.12-3.8 1.62-4-1.02m-44 4.8c-1.86 4.02.04 10.67 5.3 10.4 3.2.5 5.38-2.08 6.93-4.48-2.55.45-5.02 1.33-7.6 1.47a26.27 26.27 0 0 1-2.48-2.7c3.28-.3 6.58-.45 9.88-.64-.73-2-.93-4.32-2.4-5.96-2.78-2.76-8.13-1.72-9.64 1.9m16.72-3.16c-5.23 2.88-3.8 12.86 2.6 13.14 4.26.6 7.63-3.5 6.86-7.58.27-4.8-5.4-8.07-9.46-5.56m-37.03 14.07c3.7 1.37 7.27-1.13 8.8-4.45-2.2.44-4.33 1.18-6.35 2.18l-3.88-3.1c3.33-.36 6.7-.5 10.04-.72-.8-3.16-1.88-7.57-6-7.46-7.57-1.03-9.24 11.38-2.6 13.56m-21.93-11.28l-3.75-1.25c.12 4.65.34 9.3.58 13.94l3.37-.5c.03-3.34-.93-6.9.48-10.08 1.2-.76 2.85-.48 3.14 1.06.66 3 .43 6.13.58 9.2l3.2-.4c0-3.02-.3-6.06.1-9.06.72-1.47 2.33-2.05 3.6-.84.73 3.23.57 6.57.77 9.86l3.42-.33c-.32-3.82.4-7.94-1.14-11.53-1.78-2.78-5.12-1.4-7.25.05-2.24-1.47-4.8-1.55-7.08-.1m187.03 26.33c-5.2 1.98-5.28 8.92-3.6 13.36 1.6 4.6 8.67 5.35 11.24 1.26 2.05-3.46 1.95-8.03.18-11.6-1.4-2.8-4.93-4.1-7.83-3.03m-33.84 4.08l.1 3.67 4.34-3.13.45 13.42 3.8-.14c-.38-5.76-.4-11.53-.8-17.3-2.86.55-5.47 1.83-7.86 3.47m16.75-3.32c-4.7 2.33-4.7 8.95-2.95 13.2 1.54 4.04 7.28 5.1 10.33 2.18 2.84-2.95 2.64-7.6 1.66-11.28-1.05-3.72-5.53-5.87-9.04-4.1m-39.95 6.5l3.35.08c1.3-1.35 2.63-3.36 4.8-2.43 1.58-.16.93 2.02 1.03 2.97-2.04 3.38-5.24 5.85-7.93 8.67l.04 2.6 12.32-.5v-3.08l-7.44.3c2.42-2.68 5.7-4.96 6.76-8.56.8-4-3.8-6.5-7.23-5.55-3.03.2-4.44 3.12-5.67 5.47M477.55 352l-.12 3.77 4.48-2.96.4 13.18 3.73-.04-.74-17.27c-2.8.53-5.4 1.74-7.76 3.32m-30.05-1.5c-5.7 1.95-5.78 9.86-3.33 14.38 2.64 4.8 10.9 3.5 11.77-2 2.04-5.48-1.4-14.5-8.44-12.38m17.7 2.2l.1 3.57 4.26-3 .6 13.34 3.7-.12c-.3-5.8-.32-11.6-.98-17.36-2.78.68-5.35 1.93-7.68 3.57m-34.72-1.26c-4.96 2.16-5.06 9-3.24 13.35 1.62 4.4 8.28 5.2 10.98 1.42 2.27-3.43 2.17-8.15.42-11.77-1.43-2.96-5.17-4.22-8.16-3m-39.06 5.77c-.66 3.32-.8 7.24 1.3 10.1 2.76 3.77 9.7 3.3 11.56-1.1 1.43-3-.33-7-3.62-7.75-2.57-.85-4.82 1.1-6.98 2.13.95-2.6 2.24-5.2 5.16-5.94l1.82 2.23 4.1-.37c-1.5-1.62-2.84-3.85-5.2-4.2-3.43-.76-7.32 1.37-8.12 4.9m22-2.28l.1 3.63 4.35-3.1a457.82 457.82 0 0 1 .46 13.35l3.73-.07-.74-17.26c-2.9.5-5.52 1.77-7.9 3.45m-38.47.93c-1.8 2.7-.82 7.04 2.35 8.22 2.75 1.5 5.45-.68 7.92-1.68-.97 1.6-1.38 3.66-2.85 4.9-1.75.94-3.44-.73-5.02-1.27l-3.43.58c2.17 2.48 5.18 4.97 8.73 3.78 5.78-1.6 6.37-9.4 3.98-13.98-2.12-4.4-9.1-4.53-11.68-.56m-13.52 1.08l.06 3.57 4.4-2.92.44 13.22 3.73-.07-.74-17.26c-2.9.5-5.52 1.77-7.9 3.46m146.1 4.74c-1 .7-1.7 1.68-.6 2.7 1.04 2.03 3.2.84 4.26-.54-.63-1.7-1.7-3.42-3.65-2.16m-49.3 1.97c.8 1.25 1.44 2.72 2.64 3.7 2.1-.02 3.24-2.35 1.86-3.95-1.5-.07-3.02.1-4.5.25m-51.35 2.82l1.2 3.14 3.85-1.4-1.04-3-4.02 1.25z"/><path d="M542.37 284.2c3.66-2.2 6.97 3.12 5.02 6.23-1.02 2.46-4.76 2.38-6.04.2-1.24-1.95-1.3-5.27 1.02-6.44zm-38 1.14c4.82-3.16 8.3 5.78 3.55 7.75-4.4 1.6-7.12-5.4-3.55-7.75zm-40.54 2.96l6-3.15 2.33 3.6-8.32-.45zm20.54-2.03c1.57-1.34 4.56-.92 5.37 1.1 1.45 2.35.54 6.6-2.68 6.67-3.8.17-5.48-5.5-2.7-7.77zm-36.2.77c2.57-1.27 5.5 1.3 5.26 4 .37 2.4-1.88 4.8-4.33 4.12-3.57-.75-4.26-6.6-.93-8.12zm-47 8.88c-.26-3.4 4.76-2.02 6.82-2.92-1.14 2.8-3.94 5.07-6.82 2.92zm151.07 15.23c4.76-1.58 7.17 4.98 5.44 8.57-.8 2.97-5.06 4-6.97 1.53-2.13-2.96-2.12-8.35 1.53-10.1zm-18.75.5c1.7.22 3.45.35 5.14.8.78 1.3 1.22 2.85-.05 4.04-1.55.53-3.18.78-4.77 1.13l-.32-5.96zm-15.97.55c1.8.62 5.76.01 5.7 2.78.8 3.24-3.33 3.13-5.35 3.93l-.34-6.7zm-21.9 7.03c1.28-.9 2.3-2.9 4.17-2.36.97.72 1.85 1.6 2.74 2.42a99.46 99.46 0 0 1-6.91-.06zm-28.22-.9c4.4-2.15 5.92 7.3 1.38 7.34-3.5.1-4.1-5.8-1.38-7.34zm14.78-.37c4.56-2.52 6.7 5.34 2.66 7.14-3.8.32-4.38-4.68-2.66-7.14zm-46.72 1.47c5.1-1.8 5.74 8.25.64 7.6-2.7-1.45-2.97-5.7-.64-7.6zm-31.28 3.28l2.1-3.33 4.33 3-6.42.33zm15.96-2.78c4.53-1.98 5.94 6.77 1.75 7.9-3.64-.5-4.07-5.7-1.75-7.9zm-39.68 3.46l1.42-2.6 3.05.1 1.3 2.52h-5.76zm167.02 26.12c2.4-1.12 3.97 1.5 4.15 3.58.4 2.6.56 6.07-1.86 7.77-2.83 1.05-4.05-2.73-4.16-4.88-.1-2.1-.2-5.43 1.87-6.47zm-17.12.86c1.5-1.73 3.94-.1 4.4 1.7.85 2.94 1.03 6.5-.96 9.06-1.68 1-3.47-.12-4.03-1.8-1.02-2.86-1.28-6.4.58-8.97zm-82 2.9c1.86-.4 3.5.92 3.8 2.75.63 2.88 1 6.6-1.42 8.78-2.14 1.1-3.8-1.34-4.1-3.2-.5-2.77-.82-6.44 1.72-8.34zm-16.92 1.12c1.15-1.2 3.24-.07 3.8 1.27 1.15 2.9 1.47 6.56-.37 9.25-1.35 1.7-4 .44-4.4-1.45-.93-2.88-1.35-6.74.96-9.07zm-52.07 1.82c2.16-1.1 4.96 1.05 4.2 3.43-.23 1.95-2.62 2.3-4.2 1.94-2.38-.65-2.5-4.8 0-5.37zm17.07 5.22c3.22-2.3 6.84 3.38 3.13 5.08-3.1 2.2-6.7-3.26-3.13-5.08z"/></g><path fill="#3e3d3d" d="M119.55 220.26l290.4-10.73c7.38-.25 14.78-.82 22.16-.2 6.1.5 12.17 1.42 18.26 2.15l137.2 16.88c-24.17 1.53-48.38 2.2-72.57 3.4L248.46 243.5c-2.95-2.44-6-5.05-9.84-5.93-5.9-1.34-12-1.43-18-2.1L116 224.9c-8.26-.86-16.58-1.34-24.75-2.96l3.92-.63c8.12-.6 16.26-.68 24.4-1.04z"/><path d="M50.5 223.42c1.12-4.06 5.97-4.6 9.5-4.2 11.68 1.07 23.38 2.87 35.15 2.07l-3.92.63c8.17 1.62 16.5 2.1 24.75 2.96l104.63 10.57c6 .67 12.1.76 18 2.1 3.83.88 6.9 3.5 9.84 5.93-4.4 1.63-8.32 5.4-8.08 10.4L238.94 448c.08 2.34.06 4.8.97 7 1.17 2.62 3.98 3.83 6.38 5.06-6.03 2.3-12.04-.83-17.77-2.5L68.32 406.9c-4.3-1.45-9.07-2.56-12.36-5.93-2.35-2.34-2.78-5.8-2.9-8.95L50.3 242.66c.03-6.4-1-12.9.22-19.24zM547 275.28l4.27-.24 1.32 19.77c-3.9-.25-7.8.57-11.7.34-6-1.6-6.74-12.05-.75-14.2 2.44-.42 4.88.38 7.28.74l-.43-6.42m-4.64 8.92c-2.32 1.17-2.26 4.5-1.02 6.44 1.28 2.17 5.02 2.25 6.04-.2 1.95-3.1-1.36-8.43-5.02-6.23zm-33.13-7.92l4.32-.2 1.3 19.73c-4-.25-7.97.66-11.94.3-4.97-1.7-6.06-9.24-2.6-12.85 2.54-2.6 6.34-.92 9.42-.54l-.48-6.45m-4.86 9.07c-3.57 2.35-.85 9.36 3.55 7.75 4.76-1.97 1.27-10.9-3.55-7.75zm-14.95-8.23l4.3-.35c.55 6.63 1 13.26 1.27 19.9-3.96-.42-7.9.32-11.87.22-5.27-1.8-6.25-10.33-1.8-13.52 2.66-1.82 5.9-.22 8.7.37l-.62-6.63m-5.07 9.18c-2.8 2.26-1.12 7.94 2.7 7.77 3.22-.07 4.13-4.32 2.68-6.67-.8-2.02-3.8-2.44-5.37-1.1zm-43.32-7.84l4.1.03.7 6.35c3-.74 6.63-2.32 9.36.03 3.58 3.1 3.92 10.35-.54 12.8-4.07.6-8.23.01-12.3.78l-1.32-20m7.15 8.6c-3.33 1.52-2.64 7.37.93 8.12 2.45.67 4.7-1.7 4.33-4.12.24-2.7-2.7-5.27-5.26-4zm-17.43-6.17l2.2-.18c1.74 1.76 3.64 3.4 5.12 5.4l-3.27 2.2.37 6.3 3.78 1.82-.5 2.54c-2.2-.46-4.76-.27-6.65-1.64-1.13-3.88-1.23-8.17-3.86-11.47l2.8-4.95zm91.03.95c3-1.26 6.88-1.2 9.43.98 1.53 1.75 2.07 4.1 2.96 6.2-4.2.27-8.38.52-12.55 1 1.12.93 2.2 2 3.45 2.77 3.18-.08 6.28-.97 9.43-1.36-2.56 3.54-6.9 5.78-11.26 4.26-6.08-1.44-7.06-11.2-1.46-13.85m2.64 1.5l-2.57 3.7c2.8-.06 5.62-.18 8.43-.4a102.46 102.46 0 0 0-5.86-3.32zm-63.6 4.73c.93-5.1 7.5-6.5 11.58-4.38 2.73 1.3 3.13 4.65 4.2 7.15-4.17.23-8.34.44-12.5.84 1.08.98 2.12 2.02 3.34 2.83 3.2.05 6.3-.95 9.44-1.37-2.17 2.7-5.08 5.37-8.87 4.7-4.98.16-8.58-5.1-7.2-9.77m3 .27c2.77.23 5.54.37 8.32.45l-2.33-3.6c-2.02 1-4.03 2.03-6 3.15zm-48.6-3.37c3.42.16 6.85-.04 10.23-.65l.3 2.8c-1.83.7-3.7 1.25-5.43 2.18-.45 3.2-.1 6.46.06 9.68l-4.18.37-.98-14.38zm-31.93 2c2.96-1 7.1-2.83 9.37.4 1.68 3.97 1.2 8.46 1.58 12.67l-4.26-.05-1.08-11.5c-1.64.44-3.38.63-4.85 1.5-.34 3.43.05 6.87.25 10.3-1.33 0-2.66-.01-3.97-.02-.33-3.63-.12-7.45-1.6-10.87-1.53-.1-3.06.06-4.58.18l.5 10.92-4.23.3-.96-14.4c4.6-.23 9.28-.45 13.83.54zm12.96 2.4c1.86-1.95 3.73-4.5 6.72-4.55 2.6-.24 6.06.02 7.44 2.6 1.23 3.73 1.1 7.74 1.4 11.63-3.82-.08-7.63.52-11.45.4-3.16-.27-4.68-5.16-1.9-6.9 2.66-1.46 5.8-1.54 8.73-2.12l-1.2-2.65c-3.23.6-6.47 1.17-9.73 1.6m4.95 6.58c2.88 2.15 5.68-.12 6.82-2.92-2.06.9-7.08-.48-6.82 2.92zm-48.3-2.78c-2.66-3.47 1.63-7.12 5.12-6.9 3.63-.8 6.5 1.76 8.62 4.32-2.68-.3-5.34-.8-7.96-1.4l-3.4 1.34c3.27 1.18 6.74 1.9 9.86 3.5 1.63.9 1.77 3.3.67 4.7-1.98 2.68-5.8 2.88-8.82 2.52-2.46-.3-3.98-2.48-5.7-3.98 3.92.3 7.82.8 11.75.9-2.6-3.07-7-2.84-10.13-4.98zm-55.5 21.23c2.9-1.1 6.5 1.35 5.87 4.58-.2 3.33-4.48 4.78-7 2.96-2.67-1.8-2.07-6.7 1.13-7.54zm355.96 1.02c4.86-1.73 10.9-1.24 14.74 2.5 5.06 5.18 5.07 14.84-.8 19.45-5.54 4.26-14.7 4.1-19.2-1.6-5.24-6.4-3.06-17.8 5.26-20.35zm-388.06 27c4.63-1.36 10.1-.77 13.87 2.43 5.82 5.15 5.44 15.83-1.03 20.3-5.7 3.85-14.54 3.12-18.84-2.5-5.06-6.53-2.43-18.04 6-20.24zm32.08 8c2.9-1.13 6.54 1.32 5.9 4.57-.2 3.3-4.45 4.77-6.98 2.98-2.68-1.8-2.1-6.67 1.08-7.55zm-.74 35.55c1.76-.36 3.56-.43 5.36-.6-.73 1.6-.5 3.88-2.04 5l-3.12-.32c-.35-1.35-.42-2.72-.2-4.1z" fill="#515151"/><path fill="#797b7e" d="M622.4 272.43c2.42-1.05 5.58-.05 6.83 2.3.77 1.63.7 3.5.8 5.25v77.03c-.1 2.37.01 5.3-2.17 6.84-2.84 2.37-7.93.8-8.55-2.93-.66-4.27-.26-8.6-.32-12.9l-.03-68.05c-.07-2.83.3-6.48 3.44-7.56z"/><path fill="#2d3035" d="M524.4 283.3l5.86 3.32-8.43.4 2.57-3.7z"/><g fill="#a1a1a1"><path d="M550.28 308.35c3.32-1.5 7.84-.7 9.87 2.52 2.35 3.82 2.34 9.26-.6 12.77-3.42 3.48-10.33 2.98-12.6-1.6-2.32-4.46-1.75-11.43 3.35-13.7m1.97 2.8c-3.65 1.75-3.66 7.14-1.53 10.1 1.9 2.48 6.18 1.44 6.97-1.53 1.73-3.6-.68-10.15-5.44-8.57zm-38.3-1.68c3.1.01 6.3-.36 9.36.32 4.22 1.47 4.76 8.17 1.13 10.57-2.1.92-4.42 1.06-6.65 1.46l.25 4.9-3.6.33-.5-17.6m3.56 2.73l.34 6.7c2.02-.8 6.15-.7 5.35-3.93.07-2.77-3.88-2.16-5.7-2.78zm12.45-3.14c3.66.2 7.75-.84 11.1.97 3.32 2.6 1.8 7.13-.56 9.82l3.53 6.2h-4.23l-3.16-5.95-2.87-.06.3 6.23-3.57.45-.52-17.63m3.53 2.62l.32 5.96c1.6-.35 3.22-.6 4.77-1.13 1.27-1.2.83-2.74.05-4.04-1.7-.44-3.43-.57-5.14-.8zm-77.16 2.55c-.2-1.67-1.24-3.64.56-4.84 1.83.24 2.27 2.05 2.95 3.46l-3.5 1.38zm14.67-4.23h3.5l.5 18.58-3.63-.96c-2.24.7-5 2-7 .03-2.98-3.08-3.2-9.17.42-11.87 2.04-1.5 4.44-.08 6.52.5l-.32-6.3m-3.6 8.34c-2.72 1.55-2.1 7.43 1.38 7.34 4.54-.04 3-9.5-1.38-7.34zm-37.26-6.56l3.37-.44.22 6.6c1.98-.95 4.3-2.62 6.48-1.15 3.52 2.33 3.56 7.85 1.67 11.23-1.67 2.62-4.98 1.8-7.37.84-1.23.58-2.5 1.12-3.74 1.64l-.63-18.72m5.32 7.68c-2.33 1.9-2.07 6.16.64 7.6 5.1.64 4.46-9.42-.64-7.6zm58.42-2.54c1.55-2.94 5.6-3.7 8.4-2.2 2.37 1.38 2.5 4.43 3.38 6.75l-9.9.54c.8 1 1.68 1.97 2.6 2.9 1.65.27 3.1-.8 4.6-1.32l2.87.13c-1.78 2.05-3.83 4.58-6.9 4.15-5.44.18-7.36-6.9-5.08-10.94m1.73 2.33a99.46 99.46 0 0 0 6.91.06c-.9-.83-1.77-1.7-2.74-2.42-1.87-.54-2.9 1.45-4.17 2.36zm-103.24-4.54l3.63-.05v3.2l3.64.63a52.37 52.37 0 0 1-3.44 3.23c.13 2.73-.24 5.86 2.7 7.3l.26 2.32c-1.83-.56-4.37.06-5.63-1.64-.74-2.8-.65-5.7-.9-8.56l-2.63-.87 2.6-2.96-.22-2.6z"/><path d="M455.96 315.68l3.5-.01.37 13.07-3.42.33-.46-13.4zm23.77.02c1.88-1.9 4.53-.7 6.74-.3l3.6-1.33c.17 4.96.8 9.95.36 14.9-.56 3.33-4.55 4.4-7.45 3.97-2.44.01-3.78-2.33-5.32-3.8 2.73.23 5.4.88 8.16 1.06 1-1.2 1.44-2.75 2.12-4.14-2.46.88-5.45 2.85-7.9.88-3.04-2.78-3.22-8.33-.3-11.26m2.47 2.26c-1.72 2.46-1.14 7.46 2.66 7.14 4.03-1.8 1.9-9.66-2.66-7.14zm-36.56-2.1l4 1.02 3.8-1.62.55 3.12c-1.45.86-4.2.68-4.45 2.8-.68 3.3 1.6 8.23-3.1 9.22-.52-4.83-.63-9.7-.8-14.53zm-44 4.8c1.5-3.63 6.86-4.67 9.64-1.9 1.46 1.64 1.66 3.96 2.4 5.96l-9.88.64c.76.96 1.6 1.86 2.48 2.7 2.58-.14 5.05-1.02 7.6-1.47-1.55 2.4-3.72 4.98-6.93 4.48-5.26.26-7.16-6.4-5.3-10.4m2.53 2.1l6.42-.33a75.8 75.8 0 0 0-4.33-3l-2.1 3.33zm14.18-5.27c4.06-2.5 9.73.77 9.46 5.56.77 4.07-2.6 8.2-6.86 7.58-6.4-.28-7.83-10.26-2.6-13.14m1.78 2.47c-2.32 2.2-1.9 7.4 1.75 7.9 4.2-1.13 2.78-9.88-1.75-7.9zm-38.8 11.6c-6.63-2.18-4.96-14.6 2.6-13.56 4.1-.1 5.2 4.3 6 7.46-3.35.2-6.7.36-10.04.72l3.88 3.1c2.02-1 4.14-1.74 6.35-2.18-1.52 3.32-5.08 5.82-8.8 4.45m-.87-8.13h5.76l-1.3-2.52-3.05-.1-1.42 2.6zm-21.05-3.14c2.27-1.44 4.84-1.36 7.08.1 2.13-1.46 5.47-2.83 7.25-.05 1.53 3.6.82 7.7 1.14 11.53l-3.42.33c-.2-3.3-.04-6.63-.77-9.86-1.27-1.2-2.88-.63-3.6.84-.4 3-.1 6.04-.1 9.06l-3.2.4c-.15-3.06.08-6.18-.58-9.2-.3-1.54-1.94-1.82-3.14-1.06-1.4 3.17-.45 6.74-.48 10.08l-3.37.5-.58-13.94 3.75 1.25zm187.03 26.34c2.9-1.08 6.44.24 7.83 3.03 1.77 3.56 1.87 8.13-.18 11.6-2.57 4.1-9.63 3.34-11.24-1.26-1.7-4.44-1.62-11.38 3.6-13.36m1.05 2.93c-2.08 1.04-1.98 4.36-1.87 6.47.1 2.15 1.33 5.93 4.16 4.88 2.42-1.7 2.26-5.16 1.86-7.77-.18-2.07-1.76-4.7-4.15-3.58zm-34.9 1.13c2.4-1.64 5-2.92 7.86-3.47.4 5.76.43 11.53.8 17.3l-3.8.14-.45-13.42-4.34 3.13-.1-3.67zm16.76-3.32c3.5-1.76 8 .4 9.04 4.1.98 3.7 1.18 8.33-1.66 11.28-3.05 2.9-8.8 1.86-10.33-2.18-1.76-4.26-1.76-10.88 2.95-13.2m1.02 3.03c-1.86 2.57-1.6 6.1-.58 8.97.56 1.68 2.35 2.8 4.03 1.8 2-2.55 1.8-6.12.96-9.06-.47-1.8-2.9-3.44-4.4-1.7zm-40.98 3.47c1.23-2.35 2.64-5.26 5.67-5.47 3.44-.96 8.04 1.54 7.23 5.55-1.06 3.6-4.34 5.88-6.76 8.56l7.44-.3v3.08l-12.32.5-.04-2.6c2.7-2.82 5.9-5.3 7.93-8.67-.1-.95.55-3.13-1.03-2.97-2.16-.93-3.48 1.08-4.8 2.43l-3.35-.08zm-11.92-1.83c2.36-1.58 4.95-2.8 7.76-3.32.4 5.75.5 11.5.74 17.27l-3.73.04-.4-13.18-4.48 2.96.12-3.77zm-30.05-1.5c7.04-2.13 10.48 6.9 8.44 12.38-.88 5.5-9.13 6.8-11.77 2-2.45-4.52-2.36-12.43 3.33-14.38m.94 2.76c-2.54 1.9-2.22 5.57-1.72 8.34.3 1.85 1.95 4.3 4.1 3.2 2.42-2.18 2.05-5.9 1.42-8.78-.3-1.83-1.93-3.14-3.8-2.75zm16.76-.56c2.33-1.64 4.9-2.9 7.68-3.57.66 5.76.7 11.57.98 17.36l-3.7.12-.6-13.34-4.26 3-.1-3.57zm-34.73-1.26c3-1.22 6.73.04 8.16 3 1.75 3.62 1.85 8.34-.42 11.77-2.7 3.77-9.36 3-10.98-1.42-1.82-4.34-1.72-11.2 3.24-13.35m1.04 2.95c-2.3 2.33-1.9 6.2-.96 9.07.4 1.9 3.04 3.16 4.4 1.45 1.84-2.7 1.52-6.36.37-9.25-.56-1.34-2.65-2.47-3.8-1.27zm-40.1 2.82c.8-3.52 4.7-5.65 8.12-4.9 2.37.34 3.7 2.57 5.2 4.2l-4.1.37-1.82-2.23c-2.92.75-4.2 3.35-5.16 5.94 2.16-1.04 4.4-2.98 6.98-2.13 3.3.75 5.05 4.75 3.62 7.75-1.86 4.42-8.8 4.88-11.56 1.1-2.1-2.87-1.96-6.8-1.3-10.1m5.1 4.2c-3.57 1.82.04 7.27 3.13 5.08 3.7-1.7.1-7.37-3.13-5.08zm16.92-6.48c2.38-1.68 5-2.96 7.9-3.45.38 5.74.5 11.5.74 17.26l-3.73.07-.46-13.35-4.35 3.1-.1-3.63zm-38.47.93c2.58-3.97 9.56-3.84 11.68.56 2.4 4.57 1.8 12.37-3.98 13.98-3.55 1.2-6.56-1.3-8.73-3.78l3.43-.58c1.58.54 3.27 2.2 5.02 1.27 1.47-1.25 1.88-3.3 2.85-4.9-2.47 1-5.17 3.17-7.92 1.68-3.17-1.18-4.14-5.52-2.35-8.22m4.5.34c-2.5.58-2.38 4.72 0 5.37 1.57.35 3.96.01 4.2-1.94.77-2.38-2.03-4.54-4.2-3.43zm-18.02.73c2.37-1.7 5-2.97 7.9-3.46.38 5.74.5 11.5.74 17.26l-3.73.07-.44-13.22-4.4 2.92-.06-3.57zm146.1 4.74c1.95-1.26 3.02.46 3.65 2.16-1.05 1.38-3.22 2.57-4.26.54-1.08-1.02-.4-2 .6-2.7zm-49.3 1.97c1.48-.14 3-.32 4.5-.25 1.38 1.6.23 3.93-1.86 3.95-1.2-.98-1.84-2.45-2.64-3.7zm-51.35 2.83l4.02-1.25 1.04 3-3.85 1.4-1.2-3.14z"/></g><path fill="#f26c4f" d="M297.4 332.36c2.94-1.14 6.57 1.38 5.9 4.64-.22 3.4-4.64 4.78-7.13 2.86-2.58-1.87-1.94-6.64 1.22-7.5z"/><path fill="#9aba2f" d="M297.4 368.32c3.33-1.34 7.2 2.1 5.75 5.54-.9 3.5-6.4 3.93-8.03.84-1.36-2.2-.33-5.68 2.28-6.38z"/></svg>