<svg xmlns="http://www.w3.org/2000/svg" width="718.667" height="844" viewBox="0 0 539 633"><style><![CDATA[.B{fill:#362f2d}.C{fill:#ebebeb}.D{fill:#a0a495}.E{fill:#bfbfbf}.F{fill:#b7b7b7}]]></style><path d="M189 17H393v96c-21.84.01-43.67-.02-65.5.01.4-4.25-1.4-8.5-5.27-10.58 1.72-.4 4.87.98 5.08-1.8-4.42-.12-8.84-.05-13.26-.07.4 3.83-.98 8.1.92 11.62 1.86-2.8.62-6.45.96-9.6 5.78-.52 10.55 4.8 9.63 10.45l-22.92-.01c-.54-4.5 2.24-8.63 6.44-10.1l.28-2.14c-5.86.76-9.23 6.7-8.7 12.24-7.4-.14-14.8.25-22.17-.2 2-4.16 1.22-10.15-3.35-12.23 4.5-1.55 5.16-7.36 3.66-11.26-.93-2.95-4.76-4.76-7.42-2.83-3.96 2.56-1.76 8.8-5.55 11.4-3.62.97-5-4.08-3.7-6.67.4-2.44 5.02-1.9 3.48-5.02-6.92.9-7.75 10.6-2.46 14.1l.96-1.18-.03 3.75-.86-1.14c-3.86 2.43-4.28 7.47-2.45 11.3l-71.8-.05.03-96m88.5 36.14l-.47 3.74c-4.78.82-9.66.16-14.48.4l-.1-3.77h-1.87l-.14 3.8c-1.85.45-6.78-1.54-5.7 2.15l5.75.04c.3 1.34-.88 4.35 1.9 3.4l.1-3.4c4.82-.1 9.64.1 14.45-.1 2.36-.8 2.02-3.6 2.1-5.56l-1.57-.7m-24.27 10.37l.03 2.2 3.77.03-.12-2.24-3.68.02m7.3 0l-.13 1.92c6.1.7 12.4.08 18.56.3l.04-2.2c-6.16-.04-12.32.01-18.47-.03m2.7 4.65c-4.74 2.9-4.64 10.53.07 13.45-3.35-.12-6.7-.08-10.06-.1v2.2l25.72.03.05-2.04-3.56.2c4.33-2.46 5.5-8.86 2.03-12.52-3.72-3.58-9.92-3.7-14.25-1.2m50.13 13.96c-1.73-3.93-7.3-5.32-10.34-2.1-3.16 5.25-1.3 11.72-1.7 17.52 8.56-.17 17.1-.02 25.67-.08-.42-5.7 1.13-11.8-1.35-17.15-2.76-4.72-11.28-3.9-12.27 1.82z" class="B"/><path fill="#4d5c26" d="M19 41h170l-.03 72c-51.83-.08-103.67.16-155.5-.12-1.43-2.65-4.7-1.74-7.14-1.58l-.53 1.06c-1.5 4.4-.1 9.3-.53 13.9-.48 9.8-.42 19.66.02 29.48L25 259.98v279H520V188.97c.16-8.85-.57-17.7-.1-26.54 1.5-5.67.86-11.58 1.1-17.37-.2-6.74.43-13.58-1-20.23-.4-3.93-.23-7.9-.02-11.83H393V41h134v581H19V41m180.07 506.05l-.01 67.9 267.85.03.03-67.9-267.87-.02M86 561V600H142V561c-18.66-.02-37.32-.02-55.98 0z"/><path d="M277.5 53.15l1.57.7c-.1 1.97.25 4.75-2.1 5.56-4.8.2-9.63-.02-14.45.1l-.1 3.4c-2.8.95-1.6-2.06-1.9-3.4l-5.75-.04c-1.1-3.7 3.84-1.7 5.7-2.15l.14-3.8h1.87l.1 3.77c4.82-.23 9.7.43 14.48-.4l.47-3.74zm-24.27 10.37l3.68-.02.12 2.24-3.77-.03-.03-2.2zm7.3 0l18.47.03-.04 2.2c-6.17-.22-12.47.4-18.56-.3l.13-1.92zm2.7 4.65c4.33-2.5 10.53-2.38 14.25 1.2 3.48 3.66 2.3 10.06-2.03 12.52l3.56-.2-.05 2.04c-8.58-.03-17.15.04-25.72-.03v-2.2l10.06.1c-4.7-2.92-4.8-10.55-.07-13.45m2.97 1.1c-3.22.8-5.48 4.42-4.17 7.62 1.27 4.45 7.06 5.38 10.94 4.17 3.94-.7 6.05-5.7 4.02-9.1-2.37-3.33-7.13-3.88-10.8-2.7z" class="F"/><path d="M266.2 69.28c3.66-1.18 8.42-.63 10.8 2.7 2.03 3.38-.08 8.4-4.02 9.1-3.88 1.2-9.67.28-10.94-4.17-1.3-3.2.95-6.82 4.17-7.62z" class="B"/><path d="M313.37 82.13c1-5.73 9.5-6.54 12.27-1.82 2.48 5.36.93 11.46 1.35 17.15-8.56.06-17.1-.1-25.67.08.42-5.8-1.45-12.27 1.7-17.52 3.05-3.2 8.6-1.82 10.34 2.1m2.66-1.1c-2.67 4.14-1.17 9.3-1.6 13.9 3.52.12 7.04.06 10.56.06-.15-3.87.43-7.83-.4-11.65-.8-3.7-5.95-4.83-8.55-2.3m-12.5 3.06c-.6 3.6-.14 7.26-.28 10.9l9.3-.04c-.4-4.16.94-8.7-1.13-12.54-1.96-2.97-7.3-1.84-7.9 1.7z" class="F"/><path d="M316.03 81.03c2.6-2.52 7.74-1.38 8.55 2.3.84 3.82.26 7.78.4 11.65-3.52 0-7.04.06-10.56-.06.43-4.6-1.07-9.76 1.6-13.9zm-12.5 3.07c.6-3.53 5.93-4.66 7.9-1.7 2.07 3.85.72 8.38 1.13 12.54-3.1.1-6.2.07-9.3.04.14-3.63-.32-7.3.28-10.9z" class="B"/><path d="M271.4 86.48c2.66-1.93 6.5-.12 7.42 2.83 1.5 3.9.85 9.7-3.66 11.26 4.57 2.08 5.34 8.07 3.35 12.23-1.13 2.24-3.38 3.24-5.8 3.42.33-1.07.68-2.14 1.08-3.2l2.07-.12c2.67-2.6 2.76-8.2-.95-9.9-5.1-.15-4.05 6.73-5.76 10.02-1.98 3.03-6.33 2.96-8.36.03-1.83-3.84-1.4-8.88 2.45-11.3l.86 1.14.03-3.75-.96 1.18c-5.3-3.5-4.46-13.2 2.46-14.1 1.54 3.12-3.07 2.58-3.48 5.02-1.3 2.6.07 7.64 3.7 6.67 3.8-2.6 1.6-8.85 5.55-11.4M272 89c-2.2 3.55-1.27 8.7-5.16 11.3l-.93-1.16c0 1.46-.07 2.9-.14 4.37-5.3.23-5.57 10.23.06 9.4 3.47-2.37 1.94-7.54 4.53-10.56 1.15-1.05 3.04-1.47 2.84-3.4 3.66-.58 5.4-4.54 4.3-7.9-.35-2.45-3.74-4.38-5.5-2.06z" class="F"/><path d="M272 89c1.76-2.32 5.15-.4 5.5 2.06 1.1 3.35-.64 7.3-4.3 7.9.2 1.93-1.7 2.35-2.84 3.4-2.6 3.02-1.06 8.2-4.53 10.56-5.63.82-5.35-9.18-.06-9.4.07-1.46.14-2.9.14-4.37l.93 1.16c3.9-2.58 2.96-7.74 5.16-11.3z" class="B"/><path d="M300.67 113c-.53-5.55 2.84-11.48 8.7-12.24l-.28 2.14c-4.2 1.47-6.98 5.6-6.44 10.1 1.96 11.03 21 11.1 22.92.01.92-5.66-3.85-10.97-9.63-10.45-.34 3.16.9 6.8-.96 9.6-1.9-3.5-.52-7.8-.92-11.62l13.26.07c-.2 2.78-3.36 1.4-5.08 1.8 3.87 2.07 5.66 6.33 5.27 10.58-.55 3.55-2.36 6.98-5.56 8.8-4.94 2.75-11.52 2.68-16.27-.44-2.87-1.86-4.33-5.1-5-8.35z" class="E"/><path d="M269.15 113.02c1.7-3.3.65-10.17 5.76-10.02 3.7 1.7 3.62 7.3.95 9.9l-2.07.12c-1.55.02-3.1 0-4.64-.01z" class="B"/><path fill="#3e3c39" d="M26.34 111.3c2.43-.16 5.7-1.07 7.14 1.58-1.46 4.68-.68 9.63-1.16 14.43-1.66 12.88.25 25.8.4 38.7 4.8 49.67 21.7 98.57 51 139.15 4.57 6.98 10.03 13.32 15.36 19.72 5.62 6 10.8 12.47 17.18 17.72 4.98 4.65 9.65 9.67 15.37 13.44.94.8 1.85 1.6 2.75 2.44 2.83 2.64 6.44 4.3 9.18 7.03 3.3 3.9 8.5 5.02 12.45 8.07 2.66 1.74 4.83 4.4 8.1 5 3.28.8 6.05 2.75 9 4.3 25.82 13.45 54.5 21.04 83.43 23.7 7.1 1 14.25.4 21.38.55 7.8.35 15.5-1.03 23.25-1.64 11.5-1.63 23.04-3.55 34.18-6.97 5.5-1.3 10.64-3.8 16.17-4.97 1.93.1 3.85-.23 5.42-1.43 3.55-2.46 7.7-3.76 11.53-5.7 33.33-16.15 62.85-40.03 85.74-69.13 32.3-40.76 52-91 57.67-142.6 1-5.97.3-12.1 1.3-18.08.5-7.9.12-15.82.2-23.73a205.5 205.5 0 0 1-1.1-18.4l7.04.07c.08 3.42-.01 6.87.63 10.24 1.44 6.65.82 13.5 1 20.23-.23 5.8.4 11.7-1.1 17.37l-.14-1.43c-1.1 34.4-9.25 68.44-22.42 100.2-25.7 62.12-74.6 115.77-137.26 141.6-6.75 3.26-14.1 4.82-21 7.62-2 .58-4.02 1.27-5.52 2.78-6.44-.38-12.36 2.66-18.68 3.38-12.88 1.86-25.83 3.98-38.9 3.52-24.7.7-49.35-3.68-72.82-11.2-3.88-1.13-7.52-3.4-11.67-3.32-3.32-3-7.2-5.23-11.6-6.16-28.06-12.8-53.37-31.33-74.82-53.44C56.23 295.25 28 225.9 25.3 155.73c-.44-9.82-.5-19.67-.02-29.48.37-4.63.6-9.26.53-13.9.13-.27.4-.8.53-1.06z"/><path d="M272.7 116.22c2.4-.18 4.66-1.18 5.8-3.42 7.38.46 14.78.07 22.17.2.68 3.24 2.14 6.5 5 8.35 4.75 3.12 11.33 3.2 16.27.44 3.2-1.8 5-5.24 5.56-8.8H393l.04 63.97c-.02 1.93-.13 3.85-.26 5.78l-6.6.53a70.07 70.07 0 0 0 .03 13.43l7.63.54c.4 15.57-.03 31.15.18 46.73-.03 2.54.17 5.13-.38 7.64-2 2.97-5.36 4.62-7.83 7.15-3.63 3.66-7.85 6.66-11.55 10.25l-3.8 3.4-1.73 1.5c-2.8-2.73-5.78-5.28-8.36-8.22 1.6-1.15 3.05-2.5 4.37-3.98l-3.67-3.78c-1.5 1.42-2.82 3-3.88 4.75-2.3-1.85-4.4-3.94-6.55-6 .32-1.6.54-3.2.75-4.8l.88-2.24c-.37-.92-.73-1.84-1.06-2.76.25-5.47.28-10.95.16-16.43-4.13-.18-8.27-.2-12.4.04l-.46 5.6-1.4-1-2.77 2.68c-.67-2.42-.8-4.92-.78-7.4-2.57.06-5.16-.03-7.62-.84l2.78-2.9-3.65-3.7a148.49 148.49 0 0 0-3.83 4.1l3.25 3.08-.9.78-50.3-47.9-17.58 18.34c-1.23-1.46-2.54-2.84-3.9-4.16l-3.85 3.75c1.44 1.34 2.94 2.62 4.5 3.83l-7.9 8.47c-1.17-1.43-2.43-2.78-3.76-4.05l-3.84 3.74c1.4 1.3 2.85 2.54 4.36 3.72-2.97 2.8-5.67 5.87-8.6 8.72a51.79 51.79 0 0 0-3.93-4.18l-3.84 3.73c1.44 1.37 2.97 2.66 4.58 3.85l-1.5 1.68c-3.5-1.2-7.27-1.13-10.84-.36l.14 3.06-3.2 3.77 3.85 4.1c-2 1.96-3.96 3.93-5.86 5.97l.01-17.3c-4.13-.23-8.26-.24-12.4-.06-.06 10.05-.53 20.14.16 30.17l-2.28 2.46c-1.18-1.42-2.45-2.76-3.76-4.04l-3.6 3.2c-.45-14.73-.26-29.5-.12-44.24l8.7-.38c.4-12.93-.01-25.9.17-38.83-.1-9.26.22-18.54-.2-27.8l-9.6-.37c-.47-12.26-.1-24.55-.23-36.82l71.8.05c2.03 2.93 6.38 3 8.36-.03l4.64.01c-.4 1.05-.75 2.12-1.08 3.2m-19.57 1.06l-.08 2.6 4 .18-.2-2.83-3.7.06m7.44.35l.25 2.15c6 .12 12 .07 18 .05l.34-2.1c-6.18-.44-12.4-.22-18.58-.1m-.53 3.6c.12 1.04.66 1.72 1.6 2.05 4.4 1.63 9 2.7 13.5 4.1l-.78.9c-4.52 1.78-9.4 2.44-13.9 4.28l-.1 2.1c4.9 2 10.14 2.9 15.12 4.68-4.72 2.6-10.3 3.02-15.2 5.25l.4 1.94c6.18-1.62 12.17-3.86 18.26-5.75l-.05-2.57c-5-1.63-10.24-2.6-15.1-4.66 5.1-1.57 10.26-2.84 15.3-4.6l-.36-2.5c-6.27-1.54-12.2-4.87-18.67-5.22m41.43 11.92c-.92 5.2 4.37 9.9 9.42 8.53-.06-2.04-2.55-1.83-3.9-2.62-4.82-1.2-4.56-9.07.08-10.32 3.03-1.1 6.05.98 7.7 3.4 3.15 4.36 5.95 10.3 12.06 10.76.24-5.55.38-11.13-.05-16.67-.4-.04-1.2-.14-1.6-.2-.4 4.72 0 9.46-.26 14.2-6.57-2.57-7.18-11.9-14.28-13.78-4.4-1.44-9.1 2.12-9.15 6.7M268 148.07c-3.72 3.9-2.75 9.95-5.48 14.35-1.9 1.98-5.6 1.26-6.76-1.2-2.72-4.46-.16-10.75 5.07-11.66l-.3-2.24c-5.32.2-8.4 5.7-7.8 10.57-.14 4.42 3.64 8.93 8.33 8.06 4.65-.66 5.2-6.15 6.1-9.82.6-3.06 1.82-7.7 5.86-7.1 4.58 1.13 5.25 7.12 3.9 10.9-.7 3-3.83 4.03-6.44 4.76l-.1 1.87c3.8.96 7.63-1.94 8.48-5.6 1.1-4.03 1-8.78-1.58-12.24-2.3-2.56-6.75-3.24-9.3-.67m16.24 44.06c1.23 1.04 2.3 2.34 3.76 3.1 1.6-.65 2.44-2.35 3.67-3.48a38.42 38.42 0 0 0-3.59-3.74 59.78 59.78 0 0 0-3.84 4.13m13 12l3.82 3.46c1.23-1.27 2.44-2.58 3.63-3.9a69.93 69.93 0 0 0-3.6-3.7c-1.35 1.3-2.64 2.7-3.84 4.13m60.93 5c-.6 4.93-.16 9.9-.23 14.87.2 8.97-.26 17.95.18 26.9 3.94.25 7.9.42 11.85.05 2.48-.15 2.08-3.15 2.17-4.88-.23-12.3.34-24.64-.22-36.94-4.57-.5-9.18-.45-13.75-.01m-48.93 5.98l3.8 3.48 3.64-3.87a55.29 55.29 0 0 0-3.62-3.72 59.5 59.5 0 0 0-3.83 4.11zM25.28 126.25c.44-4.6-.96-9.5.53-13.9.06 4.63-.16 9.26-.53 13.9z" fill="#999797"/><path d="M33.48 112.88l155.5.12c.12 12.27-.24 24.56.23 36.82 3.2.17 6.4.27 9.6.37.4 9.26.08 18.54.2 27.8l-.17 38.83-8.7.38.12 44.24c.63 2 2.62 2.96 4.1 4.23-2.7 2.68-5.38 5.4-7.8 8.35l-3.72-3.76c-1.35 1.18-2.67 2.4-3.9 3.68 1.38 1.28 2.82 2.5 4.34 3.63-3.16 2.64-5.85 5.78-8.68 8.76-1.17-1.46-2.45-2.83-3.8-4.12l-3.86 3.72c1.4 1.34 2.9 2.6 4.46 3.76-2.92 2.9-5.65 6-8.65 8.8-1.22-1.52-2.54-2.95-3.94-4.3-1.3 1.22-2.6 2.47-3.87 3.73a46.51 46.51 0 0 0 4.64 3.88c-2.54 2.94-5.3 5.66-7.96 8.5-1.2-1.47-2.48-2.84-3.85-4.13l-3.82 3.76c1.42 1.33 2.9 2.58 4.48 3.74-2.93 2.92-5.66 6.03-8.7 8.85-1.2-1.57-2.53-3.02-3.96-4.35l-3.83 3.74c1.46 1.4 3.02 2.7 4.67 3.88-4.35 4.95-9.1 9.54-13.57 14.38l12.1 11.6c-1.2 1.38-2.36 2.8-3.48 4.25-5.72-3.77-10.4-8.8-15.37-13.44-6.37-5.25-11.56-11.7-17.18-17.72-5.33-6.4-10.8-12.74-15.36-19.72-29.32-40.58-46.2-89.48-51-139.15-.16-12.9-2.07-25.83-.4-38.7.48-4.8-.3-9.75 1.16-14.43m21.73 2.3c-.5 7.6-.04 15.23-.2 22.84.06 8.92-.27 17.86.26 26.77a64.48 64.48 0 0 0 6.81.24l61.8-.2.01-49.62c-7.94-.48-15.9-.04-23.83-.22-14.94.16-29.9-.24-44.83.18z" class="D"/><path fill="#999797" d="M302.65 113l22.92.01c-1.93 11.08-20.96 11.02-22.92-.01z"/><path d="M393 113h126.95c-.2 3.94-.37 7.9.02 11.83-.64-3.37-.55-6.82-.63-10.24l-7.04-.07a205.5 205.5 0 0 0 1.1 18.4c-.1 7.9.3 15.84-.2 23.73-1 6-.28 12.1-1.3 18.08-5.66 51.6-25.36 101.84-57.67 142.6-22.9 29.1-52.4 52.98-85.74 69.13-3.83 1.93-7.98 3.23-11.53 5.7-1.57 1.2-3.5 1.52-5.42 1.43.97-1.34 1.85-2.84 3.3-3.74 3.8-2.25 6.64-5.74 9.37-9.14 1.08 1.52 2.4 2.83 3.84 4.02l3.6-3.75c-1.32-1.26-2.68-2.48-4.08-3.64 2.78-2.7 5.9-5.22 7.74-8.7 1.03 1.58 2.34 2.93 3.78 4.15l3.55-3.84c-1.3-1.24-2.64-2.4-4.06-3.46 3.3-2.46 6.06-5.58 8.62-8.8 1.07 1.55 2.44 2.87 3.9 4.07l3.53-3.8c-1.32-1.27-2.67-2.5-4.08-3.65 2.77-2.7 5.85-5.24 7.76-8.66 1.03 1.56 2.34 2.9 3.77 4.14l3.56-3.85c-1.3-1.24-2.65-2.4-4.07-3.47 6.64-5.67 12.2-12.5 18.37-18.67-7.56-7.44-15.54-14.48-22.9-22.12 1.83-.97 3.33-2.4 4.68-3.95l-3.66-3.78c-1.57 1.45-2.93 3.1-3.9 5.02-8.7-7.78-16.93-16.07-25.44-24.04l1.73-1.5c.66 1.78 2.23 2.94 3.6 4.18l3.65-3.9-3.43-3.68c3.7-3.6 7.92-6.6 11.55-10.25 2.47-2.53 5.83-4.18 7.83-7.15.55-2.5.35-5.1.38-7.64l-.18-46.73-7.63-.54a70.07 70.07 0 0 1-.03-13.43l6.6-.53c.13-1.93.24-3.85.26-5.78L393 113m13 1V154H502V114c-32-.02-64-.02-95.98 0m-23.77 171.1l3.8 3.48c1.25-1.26 2.47-2.56 3.66-3.88-1.15-1.28-2.35-2.52-3.6-3.7a59.79 59.79 0 0 0-3.85 4.11m24 23l3.8 3.5 3.62-3.86c-1.13-1.3-2.33-2.56-3.6-3.74-1.34 1.3-2.63 2.68-3.84 4.1z" class="D"/><path fill="#00a4b4" d="M406 114H502V154H406V114z"/><path fill="#a1a1a1" d="M55.2 115.17c14.94-.42 29.9-.02 44.83-.18 7.94.18 15.9-.26 23.83.22.26 16.53.2 33.1-.01 49.62-20.6.42-41.2.05-61.8.2a64.48 64.48 0 0 1-6.81-.24c-.53-8.9-.2-17.85-.26-26.77.17-7.6-.28-15.23.2-22.84m28.24 9.52c-7.2 1.8-13.1 8.8-12.4 16.42.54 8.46 8.68 14.86 16.9 14.87 9.35.64 18.94-7.36 18-17.1-.68-10.58-12.82-17.24-22.5-14.18z"/><path fill="#b3b3b2" d="M253.14 117.28l3.7-.06.2 2.83-4-.18.08-2.6z"/><path fill="#bababa" d="M260.58 117.63c6.2-.13 12.4-.35 18.58.1l-.34 2.1c-6 .02-12 .07-18-.05l-.25-2.15z"/><path d="M260.05 121.23c6.48.35 12.4 3.68 18.67 5.22l.36 2.5c-5.03 1.76-10.2 3.03-15.3 4.6 4.86 2.06 10.1 3.03 15.1 4.66l.05 2.57c-6.1 1.9-12.08 4.13-18.26 5.75a110.85 110.85 0 0 0-.39-1.94c4.9-2.23 10.48-2.64 15.2-5.25-4.98-1.77-10.22-2.7-15.12-4.68l.1-2.1c4.5-1.84 9.4-2.5 13.9-4.28l.78-.9c-4.5-1.38-9.1-2.46-13.5-4.1-.95-.33-1.5-1-1.6-2.05z" class="E"/><path fill="#ab7500" d="M83.45 124.7c9.68-3.06 21.82 3.6 22.5 14.18.93 9.75-8.66 17.75-18 17.1-8.2-.01-16.35-6.4-16.9-14.87-.7-7.6 5.2-14.62 12.4-16.42m2.3 11.06V142h5l-.02-6.26-4.98.02z"/><path d="M301.48 133.15c.04-4.57 4.74-8.13 9.15-6.7 7.1 1.88 7.7 11.2 14.28 13.78.26-4.73-.13-9.47.26-14.2l1.6.2c.43 5.54.3 11.12.05 16.67-6.1-.46-8.9-6.4-12.06-10.76-1.65-2.43-4.67-4.5-7.7-3.4-4.64 1.25-4.9 9.1-.08 10.32 1.36.8 3.85.58 3.9 2.62-5.05 1.37-10.34-3.34-9.42-8.53z" class="E"/><path d="M85.74 135.75l4.98-.02.02 6.26h-5v-6.25z" class="C"/><path d="M268 148.07c2.56-2.57 7-1.9 9.3.67 2.6 3.46 2.68 8.2 1.58 12.24-.85 3.65-4.7 6.55-8.48 5.6l.1-1.87c2.6-.73 5.74-1.75 6.44-4.76 1.34-3.8.67-9.78-3.9-10.9-4.04-.6-5.27 4.05-5.86 7.1-.92 3.67-1.46 9.16-6.1 9.82-4.7.87-8.47-3.64-8.33-8.06-.6-4.87 2.47-10.38 7.8-10.57l.3 2.24c-5.23.9-7.8 7.2-5.07 11.66 1.15 2.45 4.85 3.17 6.76 1.2 2.73-4.4 1.76-10.45 5.48-14.35z" class="E"/><path d="M25.3 155.73c2.7 70.16 30.93 139.52 79.76 190.23 21.45 22.1 46.76 40.64 74.82 53.44 4.42.93 8.3 3.15 11.6 6.16l4.87 4.5a26.36 26.36 0 0 0-4.14 4.04l3.87 3.5c1.26-1.38 2.5-2.8 3.68-4.23 2.96 2.88 6.05 5.64 8.9 8.63-1.76 1.05-3.2 2.5-4.45 4.1l3.87 3.5a70.99 70.99 0 0 0 3.79-4.53c3.26 2.6 5.83 6.04 9.44 8.2-1.56 1.04-2.92 2.34-4.12 3.78l3.88 3.54c1.2-1.32 2.35-2.67 3.47-4.05 2.57 3.2 5.68 5.93 8.8 8.6-1.58 1.07-2.92 2.44-4.12 3.92l3.85 3.5 3.65-4.12c2.82 2.94 5.88 5.65 8.76 8.54-1.6 1.15-3.02 2.54-4.27 4.07l3.87 3.52c1.3-1.42 2.54-2.87 3.75-4.35 2.87 2.56 5.57 5.3 8.48 7.83-1.5 1.17-2.88 2.5-4.1 3.98l3.87 3.53 3.67-4.16c2.9 2.9 5.9 5.74 8.9 8.54l10.48-10.9c1.04-.96 1.64-2.24 2.22-3.5 1 1.6 2.3 2.97 3.72 4.2l3.57-3.84c-1.26-1.26-2.6-2.4-4.1-3.38 3.53-2.23 6.25-5.57 8.7-8.9 1.05 1.56 2.4 2.88 3.83 4.1l3.55-3.82c-1.3-1.25-2.66-2.44-4.08-3.54 2.87-2.65 6.17-5.15 7.78-8.8 1 1.58 2.3 2.96 3.73 4.2l3.57-3.84c-1.27-1.25-2.62-2.4-4.07-3.4 3.46-2.3 6.24-5.55 8.7-8.88 1.02 1.6 2.4 2.9 3.84 4.1l3.54-3.82c-1.3-1.25-2.66-2.44-4.07-3.57 3.1-2.62 5.8-5.68 8.5-8.7 1.18 1.5 2.54 2.86 4.03 4.08l3.52-3.8c-1.36-1.3-2.74-2.54-4.15-3.75l1.05-1c1.5-1.5 3.52-2.2 5.52-2.78 6.9-2.8 14.26-4.36 21-7.62 62.67-25.83 111.57-79.48 137.26-141.6 13.17-31.75 21.32-65.8 22.42-100.2l.14 1.43c-.47 8.85.26 17.7.1 26.54V539H25v-279l.3-104.25m154.9 247.3c1.25 1.22 2.54 2.42 3.84 3.6l2.82-3c-1.86-1.53-5-3.57-6.66-.6M327 467.18c2.74 8.67 6.32 17.07 9.23 25.7l2.82.17 9.6-25.68-2.5-.07-8.32 22.97c-3.14-7.48-5.6-15.24-8.45-22.83l-2.4-.25m48.34.24c-10.2 3.44-10.8 19.87-1.56 24.78 2.8 1.44 6.2 1.54 9.2.75 4.2-1.18 6.97-5.6 6.88-9.84l-2 .4c-.64 5.02-5.56 9.52-10.77 7.84-7.34-1.7-8.9-11.3-6.15-17.3 2.1-5.43 10-7.25 14.16-3.13 1.87 1.27 1.5 4.86 4.5 4.25-.28-6.7-8.58-9.97-14.25-7.73m96.74 2.58c-1.64 1.68-1.78 4.16-2.23 6.34 1.82.43 2.7-.3 2.6-2.22.34-3.86 5.12-6.03 8.36-4.03 3.66 1.68 3.53 6.96.7 9.38-4.4 4.13-12.03 6.4-12.24 13.53 5.54-.1 11.1.2 16.64-.18l-.17-1.6c-4.68-.53-9.4-.04-14.1-.26 2.28-6.06 10.05-6.85 13.02-12.35 1.32-2.23 1.43-5.17.26-7.48-2.5-4.4-9.55-4.86-12.82-1.13m-118.9 4.2c-6.46 2.2-7.55 11.4-3.64 16.33 2.33 3.1 6.88 3.6 10.26 2.14 5-2.6 6.05-9.55 3.7-14.28-1.66-3.8-6.5-5.57-10.33-4.2m46.02 0c-6.46 2.18-7.57 11.36-3.7 16.3 2.32 3.1 6.88 3.62 10.27 2.18 5.03-2.6 6.1-9.6 3.7-14.35-1.67-3.77-6.48-5.5-10.28-4.13m15.2.1c-.2 6.2 0 12.4-.12 18.6l2.08.17c.67-5-1.78-11.33 2.43-15.2 1.34-1.84 5.48-.37 4.75-3.6-3.32-.34-5.78 1.95-7.48 4.5l.18-3.92-1.84-.53m10.5 15.73c3.5 5.75 14.54 4.08 14.6-3.25l-1.87.53c-.94 2.38-2.85 4.66-5.66 4.5-4.18.44-6.47-3.95-6.77-7.52 4.82-.16 9.65-.05 14.48-.07.72-5.5-3.73-11.8-9.76-10.33-6.94 1.52-8.15 10.8-5.02 16.14m26.25-15.6l7.07 18.55 2.47-.07c2.15-6.15 4.55-12.2 6.8-18.33l-2.34.28-5.62 16c-2.18-5.2-3.82-10.6-5.82-15.87l-2.56-.57m-17.37 44l1.08-.37c1.94-3.9 3.34-8.02 5.08-12 .75-2 1.98-3.93 1.84-6.15-3.32 5.83-5.36 12.34-8 18.5m-15.2-17.45V503c2.1 1.9 2.1-3.92 0-2.03m38.8.44c-2.46.63-2.96 3.4-3.25 5.54 2.45.55 1.3-2.93 2.82-3.96 2.6-2.27 7.58.35 6.2 3.9-2.1 4.6-8.98 5.42-9.57 11.06 3.82-.03 7.68.3 11.5-.26-.14-.26-.4-.8-.53-1.06-3.1-.15-6.23.05-9.34-.07 1.83-4.68 9-5.05 9.5-10.5.5-3.87-4.12-6.17-7.3-4.65m-117.17 3.77c1.17 4.48 3.23 8.66 4.73 13.03l1.5-.58c1.48-4.12 3.38-8.12 4.3-12.4-.3.1-.87.3-1.16.38-1.63 3.43-2.2 7.3-4.14 10.6-1.2-3.1-2.18-6.27-3.3-9.4-.28-.96-.92-1.5-1.94-1.64m15.27.46c-5.25 1.9-4.94 10.97.54 12.4 3.74 1.2 7.76-2.24 7.38-6.1.7-4.3-3.9-7.98-7.92-6.3m13 0c-5.26 1.9-4.94 11.07.58 12.4 3.24 1.1 6.65-1.55 6.57-4.94-2.13.63-2 4.05-4.6 3.88-6.43.74-6.45-11.1-.04-10.65 2.36-.13 2.42 3.32 4.62 3.22-.2-3.42-4.16-5.16-7.12-3.9m12.93.03c-5.2 1.98-4.84 10.98.64 12.4 4.14 1.27 8.04-2.83 7.36-6.9.22-4.07-4.3-7.1-8-5.5m11.77 2.37l-.42-2.1-1.07-.5c-.18 4.06-.12 8.14-.1 12.22l1.37.53c.2-2.97-.4-6.05.43-8.93.46-2.24 4.35-1.53 4.16-3.84-1.84.14-3.4 1.02-4.36 2.62m8.23-2.45c-3.54 1.35-4.38 5.97-3.15 9.2 1.1 3.7 6.68 4.7 9.12 1.8 1.45-1.5.7-3.7 1.16-5.5.32-3.68-3.55-7.04-7.13-5.5m17.2-.3l-.04 12.35 1.37.55c-.01-4.07.16-8.14-.06-12.2-.3-.18-.95-.53-1.27-.7m6.84.35c-4.9 1.8-5.02 10.03-.24 12.08 3 1.5 6.93-.34 7.88-3.52.6-2.4.48-5.25-1.25-7.2-1.6-1.68-4.23-2.16-6.4-1.37m16.76-.5c1.13 4.5 3.23 8.67 4.72 13.05l1.5-.58c1.48-4.1 3.38-8.12 4.3-12.4-.3.1-.87.3-1.16.38-1.56 3.5-2.37 7.3-4.07 10.77-1.25-3.16-2.25-6.4-3.4-9.6-.28-.93-.92-1.47-1.9-1.62z" class="D"/><path d="M273.28 183.03l50.3 47.9c3.34 3 6.36 6.33 9.87 9.13a33.41 33.41 0 0 1 2.93 2.53c4.4 5.06 9.5 9.42 14.25 14.12 2.14 2.05 4.24 4.14 6.55 6a25.82 25.82 0 0 1 3.18 3.01c2.58 2.94 5.56 5.5 8.36 8.22l25.44 24.04c1.08.78 2.04 1.68 2.9 2.7 7.36 7.64 15.34 14.68 22.9 22.12-6.18 6.16-11.73 13-18.37 18.67-1.2.96-2.27 2.02-3.26 3.18-1.9 3.42-5 5.96-7.76 8.66-1.17 1.08-2.3 2.2-3.35 3.38-2.56 3.2-5.3 6.33-8.62 8.8-1.2.95-2.28 2-3.27 3.15-1.84 3.48-4.96 6-7.74 8.7-1.18 1.06-2.3 2.2-3.37 3.37-2.73 3.4-5.57 6.9-9.37 9.14-1.45.9-2.33 2.4-3.3 3.74-5.53 1.17-10.67 3.67-16.17 4.97-11.14 3.42-22.67 5.34-34.18 6.97-7.75.6-15.46 2-23.25 1.64-7.13-.15-14.3.46-21.38-.55-28.93-2.67-57.6-10.26-83.43-23.7-2.95-1.55-5.72-3.5-9-4.3-4.08-3.45-8.38-6.6-11.96-10.63-1.47-1.53-2.98-3-4.58-4.4-3-2.7-5.8-5.55-8.78-8.25l-3.7-3.53-12.1-11.6c4.47-4.84 9.22-9.43 13.57-14.38 1-1.14 2.03-2.23 3.12-3.27 3.03-2.82 5.76-5.93 8.7-8.85l3.2-3.37c2.65-2.85 5.42-5.57 7.96-8.5 1-1.15 2.07-2.26 3.17-3.32 3-2.82 5.73-5.92 8.65-8.8l3.2-3.36c2.83-2.98 5.52-6.12 8.68-8.76 1.14-1.14 2.24-2.33 3.3-3.55 2.42-2.96 5.1-5.67 7.8-8.35l3.24-3.38 2.28-2.46 12.23-12.8c1.9-2.04 3.87-4 5.86-5.97 1.3-1.3 2.53-2.64 3.76-4 2.02-2.27 4.15-4.43 6.28-6.6l1.5-1.68c1.02-1.17 2.1-2.3 3.2-3.4 2.92-2.85 5.62-5.92 8.6-8.72l3.24-3.4c2.55-2.9 5.3-5.62 7.9-8.47a95.92 95.92 0 0 1 3.26-3.42l17.58-18.34z" class="B"/><path d="M284.23 192.13c1.2-1.44 2.5-2.8 3.84-4.13a38.42 38.42 0 0 1 3.59 3.74c-1.23 1.13-2.08 2.83-3.67 3.48-1.46-.75-2.53-2.05-3.76-3.1zm-36.3 8.83l3.85-3.75 3.9 4.16-3.26 3.42-4.5-3.83zm49.3 3.17c1.2-1.44 2.5-2.82 3.84-4.13l3.6 3.7-3.63 3.9-3.82-3.46z" class="C"/><path fill="#a1a1a1" d="M358.17 209.13c4.57-.44 9.18-.5 13.75.01.56 12.3-.01 24.63.22 36.94-.1 1.73.3 4.73-2.17 4.88-3.94.37-7.9.2-11.85-.05-.44-8.96.02-17.94-.18-26.9.07-4.96-.38-9.94.23-14.87z"/><path d="M236.94 212.95l3.84-3.74c1.33 1.27 2.6 2.62 3.76 4.05l-3.24 3.4-4.36-3.72zm72.3 2.15l3.83-4.1 3.62 3.72-3.64 3.87-3.8-3.48zm-84.3 9.84l3.84-3.73a51.79 51.79 0 0 1 3.93 4.18l-3.2 3.4a51.24 51.24 0 0 1-4.58-3.85zm96.3 2.13l3.83-4.1 3.65 3.7-2.78 2.9-1.45.58-3.25-3.08z" class="C"/><path d="M324.5 230.15l1.45-.58c2.46.8 5.05.9 7.62.84-.01 2.48.1 4.98.78 7.4l-.88 2.25c-3.5-2.8-6.53-6.14-9.87-9.13l.9-.78zm-124.78-.5c4.14-.18 8.27-.17 12.4.06.13 5.76.02 11.53-.01 17.3l-2.5 2.63a22.52 22.52 0 0 0-3.74-4.4c-1.34 1.15-2.65 2.34-3.9 3.6a22.08 22.08 0 0 0 4.73 3.82l-6.82 7.15c-.7-10.03-.22-20.12-.16-30.17zm17.45.44c3.57-.77 7.35-.85 10.84.36-2.13 2.16-4.26 4.32-6.28 6.6a136.78 136.78 0 0 0-4.42-3.9l-.14-3.06zm121.8.43c4.13-.25 8.27-.22 12.4-.04.12 5.48.1 10.96-.16 16.43-2.74-1.45-4.42 1.4-5.9 3.2a151.47 151.47 0 0 0 3.53 3.13l2.56-1.33c-.2 1.6-.43 3.2-.75 4.8-4.76-4.7-9.86-9.06-14.25-14.12 1.42-1.2 2.8-2.4 4.16-3.67-.68-.94-1.33-1.9-2.04-2.8l.46-5.6z" fill="#d3c3b1"/><path d="M217.3 233.17l4.42 3.9-3.76 4-3.85-4.1 3.2-3.77zm117.04 4.63l2.77-2.68 1.4 1 2.04 2.8-4.16 3.67a33.41 33.41 0 0 0-2.93-2.53l.88-2.25zm-132.37 11.06l3.9-3.6c1.42 1.3 2.7 2.76 3.74 4.4l-2.9 3.03a22.08 22.08 0 0 1-4.73-3.82zm143.33 1.26c1.5-1.8 3.17-4.65 5.9-3.2l1.06 2.76-.88 2.24-2.56 1.33-3.53-3.13zm-155.05 11.32l3.6-3.2 3.76 4.04-3.24 3.38c-1.5-1.27-3.48-2.24-4.1-4.23zm166.95 1.26c1.06-1.76 2.4-3.33 3.88-4.75l3.67 3.78c-1.32 1.47-2.76 2.83-4.37 3.98a25.82 25.82 0 0 0-3.18-3.01zm13.26 9.72l3.8-3.4 3.43 3.68-3.65 3.9c-1.36-1.24-2.93-2.4-3.6-4.18zm-191.53 1.52c1.24-1.3 2.56-2.5 3.9-3.68l3.72 3.76-3.3 3.55c-1.52-1.12-2.96-2.35-4.34-3.63zm203.3 11.16l3.85-4.1 3.6 3.7-3.66 3.88-3.8-3.48zm-215.3.83l3.86-3.72c1.35 1.3 2.63 2.66 3.8 4.12l-3.2 3.36c-1.56-1.16-3.05-2.42-4.46-3.76zm227.24 12.04c.98-1.9 2.34-3.57 3.9-5.02l3.66 3.78c-1.35 1.55-2.85 2.98-4.68 3.95-.85-1.03-1.8-1.93-2.9-2.7zm-239.24-.03l3.87-3.73c1.4 1.34 2.72 2.77 3.94 4.3l-3.17 3.32a46.51 46.51 0 0 1-4.64-3.88zm251.32 10.16c1.2-1.43 2.5-2.8 3.84-4.1 1.26 1.18 2.46 2.43 3.6 3.74l-3.62 3.86-3.8-3.5zm-262.3 1.86l3.82-3.76c1.37 1.3 2.66 2.66 3.85 4.13l-3.2 3.37c-1.57-1.16-3.06-2.4-4.48-3.74zm-12 11.98l3.83-3.74c1.43 1.33 2.77 2.78 3.96 4.35l-3.12 3.27c-1.65-1.18-3.2-2.48-4.67-3.88zm266.4 22.7c1-1.16 2.07-2.22 3.26-3.18 1.42 1.06 2.78 2.23 4.07 3.47l-3.56 3.85c-1.43-1.23-2.74-2.58-3.77-4.14zm-263.2 7.15l3.7 3.53c-1.14 1.52-2.35 3.07-4.42 3.16l-2.75-2.44 3.48-4.25zm252.1 4.9l3.35-3.38 4.08 3.65-3.53 3.8c-1.46-1.2-2.83-2.52-3.9-4.07z" class="C"/><path d="M138.82 355.33c2.98 2.7 5.8 5.56 8.78 8.25l-1.22 3 3.55 2.08 2.25-.68c3.58 4.02 7.88 7.18 11.96 10.63-3.28-.6-5.45-3.27-8.1-5-3.94-3.05-9.16-4.16-12.45-8.07-2.74-2.74-6.35-4.4-9.18-7.03 2.07-.1 3.28-1.64 4.42-3.16z" class="D"/><path d="M147.6 363.58c1.6 1.38 3.1 2.86 4.58 4.4l-2.25.68-3.55-2.08 1.22-3zm227.73 5.05c1-1.15 2.08-2.2 3.27-3.15 1.42 1.06 2.77 2.22 4.06 3.46l-3.55 3.84c-1.44-1.22-2.75-2.57-3.78-4.15zm-11.1 12.07c1.06-1.18 2.2-2.3 3.37-3.37l4.08 3.64-3.6 3.75c-1.44-1.2-2.76-2.5-3.84-4.02z" class="C"/><path fill="#e5e5e5" d="M180.2 403.04c1.67-2.97 4.8-.93 6.66.6l-2.82 3-3.84-3.6z"/><path d="M191.5 405.56c4.15-.1 7.8 2.2 11.67 3.32 23.47 7.53 48.12 11.9 72.82 11.2 13.06.46 26-1.66 38.9-3.52 6.32-.72 12.24-3.76 18.68-3.38l-1.05 1a139.5 139.5 0 0 0-3.4 3.48c-2.7 3.02-5.4 6.08-8.5 8.7a35.33 35.33 0 0 0-3.31 3.28c-2.45 3.33-5.23 6.57-8.7 8.88-1.2.9-2.27 1.92-3.23 3.06-1.6 3.66-4.9 6.16-7.78 8.8-1.18 1-2.28 2.1-3.3 3.27-2.46 3.32-5.18 6.66-8.7 8.9a17.94 17.94 0 0 0-3.2 3.02c-.58 1.26-1.18 2.54-2.22 3.5L269.67 480c-3-2.8-6-5.64-8.9-8.54l-3.44-3.35c-2.9-2.53-5.6-5.27-8.48-7.83-1.14-1.06-2.26-2.14-3.35-3.24-2.88-2.9-5.94-5.6-8.76-8.54-1.1-1.14-2.23-2.24-3.38-3.3-3.1-2.68-6.22-5.4-8.8-8.6a30.24 30.24 0 0 0-3.23-3.27c-3.6-2.17-6.18-5.6-9.44-8.2a72.14 72.14 0 0 1-3.21-3.08c-2.86-3-5.95-5.75-8.9-8.63l-3.4-3.32-4.87-4.5z" class="B"/><path d="M192.22 414.1a26.36 26.36 0 0 1 4.14-4.04l3.4 3.32-3.68 4.23-3.87-3.5zm136.88 3.58l3.4-3.48 4.15 3.75-3.52 3.8c-1.5-1.22-2.85-2.57-4.03-4.08zm-124.87 8.42c1.26-1.6 2.7-3.05 4.45-4.1l3.2 3.08-3.8 4.53-3.87-3.5zm113.05 3.56a35.33 35.33 0 0 1 3.31-3.28l4.07 3.57-3.54 3.82c-1.45-1.2-2.82-2.52-3.84-4.1zm-100.08 7.42c1.2-1.44 2.56-2.74 4.12-3.78a30.24 30.24 0 0 1 3.23 3.27l-3.47 4.05-3.88-3.54zm88.16 4.52c.96-1.14 2.04-2.16 3.23-3.06 1.45 1 2.8 2.16 4.07 3.4l-3.57 3.84c-1.43-1.23-2.72-2.6-3.73-4.2zm-76.13 7.5c1.2-1.48 2.54-2.85 4.12-3.92l3.38 3.3-3.65 4.12-3.85-3.5zm65.05 4.58c1.02-1.17 2.12-2.26 3.3-3.27 1.42 1.1 2.77 2.3 4.08 3.54l-3.55 3.82c-1.44-1.2-2.78-2.53-3.83-4.1zm-53.06 7.42c1.25-1.53 2.66-2.92 4.27-4.07l3.35 3.24-3.75 4.35-3.87-3.52zm41.15 4.5a17.94 17.94 0 0 1 3.2-3.02c1.48.97 2.83 2.12 4.1 3.38l-3.57 3.84c-1.43-1.23-2.72-2.6-3.72-4.2z" class="C"/><path d="M327 467.18l2.4.25c2.84 7.6 5.3 15.35 8.45 22.83l8.32-22.97 2.5.07c-3.36 8.5-6.38 17.13-9.6 25.68l-2.82-.17c-2.9-8.62-6.5-17.02-9.23-25.7zm48.34.24c5.67-2.24 13.97 1.02 14.25 7.73-3 .6-2.62-2.98-4.5-4.25-4.16-4.12-12.06-2.3-14.16 3.13-2.75 6-1.2 15.6 6.15 17.3 5.2 1.68 10.13-2.82 10.77-7.84l2-.4c.1 4.25-2.68 8.66-6.88 9.84-3.02.8-6.4.7-9.2-.75-9.23-4.9-8.63-21.34 1.56-24.78zm96.74 2.58c3.27-3.73 10.32-3.27 12.82 1.13 1.17 2.3 1.06 5.25-.26 7.48-2.97 5.5-10.74 6.3-13.02 12.35 4.7.22 9.42-.27 14.1.26l.17 1.6c-5.54.4-11.1.08-16.64.18.2-7.12 7.83-9.4 12.24-13.53 2.84-2.42 2.97-7.7-.7-9.38-3.24-2-8.02.17-8.36 4.03.1 1.9-.77 2.65-2.6 2.22.45-2.18.6-4.66 2.23-6.34z" class="B"/><path d="M253.22 472.08c1.22-1.47 2.6-2.8 4.1-3.98l3.44 3.35-3.67 4.16-3.87-3.53z" class="C"/><path d="M353.2 474.2c3.82-1.38 8.67.38 10.33 4.2 2.34 4.73 1.3 11.7-3.7 14.28-3.38 1.45-7.93.95-10.26-2.14-3.9-4.93-2.82-14.12 3.64-16.33m.06 2.1c-5.3 3.15-5.16 12.26.38 15.1 3.97 1.72 8.22-1.53 8.73-5.54 1.72-5.24-3.32-12.56-9.1-9.56zm45.93-2.1c3.8-1.36 8.6.36 10.28 4.13 2.4 4.74 1.33 11.76-3.7 14.35-3.4 1.44-7.95.93-10.27-2.18-3.88-4.94-2.77-14.12 3.7-16.3m.04 2.1c-5.3 3.14-5.16 12.32.43 15.1 3.93 1.7 8.14-1.53 8.67-5.5 1.76-5.24-3.28-12.62-9.1-9.6zm15.17-2l1.84.53-.18 3.92c1.7-2.55 4.16-4.84 7.48-4.5.73 3.24-3.4 1.77-4.75 3.6-4.2 3.87-1.76 10.2-2.43 15.2l-2.08-.17.12-18.6zm10.48 15.73c-3.13-5.34-1.92-14.62 5.02-16.14 6.03-1.48 10.48 4.83 9.76 10.33-4.83.02-9.66-.1-14.48.07.3 3.57 2.6 7.96 6.77 7.52 2.8.16 4.72-2.12 5.66-4.5l1.87-.53c-.06 7.33-11.1 9-14.6 3.25m.45-7.7l12.35-.01c-.23-3.12-2.27-6.4-5.65-6.65-3.8-.43-6.33 3.3-6.7 6.66zm25.8-7.9l2.56.57c2 5.26 3.64 10.67 5.82 15.87l5.62-16 2.34-.28-6.8 18.33-2.47.07c-2.25-6.22-4.8-12.33-7.07-18.55z" class="B"/><path d="M353.25 476.3c5.8-3 10.83 4.32 9.1 9.56-.5 4-4.76 7.26-8.73 5.54-5.54-2.84-5.67-11.95-.38-15.1zm46 0c5.82-3 10.86 4.37 9.1 9.6-.53 3.97-4.74 7.2-8.67 5.5-5.6-2.8-5.73-11.97-.43-15.1zm26.1 6.02c.37-3.37 2.9-7.1 6.7-6.66 3.38.24 5.42 3.53 5.65 6.65l-12.35.01z" class="D"/><path d="M433.8 518.43c2.64-6.17 4.68-12.68 8-18.5.14 2.22-1.1 4.15-1.84 6.15-1.74 3.97-3.14 8.1-5.08 12l-1.08.37zm-15.2-17.45c2.1-1.9 2.1 3.92 0 2.03v-2.03zm38.8.44c3.2-1.52 7.8.78 7.3 4.65-.5 5.45-7.67 5.82-9.5 10.5 3.1.12 6.23-.08 9.34.07l.53 1.06c-3.8.56-7.67.23-11.5.26.6-5.64 7.48-6.46 9.57-11.06 1.4-3.55-3.58-6.17-6.2-3.9-1.52 1.03-.37 4.5-2.82 3.96.3-2.14.8-4.9 3.25-5.54zm-117.17 3.78c1.02.13 1.66.68 1.94 1.64l3.3 9.4c1.95-3.3 2.5-7.18 4.14-10.6l1.16-.38c-.93 4.3-2.83 8.3-4.3 12.4-.37.15-1.13.44-1.5.58-1.5-4.37-3.56-8.55-4.73-13.03zm15.27.45c4.03-1.68 8.63 2 7.92 6.3.38 3.86-3.64 7.3-7.38 6.1-5.48-1.43-5.8-10.5-.54-12.4m-.2 1.45c-3.7 2.52-2.45 10.4 2.65 9.92 3.95-.2 5-5.46 3.34-8.37-.92-2.24-4.1-3.03-6-1.55zm13.2-1.45c2.96-1.25 6.9.5 7.12 3.9-2.2.1-2.26-3.35-4.62-3.22-6.4-.45-6.4 11.4.04 10.65 2.6.17 2.48-3.25 4.6-3.88.08 3.4-3.33 6.04-6.57 4.94-5.52-1.33-5.84-10.5-.58-12.4zm12.93.03c3.7-1.6 8.22 1.42 8 5.5.68 4.07-3.22 8.17-7.36 6.9-5.48-1.4-5.84-10.4-.64-12.4m-.13 1.43c-3.7 2.5-2.45 10.37 2.64 9.9 3.42-.08 4.7-4.27 3.87-7.07-.45-2.9-4.1-4.74-6.5-2.84zm11.9.94c.97-1.6 2.52-2.48 4.36-2.62.2 2.3-3.7 1.6-4.16 3.84-.83 2.88-.22 5.96-.43 8.93l-1.37-.53c-.01-4.08-.07-8.16.1-12.22l1.07.5.42 2.1zm8.23-2.45c3.58-1.55 7.45 1.8 7.13 5.5-.45 1.82.3 4.02-1.16 5.5-2.44 2.9-8.02 1.9-9.12-1.8-1.23-3.23-.4-7.85 3.15-9.2m-2.44 5.3l8.54.1c-.6-1.88-1.32-4.23-3.6-4.57-2.74-.52-4.33 2.25-4.94 4.48m.1 1.36c-.02 2.65 2.12 5.4 5 4.72 2.56.02 3.14-3 4.27-4.7l-9.28-.01zm19.55-6.97l1.27.7c.22 4.05.05 8.12.06 12.2l-1.37-.55.04-12.35zm6.84.36c2.16-.8 4.78-.3 6.4 1.37 1.73 1.94 1.84 4.78 1.25 7.2-.95 3.18-4.88 5.03-7.88 3.52-4.78-2.05-4.66-10.27.24-12.08m-.2 1.46c-3.67 2.54-2.4 10.38 2.7 9.9 3.9-.2 4.95-5.37 3.37-8.28-.9-2.3-4.15-3.16-6.07-1.62zm16.95-1.96c1 .15 1.63.7 1.9 1.62 1.15 3.2 2.15 6.43 3.4 9.6 1.7-3.46 2.5-7.26 4.07-10.77l1.16-.38c-.93 4.3-2.83 8.3-4.3 12.4-.37.15-1.13.44-1.5.58-1.5-4.38-3.6-8.55-4.72-13.05z" class="B"/><path d="M355.3 507.1c1.88-1.48 5.07-.7 6 1.55 1.66 2.9.6 8.17-3.34 8.37-5.1.47-6.35-7.4-2.65-9.92zm26 0c2.42-1.9 6.06-.06 6.5 2.84.83 2.8-.45 7-3.87 7.07-5.1.46-6.34-7.4-2.64-9.9zm17.7 3.8c.6-2.23 2.2-5 4.94-4.48 2.28.34 3 2.7 3.6 4.57-2.85.05-5.7.05-8.54-.1zm26.27-3.78c1.92-1.54 5.18-.7 6.07 1.62 1.58 2.9.53 8.08-3.37 8.28-5.1.48-6.37-7.36-2.7-9.9zm-26.17 5.13l9.28.01c-1.13 1.7-1.7 4.73-4.27 4.7-2.9.7-5.03-2.07-5-4.72z" class="D"/><path d="M199.07 547.05l267.87.02-.03 67.9c-89.28.04-178.57.08-267.85-.03l.01-67.9m33.94 26.2V581h6v-7.73a596.01 596.01 0 0 0-5.98 0m34 0L267 581H273l-.02-7.74-5.95.01m35 0L302 581h6l-.01-7.73a592.03 592.03 0 0 0-5.96 0m34 0L336 581H342v-7.72l-5.97-.01m35 0L371 581h6l-.01-7.74a592.03 592.03 0 0 0-5.96 0m34 0L405 581H411v-7.72l-5.97-.01z" class="B"/><path fill="#00a4b4" d="M86 561H142V600H86V561z"/><path d="M233 573.26h6V581h-6v-7.73zm34.02 0l5.95-.01.02 7.74h-6v-7.74zm35 0h5.96L308 581h-6l.02-7.73zm34 0l5.97.01V581h-6v-7.73zm35 0h5.96L377 581c-2 0-4 0-6-.01l.02-7.73zm34 0l5.97.01V581h-6v-7.74z" fill="#c2c2c2"/></svg>