<?xml version="1.0" encoding="UTF-8" ?>
<!DOCTYPE svg PUBLIC "-//W3C//DTD SVG 1.1//EN" "http://www.w3.org/Graphics/SVG/1.1/DTD/svg11.dtd">
<svg width="1877pt" height="455pt" viewBox="0 0 1877 455" version="1.1" xmlns="http://www.w3.org/2000/svg">
<g id="#a548a1ff">
<path fill="#a548a1" opacity="1.00" d=" M 275.13 36.57 C 287.62 34.58 300.36 35.04 312.95 35.59 C 318.98 36.01 325.05 36.43 330.96 37.80 C 360.37 45.55 387.38 63.02 405.51 87.56 C 417.39 103.46 425.46 122.14 429.19 141.62 C 439.91 141.45 450.63 142.67 461.13 144.83 C 497.63 153.10 529.01 178.87 546.74 211.51 C 556.79 230.31 561.83 251.72 561.56 273.02 C 562.33 306.65 548.34 339.99 524.96 364.00 C 510.35 379.16 492.14 390.86 472.18 397.62 C 464.79 400.64 456.97 402.28 449.06 403.14 C 413.43 405.15 377.71 404.44 342.03 404.69 C 321.66 404.81 301.29 404.69 280.92 404.88 C 279.63 404.87 278.35 404.87 277.07 404.88 C 270.04 404.41 263.04 405.41 256.02 405.18 C 254.64 405.17 253.27 405.16 251.90 405.15 C 249.97 404.86 248.02 404.81 246.10 405.12 C 220.07 405.24 194.03 405.44 168.00 405.04 C 146.66 404.55 125.21 405.07 103.90 403.17 C 81.09 399.79 59.58 388.92 42.78 373.19 C 25.37 357.00 13.32 335.29 8.32 312.08 C 5.85 298.60 5.98 284.73 7.60 271.16 C 9.17 257.34 14.48 244.22 21.31 232.21 C 34.61 208.92 56.16 190.45 81.34 181.13 C 85.19 142.31 120.76 109.12 160.00 109.21 C 167.33 108.75 174.56 110.17 181.83 110.51 C 182.88 107.47 184.33 104.59 185.97 101.84 C 193.95 87.76 204.38 75.08 216.78 64.68 C 233.64 50.88 253.83 41.15 275.13 36.57 M 235.72 97.64 C 225.79 107.23 218.07 119.01 212.92 131.80 C 210.50 136.94 208.92 142.79 204.55 146.69 C 201.28 149.95 196.66 151.72 192.04 151.55 C 183.71 151.73 176.30 146.97 168.05 146.54 C 161.19 146.16 154.07 146.00 147.62 148.72 C 131.25 154.96 117.97 171.20 118.20 189.16 L 117.76 189.82 C 117.84 195.60 117.60 201.89 113.55 206.47 C 109.20 212.24 101.73 213.46 95.37 215.86 C 80.80 220.79 68.02 230.47 58.89 242.80 C 51.10 253.54 45.03 266.09 44.18 279.52 C 43.30 290.37 43.27 301.62 46.88 312.02 C 50.01 321.64 54.92 330.70 61.36 338.51 C 71.43 351.12 85.71 360.10 101.15 364.58 C 109.42 366.96 118.10 366.36 126.57 367.32 C 163.70 367.84 200.85 367.65 237.99 367.69 C 297.05 367.55 356.12 367.57 415.18 367.28 C 428.11 365.98 441.35 367.65 454.06 364.37 C 464.21 361.13 474.26 357.13 483.00 350.92 C 499.82 339.17 513.49 322.30 519.73 302.60 C 525.70 285.46 525.78 266.61 521.55 249.07 C 517.21 231.17 506.76 215.13 493.13 202.89 C 481.73 192.20 467.56 184.42 452.26 181.08 C 438.70 177.81 424.68 179.84 410.92 179.36 C 402.17 178.41 395.11 170.61 394.59 161.89 C 393.06 147.52 389.65 133.17 382.46 120.51 C 369.88 97.08 346.62 80.26 321.02 73.79 C 308.72 72.15 296.19 71.99 283.83 72.92 C 265.92 76.46 249.11 85.25 235.72 97.64 Z" />
<path fill="#a548a1" opacity="1.00" d=" M 668.57 172.45 C 697.07 172.35 725.57 172.43 754.07 172.41 C 763.82 172.12 773.69 172.71 783.09 175.52 C 797.42 179.65 810.46 188.94 817.86 202.03 C 823.66 212.00 825.66 223.63 826.25 235.00 C 825.96 248.62 823.16 262.73 815.20 274.06 C 805.33 288.15 788.88 296.76 771.99 298.74 C 764.39 299.98 756.67 299.62 749.02 299.68 C 736.76 299.68 724.50 299.68 712.25 299.68 C 712.32 323.25 712.26 346.82 712.28 370.39 C 697.73 370.36 683.17 370.41 668.62 370.36 C 668.59 304.39 668.70 238.42 668.57 172.45 M 712.25 206.30 C 712.33 226.15 712.24 246.00 712.29 265.85 C 721.86 265.78 731.42 265.83 740.99 265.82 C 750.44 265.76 760.30 265.89 769.14 262.06 C 776.55 258.95 782.05 251.87 783.33 243.95 C 784.84 235.43 784.42 225.91 779.55 218.49 C 775.93 212.68 769.50 209.50 763.11 207.75 C 758.79 207.04 754.46 206.27 750.07 206.31 C 737.46 206.26 724.85 206.29 712.25 206.30 Z" />
<path fill="#a548a1" opacity="1.00" d=" M 1709.20 172.42 C 1722.33 172.39 1735.48 172.40 1748.62 172.42 C 1748.45 183.37 1748.62 194.33 1748.53 205.29 C 1735.45 205.28 1722.37 205.29 1709.29 205.29 C 1709.21 194.33 1709.39 183.38 1709.20 172.42 Z" />
<path fill="#a548a1" opacity="1.00" d=" M 1290.35 173.41 C 1303.47 173.40 1316.60 173.40 1329.73 173.42 C 1329.54 239.07 1329.72 304.74 1329.64 370.40 C 1316.57 370.37 1303.50 370.38 1290.43 370.39 C 1290.37 304.73 1290.54 239.07 1290.35 173.41 Z" />
<path fill="#a548a1" opacity="1.00" d=" M 1577.07 173.42 C 1592.05 173.43 1607.03 173.33 1622.01 173.48 C 1635.80 211.33 1650.34 248.91 1664.28 286.71 C 1674.75 314.59 1685.22 342.47 1695.68 370.35 C 1680.69 370.45 1665.69 370.30 1650.71 370.43 C 1645.37 355.87 1640.69 341.08 1635.44 326.49 C 1610.87 326.61 1586.31 326.48 1561.74 326.56 C 1556.57 341.16 1551.46 355.80 1546.23 370.38 C 1531.62 370.37 1517.01 370.40 1502.41 370.37 C 1527.36 304.74 1552.31 239.12 1577.07 173.42 M 1573.12 293.67 C 1590.12 293.68 1607.13 293.75 1624.14 293.63 C 1615.94 269.47 1607.56 245.35 1599.00 221.31 C 1590.42 245.45 1581.79 269.57 1573.12 293.67 Z" />
<path fill="#a548a1" opacity="1.00" d=" M 1171.24 231.27 C 1184.27 222.62 1200.90 221.45 1215.91 224.47 C 1234.49 228.27 1250.15 242.06 1257.73 259.25 C 1265.53 276.97 1267.25 297.04 1264.45 316.08 C 1261.89 331.80 1255.27 347.43 1243.30 358.29 C 1235.66 365.23 1226.20 370.09 1216.09 372.19 C 1207.72 373.54 1199.24 373.68 1190.89 372.19 C 1185.58 370.84 1180.30 369.21 1175.54 366.45 C 1169.12 362.98 1163.95 357.65 1159.57 351.90 C 1159.41 374.58 1159.53 397.26 1159.51 419.94 C 1146.40 419.97 1133.30 419.94 1120.19 419.95 C 1120.22 355.66 1120.18 291.36 1120.22 227.06 C 1132.66 227.13 1145.11 227.07 1157.56 227.09 C 1157.61 233.21 1157.43 239.34 1157.67 245.46 C 1161.64 240.24 1165.63 234.85 1171.24 231.27 M 1180.34 254.83 C 1171.74 258.11 1165.21 265.62 1162.06 274.15 C 1158.27 284.62 1157.67 296.01 1158.55 307.03 C 1159.60 318.05 1162.97 329.77 1171.73 337.16 C 1179.60 344.16 1191.05 345.75 1201.05 343.41 C 1210.10 341.47 1217.37 334.50 1221.31 326.33 C 1225.35 317.84 1226.19 308.24 1226.46 298.96 C 1226.16 285.63 1223.62 271.00 1213.64 261.32 C 1208.77 256.21 1201.95 253.72 1195.09 252.78 C 1190.11 252.57 1185.05 253.16 1180.34 254.83 Z" />
<path fill="#a548a1" opacity="1.00" d=" M 1375.51 242.45 C 1395.08 223.55 1425.59 218.24 1450.98 227.08 C 1469.21 233.63 1483.16 249.12 1489.82 267.08 C 1494.81 280.29 1496.25 294.51 1495.56 308.54 C 1461.16 308.60 1426.77 308.57 1392.38 308.56 C 1392.84 318.08 1394.79 328.33 1401.61 335.47 C 1408.74 342.54 1419.31 344.65 1429.03 344.36 C 1441.28 344.12 1453.75 337.04 1458.62 325.51 C 1470.08 325.57 1481.55 325.45 1493.02 325.58 C 1488.54 339.26 1481.24 352.69 1469.21 361.12 C 1465.75 363.54 1462.00 365.49 1458.19 367.26 C 1441.74 373.97 1423.23 374.86 1405.98 371.07 C 1390.09 367.54 1375.28 358.26 1366.23 344.59 C 1354.49 327.31 1351.07 305.43 1353.99 285.00 C 1356.39 269.02 1363.61 253.54 1375.51 242.45 M 1399.68 263.76 C 1395.05 269.34 1393.21 276.54 1392.26 283.56 C 1413.52 283.63 1434.78 283.63 1456.05 283.56 C 1454.77 275.79 1452.18 268.01 1447.25 261.77 C 1443.37 256.75 1437.16 254.06 1430.98 253.32 C 1419.74 251.32 1407.06 254.72 1399.68 263.76 Z" />
<path fill="#a548a1" opacity="1.00" d=" M 1064.62 234.70 C 1075.55 225.67 1090.59 220.75 1104.64 224.11 C 1104.82 236.48 1104.73 248.86 1104.69 261.24 C 1093.38 259.21 1080.96 258.77 1070.60 264.47 C 1063.63 268.16 1058.68 274.72 1055.71 281.90 C 1051.27 293.78 1052.37 306.58 1052.24 318.99 C 1052.26 334.33 1052.20 349.67 1052.28 365.01 C 1052.28 366.83 1052.06 368.64 1051.79 370.45 C 1038.75 370.29 1025.72 370.44 1012.69 370.37 C 1012.69 322.62 1012.67 274.88 1012.70 227.13 C 1025.23 227.22 1037.77 227.03 1050.31 227.23 C 1050.29 235.96 1050.22 244.69 1050.31 253.41 C 1054.23 246.60 1058.31 239.62 1064.62 234.70 Z" />
<path fill="#a548a1" opacity="1.00" d=" M 1829.53 236.54 C 1840.67 226.35 1856.81 220.35 1871.80 224.26 C 1871.80 236.51 1871.83 248.75 1871.78 261.00 C 1862.93 259.98 1853.85 258.90 1845.13 261.42 C 1836.13 263.76 1828.35 270.17 1824.32 278.54 C 1819.97 287.34 1819.09 297.35 1819.25 307.03 C 1819.24 328.14 1819.25 349.24 1819.25 370.34 C 1806.07 370.43 1792.90 370.37 1779.73 370.37 C 1779.73 322.62 1779.72 274.87 1779.74 227.11 C 1792.26 227.23 1804.78 227.05 1817.31 227.21 C 1817.33 235.96 1817.18 244.71 1817.37 253.46 C 1820.82 247.42 1824.26 241.23 1829.53 236.54 Z" />
<path fill="#a548a1" opacity="1.00" d=" M 848.67 227.02 C 861.70 227.05 874.73 227.01 887.76 227.04 C 887.82 255.35 887.56 283.67 887.89 311.98 C 888.54 319.95 889.27 328.41 893.91 335.23 C 898.07 341.37 906.00 343.44 913.04 343.40 C 921.69 343.44 931.29 340.96 936.47 333.46 C 942.26 324.89 943.27 314.09 943.42 304.01 C 943.44 278.35 943.44 252.70 943.42 227.04 C 956.51 227.01 969.61 227.06 982.70 227.02 C 982.69 274.86 982.74 322.71 982.68 370.56 C 970.25 370.48 957.82 370.53 945.39 370.53 C 945.31 363.69 945.55 356.83 945.26 349.99 C 942.25 354.33 939.17 358.69 935.14 362.16 C 930.61 366.40 924.93 369.09 919.16 371.18 C 918.12 371.49 917.10 371.81 916.09 372.15 C 904.62 375.41 892.50 374.55 880.96 372.16 C 869.33 369.15 858.79 361.17 854.19 349.88 C 849.34 337.93 848.48 324.75 848.67 311.98 C 848.67 283.66 848.67 255.34 848.67 227.02 Z" />
<path fill="#a548a1" opacity="1.00" d=" M 1709.29 227.25 C 1722.37 227.28 1735.46 227.27 1748.55 227.25 C 1748.56 274.96 1748.55 322.67 1748.55 370.38 C 1735.47 370.39 1722.39 370.35 1709.31 370.40 C 1709.24 322.69 1709.29 274.97 1709.29 227.25 Z" />
</g>
</svg>
