<svg xmlns="http://www.w3.org/2000/svg" xmlns:xlink="http://www.w3.org/1999/xlink" width="1365.333" height="1136" viewBox="0 0 1024 852"><g fill="#bfbfbf"><path d="M95.04 141.94c-.4-9.63 8.76-17.45 17.9-17.97h797.1c9.15.5 18.3 8.34 17.92 17.96l-.03 595.12-.7 2.15c.63-10.4.18-20.8.3-31.2l-.01-561.07c-.1-4.46-1.1-9.07-3.86-12.7-3.76-5.23-10.26-8-16.62-7.86h-791.1c-7.34-.22-14.82 3.67-18.17 10.33-3.33 6.58-2.17 14.2-2.34 21.3l.01 525 .27 56.3a18.62 18.62 0 0 1-.7-3.38l.02-594zm136.4 39.52c3.2-.97 8.22.33 8.08 4.4-.26 4.9-7.27 5.6-10.4 2.98-2.54-2.27-1.07-6.94 2.3-7.4m-1.17 2.4l-.55 3.43c3.06.84 6.28.8 8.86-1.28-2.1-2.6-5.3-2.57-8.3-2.15zM191.7 203.7l31.25-22.17c.08 4.7.1 9.42-.03 14.13l-23.36 16.54c2.18 1.78 4.08 4.2 6.8 5.15 5.53.44 11.1.01 16.64.18v11.75h-56.33l-.01-11.74 25.74-.13c-8.38-7.37-17.2-14.24-25.74-21.4l.1-12.87c8.5 6.63 16.56 13.82 24.96 20.57zm38.64-12.42c2.74-.26 4.53 2.42 6.55 3.86.56-1.7 1.2-3.4 2.12-4.94.4 3.2.37 6.4.14 9.6-3.2-2.1-5.45-5.83-9.5-6.42.56 2 1.26 3.96 2.02 5.9l-3.24-.9c-.37-2.43-1.28-6.2 1.9-7.1zm1.1 17.18c3.2-.97 8.2.33 8.08 4.4-.26 4.9-7.28 5.6-10.4 2.97-2.53-2.27-1.06-6.94 2.32-7.38m-1.16 2.38l-.56 3.45c3.2.8 6.96 1.17 8.8-2.2-2.56-1.34-5.4-1.6-8.24-1.24zm-1.57 8.9c3-.36 6.05-.47 9.07-.6 3.18 2.34 1.77 7.2-1.52 8.7l1-7.35c-1.37 1.1-2.58 2.4-3.63 3.82l-3.6-3.28.8 6.66c-2.78-1.7-3.93-5.06-2.13-7.95zm4.9 9.44c2.14.7 4.33-.17 6.47-.44-1.6 1.95-3.48 3.6-5.33 5.3 1.88.62 3.92 1.1 5.26 2.7-4.03.44-8.1.36-12.13.3.23-2.44-.12-5.08.96-7.35 1.04-1.9 3.15-.73 4.77-.5m-3.45 2.02l-.07 3.73 3.78-.58-.96-3.3-2.75.16zm-63.52 7.36H223c-.15 3.3.5 6.74-.45 9.93-12.07 9.04-24.6 17.5-36.74 26.45l37.2.07v11.28h-56.34c.5-3.75-1.68-9 2.2-11.43l34.5-24.9c-12.23-.3-24.46-.06-36.7-.13l-.02-11.28zm61.32.6l11.28-.06.1 2.06-6.87.17 7.6 3.7-7.62 3.83 6.9.17-.05 2.03c-3.8 0-7.57 0-11.36-.1l.25-2.7c2.56-1 5.12-2.04 7.63-3.16-2.54-1.17-5.1-2.22-7.7-3.27l-.14-2.68zm8.46 45.38c1.1 1.1 2.97 1.85 3.04 3.62.4 1.94-1.14 3.44-2.1 4.93l.2-5.9c-1.45 2.3-2.73 4.95-5.63 5.64-1-2.7-1.56-5.6.76-7.8l.15 5.66 3.6-6.14z"/><path d="M233.35 293.2c1.87-.6 4.03-.2 5.52 1.1.42 1.35.17 2.78.14 4.16 1.4.62 2.8 1.3 3.78 2.53-3.9.35-7.8.28-11.7.24.55-2.68-1.28-7.05 2.27-8.04m-.8 4.76c1.46.53 2.96.9 4.46 1.3l.43-3.83c-2.04.04-4.74-.25-4.9 2.52zm-65.9-2.4l56.35-.01v11.75h-56.33l-.01-11.74zm64.73 7.98c2.3-.27 4.8-1 7 .17 1.47 2.2.65 5.02.8 7.5-3.97.02-7.95.13-11.9-.3 1.1-1.15 2.5-1.87 3.93-2.5 0-1.63.06-3.26.16-4.88m1.67 2.73c-1.58 2.55 2.23 2.17 3.74 2.88l.73-3.7c-1.45.26-3.42-.46-4.47.8zm-5.07 6.9l11.28-.06.1 2.06-6.86.17 7.58 3.7-7.62 3.84 6.9.17-.05 2.03c-3.8 0-7.57 0-11.36-.1l.24-2.7c2.57-1 5.12-2.05 7.64-3.17-2.54-1.17-5.12-2.23-7.7-3.27l-.14-2.68zm-14.74 1.74l9.76-.03v36.43h-56.33l-.01-11.74 46.5-.01c.18-8.22.06-16.43.1-24.65zm18.23 11.56c3.25-.98 8.34.36 8.06 4.55-.34 4.58-6.55 5.24-9.77 3.3-3.25-1.92-2.02-7.4 1.7-7.86m-1.88 2.6c.45 1.5.53 3.9 2.7 3.75 2.57.78 4.8-.72 6.25-2.72-2.77-1.55-5.9-1.65-8.95-1.03zm5 7.62c2.6-.8 5.3 1.66 4.96 4.33.27 2.28-2 3.4-3.46 4.63l1.43-6.5-3.67.04.9 5.7-6.6-.4c-.1-2.7-.05-5.43.24-8.12 1.53 1.5 1.68 3.6 1.83 5.6l1.25 1.2c.76-2.23.18-5.88 3.13-6.5zm-63.85 28.06c7.52-9.6 24.65-9.1 31.2 1.38 4.38 6.63 3.1 14.92 3.3 22.43H223v11.75h-56.33l-.01-22.3c.04-4.7 1.08-9.56 4.08-13.27m7.1 9.1c-2.63 4.4-1.7 9.82-1.8 14.72h19.94c-.02-4.26.44-8.66-.86-12.78-2.32-7-13.33-7.8-17.28-1.94zm-11.18 32.9l9.67.01v16.23l46.67.07-.02 11.82c-15.54.02-31.1-.1-46.64.06l-.01 16.2h-9.67v-44.4zM767.32 707.9l2.52.23 1.65 8.2 2.8-9.1c2.4 2.4 2.6 5.94 3.5 9.03 1.16-3.04.45-7.55 4.16-8.8-.67 4.26-1.52 8.55-3.08 12.6l-1.6-.06c-1.14-2.4-1.77-5-2.7-7.46-.7 2.44-1.34 4.9-1.96 7.38l-2.32.08-2.97-12.1zm15.95-.02c2.1.1 4.24.01 6.3.54 2.77 1.17 3.04 6.1-.05 7.08-2 .8-3.65 2.07-4.5 4.1l-1.74.6-.03-12.32m2.55 1.52l-.3 5.13 4.03-.87c-.43-2.1-1.58-3.74-3.74-4.26zm7.75 3.85c-1.42-2.44.7-5.56 3.47-5.38 2.46-.52 3.82 1.68 5.13 3.35l-6.9-1.25c.78 3.9 7.88 3 6.5 7.63-1.66 4-7.64 2.95-9.36-.54 2.45.3 4.9.73 7.38.92-1.1-2.7-4.05-3.22-6.2-4.73zm12.05-2.6c.3-1.5 1.42-2.52 2.63-3.32-1.37 5.28-1.37 11.76-5.54 15.72.48-4.23 1.64-8.35 2.9-12.4zm3.66-2.76c2.83.38 7.06-.8 8.5 2.5.1 1.88-.75 3.64-1 5.5.18 1.62.64 3.18.92 4.8-2.14-1.42-3.6-3.54-5.14-5.52l-1.22 4.77-2.05.1-.01-12.14m2.33 1.97l.05 4.24 3.56-.45.06-3.4-3.67-.4zm17.24 1.22c.36-3.88 4.9-3.15 7.6-2.68l.82 3.46-5.1-2.2-1.24 2.18c2.4 1.25 7.56 1.64 6.54 5.5-1.37 4.22-7.6 3.3-9.36-.2l7.46.72c-1.15-3.46-7.1-2.7-6.73-6.77zm18.87-2.16c2.32-2.14 6.34-.44 9.3-.65l-3.97 2.4-.06 9.32c-.6 0-1.76 0-2.35-.01l.07-9.23c-1.3-.24-2.3-.85-3-1.83zm72.5 39.42l6.22-7.24c-1.4 2.9-3.65 5.32-6.22 7.24z"/></g><g fill="#2f2f2f"><path d="M97.77 136.7c3.35-6.66 10.83-10.55 18.17-10.33h791.12c6.36-.13 12.86 2.63 16.62 7.86 2.75 3.62 3.75 8.23 3.86 12.7l.01 561.07c-.13 10.4.32 20.8-.3 31.2l-.82 1.92c-2.13 2.37-4.17 4.8-6.22 7.24-3.42 2.7-7.87 3.72-12.15 3.8H398c-95.75-.06-191.5.14-287.27-.1-6.57-1.54-13.07-6.06-15.02-12.77-.55-18.76-.14-37.54-.27-56.3l-.01-525c.17-7.1-1-14.7 2.34-21.3m133.68 44.75c-3.38.45-4.85 5.12-2.3 7.4 3.12 2.63 10.13 1.92 10.4-2.98.14-4.08-4.87-5.38-8.08-4.4M191.7 203.7l-24.96-20.57c-.15 4.3-.12 8.58-.1 12.87l25.74 21.4c-8.58.22-17.16.01-25.74.13l.01 11.74H223v-11.75c-5.54-.17-11.1.26-16.64-.18-2.72-.95-4.62-3.37-6.8-5.15l23.36-16.54c.12-4.7.1-9.42.03-14.13L191.7 203.7m38.64-12.43c-3.2.9-2.28 4.67-1.9 7.1l3.24.9c-.76-1.93-1.46-3.9-2.02-5.9 4.05.6 6.3 4.3 9.5 6.42.23-3.2.26-6.42-.14-9.6-.9 1.55-1.56 3.23-2.12 4.94-2.02-1.44-3.8-4.12-6.55-3.86m3.64 8.95c-.16 1.95-.26 3.9-.35 5.87l2.5-.23c-.37-2 .04-4.6-2.16-5.64m-2.53 8.23c-3.38.44-4.85 5.1-2.32 7.38 3.12 2.64 10.14 1.93 10.4-2.97.13-4.08-4.87-5.38-8.08-4.4m-2.73 11.27c-1.8 2.9-.65 6.24 2.13 7.95l-.8-6.66c1.23 1.05 2.43 2.15 3.6 3.28 1.05-1.4 2.26-2.7 3.63-3.82-.22 2.46-.7 4.9-1 7.35 3.3-1.5 4.7-6.35 1.52-8.7-3.02.12-6.07.23-9.07.6m4.9 9.44c-1.62-.22-3.73-1.4-4.77.5-1.08 2.27-.73 4.9-.96 7.35 4.04.06 8.1.14 12.13-.3-1.34-1.6-3.38-2.1-5.26-2.7 1.85-1.7 3.74-3.34 5.33-5.3-2.14.27-4.33 1.15-6.47.44m-66.97 9.4l.02 11.28 36.7.13c-11.34 8.52-23.04 16.55-34.5 24.9-3.9 2.42-1.7 7.68-2.2 11.43H223V275c-12.4-.04-24.8.1-37.2-.07l36.74-26.45c.95-3.2.3-6.64.45-9.93-18.78-.04-37.57-.05-56.35 0m61.32.6l.14 2.68c2.6 1.05 5.16 2.1 7.7 3.27-2.5 1.12-5.07 2.16-7.63 3.16l-.25 2.7c3.8.1 7.57.1 11.36.1l.05-2.03-6.9-.17c2.55-1.26 5.14-2.43 7.62-3.83-2.5-1.33-5.06-2.47-7.6-3.7l6.87-.17-.1-2.06-11.28.06m6 13.07c-.16 1.95-.26 3.9-.35 5.88l2.5-.24c-.37-2 .04-4.6-2.16-5.64m2.65 12.44c-3-.01-6-.04-9 .27l.64 1.86c3.63.8 7.42.06 11.12.23-.03-2.67-.1-5.34-.42-8-1.13 1.72-1.8 3.67-2.35 5.63m-8.44 3.52c-.48 3.1-.1 6.24.22 9.33.83-1.33 1.57-2.7 2.3-4.1l8.6-.05.04-2.36c-2.92-.01-5.83-.02-8.74 0-.74-.98-.63-3.5-2.4-2.8m5.8 10.05c-.16 1.94-.26 3.9-.35 5.87l2.5-.24c-.36-2 .06-4.6-2.15-5.63m2.45 6.3c-1.26 2-2.4 4.1-3.6 6.14l-.15-5.66c-2.32 2.2-1.77 5.1-.76 7.8 2.9-.7 4.18-3.35 5.63-5.64-.07 1.97-.2 3.94-.2 5.9.97-1.5 2.5-3 2.1-4.93-.07-1.77-1.94-2.53-3.04-3.62m-3.08 8.66c-3.55 1-1.72 5.36-2.27 8.04 3.9.04 7.82.1 11.7-.24-1-1.23-2.38-1.9-3.78-2.53.03-1.38.28-2.8-.14-4.16-1.5-1.3-3.65-1.7-5.52-1.1m-66.7 2.35l.01 11.74H223v-11.75c-18.78-.04-37.57-.05-56.35.01m64.73 7.98c-.1 1.62-.16 3.25-.16 4.88-1.44.62-2.84 1.34-3.93 2.5 3.95.43 7.93.32 11.9.3-.16-2.48.66-5.3-.8-7.5-2.2-1.17-4.7-.44-7-.17m-3.4 9.63l.14 2.68c2.58 1.04 5.16 2.1 7.7 3.27-2.52 1.12-5.07 2.16-7.64 3.17l-.24 2.7c3.8.1 7.57.1 11.36.1l.05-2.03-6.9-.17c2.55-1.26 5.14-2.43 7.62-3.84-2.5-1.32-5.06-2.46-7.58-3.7l6.86-.17a135.92 135.92 0 0 1-.09-2.06l-11.28.06m-14.74 1.73l-.1 24.65c-15.5-.04-31-.05-46.5.01l.01 11.74H223v-36.43l-9.76.03m18.23 11.57c-3.73.45-4.96 5.94-1.7 7.86 3.22 1.93 9.43 1.27 9.77-3.3.28-4.2-4.8-5.53-8.06-4.55m3.12 10.2c-2.95.63-2.37 4.28-3.13 6.5-.32-.3-.94-.9-1.25-1.2-.15-2.02-.3-4.12-1.83-5.6-.3 2.7-.33 5.4-.24 8.12l6.6.4-.9-5.7 3.67-.04c-.48 2.16-1.04 4.3-1.43 6.5 1.47-1.23 3.73-2.35 3.46-4.63.33-2.67-2.35-5.13-4.96-4.33m-7.08 11.48c.64 2.37 1.92 4.5 4.02 5.84-.26-1.25-.55-2.48-.86-3.7 2.9.12 5.77.13 8.66.15l.01-2.44c-3.95 0-7.9-.05-11.83.16m-56.77 16.58c-3 3.7-4.04 8.58-4.08 13.27l.01 22.3H223v-11.75c-5.92-.04-11.84-.04-17.76 0-.2-7.5 1.07-15.8-3.3-22.43-6.55-10.48-23.68-11-31.2-1.38m436.33 33.02l-.01 56.23h11.02l.18-6.73c2.03 2.14 3.98 4.5 6.66 5.87 5.67 2.7 13.02 1.78 17.57-2.64 4.15-3.85 5.7-9.64 6.04-15.1.33-6.32-.63-13.13-4.66-18.22-3.96-5.14-11.4-6.9-17.4-4.76-3.37 1.2-5.78 3.97-8.25 6.42.24-7.02.28-14.04-.01-21.06a188.07 188.07 0 0 0-11.14 0m121.23.12l-.06 20.16c-3-2.58-6.05-5.6-10.13-6.27-6.96-1.4-14.5 2.44-17.38 8.95-3.44 7.67-3.38 16.9-.03 24.6 2.8 6.67 10.5 10.47 17.52 9 4-.68 7.04-3.57 10-6.12l.24 5.65a194.15 194.15 0 0 0 11.32.08l-.02-56.12c-3.82-.2-7.65-.2-11.46.05m47 0l-.06 20.16c-3-2.58-6.05-5.6-10.13-6.27-6.96-1.4-14.5 2.43-17.38 8.95-3.43 7.67-3.38 16.9-.03 24.6 2.8 6.68 10.5 10.48 17.52 9.02 4-.68 7.04-3.57 10-6.12l.24 5.65c3.77.14 7.54.15 11.3.08v-56.12c-3.83-.2-7.65-.2-11.47.05m92 0l-.06 20.17c-3-2.6-6.05-5.6-10.13-6.28-6.96-1.4-14.5 2.43-17.37 8.94-3.44 7.67-3.4 16.92-.04 24.6 2.7 6.4 9.9 10.2 16.73 9.16 4.33-.47 7.66-3.52 10.8-6.26l.24 5.65a194.15 194.15 0 0 0 11.32.08l-.02-56.12c-3.82-.22-7.65-.2-11.46.05m-285.33 4.54c-.15 3.14-.23 6.3-.28 9.44l-5.8.42.07 8.28 5.8.5.05 22c.1 3.37.9 7.25 4.06 9.08 4.5 2.64 10 1.93 14.98 1.78v-8.18c-2.67-.6-7.37-.1-7.44-3.94-.6-6.95-.08-13.95-.2-20.92l7.7-.23.04-8.42-7.67-.26-.3-9.56h-10.98m-415.3 4.3v44.4h9.67l.01-16.2 46.64-.06.02-11.82c-15.56-.04-31.1.08-46.67-.07v-16.23l-9.67-.01m231.1 10.08c-4.16 4.7-3.44 12.98 1.88 16.53 5.35 3.75 12.28 3.33 18.1 5.93 2.25.8 2.7 3.93 1.13 5.58-1.96 2-5.04 2.18-7.66 1.9-3.36-.28-4.84-3.84-7.57-5.28-3.27-.5-6.6-.2-9.9-.13 1.03 4.3 3 8.7 7.17 10.78 7.34 3.78 16.78 3.8 24.03-.2 6.08-3.23 8.5-12.32 3.75-17.62-5.6-5.28-14.04-4.24-20.66-7.4-2.24-.92-2.6-4.15-.9-5.76 1.88-1.85 4.8-2.13 7.3-1.67 3.04.6 4.22 4.04 6.84 5.3 3.02.48 6.1.17 9.14.1-.8-3-1.44-6.27-3.7-8.54-3.75-3.93-9.45-5.16-14.7-5.08-5.16.1-10.76 1.5-14.23 5.55m50.07 2.13l-.17-6.8-10.88-.03-.02 41.87h11.3c.32-8.93-.4-17.9.32-26.8.25-5.17 6.62-8.04 10.84-5.34 2.74 1.68 2.8 5.25 2.92 8.1l-.01 24.03 10.93.02c.4-9.2-.55-18.47.45-27.62.65-5.13 7.5-7.2 11.3-4.1 2.2 1.88 2.17 5.03 2.33 7.67v24.04l11.48-.07-.04-26.98c.01-3.92-.63-8.1-3.34-11.13-3.96-4.72-11.15-5.44-16.57-3.1-3.1 1.34-5.07 4.23-7.03 6.85-1.86-4.15-5.3-7.94-10.17-8.06-5.75-.94-10.64 2.9-13.63 7.43m62.75-3.34c-2.9 2.24-3.92 5.9-4.88 9.26 3.02.1 6.07.4 9.08-.06 2.7-1.17 4.24-4.32 7.28-4.85 2.68-.4 5.96 0 7.68 2.35 1.08 1.92 1.08 4.2 1.48 6.34-7.3.77-15.28-.14-21.86 3.72-5.86 3.34-6.8 11.96-2.78 17.07 3.85 5.07 11.22 6.3 17 4.2 2.96-1.07 5.2-3.4 7.44-5.5l.18 5.88 10.9.01c-.03-10 .3-20.02-.12-30-.23-6.06-5.44-10.67-11.07-11.94-6.8-1.58-14.74-1.03-20.34 3.55m56.06-3.1c-2.42 1.3-4 3.62-5.75 5.63l-.27-5.97-10.84-.03-.01 41.88 11.3-.01c.16-7.35-.07-14.7.06-22.05.12-3.1.47-6.67 3.08-8.74 2.82-2.13 6.57-1.7 9.9-1.73l.01-9.88c-2.5.05-5.15-.2-7.47.9m96.27 1.42c-5.6 3.07-8.8 9.27-9.47 15.47-.95 7.57.72 16.25 6.96 21.25 7.1 5.5 17.67 5.5 25.35 1.15 4.02-2.13 6-6.42 7.4-10.52-4.03-.01-8.74-1.1-12 1.95-2.93 2.63-7 4.16-10.82 2.48-4.3-1.3-5.33-6.03-6.36-9.8 9.72-.47 19.46-.08 29.2-.18.3-6.3-.45-13.16-4.8-18.1-6.13-7.15-17.47-8.14-25.47-3.7m139.37.37c-5.5 3.34-8.43 9.72-8.93 15.97-.77 7.54 1.2 16.13 7.6 20.82 7.33 5.15 17.88 5 25.4.3 3.7-2.17 5.4-6.27 6.78-10.12-4.04-.01-8.74-1.1-12 1.95-2.93 2.62-7 4.16-10.8 2.47-4.3-1.28-5.33-6.02-6.35-9.78 9.7-.47 19.45-.08 29.17-.18.44-7-.78-14.74-6.26-19.63-6.6-5.9-17.16-6.3-24.62-1.8M539.02 677.02v21.96h29.96v-21.96a3740.02 3740.02 0 0 0-29.96 0m42 0v21.96h29.96v-21.96a3740.02 3740.02 0 0 0-29.96 0m42 0v21.96h29.96v-21.96a3740.02 3740.02 0 0 0-29.96 0m42 0v21.96h29.96v-21.96a3740.02 3740.02 0 0 0-29.96 0m42 0v21.96h29.96v-21.96a3740.02 3740.02 0 0 0-29.96 0m59 0v21.96h94.96v-21.96c-31.66-.03-63.3-.03-94.96 0m-214.67 28.3c-7.12 1.15-9.7 11.1-4.58 15.92 4.8 5.1 14.77 2.54 15.92-4.58 1.85-6.57-4.78-13.18-11.34-11.34m42 0c-7.12 1.15-9.7 11.1-4.58 15.92 4.8 5.1 14.77 2.54 15.92-4.58 1.84-6.57-4.78-13.18-11.34-11.34m42 0c-7.12 1.16-9.68 11.1-4.58 15.92 4.8 5.1 14.76 2.54 15.92-4.58 1.84-6.57-4.78-13.18-11.34-11.34m42 0c-7.12 1.15-9.68 11.1-4.58 15.92 4.8 5.1 14.77 2.54 15.92-4.58 1.84-6.57-4.77-13.2-11.34-11.34m42 0c-7.12 1.15-9.7 11.1-4.58 15.92 4.8 5.1 14.76 2.54 15.92-4.58 1.84-6.57-4.78-13.17-11.34-11.34m47.97 2.58l2.97 12.1 2.32-.08 1.96-7.38c.92 2.47 1.55 5.07 2.7 7.46l1.6.06c1.56-4.04 2.4-8.33 3.08-12.6-3.7 1.24-3 5.75-4.16 8.8-.9-3.1-1.1-6.62-3.5-9.03-1.12 2.97-1.87 6.06-2.8 9.1-.6-2.73-1.14-5.46-1.65-8.2l-2.52-.23m15.95-.01l.03 12.32 1.74-.6c.84-2.02 2.5-3.3 4.5-4.1 3.1-.97 2.82-5.9.05-7.08-2.07-.53-4.22-.43-6.3-.54m10.28 5.37c2.15 1.5 5.1 2.04 6.2 4.73-2.48-.2-4.93-.63-7.38-.92 1.72 3.5 7.7 4.55 9.36.54 1.4-4.64-5.7-3.72-6.5-7.63 2.32.3 4.6.8 6.9 1.25-1.3-1.67-2.67-3.87-5.13-3.35-2.76-.18-4.9 2.94-3.47 5.38m12.04-2.6c-1.27 4.05-2.43 8.17-2.9 12.4 4.17-3.96 4.17-10.44 5.54-15.72-1.2.8-2.34 1.82-2.63 3.32m3.67-2.77l.01 12.14c.5-.03 1.54-.07 2.05-.1.37-1.6.77-3.2 1.22-4.77 1.54 1.98 3 4.1 5.14 5.52-.28-1.63-.74-3.2-.92-4.8.25-1.85 1.1-3.6 1-5.5-1.44-3.3-5.67-2.12-8.5-2.5m10.37.07v12.08c2.7-.02 5.42-.05 8.13-.28-1.16-2.12-3.75-1.7-5.76-2.03l-.04-2.5c1.92-.24 3.84-.5 5.76-.85-1.7-1.14-3.75-1.43-5.72-1.7v-2.27c2.02-.4 4.58-.08 5.78-2.15-2.72-.25-5.43-.28-8.14-.3m9.2 3.13c-.38 4.07 5.58 3.3 6.73 6.77-2.5-.1-4.98-.47-7.46-.72 1.75 3.52 8 4.43 9.36.2 1.02-3.85-4.14-4.24-6.54-5.5l1.24-2.18c1.7.7 3.38 1.46 5.1 2.2l-.82-3.46c-2.7-.47-7.24-1.2-7.6 2.68m10.12-3.1v12.06c2.7-.01 5.43-.08 8.15-.34-1.48-1.78-3.85-1.76-5.92-2.1l-.02-2.3 5.7-.87c-1.66-1.24-3.7-1.53-5.67-1.85l-.01-2.08c1.65-.7 5 .2 4.98-2.24-2.4-.4-4.82-.27-7.2-.28m8.76.96c.7.98 1.7 1.6 3 1.83-.1 3.07-.1 6.15-.07 9.23h2.35l.06-9.32c1.35-.76 2.68-1.54 3.97-2.4-2.96.2-6.98-1.5-9.3.65z"/><path d="M230.28 183.86c3-.42 6.22-.44 8.3 2.15-2.58 2.07-5.8 2.12-8.86 1.28l.55-3.43zm.02 26.98c2.83-.36 5.68-.1 8.24 1.24-1.84 3.38-5.6 3.02-8.8 2.2l.56-3.45zm-.13 20.36l2.75-.16.96 3.3-3.78.58.07-3.73zm2.37 66.76c.15-2.77 2.85-2.48 4.9-2.52l-.43 3.83-4.46-1.3zm.5 8.3c1.05-1.27 3.02-.55 4.47-.8l-.73 3.7c-1.5-.7-5.32-.33-3.74-2.88zm-3.47 22.8c3.04-.62 6.18-.52 8.95 1.03-1.46 2-3.68 3.5-6.25 2.72-2.17.15-2.25-2.24-2.7-3.75zm-51.75 44.76c3.95-5.87 14.96-5.06 17.28 1.94 1.3 4.12.84 8.52.86 12.78-6.65-.06-13.3-.06-19.94 0 .1-4.9-.83-10.3 1.8-14.72zm489 49c3.2-4 10.15-4.05 13.32 0 1.14 1.74 1.55 3.8 2.17 5.77a276.44 276.44 0 0 1-17.75 0c.63-1.96 1.03-4.07 2.26-5.77zm140 0c3.2-4 10.15-4.05 13.32 0 1.14 1.73 1.55 3.8 2.17 5.76a269.06 269.06 0 0 1-17.74.01c.62-1.96 1.02-4.08 2.25-5.77zm-182.47-1.52c3.56-1.5 8.2-.33 10.2 3.1 2.44 4.05 2.7 9.14 1.57 13.66-.85 4.2-4.58 7.97-9.12 7.32-5.86-.2-8.48-6.6-8.57-11.65-.07-4.63 1.25-10.37 5.9-12.42zm91.08.12c3.76-1.78 8.75-.43 10.8 3.3 2.84 5.02 2.74 11.6.07 16.66-2.8 5.47-11.9 5.36-14.5-.27-3.07-6.17-2.86-15.8 3.62-19.68zm47 0c3.77-1.77 8.77-.43 10.8 3.3 2.84 5.02 2.75 11.6.08 16.66-2.8 5.47-11.92 5.36-14.5-.27-3.07-6.18-2.86-15.8 3.6-19.68zm92-.02c3.77-1.77 8.76-.4 10.8 3.3 2.84 5 2.74 11.6.07 16.66-2.8 5.47-11.9 5.36-14.5-.27-3.07-6.17-2.86-15.8 3.6-19.7zM518.2 437.23c4.12-1.72 8.72-1.3 13.1-1.5-.58 2.9-.53 6.42-3.1 8.42-3.04 2.42-7.94 3.15-11.15.66-2.52-2.02-1.83-6.4 1.15-7.6z"/></g><path opacity=".23" d="M929.27 157c-.05-5.4-.12-10.78.25-16.16l.13 592.2c.26 6.95-3.46 13.63-9.46 17.13-7.37 5.12-16.73 3.93-25.2 4-259.7-.02-519.4 0-779.08-.01-2 .06-3.97-.4-5.2-2.1l797.32.1c4.28-.1 8.73-1.1 12.15-3.8 2.57-1.92 4.82-4.33 6.22-7.24l.82-1.92.7-2.15c2.1-5.8 1.33-12.03 1.34-18.05V157z"/><path d="M233.98 200.23c2.2 1.04 1.8 3.64 2.16 5.64l-2.5.23.35-5.87zm0 52c2.2 1.05 1.8 3.64 2.16 5.64l-2.5.24.35-5.88zm0 26c2.2 1.03 1.8 3.63 2.15 5.63l-2.5.24.35-5.87z" fill="#aeaeae"/><path fill="#b7b7b7" d="M236.63 264.67c.55-1.96 1.22-3.9 2.35-5.63.3 2.65.4 5.32.42 8-3.7-.17-7.5.57-11.12-.23l-.64-1.86c2.98-.3 6-.28 9-.27z"/><path fill="#bababa" d="M228.2 268.2c1.78-.68 1.67 1.83 2.4 2.8h8.74l-.04 2.36-8.6.05-2.3 4.1c-.33-3.1-.7-6.24-.22-9.33z"/><path fill="#b6b6b6" d="M227.5 348.15c3.94-.2 7.88-.16 11.83-.16l-.01 2.44-8.66-.15c.3 1.23.6 2.46.86 3.7-2.1-1.35-3.38-3.47-4.02-5.84z"/><path d="M607.06 397.75a188.07 188.07 0 0 1 11.14 0c.3 7.02.25 14.04.01 21.06 2.47-2.45 4.88-5.22 8.25-6.42 6-2.13 13.44-.38 17.4 4.76 4.03 5.1 5 11.9 4.66 18.22-.35 5.47-1.9 11.26-6.04 15.1-4.55 4.42-11.9 5.35-17.57 2.64-2.68-1.37-4.63-3.73-6.66-5.87l-.18 6.73h-11.02l.01-56.23m17.3 23.56c-4.66 2.05-5.98 7.8-5.9 12.42.1 5.05 2.7 11.44 8.57 11.65 4.54.65 8.27-3.1 9.12-7.32 1.13-4.52.87-9.6-1.57-13.66-2-3.42-6.65-4.6-10.2-3.1zm103.94-23.43a95.24 95.24 0 0 1 11.46-.05l.02 56.12a194.15 194.15 0 0 1-11.32-.08l-.24-5.65c-2.96 2.55-6 5.44-10 6.12-7.02 1.46-14.73-2.34-17.52-9-3.35-7.7-3.4-16.94.03-24.6 2.9-6.5 10.42-10.34 17.38-8.95 4.08.67 7.12 3.7 10.13 6.27.16-6.72.1-13.44.06-20.16m-12.84 23.55c-6.48 3.9-6.7 13.5-3.62 19.68 2.58 5.63 11.7 5.74 14.5.27 2.67-5.07 2.77-11.64-.07-16.66-2.05-3.72-7.04-5.07-10.8-3.3zm59.84-23.57c3.82-.25 7.64-.26 11.47-.05v56.12c-3.77.07-7.54.06-11.3-.08l-.24-5.65c-2.96 2.55-6 5.44-10 6.12-7.02 1.46-14.73-2.34-17.52-9.02-3.35-7.7-3.4-16.93.03-24.6 2.88-6.52 10.42-10.34 17.38-8.95 4.08.67 7.12 3.7 10.13 6.27.17-6.72.1-13.44.06-20.16m-12.85 23.55c-6.47 3.9-6.68 13.5-3.6 19.68 2.58 5.63 11.7 5.74 14.5.27 2.67-5.07 2.76-11.64-.08-16.66-2.04-3.72-7.04-5.06-10.8-3.3zm104.84-23.55c3.8-.25 7.64-.27 11.46-.05l.02 56.12a194.15 194.15 0 0 1-11.32-.08l-.24-5.65c-3.13 2.74-6.46 5.8-10.8 6.26-6.82 1.05-14.04-2.75-16.73-9.16-3.35-7.7-3.4-16.94.04-24.6 2.87-6.5 10.4-10.33 17.37-8.94 4.08.67 7.12 3.7 10.13 6.28.16-6.73.1-13.45.06-20.17m-12.85 23.54c-6.47 3.9-6.68 13.52-3.6 19.7 2.58 5.63 11.7 5.74 14.5.27 2.67-5.07 2.77-11.65-.07-16.66-2.05-3.7-7.04-5.07-10.8-3.3zm-191.52-7.52c8-4.43 19.34-3.44 25.47 3.7 4.34 4.94 5.1 11.8 4.8 18.1-9.73.1-19.47-.3-29.2.18 1.03 3.76 2.07 8.5 6.36 9.8 3.8 1.68 7.9.15 10.82-2.48 3.25-3.06 7.96-1.96 12-1.95-1.4 4.1-3.38 8.4-7.4 10.52-7.68 4.36-18.24 4.35-25.35-1.15-6.24-5-7.9-13.68-6.96-21.25.67-6.2 3.87-12.4 9.47-15.47m3.92 8.92c-1.23 1.7-1.63 3.8-2.26 5.77a276.44 276.44 0 0 0 17.75 0c-.62-1.96-1.03-4.03-2.17-5.77-3.17-4.05-10.13-4-13.32 0zm135.45-8.55c7.46-4.5 18-4.08 24.62 1.8 5.48 4.9 6.7 12.64 6.26 19.63-9.72.1-19.46-.3-29.17.18 1.02 3.76 2.06 8.5 6.35 9.78 3.8 1.7 7.88.15 10.8-2.47 3.26-3.06 7.96-1.96 12-1.95-1.38 3.85-3.08 7.95-6.78 10.12-7.53 4.7-18.08 4.84-25.4-.3-6.42-4.7-8.38-13.28-7.6-20.82.5-6.25 3.42-12.63 8.93-15.97m4.55 8.55c-1.23 1.7-1.63 3.8-2.25 5.77a269.06 269.06 0 0 0 17.74-.01c-.62-1.95-1.03-4.03-2.17-5.76-3.17-4.05-10.12-4-13.32 0z" fill="#616161"/><g fill="#8ab224"><path d="M581.96 402.4h10.98l.3 9.56 7.67.26-.04 8.42-7.7.23c.12 6.97-.4 13.97.2 20.92.07 3.84 4.77 3.33 7.44 3.94v8.18c-5 .15-10.47.86-14.98-1.78-3.16-1.83-3.97-5.7-4.06-9.08-.2-7.33.05-14.67-.05-22l-5.8-.5-.07-8.28 5.8-.42.28-9.44zm-184.2 14.4c3.47-4.06 9.07-5.46 14.23-5.55 5.24-.08 10.94 1.15 14.7 5.08 2.27 2.27 2.92 5.54 3.7 8.54-3.05.08-6.12.4-9.14-.1-2.62-1.27-3.8-4.72-6.84-5.3-2.5-.46-5.4-.18-7.3 1.67-1.68 1.6-1.33 4.84.9 5.76 6.62 3.15 15.05 2.1 20.66 7.4 4.74 5.3 2.33 14.4-3.75 17.62-7.25 4-16.7 3.98-24.03.2-4.16-2.07-6.14-6.5-7.17-10.78 3.3-.06 6.63-.37 9.9.13 2.73 1.44 4.2 5 7.57 5.28 2.62.28 5.7.1 7.66-1.9 1.58-1.65 1.12-4.77-1.13-5.58-5.82-2.6-12.75-2.18-18.1-5.93-5.32-3.55-6.04-11.82-1.88-16.53zm50.07 2.13c3-4.52 7.88-8.37 13.63-7.43 4.86.12 8.3 3.9 10.17 8.06 1.96-2.62 3.92-5.5 7.03-6.85 5.42-2.35 12.6-1.63 16.57 3.1 2.7 3.02 3.35 7.2 3.34 11.13l.04 26.98c-3.83.1-7.65.1-11.48.07v-24.04c-.16-2.64-.14-5.8-2.33-7.67-3.8-3.1-10.64-1.03-11.3 4.1-1 9.15-.06 18.42-.45 27.62a994.64 994.64 0 0 1-10.93-.02l.01-24.03c-.12-2.85-.18-6.42-2.92-8.1-4.22-2.7-10.6.17-10.84 5.34-.72 8.9 0 17.87-.32 26.8h-11.3l.02-41.87 10.88.03.17 6.8zm62.76-3.33c5.6-4.58 13.53-5.13 20.34-3.55 5.63 1.27 10.84 5.88 11.07 11.94.43 10 .1 20 .12 30a1319.31 1319.31 0 0 1-10.9-.01l-.18-5.88c-2.24 2.1-4.48 4.44-7.44 5.5-5.78 2.12-13.15.88-17-4.2-4.02-5.1-3.08-13.73 2.78-17.07 6.58-3.86 14.55-2.95 21.86-3.72-.4-2.13-.4-4.42-1.48-6.34-1.72-2.35-5-2.76-7.68-2.35-3.04.53-4.6 3.68-7.28 4.85-3 .46-6.06.15-9.08.06.96-3.36 1.98-7.02 4.88-9.26m7.62 21.64c-2.98 1.2-3.67 5.57-1.15 7.6 3.2 2.5 8.1 1.76 11.15-.66 2.56-2 2.5-5.52 3.1-8.42-4.37.2-8.97-.23-13.1 1.5zm48.42-24.73c2.32-1.1 4.97-.85 7.47-.9l-.01 9.88c-3.33.02-7.08-.4-9.9 1.73-2.6 2.07-2.96 5.65-3.08 8.74l-.06 22.05-11.3.01.01-41.88 10.84.03.27 5.97c1.76-2 3.33-4.34 5.75-5.63z"/><use xlink:href="#B"/><use xlink:href="#B" x="42"/><use xlink:href="#B" x="84"/><use xlink:href="#B" x="126"/><use xlink:href="#B" x="168"/><path d="M766.02 677.02h94.96v21.96h-94.96v-21.96z"/></g><path d="M551.35 705.3c6.56-1.84 13.2 4.77 11.34 11.34-1.15 7.12-11.1 9.68-15.92 4.58-5.1-4.8-2.54-14.77 4.58-15.92zm42 0c6.56-1.84 13.18 4.77 11.34 11.34-1.15 7.12-11.1 9.68-15.92 4.58-5.1-4.8-2.54-14.77 4.58-15.92zm42 0c6.56-1.84 13.18 4.77 11.34 11.34-1.16 7.12-11.12 9.68-15.92 4.58-5.1-4.8-2.54-14.76 4.58-15.92zm42 0c6.57-1.85 13.18 4.77 11.34 11.34-1.15 7.12-11.1 9.68-15.92 4.58-5.1-4.8-2.54-14.77 4.58-15.92zm42 0c6.56-1.83 13.18 4.77 11.34 11.34-1.16 7.12-11.1 9.68-15.92 4.58-5.1-4.8-2.54-14.77 4.58-15.92z" fill="#535353"/><path fill="#bdbdbd" d="M819.63 707.96l8.14.3c-1.2 2.07-3.76 1.76-5.78 2.15v2.27c1.97.28 4 .57 5.72 1.7l-5.76.85.04 2.5c2 .34 4.6-.1 5.76 2.03-2.7.23-5.43.26-8.13.28v-12.08z"/><path fill="#bebebe" d="M838.95 707.98c2.4.01 4.8-.12 7.2.28.02 2.43-3.33 1.54-4.98 2.24l.01 2.08c1.97.32 4 .6 5.67 1.85l-5.7.87.02 2.3c2.07.33 4.44.3 5.92 2.1-2.72.26-5.44.33-8.15.34v-12.06z"/><path fill="#333" d="M785.82 709.4c2.16.52 3.3 2.15 3.74 4.26l-4.03.87.3-5.13z"/><path fill="#3c3c3c" d="M811.6 709.86l3.67.4-.06 3.4-3.56.45-.05-4.24z"/><defs ><path id="B" d="M539.02 677.02h29.96v21.96h-29.96v-21.96z"/></defs></svg>