<?xml version="1.0" encoding="UTF-8" ?>

<svg width="510pt" height="533pt" viewBox="0 0 510 533" version="1.1" id="weather34 nova pm sensor" xmlns="http://www.w3.org/2000/svg">
<g id="#747474ff" fill="#747474">
<path d=" M 49.38 36.61 C 51.53 36.12 53.76 36.03 55.96 35.99 C 187.66 36.02 319.36 35.98 451.06 36.01 C 462.02 35.36 472.17 44.89 471.95 55.91 C 472.07 196.28 471.96 336.66 472.01 477.03 C 472.24 482.90 470.39 488.96 466.10 493.10 C 461.96 497.39 455.89 499.24 450.03 499.01 C 317.99 498.96 185.95 499.07 53.91 498.95 C 42.89 499.17 33.36 489.02 34.01 478.06 C 33.99 337.69 33.99 197.31 34.01 56.93 C 33.56 47.64 40.23 38.59 49.38 36.61 M 129.07 43.07 C 126.25 48.27 124.24 53.84 121.59 59.13 C 122.09 60.52 123.35 61.05 124.75 60.82 C 134.23 60.19 143.76 60.20 153.24 60.82 C 154.65 61.03 155.93 60.58 156.40 59.12 C 153.76 53.84 151.74 48.26 148.93 43.06 C 142.31 42.91 135.69 42.91 129.07 43.07 M 125.08 61.80 C 123.89 64.17 122.80 66.58 121.89 69.07 L 121.01 69.09 C 121.23 69.63 121.65 70.71 121.87 71.25 C 124.59 71.44 127.31 71.65 130.04 71.85 C 130.10 74.00 130.22 76.15 130.38 78.29 C 115.94 77.60 101.46 78.21 87.00 77.99 C 80.51 78.12 73.49 77.17 67.57 80.47 C 61.72 83.46 58.14 89.61 56.97 95.91 C 55.78 101.20 56.36 106.64 56.31 112.00 C 56.29 222.00 56.34 332.00 56.29 442.00 C 56.41 448.57 55.77 455.35 57.57 461.75 C 60.65 469.48 68.58 475.01 76.95 475.07 C 87.95 475.46 98.98 475.09 110.00 475.22 C 214.67 475.20 319.35 475.25 424.02 475.20 C 433.20 475.53 442.95 470.07 445.66 460.98 C 447.22 454.11 446.61 446.98 446.70 440.00 C 446.70 326.98 446.68 213.96 446.71 100.95 C 446.62 99.25 446.35 97.57 446.03 95.91 C 444.63 85.79 435.45 77.47 425.07 78.02 C 337.71 77.97 250.36 78.02 163.00 78.00 C 158.20 77.97 153.40 77.85 148.62 78.29 C 148.78 76.16 148.91 74.03 148.98 71.90 C 151.36 71.66 153.74 71.44 156.12 71.21 C 156.34 70.68 156.78 69.62 157.00 69.10 L 156.12 69.07 C 155.20 66.58 154.11 64.17 152.92 61.80 C 143.65 61.44 134.35 61.44 125.08 61.80 M 447.37 470.42 C 443.14 471.94 440.29 476.51 440.81 480.99 C 441.20 486.44 446.56 490.86 451.99 490.19 C 457.79 489.79 462.32 483.74 461.07 478.06 C 460.08 472.00 453.05 468.08 447.37 470.42 Z" />
<path d=" M 79.33 94.41 C 86.29 92.24 95.44 97.93 93.77 105.79 C 91.68 115.59 76.28 116.78 72.00 108.03 C 68.97 102.42 73.41 95.48 79.33 94.41 Z" />
<path d=" M 412.33 94.41 C 419.28 92.25 428.44 97.93 426.77 105.79 C 424.68 115.59 409.28 116.79 405.00 108.03 C 401.96 102.42 406.42 95.48 412.33 94.41 Z" />
<path d=" M 250.38 276.44 C 256.95 274.46 265.75 279.43 264.90 286.92 C 264.08 294.40 254.53 297.99 248.23 294.80 C 244.18 293.09 241.18 288.68 242.22 284.21 C 242.98 280.23 246.62 277.41 250.38 276.44 Z" />
<path d=" M 399.37 277.43 C 405.95 275.47 414.75 280.42 413.90 287.91 C 413.08 295.39 403.52 298.99 397.23 295.80 C 393.19 294.09 390.16 289.68 391.22 285.21 C 391.98 281.23 395.62 278.42 399.37 277.43 Z" />
<path d=" M 188.33 431.41 C 195.29 429.24 204.44 434.93 202.77 442.79 C 200.68 452.60 185.28 453.78 181.00 445.03 C 177.96 439.42 182.42 432.48 188.33 431.41 Z" />
<path d=" M 248.37 431.43 C 254.95 429.47 263.75 434.43 262.91 441.91 C 262.07 449.39 252.53 452.99 246.23 449.80 C 242.18 448.09 239.18 443.68 240.23 439.20 C 240.98 435.23 244.62 432.41 248.37 431.43 Z" />
<path d=" M 399.37 431.44 C 405.95 429.46 414.76 434.43 413.90 441.92 C 413.07 449.39 403.53 452.99 397.24 449.80 C 393.18 448.09 390.17 443.68 391.22 439.20 C 391.97 435.22 395.62 432.42 399.37 431.44 Z" />
</g>
<g id="#b9b9b9ff">
<path fill="#b9b9b9"  d=" M 129.07 43.07 C 135.69 42.91 142.31 42.91 148.93 43.06 C 151.74 48.26 153.76 53.84 156.40 59.12 C 144.80 58.92 133.19 58.91 121.59 59.13 C 124.24 53.84 126.25 48.27 129.07 43.07 Z" />
<path fill="#b9b9b9"  d=" M 125.08 61.80 C 134.35 61.44 143.65 61.44 152.92 61.80 C 154.11 64.17 155.20 66.58 156.12 69.07 C 144.71 68.94 133.30 68.94 121.89 69.07 C 122.80 66.58 123.89 64.17 125.08 61.80 Z" />
<path fill="#b9b9b9"  d=" M 131.03 71.89 C 136.67 71.45 142.34 71.46 147.99 71.89 C 148.23 74.02 148.34 76.17 148.62 78.29 C 149.57 84.07 149.65 89.96 148.77 95.75 C 142.60 96.30 136.40 96.29 130.23 95.75 C 129.35 89.96 129.42 84.07 130.38 78.29 C 130.66 76.17 130.77 74.02 131.03 71.89 M 130.65 93.33 C 130.92 93.59 131.46 94.13 131.73 94.39 C 135.43 95.14 139.29 94.56 143.06 94.75 C 144.87 94.62 147.22 95.19 148.34 93.33 C 142.46 92.82 136.53 92.82 130.65 93.33 Z" />
<path fill="#b9b9b9"  d=" M 318.08 314.07 C 332.74 310.90 348.73 315.11 359.90 325.12 C 369.52 333.41 375.24 345.51 376.87 358.00 C 377.96 370.11 374.69 382.61 367.52 392.47 C 360.47 402.33 349.69 409.52 337.78 411.92 C 325.05 414.67 311.28 411.80 300.60 404.38 C 289.68 396.87 281.99 384.87 279.78 371.80 C 277.92 359.98 279.95 347.47 286.13 337.16 C 292.98 325.49 304.78 316.78 318.08 314.07 Z" />
</g>
<g id="#343434ff">
<path fill="#343434"  d=" M 121.59 59.13 C 133.19 58.91 144.80 58.92 156.40 59.12 C 155.93 60.58 154.65 61.03 153.24 60.82 C 143.76 60.20 134.23 60.19 124.75 60.82 C 123.35 61.05 122.09 60.52 121.59 59.13 Z" />
<path fill="#343434"  d=" M 121.01 69.09 L 121.89 69.07 C 133.30 68.94 144.71 68.94 156.12 69.07 L 157.00 69.10 C 156.78 69.62 156.34 70.68 156.12 71.21 C 153.74 71.44 151.36 71.66 148.98 71.90 C 148.91 74.03 148.78 76.16 148.62 78.29 C 148.34 76.17 148.23 74.02 147.99 71.89 C 147.87 71.53 147.65 70.81 147.54 70.45 C 142.19 70.20 136.82 70.20 131.47 70.45 C 131.36 70.81 131.14 71.53 131.03 71.89 C 130.77 74.02 130.66 76.17 130.38 78.29 C 130.22 76.15 130.10 74.00 130.04 71.85 C 127.31 71.65 124.59 71.44 121.87 71.25 C 121.65 70.71 121.23 69.63 121.01 69.09 Z" />
<path fill="#343434"  d=" M 130.65 93.33 C 136.53 92.82 142.46 92.82 148.34 93.33 C 147.22 95.19 144.87 94.62 143.06 94.75 C 139.29 94.56 135.43 95.14 131.73 94.39 C 131.46 94.13 130.92 93.59 130.65 93.33 Z" />
</g>
<g id="#737373ff">
<path fill="#737373"  d=" M 131.47 70.45 C 136.82 70.20 142.19 70.20 147.54 70.45 C 147.65 70.81 147.87 71.53 147.99 71.89 C 142.34 71.46 136.67 71.45 131.03 71.89 C 131.14 71.53 131.36 70.81 131.47 70.45 Z" />
</g>
<g id="#cbcbcbff">
<path fill="#cbcbcb"  d=" M 67.57 80.47 C 73.49 77.17 80.51 78.12 87.00 77.99 C 101.46 78.21 115.94 77.60 130.38 78.29 C 129.42 84.07 129.35 89.96 130.23 95.75 C 136.40 96.29 142.60 96.30 148.77 95.75 C 149.65 89.96 149.57 84.07 148.62 78.29 C 153.40 77.85 158.20 77.97 163.00 78.00 C 250.36 78.02 337.71 77.97 425.07 78.02 C 435.45 77.47 444.63 85.79 446.03 95.91 C 446.42 143.93 446.09 191.97 446.20 240.00 C 446.20 310.36 446.19 380.71 446.20 451.06 C 446.30 457.17 444.28 463.48 439.59 467.60 C 435.48 471.56 429.67 473.16 424.06 473.00 C 308.68 472.98 193.29 473.03 77.91 472.98 C 69.10 473.34 60.49 467.47 57.89 459.01 C 56.24 453.15 56.89 447.00 56.79 441.00 C 56.82 331.67 56.79 222.33 56.80 113.00 C 56.82 107.30 56.62 101.60 56.97 95.91 C 58.14 89.61 61.72 83.46 67.57 80.47 M 79.33 94.41 C 73.41 95.48 68.97 102.42 72.00 108.03 C 76.28 116.78 91.68 115.59 93.77 105.79 C 95.44 97.93 86.29 92.24 79.33 94.41 M 412.33 94.41 C 406.42 95.48 401.96 102.42 405.00 108.03 C 409.28 116.79 424.68 115.59 426.77 105.79 C 428.44 97.93 419.28 92.25 412.33 94.41 M 205.37 162.07 C 205.41 171.34 205.43 180.61 205.36 189.88 C 207.30 189.94 209.25 190.00 211.20 190.05 C 211.28 187.13 211.34 184.21 211.34 181.30 C 215.47 180.90 220.22 181.54 223.65 178.71 C 228.67 174.57 227.60 165.12 221.35 162.73 C 216.19 161.16 210.68 161.83 205.37 162.07 M 232.37 162.00 C 232.42 171.30 232.41 180.59 232.37 189.89 C 234.19 189.94 236.02 189.98 237.84 190.03 C 238.01 183.87 237.66 177.69 238.11 171.54 C 241.09 177.01 242.82 183.03 245.53 188.63 C 246.79 188.58 248.05 188.54 249.32 188.51 C 251.89 182.66 253.94 176.58 256.72 170.82 C 256.92 177.21 256.67 183.60 256.87 190.00 C 258.64 189.99 260.41 189.99 262.18 190.00 C 262.33 180.60 262.34 171.20 262.17 161.80 C 259.86 161.84 257.56 161.89 255.25 161.99 C 252.50 168.36 250.39 175.01 247.28 181.23 C 244.86 176.01 242.95 170.59 240.81 165.26 C 240.22 164.12 239.95 162.67 238.81 161.93 C 236.67 161.68 234.51 161.88 232.37 162.00 M 103.43 171.56 C 103.30 170.85 103.04 169.43 102.91 168.72 C 101.25 168.65 99.59 168.59 97.93 168.53 C 97.79 175.70 97.77 182.87 97.94 190.04 C 99.83 189.99 101.72 189.93 103.62 189.87 C 103.64 185.27 103.19 180.64 103.85 176.07 C 103.93 172.14 110.77 171.57 111.45 175.45 C 112.13 180.26 111.60 185.15 111.82 189.99 C 113.65 189.99 115.48 190.00 117.31 190.01 C 117.37 184.40 117.91 178.71 116.95 173.14 C 116.42 169.89 113.12 167.93 110.00 168.09 C 107.30 167.89 105.32 169.97 103.43 171.56 M 130.37 168.32 C 122.37 169.18 119.90 179.45 123.43 185.62 C 127.16 192.26 138.78 191.89 141.81 184.77 C 143.46 180.76 143.32 175.81 140.89 172.15 C 138.61 168.82 134.19 167.68 130.37 168.32 M 170.50 174.43 C 174.75 174.96 178.51 171.65 182.72 172.95 C 182.90 174.27 183.08 175.59 183.28 176.92 C 179.57 177.45 175.52 177.21 172.18 179.16 C 168.45 181.59 169.27 188.05 173.41 189.60 C 176.24 191.08 179.20 189.37 182.08 189.09 C 184.32 189.39 186.52 189.92 188.78 190.19 C 188.71 184.35 189.45 178.40 188.28 172.64 C 185.14 165.69 172.08 166.63 170.50 174.43 M 282.21 169.17 C 278.51 170.61 277.00 176.08 280.12 178.84 C 283.25 181.32 287.66 180.96 290.95 183.15 C 292.09 185.77 288.16 187.09 286.29 185.89 C 283.57 184.67 280.71 183.80 277.70 183.98 C 279.12 190.79 287.82 191.67 293.11 189.10 C 296.74 187.52 298.30 181.71 294.79 179.23 C 291.53 177.38 287.71 176.96 284.20 175.77 C 284.16 175.06 284.07 173.64 284.03 172.93 C 288.29 171.05 292.04 175.05 296.39 174.37 C 295.36 167.88 287.21 166.89 282.21 169.17 M 303.45 170.44 C 299.46 174.00 299.09 180.31 301.05 185.01 C 304.53 192.65 317.74 192.08 320.22 183.85 C 316.62 183.60 313.41 185.27 310.03 186.10 C 306.98 186.30 305.84 183.20 305.35 180.77 C 310.27 180.50 315.20 180.59 320.13 180.63 C 320.01 178.07 320.16 175.33 318.87 173.00 C 316.12 167.56 307.88 166.50 303.45 170.44 M 330.42 171.57 C 330.30 170.86 330.04 169.44 329.91 168.72 C 328.25 168.65 326.58 168.59 324.93 168.53 C 324.79 175.70 324.77 182.88 324.94 190.05 C 326.83 189.99 328.72 189.93 330.62 189.87 C 330.64 185.27 330.20 180.64 330.84 176.07 C 330.95 172.15 337.75 171.57 338.45 175.44 C 339.13 180.26 338.60 185.15 338.82 189.99 C 340.65 189.99 342.47 190.00 344.31 190.01 C 344.37 184.40 344.91 178.71 343.95 173.15 C 343.42 169.90 340.12 167.93 337.00 168.09 C 334.29 167.88 332.32 169.97 330.42 171.57 M 354.21 169.17 C 350.51 170.61 349.00 176.08 352.12 178.84 C 355.24 181.33 359.67 180.95 362.95 183.16 C 364.08 185.77 360.16 187.08 358.29 185.89 C 355.57 184.67 352.71 183.80 349.70 183.98 C 351.12 190.79 359.81 191.66 365.11 189.10 C 368.74 187.52 370.30 181.71 366.79 179.23 C 363.53 177.38 359.71 176.96 356.21 175.77 C 356.16 175.06 356.07 173.64 356.03 172.94 C 360.29 171.05 364.05 175.06 368.40 174.37 C 367.35 167.88 359.22 166.88 354.21 169.17 M 380.37 168.32 C 372.37 169.17 369.89 179.45 373.43 185.62 C 377.16 192.26 388.78 191.89 391.81 184.77 C 393.46 180.76 393.32 175.81 390.89 172.15 C 388.61 168.82 384.19 167.68 380.37 168.32 M 403.91 170.06 C 402.14 168.86 400.03 168.52 397.95 168.42 C 397.77 175.62 397.78 182.84 397.94 190.04 C 399.83 189.99 401.72 189.93 403.62 189.87 C 403.66 185.30 403.11 180.66 403.96 176.14 C 404.89 173.01 408.85 173.40 411.38 172.69 C 411.33 171.09 411.27 169.49 411.19 167.90 C 408.67 168.29 406.25 169.07 403.91 170.06 M 146.30 168.57 C 148.21 175.80 151.09 182.73 153.36 189.86 C 155.52 189.93 157.67 189.98 159.83 190.01 C 162.35 182.88 164.98 175.80 167.12 168.55 C 165.15 168.59 163.18 168.63 161.21 168.72 C 159.74 173.93 158.78 179.32 156.55 184.27 C 154.88 179.09 153.68 173.77 152.08 168.57 C 150.15 168.56 148.22 168.55 146.30 168.57 M 245.33 266.42 C 235.67 267.95 228.49 277.34 228.68 286.97 C 228.58 337.99 228.72 389.00 228.62 440.01 C 228.59 444.06 229.35 448.17 231.26 451.78 C 234.39 458.39 241.85 462.12 248.94 462.38 C 301.31 462.40 353.69 462.35 406.07 462.41 C 411.49 462.54 416.84 460.38 420.96 456.92 C 425.23 452.85 427.27 446.84 427.35 441.04 C 427.36 392.69 427.34 344.35 427.36 296.00 C 427.30 291.40 427.68 286.73 426.77 282.19 C 425.17 274.38 418.62 267.72 410.68 266.42 C 406.16 265.72 401.56 266.04 397.00 265.99 C 351.00 266.00 305.00 266.00 259.00 265.99 C 254.44 266.04 249.85 265.72 245.33 266.42 M 107.16 412.15 C 106.73 418.54 107.13 424.97 106.99 431.38 C 105.70 431.26 104.41 431.13 103.13 430.99 C 102.88 440.61 102.90 450.24 103.11 459.87 C 108.70 460.14 114.30 460.15 119.89 459.87 C 120.10 450.25 120.10 440.62 119.89 431.00 C 117.24 430.96 114.58 431.06 111.95 431.34 C 112.04 425.90 111.98 420.46 112.01 415.03 C 150.68 415.27 189.34 415.59 228.01 415.83 C 228.01 414.18 228.01 412.53 228.04 410.88 C 189.33 410.49 150.63 410.36 111.93 409.98 C 110.22 410.17 107.08 409.59 107.16 412.15 M 127.49 423.49 C 126.83 425.92 126.94 428.46 126.93 430.95 C 125.66 430.98 124.39 431.02 123.12 431.06 C 122.89 440.66 122.89 450.27 123.11 459.87 C 128.70 460.15 134.30 460.15 139.89 459.87 C 140.10 450.26 140.10 440.63 139.89 431.02 C 137.28 430.99 134.66 431.00 132.05 431.07 C 131.86 433.74 131.68 436.44 130.95 439.03 C 131.58 435.16 131.10 431.20 131.29 427.30 C 163.51 427.48 195.74 427.68 227.96 427.89 C 227.98 426.50 228.00 425.13 228.02 423.75 C 197.35 423.35 166.68 423.36 136.01 423.01 C 133.17 423.02 130.25 422.70 127.49 423.49 M 188.33 431.41 C 182.42 432.48 177.96 439.42 181.00 445.03 C 185.28 453.78 200.68 452.60 202.77 442.79 C 204.44 434.93 195.29 429.24 188.33 431.41 Z" />
<path fill="#cbcbcb"  d=" M 211.39 166.30 C 213.61 166.45 215.88 166.36 218.03 166.98 C 221.90 168.19 221.90 174.80 218.03 176.01 C 215.88 176.63 213.61 176.54 211.39 176.70 C 211.26 173.23 211.26 169.76 211.39 166.30 Z" />
<path fill="#cbcbcb"  d=" M 305.37 176.94 C 306.08 174.72 307.37 172.13 310.11 172.30 C 312.89 171.98 313.99 174.87 315.09 176.85 C 311.85 177.08 308.60 177.10 305.37 176.94 Z" />
<path fill="#cbcbcb"  d=" M 130.31 173.08 C 135.67 170.62 138.33 177.72 136.85 181.85 C 136.59 185.71 131.07 187.42 128.92 184.11 C 127.05 180.81 126.94 175.47 130.31 173.08 Z" />
<path fill="#cbcbcb"  d=" M 380.32 173.08 C 385.67 170.62 388.32 177.73 386.85 181.85 C 386.59 185.71 381.07 187.42 378.92 184.11 C 377.05 180.80 376.94 175.47 380.32 173.08 Z" />
<path fill="#cbcbcb"  d=" M 174.92 182.91 C 177.15 180.51 180.50 180.70 183.52 180.68 C 182.95 182.29 183.08 184.52 181.33 185.42 C 179.81 186.29 177.96 185.75 176.30 185.83 C 175.81 184.87 175.35 183.89 174.92 182.91 Z" />
</g>
<g id="#232323ff">
<path fill="#232323"  d=" M 56.31 112.00 C 56.36 106.64 55.78 101.20 56.97 95.91 C 56.62 101.60 56.82 107.30 56.80 113.00 C 56.79 222.33 56.82 331.67 56.79 441.00 C 56.89 447.00 56.24 453.15 57.89 459.01 C 60.49 467.47 69.10 473.34 77.91 472.98 C 193.29 473.03 308.68 472.98 424.06 473.00 C 429.67 473.16 435.48 471.56 439.59 467.60 C 444.28 463.48 446.30 457.17 446.20 451.06 C 446.19 380.71 446.20 310.36 446.20 240.00 C 446.09 191.97 446.42 143.93 446.03 95.91 C 446.35 97.57 446.62 99.25 446.71 100.95 C 446.68 213.96 446.70 326.98 446.70 440.00 C 446.61 446.98 447.22 454.11 445.66 460.98 C 442.95 470.07 433.20 475.53 424.02 475.20 C 319.35 475.25 214.67 475.20 110.00 475.22 C 98.98 475.09 87.95 475.46 76.95 475.07 C 68.58 475.01 60.65 469.48 57.57 461.75 C 55.77 455.35 56.41 448.57 56.29 442.00 C 56.34 332.00 56.29 222.00 56.31 112.00 Z" />
<path fill="#232323"  d=" M 376.87 358.00 C 378.83 366.47 377.10 375.42 374.30 383.51 C 369.69 396.04 359.36 405.88 347.33 411.31 C 338.60 415.31 328.63 416.04 319.22 414.54 C 310.48 413.10 302.52 408.65 295.58 403.30 C 287.99 396.78 282.67 387.80 280.00 378.19 C 279.34 376.11 279.51 373.92 279.78 371.80 C 281.99 384.87 289.68 396.87 300.60 404.38 C 311.28 411.80 325.05 414.67 337.78 411.92 C 349.69 409.52 360.47 402.33 367.52 392.47 C 374.69 382.61 377.96 370.11 376.87 358.00 Z" />
</g>
<g id="#575757ff" fill="#575757">
<path d=" M 205.37 162.07 C 210.68 161.83 216.19 161.16 221.35 162.73 C 227.60 165.12 228.67 174.57 223.65 178.71 C 220.22 181.54 215.47 180.90 211.34 181.30 C 211.34 184.21 211.28 187.13 211.20 190.05 C 209.25 190.00 207.30 189.94 205.36 189.88 C 205.43 180.61 205.41 171.34 205.37 162.07 M 211.39 166.30 C 211.26 169.76 211.26 173.23 211.39 176.70 C 213.61 176.54 215.88 176.63 218.03 176.01 C 221.90 174.80 221.90 168.19 218.03 166.98 C 215.88 166.36 213.61 166.45 211.39 166.30 Z" />
<path d=" M 232.37 162.00 C 234.51 161.88 236.67 161.68 238.81 161.93 C 239.95 162.67 240.22 164.12 240.81 165.26 C 242.95 170.59 244.86 176.01 247.28 181.23 C 250.39 175.01 252.50 168.36 255.25 161.99 C 257.56 161.89 259.86 161.84 262.17 161.80 C 262.34 171.20 262.33 180.60 262.18 190.00 C 260.41 189.99 258.64 189.99 256.87 190.00 C 256.67 183.60 256.92 177.21 256.72 170.82 C 253.94 176.58 251.89 182.66 249.32 188.51 C 248.05 188.54 246.79 188.58 245.53 188.63 C 242.82 183.03 241.09 177.01 238.11 171.54 C 237.66 177.69 238.01 183.87 237.84 190.03 C 236.02 189.98 234.19 189.94 232.37 189.89 C 232.41 180.59 232.42 171.30 232.37 162.00 Z" />
<path d=" M 103.43 171.56 C 105.32 169.97 107.30 167.89 110.00 168.09 C 113.12 167.93 116.42 169.89 116.95 173.14 C 117.91 178.71 117.37 184.40 117.31 190.01 C 115.48 190.00 113.65 189.99 111.82 189.99 C 111.60 185.15 112.13 180.26 111.45 175.45 C 110.77 171.57 103.93 172.14 103.85 176.07 C 103.19 180.64 103.64 185.27 103.62 189.87 C 101.72 189.93 99.83 189.99 97.94 190.04 C 97.77 182.87 97.79 175.70 97.93 168.53 C 99.59 168.59 101.25 168.65 102.91 168.72 C 103.04 169.43 103.30 170.85 103.43 171.56 Z" />
<path d=" M 130.37 168.32 C 134.19 167.68 138.61 168.82 140.89 172.15 C 143.32 175.81 143.46 180.76 141.81 184.77 C 138.78 191.89 127.16 192.26 123.43 185.62 C 119.90 179.45 122.37 169.18 130.37 168.32 M 130.31 173.08 C 126.94 175.47 127.05 180.81 128.92 184.11 C 131.07 187.42 136.59 185.71 136.85 181.85 C 138.33 177.72 135.67 170.62 130.31 173.08 Z" />
<path d=" M 170.50 174.43 C 172.08 166.63 185.14 165.69 188.28 172.64 C 189.45 178.40 188.71 184.35 188.78 190.19 C 186.52 189.92 184.32 189.39 182.08 189.09 C 179.20 189.37 176.24 191.08 173.41 189.60 C 169.27 188.05 168.45 181.59 172.18 179.16 C 175.52 177.21 179.57 177.45 183.28 176.92 C 183.08 175.59 182.90 174.27 182.72 172.95 C 178.51 171.65 174.75 174.96 170.50 174.43 M 174.92 182.91 C 175.35 183.89 175.81 184.87 176.30 185.83 C 177.96 185.75 179.81 186.29 181.33 185.42 C 183.08 184.52 182.95 182.29 183.52 180.68 C 180.50 180.70 177.15 180.51 174.92 182.91 Z" />
<path d=" M 282.21 169.17 C 287.21 166.89 295.36 167.88 296.39 174.37 C 292.04 175.05 288.29 171.05 284.03 172.93 C 284.07 173.64 284.16 175.06 284.20 175.77 C 287.71 176.96 291.53 177.38 294.79 179.23 C 298.30 181.71 296.74 187.52 293.11 189.10 C 287.82 191.67 279.12 190.79 277.70 183.98 C 280.71 183.80 283.57 184.67 286.29 185.89 C 288.16 187.09 292.09 185.77 290.95 183.15 C 287.66 180.96 283.25 181.32 280.12 178.84 C 277.00 176.08 278.51 170.61 282.21 169.17 Z" />
<path d=" M 303.45 170.44 C 307.88 166.50 316.12 167.56 318.87 173.00 C 320.16 175.33 320.01 178.07 320.13 180.63 C 315.20 180.59 310.27 180.50 305.35 180.77 C 305.84 183.20 306.98 186.30 310.03 186.10 C 313.41 185.27 316.62 183.60 320.22 183.85 C 317.74 192.08 304.53 192.65 301.05 185.01 C 299.09 180.31 299.46 174.00 303.45 170.44 M 305.37 176.94 C 308.60 177.10 311.85 177.08 315.09 176.85 C 313.99 174.87 312.89 171.98 310.11 172.30 C 307.37 172.13 306.08 174.72 305.37 176.94 Z" />
<path d=" M 330.42 171.57 C 332.32 169.97 334.29 167.88 337.00 168.09 C 340.12 167.93 343.42 169.90 343.95 173.15 C 344.91 178.71 344.37 184.40 344.31 190.01 C 342.47 190.00 340.65 189.99 338.82 189.99 C 338.60 185.15 339.13 180.26 338.45 175.44 C 337.75 171.57 330.95 172.15 330.84 176.07 C 330.20 180.64 330.64 185.27 330.62 189.87 C 328.72 189.93 326.83 189.99 324.94 190.05 C 324.77 182.88 324.79 175.70 324.93 168.53 C 326.58 168.59 328.25 168.65 329.91 168.72 C 330.04 169.44 330.30 170.86 330.42 171.57 Z" />
<path d=" M 354.21 169.17 C 359.22 166.88 367.35 167.88 368.40 174.37 C 364.05 175.06 360.29 171.05 356.03 172.94 C 356.07 173.64 356.16 175.06 356.21 175.77 C 359.71 176.96 363.53 177.38 366.79 179.23 C 370.30 181.71 368.74 187.52 365.11 189.10 C 359.81 191.66 351.12 190.79 349.70 183.98 C 352.71 183.80 355.57 184.67 358.29 185.89 C 360.16 187.08 364.08 185.77 362.95 183.16 C 359.67 180.95 355.24 181.33 352.12 178.84 C 349.00 176.08 350.51 170.61 354.21 169.17 Z" />
<path d=" M 380.37 168.32 C 384.19 167.68 388.61 168.82 390.89 172.15 C 393.32 175.81 393.46 180.76 391.81 184.77 C 388.78 191.89 377.16 192.26 373.43 185.62 C 369.89 179.45 372.37 169.17 380.37 168.32 M 380.32 173.08 C 376.94 175.47 377.05 180.80 378.92 184.11 C 381.07 187.42 386.59 185.71 386.85 181.85 C 388.32 177.73 385.67 170.62 380.32 173.08 Z" />
<path d=" M 403.91 170.06 C 406.25 169.07 408.67 168.29 411.19 167.90 C 411.27 169.49 411.33 171.09 411.38 172.69 C 408.85 173.40 404.89 173.01 403.96 176.14 C 403.11 180.66 403.66 185.30 403.62 189.87 C 401.72 189.93 399.83 189.99 397.94 190.04 C 397.78 182.84 397.77 175.62 397.95 168.42 C 400.03 168.52 402.14 168.86 403.91 170.06 Z" />
<path d=" M 146.30 168.57 C 148.22 168.55 150.15 168.56 152.08 168.57 C 153.68 173.77 154.88 179.09 156.55 184.27 C 158.78 179.32 159.74 173.93 161.21 168.72 C 163.18 168.63 165.15 168.59 167.12 168.55 C 164.98 175.80 162.35 182.88 159.83 190.01 C 157.67 189.98 155.52 189.93 153.36 189.86 C 151.09 182.73 148.21 175.80 146.30 168.57 Z" />
<path d=" M 245.33 266.42 C 249.85 265.72 254.44 266.04 259.00 265.99 C 305.00 266.00 351.00 266.00 397.00 265.99 C 401.56 266.04 406.16 265.72 410.68 266.42 C 418.62 267.72 425.17 274.38 426.77 282.19 C 427.68 286.73 427.30 291.40 427.36 296.00 C 427.34 344.35 427.36 392.69 427.35 441.04 C 427.27 446.84 425.23 452.85 420.96 456.92 C 416.84 460.38 411.49 462.54 406.07 462.41 C 353.69 462.35 301.31 462.40 248.94 462.38 C 241.85 462.12 234.39 458.39 231.26 451.78 C 229.35 448.17 228.59 444.06 228.62 440.01 C 228.72 389.00 228.58 337.99 228.68 286.97 C 228.49 277.34 235.67 267.95 245.33 266.42 M 250.38 276.44 C 246.62 277.41 242.98 280.23 242.22 284.21 C 241.18 288.68 244.18 293.09 248.23 294.80 C 254.53 297.99 264.08 294.40 264.90 286.92 C 265.75 279.43 256.95 274.46 250.38 276.44 M 399.37 277.43 C 395.62 278.42 391.98 281.23 391.22 285.21 C 390.16 289.68 393.19 294.09 397.23 295.80 C 403.52 298.99 413.08 295.39 413.90 287.91 C 414.75 280.42 405.95 275.47 399.37 277.43 M 318.08 314.07 C 304.78 316.78 292.98 325.49 286.13 337.16 C 279.95 347.47 277.92 359.98 279.78 371.80 C 279.51 373.92 279.34 376.11 280.00 378.19 C 282.67 387.80 287.99 396.78 295.58 403.30 C 302.52 408.65 310.48 413.10 319.22 414.54 C 328.63 416.04 338.60 415.31 347.33 411.31 C 359.36 405.88 369.69 396.04 374.30 383.51 C 377.10 375.42 378.83 366.47 376.87 358.00 C 375.24 345.51 369.52 333.41 359.90 325.12 C 348.73 315.11 332.74 310.90 318.08 314.07 M 248.37 431.43 C 244.62 432.41 240.98 435.23 240.23 439.20 C 239.18 443.68 242.18 448.09 246.23 449.80 C 252.53 452.99 262.07 449.39 262.91 441.91 C 263.75 434.43 254.95 429.47 248.37 431.43 M 399.37 431.44 C 395.62 432.42 391.97 435.22 391.22 439.20 C 390.17 443.68 393.18 448.09 397.24 449.80 C 403.53 452.99 413.07 449.39 413.90 441.92 C 414.76 434.43 405.95 429.46 399.37 431.44 M 244.73 460.51 C 251.15 460.95 257.58 460.66 264.00 460.73 C 295.33 460.74 326.67 460.73 358.00 460.73 C 375.75 460.59 393.51 461.03 411.25 460.52 C 406.52 459.97 401.75 460.10 397.00 460.16 C 351.34 460.16 305.67 460.16 260.00 460.16 C 254.91 460.12 249.80 459.95 244.73 460.51 Z" />
</g>
<g id="#303030ff">
<path fill="#303030"  d=" M 107.16 412.15 C 107.08 409.59 110.22 410.17 111.93 409.98 C 150.63 410.36 189.33 410.49 228.04 410.88 C 228.01 412.53 228.01 414.18 228.01 415.83 C 189.34 415.59 150.68 415.27 112.01 415.03 C 111.98 420.46 112.04 425.90 111.95 431.34 C 110.30 431.51 108.64 431.53 106.99 431.38 C 107.13 424.97 106.73 418.54 107.16 412.15 Z" />
<path fill="#303030"  d=" M 244.73 460.51 C 249.80 459.95 254.91 460.12 260.00 460.16 C 305.67 460.16 351.34 460.16 397.00 460.16 C 401.75 460.10 406.52 459.97 411.25 460.52 C 393.51 461.03 375.75 460.59 358.00 460.73 C 326.67 460.73 295.33 460.74 264.00 460.73 C 257.58 460.66 251.15 460.95 244.73 460.51 Z" />
</g>
<g id="#dc1e28ff">
<path fill="#dc1e28"  d=" M 127.49 423.49 C 130.25 422.70 133.17 423.02 136.01 423.01 C 166.68 423.36 197.35 423.35 228.02 423.75 C 228.00 425.13 227.98 426.50 227.96 427.89 C 195.74 427.68 163.51 427.48 131.29 427.30 C 131.10 431.20 131.58 435.16 130.95 439.03 C 130.80 439.59 130.50 440.71 130.35 441.27 C 129.58 441.08 128.04 440.71 127.27 440.53 C 127.06 437.34 126.95 434.14 126.93 430.95 C 126.94 428.46 126.83 425.92 127.49 423.49 Z" />
</g>
<g id="#eaeaeaff">
<path fill="#eaeaea"  d=" M 103.13 430.99 C 104.41 431.13 105.70 431.26 106.99 431.38 C 108.64 431.53 110.30 431.51 111.95 431.34 C 114.58 431.06 117.24 430.96 119.89 431.00 C 120.10 440.62 120.10 450.25 119.89 459.87 C 114.30 460.15 108.70 460.14 103.11 459.87 C 102.90 450.24 102.88 440.61 103.13 430.99 Z" />
<path fill="#eaeaea"  d=" M 123.12 431.06 C 124.39 431.02 125.66 430.98 126.93 430.95 C 126.95 434.14 127.06 437.34 127.27 440.53 C 128.04 440.71 129.58 441.08 130.35 441.27 C 130.50 440.71 130.80 439.59 130.95 439.03 C 131.68 436.44 131.86 433.74 132.05 431.07 C 134.66 431.00 137.28 430.99 139.89 431.02 C 140.10 440.63 140.10 450.26 139.89 459.87 C 134.30 460.15 128.70 460.15 123.11 459.87 C 122.89 450.27 122.89 440.66 123.12 431.06 Z" />
<path fill="#eaeaea"  d=" M 447.17 477.66 C 448.60 477.32 448.83 479.76 447.77 480.33 C 446.34 480.66 446.11 478.22 447.17 477.66 Z" />
</g>
<g id="#2e3230ff">
<path fill="#2e3230"  d=" M 447.37 470.42 C 453.05 468.08 460.08 472.00 461.07 478.06 C 462.32 483.74 457.79 489.79 451.99 490.19 C 446.56 490.86 441.20 486.44 440.81 480.99 C 440.29 476.51 443.14 471.94 447.37 470.42 M 453.36 475.14 C 450.26 476.35 450.31 481.60 453.39 482.80 C 456.00 484.26 459.59 481.99 459.47 479.01 C 459.65 475.98 456.02 473.58 453.36 475.14 M 444.27 477.57 C 443.29 478.34 443.46 480.46 444.87 480.62 C 446.85 480.47 446.22 476.49 444.27 477.57 M 447.17 477.66 C 446.11 478.22 446.34 480.66 447.77 480.33 C 448.83 479.76 448.60 477.32 447.17 477.66 Z" />
</g>
<g id="#fb9074ff">
<path fill="#fb9074"  d=" M 453.36 475.14 C 456.02 473.58 459.65 475.98 459.47 479.01 C 459.59 481.99 456.00 484.26 453.39 482.80 C 450.31 481.60 450.26 476.35 453.36 475.14 Z" />
</g>
<g id="#0e7b85ff">
<path fill="#0e7b85"  d=" M 444.27 477.57 C 446.22 476.49 446.85 480.47 444.87 480.62 C 443.46 480.46 443.29 478.34 444.27 477.57 Z" />
</g>
</svg>
