<svg xmlns="http://www.w3.org/2000/svg" width="600" height="308" viewBox="0 0 600 381"><style><![CDATA[.B{fill:#232323}.C{stroke:#232323}.D{fill:#eb543e}.E{stroke:#eb543e}.F{fill:#fff}.G{stroke:#fff}.H{fill:#d7d8de}.I{stroke:#d7d8de}.J{fill:#913d31}.K{stroke:#913d31}.L{fill:#e6e6e6}.M{stroke:#e6e6e6}.N{fill:#a9a9a9}.O{stroke:#a9a9a9}.P{fill:#2b3033}.Q{stroke:#2b3033}.R{fill:#cbcccf}.S{stroke:#cbcccf}.T{fill:#78372e}.U{stroke:#78372e}.V{fill:#dedfe6}.W{stroke:#dedfe6}.X{fill:#b0b2b5}.Y{stroke:#b0b2b5}.Z{fill:#e7e8ee}.a{stroke:#e7e8ee}.b{fill:#0e94a5}.c{stroke:#0e94a5}.d{fill:#2a2f32}.e{stroke:#2a2f32}.f{fill:#ff772c}.g{stroke:#ff772c}.h{fill:#ff5200}.i{stroke:#ff5200}.j{fill:#505050}.k{stroke:#505050}.l{fill:#c9cacd}.m{stroke:#c9cacd}.n{fill:#575c64}.o{stroke:#575c64}.p{fill:#8b3c30}.q{stroke:#8b3c30}.r{fill:#bf4938}.s{stroke:#bf4938}.t{fill:#bababb}.u{stroke:#bababb}]]></style><g stroke-width=".1"><path d="M95.2 30.3c5.6.1 11.1-.2 16.6.1.8 1.4.3 3 .5 4.6v33.8H38.9c-5.3-.2-10.7 0-16 .3l-.1-7.3c5.3-.5 10.5 0 15.8-.3l.7-2.2h13.6v2.3h14.8l27.6-31.3m.7 20.8c-2.5-.8-5.5-.5-7.2 1.8-2.3 2.5-1 7.6 2.4 8.2v.8c3.8-.2 7.7 0 11.3-1.3 1.8-2.5 2.1-5.7.2-8.3l.2-.1c-2.2-1-4.5-1.8-6.9-1z" class="d e"/><path d="M96 51.1c2.3-.7 4.6 0 6.8 1l-.2.2-3 2.7-.9-1-2.8-2.9z" class="f g"/><path fill="#0f95a9" stroke="#0f95a9" d="M88.8 52.9c1.6-2.3 4.6-2.6 7.1-1.8l2.8 3a13 13 0 0 0-.2 4.9l-2.7 2.4-4.7-.3c-3.5-.6-4.7-5.8-2.3-8.3m1.3.4l-1.1 3 2 1.6-1.3 1.1 2-.2 1 1.6 3.5-1.8-1.3-.7c2.8-.8 1.5-3.1.9-5l-1 1.2-1.7-2.2c-.9.9-1.6 2.3-3 1.4z"/><path fill="#60b3be" stroke="#60b3be" d="M90 53.2c1.5 1 2.2-.5 3.1-1.4l1.7 2.2 1-1.3c.6 2 1.9 4.3-.8 5.1l1.2.7-3.5 1.8-1-1.6-2 .2 1.3-1.1-2-1.5 1-3.1m2.2 2c-.6 1.6 0 2.2 1.6 1.7.6-1.6 0-2.2-1.6-1.7z"/><path fill="#ffb791" stroke="#ffb791" d="M99.6 55l3-2.7c2 2.6 1.6 5.8-.2 8.3l-2.5-3.4-.3-2.2z"/><path d="M98.7 54l.9 1 .3 2.2-1.4 1.8a13 13 0 0 1 .2-5z" class="h i"/><path fill="#078c9f" stroke="#078c9f" d="M92.2 55.2c1.6-.5 2.2 0 1.6 1.7-1.6.5-2.2-.1-1.6-1.7z"/><path d="M99.9 57.2l2.5 3.4c-3.6 1.4-7.5 1-11.3 1.3V61l4.7.3 2.7-2.4 1.4-1.8z" class="f g"/><path d="M17.2 62.2c1.8-.3 3.7-.3 5.5-.4l.1 7.3c-2.1-.5-5.2.8-6.6-1.2 0-1.9-1-4.6 1-5.7z" class="h i"/><path d="M38.9 68.8h13.9v25.9h-2a289.9 289.9 0 0 1-12 0v-26z" class="B C"/><path d="M52.8 84.3H76c1.2-.1 2.5.3 3.2 1.3l36.7 41.4v2.2h13.3v4.3h-13.4c-13.2-15.8-27.1-30.9-40.7-46.3H52.8v-2.9z" class="P Q"/><path d="M572.7 89.2h9.3v5.1h-9.2v-5z" class="h i"/><path d="M572.8 94.3h9.1v113.4c-4 0-8.2 0-12.3-.2v119.1H339.8v-159h229.7v31c1.1 0 2.2 0 3.3.2V94.3m-29.4 86.3c-.3-.8-1-2.3-1.2-3.1v3.7l3.4-1.1 2 1-1.8-3.8-2.4 3.3m6-1.7l-2.1-1.3c.5 1.7 2 2.6 3.3 3.5l.7-4-1.9 1.8m3.1-1.2l-1 2.7 3.9-2v3.2c1.7-1 1.6-2.5 1-4.1l-3.9.3m-13 7.2c2 1.7 4 3.2 6.6 3.4 4.4.4 9.4.5 12.8-2.6.3-2.2-2.2-3-4-3.5-5.1-.9-11.2-1.1-15.4 2.7m-191.3-.8c-.5 24.3 0 48.5-.3 72.7 0 2.6.2 5.3 1 7.8l.8.1c-.3 3.3-.4 6.7-.1 10l-1.1.7c5.8.8 11.6.3 17.5.4h94c15.5-.2 31.1.5 46.7-.3l-1-.8a31 31 0 0 0-.1-9.9l.8-.7c-.3-1.7-.4-3.5-.4-5.2v-75c-28-.3-56 0-84 0-24.6 0-49.2-.3-73.8.1m167.8 2.5l-.1 3c1.8-.1 3.6.1 5.5.4v-3.4l-4.2 1-1.2-1m6.4 3h2c.6-1 .4-1.8-.6-2.4-1.3-.5-2.4 1.4-1.4 2.3m3.8 0c1.8.3 1.8-3.3-.1-2.8-1.3.4-.9 2.3.1 2.8m-11.9 2.7l.8 4.1.6-.2 1.6-3.7.3 3.8 2 .4.1-4.5h-5.4m6.7-.4l.2 4.8 2-1.4 1.7 1.3-.2-4.6-1.8 2.6-2-2.8m4.9 0l-.3 4.6 3.7-2.1c-1-1-2.1-2-3.4-2.6m18.6.7c0 3.3 3.1-1.4 0 0m3.3-.6l-.2 3.4c2 0 4 .2 6 .4l.5-3.6-4.7.8-1.6-1m-8.5 7.5c.1 1.3.2 2.8.5 4.1 5.8 2.4 12.3 2 18.4 1.3 2.8-.3 5.1-1.7 7.3-3.4a14.3 14.3 0 0 0-7.2-3.4 39 39 0 0 0-19 1.3m-21.8.2l-.3 3.8 2.7-.8 2.2.7-.4-2.5-4.2-1.2m5.4.4l-.3 3.2c2.3-.2 5-.1 4.9-3.1l-4.6-.1m-7 5l-.2 4h1l.3-2 2.3 2.8v-5.2l-1.8 2.3-1.7-1.8m4.3.2l.3 4.2 3.2-.9-.2-3.4H522c0 1-.3 2.8-.5 3.7l-1-3.5-.5-.1m3.9-.6l.5 4.5 1.9-.7 1.5.6-.3-4.2-2.1 2.2-1.5-2.4m18.3 4l.9 2.6c2.2-.1 4.5-.2 6.7 0l.5-2.8H545l-.5 2-.2-2.2-2 .4m8.9-.4l.6 2.8.5-.1 1-2.6a5 5 0 0 0 3 3.4c0-.9-.3-2.6-.4-3.4h-4.7m-34.7 4.2v2.4l3.2.4-2.1-1.5v-.3l2-1.4c-.8 0-2.4.3-3.1.4m3.5-.6l-.1 3.1h5.6c1 .5 2 .5 3 0 .4-.9.3-1.6-.5-2.3-1 .1-1.7.6-2.3 1.5l.5-1.9c-1.6.1-3.1.2-4.7.5l-1.5-.8m19.4 3.3v3.6c7 2 14.6 2.4 21.8.7 1.4-.6 4-1.2 3.9-3.2-2.1-1.6-4.8-2.3-7.3-2.6-6.2-.7-12.5-.7-18.4 1.5m-24.8 2l.6 3.5 3.8.1.7-3.1 1 4.2c.8-1.5.9-3.2 1-4.8-2.3.1-4.7.2-7 .1m7.4-.5l.3 3.9h2.7l-.2-4-1.2 2.4-1.6-2.3m3.6 0l.1 5c1.3-.7 3-1 3.7-2.6-.5-1.7-2.4-1.9-3.8-2.4m17.7 5.5c-1.3.5-1.5 2.6 0 3.1 2.1 1 2.2-4.2 0-3.1m2.8.6c-.8 1.3-.5 2 .8 2.2.8-1.3.6-2-.8-2.2m2.4-.3c-1.4.8-.3 3.5 1.1 2.1 1.4-.8.3-3.4-1.1-2.1m1.8 2.8h3.7c1 0 2 0 3 .2l-.1-3.7c-1.5.1-4.7 3.9-4.4-.1l-2.3 3.6m-35.5-1.3c0 1.4.3 2.9.6 4.3l2.4-1.3 1.6 1.5.2-2.3c2.5 2.5 6.2 1 9.3 1.4l.7-2.3-2-1-.5 3c-.7-.7-1.2-1.5-2-2-1 .9-2 1.7-3.2 2.3v-1.9l-3-1.2-1.8 1.5-2.3-2m24.6 4.4v4.6a43.5 43.5 0 0 0 22.5-.2c1.8-.3 3.7-3 1-3.5a42 42 0 0 0-23.4-.9M516 232l1.7.4c.7-1 .4-2.7-.6-3.4-1 .3-1.6 2-1 3m2.4.7h4.2l-1.8-4.2-2.4 4.2m5-3.3c-.8.8-1 3.3.5 3.2.8-.8.9-3.3-.5-3.2m3.4 1.6l-2-2.4c0 1 .3 2.9.4 3.9l3 .3-.3-4.4-1.1 2.6m-8.7 6.6c.7 1 1.3 2.4 2.8 2.3.9-1 1.5-2.2 2.2-3.4l-5 1m27-1.3l.2 2.1 2.8-1.5-.2.7-2 1.5 3.4.4.8-3 2 2.7c.3-1 .5-2.1.9-3.1l-7.8.2m-22.1 3.3c1.2.7 2.4-1.4 1.6-2.3-1.2-.6-2.4 1.4-1.6 2.3m-6.8 1.4l-.5 4.5c2.4 0 4.8-.2 7.3-.1-.8-1.4-1.4-2.8-2.3-4.2l-1 2.4-.5.1c-.4-1.5-1.9-2-3-2.7m23 1.3v4.5c8.1 2 17.9 3.2 25-2-1.6-1.3-3.2-2.6-5.3-3a41.9 41.9 0 0 0-19.6.5m-16.2 2.5h.6v-2.3c-1.2.2-1.5 1-.6 2.3m1.5-3.5l.1 5 1.7-2.3.8 1.6c1-1.2 2.6-1.6 4-2.2-.8 0-2.3.3-3 .4l-.3-2.1-1.5 1.2-1.8-1.6m-5 7.3l-.2 3 2 .2.6-1.9 1.5 2.2 1-3.5c-1.6-.2-3.3-.3-5 0M517 254v3.9c2.5 0 5.1-.6 7.6.4-1-1.4-1.8-3-2.4-4.7l-1.6 3.9c-.3-2.2-1.1-3.8-3.6-3.5m8.5.2l-.8.8v.6c.3 1 1.1 2 2.2 2 1-1 .5-4-1.4-3.4m15.6 1.9c-2.3.3-1.4 3-2 4.6a35.5 35.5 0 0 0 24.3-.4c2.6-1 .1-3.6-1.6-4-6.7-2-14-2-20.7-.2m-145.3 23.4c1 3.4 2.3 6.8 3.5 10.3h2.6c1.2-3.5 2.4-7 3.3-10.5l-2.3.3-2.3 7.8-2.3-8h-2.5m63.8 0v10.4h2v-3c2.5 0 6-.5 5.9-3.8-.3-4-5-3.6-8-3.6m9.8 0v10.5l2-.2.2-4.2c2 .8 2.8 2.6 3.8 4.3h2.3l-2-3.7c1.1-1.4 2-3 1.4-5-1.8-2.2-5.1-1.5-7.7-1.7m24.7 4c1.5-1 5-4.1 5.2-.4-1.8 2.3-4.2 4-5.6 6.7 2.5 0 5 .3 7.5 0l.6-1.6-4.6-.2c1.5-1.8 4.2-3.3 4.3-5.9-.7-4.3-8-3.1-7.4 1.4m-69.8-2.9l-3 3.1c-1.1-3-4.6-1-7-1.4l.2 8c4.2-.3-.2-7.1 4.8-6.7l.2 6.4 2-.2v-4.4l2-2.3c.3 2.2.4 4.4 1 6.5 1.2.2 2.4.3 3.6.2a7.7 7.7 0 0 1-2-5.5l2.1-1.2c-1-.8-2-1.9-2.7-3l-1.2.5m56.3 0c-3 2.7-2 9 2.5 9.5 3.9.9 6.6-3.4 5.5-6.9-.5-3.6-5.5-5-8-2.6m-75.3 3.7c2-.1 4.1-1.3 5.8.3-2.1.6-6.5.7-5.4 4 1.4 2.2 4.6.7 6.8 1.2 0-2.2.2-4.4-.3-6.6-1.7-2.4-5.6-1.4-6.9 1m23.8.2l5-.8-.7 2.3.3.5c.8 1.6-1.5 1.7-2.4 2l.2-2.3v-1.1l-2 1.3c-2 4.5 3.9 3.4 6.5 3.5 0-2.1.1-4.3-.2-6.4-1.6-2.5-5.9-1.9-6.7 1m8.8-.6c-1 2.4.1 6.9 3.5 5.5 1.8-1-1.1-1.7-1.6-2.2l.2-3.1 2.7-.3a61.6 61.6 0 0 1 .2 7.3l-5.6-.3a5 5 0 0 0 7.5 1c.8-3.1.3-6.4.4-9.5-2.4.5-6.1-1.3-7.3 1.6m10.6 5.8c2.2 1.3 4.9 0 6.1-2-2.2 0-4.8 1.6-6.3-.8 2-.3 4.1-.4 6.3-.5-.5-1.9-1.1-4.3-3.5-4.4-4.2-.8-5.8 5.5-2.6 7.7m81.7 8.7a8.5 8.5 0 0 0-4.3 9.7c.6 2.3 2.5 3.8 4.2 5.3 3.1 1 6.7.7 9.6-1l-.9 1.2c4.2 1 9.2-.4 10.7-4.9l.3-.4c2.5-6.2-5-12.6-10.9-9.9-2.8-.6-6-1.6-8.7 0z" class="B C"/><path fill="#292929" stroke="#292929" d="M36 99.2c1.3-1.9 2.7-4 5-4.4H51c2 .2 3.4 2.1 4.6 3.7 2 5.2.8 11.4-4 14.6a16.5 16.5 0 0 1-11 0c-4.5-3-5.7-8.8-4.4-13.9z"/><path fill="#434343" stroke="#434343" d="M25.7 98.7c3.3-1.8 7-1.2 10.5-.5l-.1 1c-1.3 5.1-.1 10.8 4.5 13.9-3.2 5.3-10.9 6.5-15.8 3-5.8-3.9-5.5-14.2 1-17.4z"/><path d="M55.5 98.5c3.5-1.1 7.5-1.7 10.8.2 6.4 3.2 6.7 13.6 1 17.5-5 3.4-12.6 2.1-15.9-3.1 5-3.2 6-9.4 4.1-14.6z" class="j k"/><path d="M116 127c.4-2-1.2-6.2 2-6.2 3.6 0 7.3-.5 10.8.3 1.5.7 1 2.5 1.2 3.8l-.1 122.8-1.2-1.7c-.6-5-.3-10-.3-15l-.1-86.2h-12.4v-11.3h13.3v-4.3H116V127z" class="l m"/><path d="M116 144.8h12.3V231c.1 5-.2 10 .4 15l1.2 1.7.2.2c-4.8-.7-9.5-.3-14.3-.2l.1-102.8z" class="L M"/><path fill="#838383" stroke="#838383" d="M151.2 147.2h3v29.5h-3v-29.5zm9.6-.1l4.3.1-.2 29.5h-4.1V147zm16.2.1h3v29.5h-3c.3-9.9-.3-19.7 0-29.5zm11.3 0h3.7v29.5h-3.6v-29.5zm12.7 0h3.6v29.5h-3.5c-.3-9.8 0-19.7-.2-29.5zm12 0h4.2v29.5h-4.1l-.2-29.5zm13.2 0h4.2v29.5h-4.2v-29.5zm13.2 0h4.2v29.5h-4.2v-29.5zm12.6 0h4.2v29.5H252c.2-9.8.2-19.7 0-29.5zm15.6-.1h3.6l.1 29.6h-3.7v-29.6z"/><path fill="#ec553e" stroke="#ec553e" d="M286.7 167.7h23l-.1 7.1c-7.4-.3-15-1.1-22.2.4-.7-2.4-.7-5-.7-7.5z"/><path d="M287.4 175.2c7.2-1.5 14.8-.7 22.2-.4 2 .3 4.2.3 6.3.3-1.8 1-3.8 1.2-5.7 1.7h5.6a92 92 0 0 0-.2 7.6c-9.6-.7-19.3-.5-29-.2h-.4V271c-3.1.9-1.4 4.6-1.9 6.9l-.3 29.2c-8.1.2-16.2 0-24.4.1H130.1l-3.9-.3c-3-.6-7.3 1.3-9.3-1.8-1.2-11-.1-22.1-1-33.2v-3c1-.8 1.6-2.4 3-2.5 5.8-.8 11.5 0 17.2 0h3.7c0-4.4-.4-8.7-.2-13 0 4.6.2 9.4.8 14 .4-5.6.4-11.3.4-16.9v-.5c2-1.1 4-2.3 6.3-2h33.2c-19.2-18.4-27.2-45.3-29.2-71.1h3.1l6.6-.1h110.5c-2 25.9-10 52.9-29.3 71.2h29c1.5 0 4.4-.4 4 2 .3 6 0 12.2 0 18.2l1.6.5v-93.1h9.9l.9-.3m-57 105.8c-.6 5.2 5.3 6 8.8 7.8 2.2.9.8 3.9-1.1 4-2.6 1-4.7-.7-6.3-2.6l-4 .1c1 5 6.5 7.4 11.2 6 4-.7 7.1-5.4 5-9.2-2.2-3.4-7.7-2.3-9.4-6 1.3-3.8 6.5-2.7 8 .4h3.7c-.7-8.2-14.6-8.5-15.9-.5m-68.3-5.3l-4.3 20.3c4.4-.2 9 .6 13.3-.8 6-2.6 8.3-10.9 5.1-16.3-3.2-4.5-9.4-3-14-3.2m27 0L177.5 296h4.5l2.4-4.7h7.3l.5 4.7h4.4l-2.6-20.2-5-.1m12 0l2.6 20.3h5.2l11-20.3H215c-2.6 5.3-5.1 10.5-7.9 15.6l-1.5-15.5-4.5-.1m22.2.3c-1.7 6.6-2.9 13.4-4.4 20l4.5-.1c1.2-6.8 2.9-13.6 4.2-20.4l-4.3.5m47 16.6l.1 1.3a6 6 0 0 0-9.2 3.1c-1.5 5 5 9.5 9 6.2.3 3 4-.1 5.7-.4 2-2.7 2-6 0-8.5-1.8-.8-3.6-1.6-5.6-1.7z" class="P Q"/><path d="M543.4 180.6l2.4-3.3 1.7 3.8-2-1-3.3 1.1v-3.7l1.2 3.1z" class="H I"/><path d="M549.4 179l1.9-2a566 566 0 0 1-.7 4.1c-1.4-.9-2.8-1.8-3.3-3.5l2.1 1.3z" class="F G"/><path d="M552.5 177.8l3.9-.3c.6 1.6.7 3.1-1 4v-3l-3.9 2 1-2.8z" class="R S"/><path d="M539.5 185c4.2-3.8 10.3-3.6 15.5-2.7 1.7.5 4.2 1.3 4 3.5-3.5 3-8.5 3-12.9 2.6-2.6-.2-4.7-1.8-6.6-3.4m6.9-1.5v4.2a137 137 0 0 0 1.8-3.4l3.3 1.1v-1.6l-5.1-.3z" class="n o"/><path d="M546.4 183.5c1.7 0 3.4.2 5 .3v1.6l-3.2-1.1a137 137 0 0 1-1.7 3.4l-.1-4.2z" class="V W"/><path fill="#333434" stroke="#333434" opacity=".3" d="M286.6 184.2c9.7-.3 19.4-.4 29 .2-4.7 1.2-9.7.4-14.6.6-4.8-.2-9.7.6-14.4-.8z"/><path fill="#001a1e" stroke="#001a1e" d="M348.2 184.2l73.7-.2 84 .2v1.2H349.4l-.2 76.7-.3 2.6c-.7-2.5-1-5.2-.9-7.8l.3-72.7z"/><path d="M349.3 185.4H506V259c0 1.7.1 3.5.4 5.2-25.8-.5-51.6 0-77.4-.2-8.4-.2-16.9.5-25.2-.7h2.6c.4-9 0-18 .2-27-9-.3-18 .3-27-.3 4.8-1.6 10-3 13.8-6.6 3.9-3.3 6-8 7.6-12.8l4.6-1-3.8-.8a25.8 25.8 0 0 0-23.8-26.5 25 25 0 0 0-22.2 16.5A22.6 22.6 0 0 0 361 228c4 4.5 9.8 6.3 15.3 8-8.7 1-17.6-.6-26.3.8-.4 8.8-.8 17.9.5 26.7l-1.7 1.2.3-2.6.2-76.7M452 196.8c0-2 0-3.8-.2-5.7-4.2-1-2 4.6.2 5.7m3.4-5.5c.5.5.5.5 0 0m4.4 3.6l4.5 1.4-.4-5.3c-2.4-.6-2.9 2.5-4.1 3.9m5.4.6l4 .3-.5-4.8c-2.8-.2-3.6 2.2-3.5 4.5m7.2-3.7l1.3 4.2.8-.3-.4-2.6c.8 0 2.2-.3 3-.4v3.5h1c0-1.8 0-3.6-.2-5.4l-1.5 1.7-2-1.6-2 1m8.7 3.2l-2 .4 6.2.2c-.4-1.6.4-4.9-2.1-4.6-2 .2-1.6 2.7-2.1 4m4.6-3c1 1.7 1.9 3.3 3.3 4.7 0-2 0-4-.2-5.9-1 .3-2.1.8-3.1 1.3m-32.7-.4l.4 4 4-.1c-.2-2.4-2.7-3-4.4-4m5.4 1.5c.5.5.5.5 0 0m0 2.1c.5.5.5.5 0 0m-48.6 6.9c-.8.8-.2 2.6 1.1 2.4 1.9-.6.6-4-1-2.4m3 0l-.4 2.7 1 .8 1-1c2.9.5 7 1.2 8-2.5h-9.6m10.8.2l-1 2.3 2.2 1 1.8-1.5 1.9 1.6 2-3 1 2.4 1.3-3c-3.1.4-6.2.1-9.2.2m15.9.3l-.1 1.7 10.6.7v-2.7h-4.7l-1 2.1-.4-2.2-4.4.3m12.2-1c0 1.2-.5 2.5.2 3.5 2 .2 4-.1 6-.2l.4-2.4 1.1 2.6 1.4-3.2c-1.9.2-4 0-4.4 2.5l-.6-2.4-1.4.7-2.7-1m15.6.6c-1.3 1-.1 3.8 1.4 2.6 1.3-1 .1-3.8-1.4-2.6m3.8-.4l-1.8 3.3 6.4-.4 3.4.5V202l-5.9.2-.6 1.5-1.5-1.8m9 .8c-1.8 3 4.7 3 2.8 0-.5-.1-1 0-1.6 0h-1.2m3.3-.7c.3 1.6.7 3.2 2 4.3l.9-4.3h-3m3.5 0l.3 3.4 1.7-2.7.7 2.9 2-3.4-4.7-.2m5 0v3.6c2-.1 2.9-1.7 3.4-3.4l-3.4-.2m-37.2 16.5c4-2.8 6-7.3 8.2-11.4-3.8 2.9-6 7.3-8.2 11.4M469 210c-1 3.2 3.4 5.3 5.6 3l-3.5-1.3c-.8-2.2 1.4-3.8 3.2-2.2.2 2.1.9 4.5-.4 6.4l-5.3-.8c1.3 1 2.5 3 4.5 2.6 3.8-.3 4.8-5.4 3.2-8.3-1.1-3.2-6.7-3-7.3.6m10.8 3.3c.8.4 3.3 1.9 3 0a78 78 0 0 1-2.2-2.3c-.1-2 1.9-1.9 3.3-2.2.6 2.3 1.4 4.9 0 7-2 0-3.7-.5-5.5-.8 1.2 1.3 2.5 3.1 4.5 2.7 5.5-.6 5-11.2-.9-10.5-3 0-4.5 4.1-2.2 6m9.6-6l-.6 6.3c3.4.3 1-2.5 2-4.4l5.7-.4c-1.7-2.3-4.8-1.1-7.1-1.5m-83 4.1c1.8-.4 3.5-2.2 5.5-1.3-.3 3.5-4.1 5.2-5.6 8.1h8.3c-.9-2-3-1.5-4.6-1.7 1.5-2 5.6-4.7 3.2-7.5-2.5-2.3-6.1-.5-6.9 2.4m14-.1c2-.4 4.9-3 5.9.2l-3.6 1.8 3.3 1.2c.7 4.2-4 1-6.1 1 1.4 2.8 5 4.2 7.7 2 1.4-1.4 0-3-.3-4.6 0-1.4 1.3-3.6-.5-4.3-2.5-1.7-5.7 0-6.5 2.7m18.8 7c2.5 0 4.5-3 3-5.2-1.1-2.3-4-1.3-5.9-1.2l1.4-2.5 5.2 1.1c-1.1-1-2-2.7-3.7-2.8-6.1-.5-6.2 11.3 0 10.6m5-10.2c.7 2.3 3.4 1.2 5.2 1.5-1.3 3-2.8 6-4.2 8.9 4-.8 4.6-5.6 5.9-8.8 1.8 1.8 3.8 3.4 6.4 2.8.3-2.3-.1-4.8-2.9-4.8l-2.6 2c-1.2-3.3-5.4-1.5-7.9-1.6m48.3 3.2c.2 1 .8 1.8 2 2.1l-.6 2.5c-1.9 0-3.6-.8-5.4-1.2 1 3 5 4.3 7.2 1.8 2.1-2.1-.1-6.7-3.2-5.2m-30.7 2.1c-2.6.6-1.3 3.5-.7 5.1l3-.9c1.9-1.8.3-5-2.3-4.2m-45.1 3c-1.2 1.4 1.3 3.2 2.3 1.7s-1.4-3.2-2.3-1.7m6.4 3.9c-.5 2.6 1.5 3.9 3.7 4.6l-2.7 2.7 3.5-.6c.5 2.6-1.5 7 1.9 8 .4-3.5.6-7 .4-10.5a11.4 11.4 0 0 1-2.4-4l-4.4-.2m16.2.2l-.2 3.4-4.3.8c1.1 2.2 3.8 1.4 5.7 1.8-1.4 2.9-2.9 5.7-4.2 8.6 3.9-.5 4.5-5.2 6.1-8.2l1.1-2.7 7.3-1-.9-2.2c-3.4-1-7-.3-10.6-.5m12.3.2c-1 .6-.9 3 .5 2.8 1-.6.9-3-.6-2.8m22.7-.7v4.1h6l1-1.4c1 3.3 5-2.1 1.4-1.9-2.7-.8-5.6-.9-8.4-.8m-21.1 1l1 3.4c-.2.5-.6 1.6-.9 2-.2 2.5 2.1 3.6 4.2 2.6 1.2-1.8-.2-3.4-1-5l-.6-2.2-2.7-.7m-51.7 6.5c1.7-.6 3.4-1.3 5.2-1.8.8 3.8-3.8 5.6-5.3 8.6 2.7.2 5.4.3 8.2-.1-.7-1.8-3-1.2-4.4-1.6 1.3-1.8 3.4-3.2 3.9-5.4.2-2.4-2.6-3.5-4.6-3-1.7.2-2 2.2-3 3.3m13.4-3.2a63.3 63.3 0 0 0-4.4 8.2l4.8.3 1.8 1.8 2.4-2.8-1.7-1.3.1-6-3-.2m29.3 3.6c1.9-.4 5.7-3.7 5.5 0-1.8 2.3-3.9 4.3-5.6 6.7 2.6 0 5.2.3 7.8 0 1.1-2.3-3-1.1-4.2-1.8 1.8-2 5.7-4.5 3.4-7.5-2.6-2-6.1-.4-6.9 2.6m11.2 7.4c3.6-3 6-7.3 8-11.5-3.8 3-6 7.3-8 11.5m23.8-2.5l4.8.3 1.3 1.7c1-.7 1.8-1.5 2.7-2.4-1.8-2.3-1.3-5.4-1.5-8.2-4.5.2-5.6 5.3-7.3 8.6m-6-2.8c0 2.6 3.3 1 5 1.5l-.6-1.9-4.3.4m-13 2c-.5 2.4 2.9 4 4.4 2.3 1.4-1.3 0-3.2 0-4.7-1.5.5-4.5.3-4.3 2.4m-38.7 0c-2 .4-1 3.5.8 2.9 2-.4 1-3.6-.8-2.9m-9.3 11c-.3 1.2-.3 2.4-.4 3.7 3.5-.6 6.9-.2 10.3 0 2.1.2 1.5-2.7 2-4l-2.2 3c-1.9.9-1.9-1.7-2.7-2.7l-1.3 2.6a309 309 0 0 1-1.6-2.2l-1.4 1.2c-.9-.6-1.8-1.2-2.7-1.6m14.3.4c-1.3 1 0 3.8 1.5 2.5 1.3-1 0-3.7-1.5-2.5m29.8-.2l-.2 3.2 2.7-.6c2.6.6 5.3.8 8 .8v-3.1h-4l-1.3 1.4-.4-1.4-4.8-.3m17.6 0l2 3.8.8-3.4c.4 1.5.7 3.2 2.3 4l.1-4.7-5.2.3m-44.4 1c-.6 1.6-.1 2.2 1.5 1.7.6-1.6 0-2.2-1.5-1.8m4.9.1c-.4 1.4.2 2 1.6 1.6.3-1.4-.2-2-1.6-1.6m-25.7 7.6l3.3-1c.2 2.9-1 6.5 1.7 8.4.3-3.8.3-7.6.1-11.3-2.2.6-4.2 1.8-5.1 4m7 0l3.5-1.3v8.3l1.9-.8c.3-3.5 0-7 0-10.4-2.2.8-4.2 2-5.4 4.2m12.6-.4c1.7-.6 3.4-1.4 5.2-1.7.9 3.7-3.9 5.5-5.3 8.5 2.6.1 5.3.3 7.9 0 .2-2.3-3-1-4.2-1.7 1.5-2 4.8-4 3.7-6.9-2-2.9-6.6-1.5-7.3 1.8m40.2.4l3.3-.9v7.7h1.9l-.1-10.6c-2.1.7-4.1 1.7-5 3.8m11.8 5l5 .1 1 2 2.9-3-1.7-1.4v-6.4c-4.5.3-5.7 5.3-7.2 8.7m19.2-5.9l1 4 1.4-2 1.5 1.8.5-2.5-1.6.6-2.8-1.9m-62.3 1l.1 2.5h7.5l.4-2.5h-8m53 .2v3c.8-.6 1.7-1.2 2.5-2 .8 2 2.3 1.3 3.7.6l2.8 2.1-.8-3.3c-2.7-.5-5.5-.4-8.3-.4m-65.8 4.1c-1.6 1 .2 3.4 1.7 2.3 1.5-1-.3-3.4-1.7-2.3m53-.1c-2 .4-1.2 3.6.7 3 1.8-.5 1.1-3.6-.8-3m-39.6 3.3c-1 1-.1 3.1 1.4 3.1 2-.4.4-4.3-1.4-3.1m3.1-.3c-1 .8.1 3 1.4 2.3 1-.9-.1-3-1.4-2.3m5.6.1c-1.1.7-.3 3.3 1 2 1.2-.7.4-3.2-1-2m4 0l.2 3.2.7-2.5h1.1v2l2.5-1 1 2 .2-2.3-5.7-1.4m7.8.3v2.8c2.1 0 4.7.3 4.5-2.7l.8 3.4 1-4-6.3.5m8.2 0c-1 1.2-.7 1.8.7 2 1-1.2.7-1.8-.7-2m-23 .5c-.6 1.7 0 2.3 1.6 1.8.6-1.7 0-2.2-1.6-1.8z" class="D E"/><path fill="#8a8a8a" stroke="#8a8a8a" d="M516 186.7l1.2 1 4.2-1v3.4c-1.9-.3-3.7-.5-5.5-.4l.1-3z"/><path fill="#969696" stroke="#969696" d="M522.4 189.7c-1-1 .1-3 1.4-2.4 1 .6 1.3 1.4.7 2.4h-2.1z"/><path fill="#868686" stroke="#868686" d="M526.2 189.6c-1-.5-1.4-2.4-.1-2.8 1.9-.5 2 3.1.1 2.8z"/><path fill="#272727" stroke="#272727" d="M355.8 204.8a25 25 0 0 1 22.2-16.5 25.8 25.8 0 0 1 23.8 26.4l3.8 1-4.6.9a27 27 0 0 1-7.6 12.8c-3.8 3.6-9 5-13.9 6.6 9 .6 18 0 27.1.4-.1 9 .2 18-.2 26.9h-2.6c-12.2-.9-24.5-.2-36.8-.4-5.5 0-11-.4-16.5.6-1.3-8.8-.9-17.8-.5-26.7 8.7-1.4 17.6.1 26.3-.9a30.8 30.8 0 0 1-15.3-8c-5.6-6-8.3-15.2-5.2-23.1m1 3c-1.5 6.5.7 13.2 4.6 18.4l2-4c.7 1 1.5 1.7 2.3 2.5l-4 1.7c1.9 1.8 4 3.4 6.2 4.8l.6-4.7.7 2.6 2.9-1.2-4 3.8c3.2.9 6.4 1.6 9.6 2.3l-.4-4.5c1.6 1 1.2 2.9 1.3 4.4 4.9-.9 9.9-2.2 13.6-5.7 4.6-3.9 6.9-9.9 7.5-15.8l-2.3.2-.2-2.3 2.3.7a22.6 22.6 0 0 0-6.3-14.1c-4.1-4.3-10-6.2-15.8-6.5l2 2.4h-1.6c-.4-1.6-1.3-2.3-2.7-2-9 1-16.7 8.2-18.3 17m-5 30v12.7c0 2.3 0 4.6.2 7h-.4l.5 4.1h6c9.4.2 18.9.2 28.3 0v-3.9l.1-1.1c-.2-1.8-.2-3.6-.7-5.3-2.3-1-5-.5-7.4-.7l-.3 2.4h-2v-2.2l1.2-.6 9 .4-1.2-5.3 1.4.6-.2-2.5-.1-5.6a491.2 491.2 0 0 0-18.4.3l-.1-.5-8.8.3h-.7l-6.4-.1m34.9 0v6h8v-6h-8m8.6 0v6h9l-.1-6h-8.9m-8.7 6.5l1 2.6-1.3 3.5h8.5c-.2-2.2.1-4.5-1.1-6.4l-2.2 2c3.1 1.2-.2 1.9-1.1 2.4l-.4-4.4-3.4.3m8.7-.1v6.2h8.9v-6.2h-9m-8.6 6.5c.1 2-.2 4.2.6 6.1 2.5 1 5-.6 7.6-.6l-.2-5.6h-8m8.8 0l-.2 6c3-.5 6 .4 9 1v-7h-8.8m-8.2 7.5c-.5 1-.6 2.2-.3 3.5a335 335 0 0 1 17 0l.4-4-4.2-.2-2.1 1.3-2.4-1.7-.6 4.1-.3-2.7c-2.4-.3-5.1-1.5-7.5-.3z"/><path d="M356.8 207.9a21.5 21.5 0 0 1 18.3-17.1c1.4-.3 2.3.4 2.7 2h1.5l-1.9-2.4c5.8.3 11.7 2.2 15.8 6.5 3.8 3.7 5.8 8.9 6.3 14.1l-2.3-.7.2 2.3 2.3-.2c-.6 6-2.9 12-7.5 15.8a25.6 25.6 0 0 1-13.6 5.7c-.1-1.5.3-3.4-1.3-4.4l.4 4.4c-3.2-.6-6.4-1.3-9.5-2.2l3.9-3.8-3 1.2c0-.7-.4-2-.6-2.6l-.6 4.7c-2.3-1.4-4.3-3-6.3-4.8l4.1-1.7-2.3-2.4-2 4a22.7 22.7 0 0 1-4.6-18.4m21.3-4.5c-1.1.9.1 3.4 1.5 2.4 1.1-1-.1-3.4-1.5-2.4m3.1 0l-.5 2.9 2.8-1 1.5 1 4.5-.5-1-2.6c-2.4-.3-4.9.1-7.3.3m-8 5l2.3 1-.2 3.2a84 84 0 0 1-1.7-.2l-1.7-2a101 101 0 0 0-.7 3.6c1.9 0 3.7.4 5.1 1.8l1.4-2c-.5-2.3-.8-4.7-1-7-1.2.4-2.3 1-3.4 1.5m8-.8c-2.5 2.1-2.1 7.9 1.7 8.5 5.5-.4 4-11.4-1.6-8.5z" class="D E"/><path d="M451.9 196.8c-2.3-1-4.4-6.7-.2-5.7.3 1.9.2 3.8.2 5.7z" class="p q"/><path fill="#422a27" stroke="#422a27" d="M455.3 191.3c.5.5.5.5 0 0z"/><path fill="#6e342c" stroke="#6e342c" d="M459.7 194.9c1.2-1.4 1.7-4.5 4.1-3.8l.4 5.2-4.5-1.4m2.5-1.6c.5.4.5.4 0 0z"/><path d="M465.1 195.5c0-2.3.7-4.7 3.5-4.5l.4 4.8-3.9-.3m2-3.3c-1.3.1-1.3 2.5 0 2.7 1.4-.2 1.4-2.6 0-2.7zm5.2-.4l2-1 2 1.7 1.5-1.7.3 5.5-1-.1-.1-3.5-3 .4.4 2.6-.8.3-1.3-4.2zm8.7 3.3c.5-1.3.1-3.8 2-4 2.6-.3 1.8 3 2.2 4.6l-6.3-.2 2-.4m2.2-3c-1.5.2-1.5 2.8 0 3 1.6-.2 1.6-3 0-3z" class="B C"/><path d="M485.6 192.2c1-.5 2-1 3.1-1.3.2 2 .2 4 .2 5.8-1.4-1.3-2.4-2.9-3.3-4.5z" class="p q"/><path d="M453 191.8c1.6 1 4 1.5 4.2 3.9h-4l-.3-4m1.4 2.4c.3 3.3 2.9-1.7 0 0z" class="B C"/><path d="M467.1 192.2c1.4.1 1.4 2.5 0 2.7-1.3-.2-1.3-2.6 0-2.7zm16-.2c1.6.1 1.6 2.9 0 3-1.5 0-1.5-2.7 0-3z" class="D E"/><path d="M514.3 192.3h5.4v4.4l-2-.4-.4-3.8-1.6 3.8-.6.1-.8-4.1z" class="H I"/><path d="M521 191.8l1.9 2.7 1.8-2.6.2 4.6-1.7-1.3-2 1.4-.2-4.8z" class="F G"/><path d="M525.8 191.6c1.3.7 2.4 1.5 3.4 2.6l-3.7 2 .3-4.6z" class="R S"/><path d="M544.4 192.3c3.1-1.4 0 3.3 0 0zm3.3-.6l1.6 1 4.7-.8a449 449 0 0 0-.5 3.6l-6-.4.2-3.4z" class="N O"/><path fill="#5e302a" stroke="#5e302a" d="M458.3 193.2c.5.5.5.5 0 0z"/><path d="M462.2 193.3c.5.4.5.4 0 0z" class="r s"/><path d="M454.3 194c2.9-1.6.3 3.4 0 0z" class="D E"/><path fill="#5e302a" stroke="#5e302a" d="M458.2 195.3c.6.5.6.5 0 0z"/><path fill="#5e646d" stroke="#5e646d" d="M539.2 199.2a39 39 0 0 1 19-1.4c2.7.3 5 1.8 7.2 3.4-2.2 1.7-4.5 3.1-7.3 3.4-6 .7-12.6 1-18.4-1.3-.3-1.4-.4-2.8-.5-4.2m1.8.9v2.3l4.5.1c3 0 6.3.7 9.2-.4l.7-2c-4.8 0-9.6.3-14.4 0m14.7.3c.4 1 .8 2 1.4 2.8l1.3-2.4 1.5 1.3.3-1.9-4.5.2z"/><path d="M517.4 199.3l4.2 1.2.4 2.5-2.2-.7-2.6.8c0-1.3 0-2.5.2-3.8z" class="N O"/><path fill="#ec553e" stroke="#ec553e" d="M289.5 203.1c.4-1.2 0-2.8 1.4-3.4 1.4.2 2.4 1 2.8 2.5l-4.2 1z"/><path fill="#909090" stroke="#909090" d="M522.8 199.7l4.6.1c0 3-2.6 2.9-4.9 3l.3-3.1z"/><path d="M541 200c4.8.3 9.6 0 14.4 0l-.7 2c-3 1.1-6.2.5-9.2.4H541V200z" class="X Y"/><path d="M555.7 200.3l4.5-.2-.3 1.9-1.5-1.3-1.3 2.4c-.6-.9-1-1.9-1.4-2.8z" class="H I"/><path d="M293.7 202.2h.7c1.5 4.9 2.1 10 3.2 15.1 3 .1 6.7-1.3 9.2 1l-1.6.4c-2-1.3-4.4-.7-6.6-1-1.3 1.8-3 3.3-5.2 3.1-.7-.8-1.3-1.7-1.8-2.6-.8-5-1.8-10-2.8-15h.7l4.2-1z" class="P Q"/><path fill="#953e32" stroke="#953e32" d="M409.7 202.2c1.7-1.6 3 1.8 1.1 2.4-1.3.2-1.9-1.6-1-2.4z"/><path d="M412.8 202.1l9.6.1c-1 3.7-5.1 3-8 2.4l-1 1-1-.7.4-2.8z" class="J K"/><path d="M423.6 202.4c3 0 6.1.2 9.1-.3l-1.3 3-1-2.4-2 3.1a309 309 0 0 0-1.8-1.6l-1.8 1.4-2.1-.9.9-2.3m.7 1c.4.5.4.5 0 0zm15.2-.7l4.4-.4c0 .6.3 1.7.4 2.2l1-2.2 4.7.1v2.7l-10.6-.7v-1.8zm12.2-1l2.7 1 1.4-.7.6 2.4c.3-2.4 2.6-2.3 4.4-2.5l-1.4 3.2-1.1-2.6-.4 2.4c-2 .1-4 .4-6 .2-.7-1-.3-2.3-.2-3.4z" class="T U"/><path fill="#76362e" stroke="#76362e" d="M467.3 202.3c1.5-1.2 2.7 1.6 1.4 2.6-1.5 1.2-2.7-1.7-1.4-2.6z"/><path fill="#893b30" stroke="#893b30" d="M471.1 202l1.5 1.7.6-1.5 5.9-.2v3.3l-3.4-.5-6.4.4 1.8-3.3m6 1.4c.6.5.6.5 0 0z"/><path fill="#66332c" stroke="#66332c" d="M480 202.7h1.3c.6 0 1.1-.1 1.6 0 1.9 3-4.6 3-2.8 0z"/><path fill="#993f32" stroke="#993f32" d="M483.4 202h2.9l-1 4.3c-1.3-1.1-1.6-2.8-2-4.3z"/><path d="M486.8 202l4.8.2-2.1 3.4-.7-2.9-1.7 2.7-.3-3.4z" class="J K"/><path fill="#8f3d31" stroke="#8f3d31" d="M491.8 202l3.4.2c-.5 1.7-1.3 3.3-3.3 3.4V202z"/><path fill="#6b332c" stroke="#6b332c" d="M378.1 203.4c1.4-1 2.6 1.5 1.5 2.4-1.4 1-2.6-1.5-1.5-2.4z"/><path fill="#933e31" stroke="#933e31" d="M381.2 203.5c2.4-.2 4.9-.6 7.3-.3l1 2.6-4.5.5-1.5-1-2.8 1 .5-2.8z"/><path d="M424.3 203.3c.4.6.4.6 0 0zm52.9 0c.5.5.5.5 0 0z" class="D E"/><path d="M515.7 204.8l1.7 1.8 1.9-2.3-.1 5.2-2.4-2.9-.2 2.1h-1l.1-4z" class="F G"/><path d="M520 205l.5.1 1 3.5.5-3.6h1.3l.2 3.3-3.3.8-.2-4.1z" class="H I"/><path d="M523.9 204.4l1.5 2.4 2-2.2.4 4.2-1.5-.6-2 .7-.4-4.5z" class="Z a"/><path d="M373.3 208.4l3.4-1.6c.2 2.4.5 4.8 1 7l-1.4 2c-1.4-1.3-3.2-1.7-5-1.8a20.21 20.21 0 0 1 .6-3.4c.6.6 1.2 1.2 1.7 2l1.7.1.2-3.1-2.2-1.2zm8.1-.8c5.7-3 7.1 8.1 1.6 8.5-3.8-.6-4.2-6.4-1.6-8.5m1 7.6c3.2-1.5 2.6-5.4.6-7.5-1.9 2.2-1.6 5-.5 7.5zm72.2 3.3c2.3-4.1 4.4-8.5 8.2-11.4-2.2 4-4.3 8.6-8.2 11.4zM469 210c.6-3.5 6.2-3.8 7.3-.6 1.6 2.8.6 8-3.2 8.3-2 .3-3.2-1.5-4.5-2.6l5.3.8c1.3-2 .6-4.3.4-6.4-1.8-1.6-4 0-3.2 2.2l3.5 1.3c-2.3 2.3-6.5.2-5.6-3zm10.8 3.3c-2.3-2-.8-6.1 2.2-6.1 6-.7 6.4 9.9 1 10.5-2.1.4-3.4-1.4-4.6-2.7 1.8.3 3.6.9 5.5.8 1.4-2.1.6-4.7 0-7-1.4.3-3.4.1-3.3 2.2a78 78 0 0 0 2.2 2.2c.3 2-2.2.6-3 0zm9.6-6.1c2.3.4 5.4-.8 7 1.5l-5.6.4c-1 1.9 1.4 4.7-2 4.4l.6-6.3zm-83.1 4.1c.8-3 4.4-4.7 6.9-2.4 2.4 2.8-1.7 5.4-3.2 7.5 1.6.2 3.8-.2 4.6 1.7h-8.3c1.5-3 5.3-4.6 5.6-8-2-1-3.8.8-5.6 1.2zm13.9-.1c.8-2.7 4-4.4 6.5-2.7 1.8.8.5 2.9.5 4.3.4 1.5 1.7 3.2.3 4.6-2.6 2.2-6.3.8-7.8-2 2.1 0 6.9 3.2 6.2-1l-3.3-1.2 3.6-1.8c-1-3.2-3.9-.6-6-.2zm18.8 7c-6.2.7-6.1-11.1 0-10.6 1.7 0 2.6 1.7 3.7 2.8l-5.1-1.1-1.5 2.5c2-.1 4.8-1 5.9 1.2 1.5 2.2-.5 5.2-3 5.2m-1.9-5l-.5 2c1.1 3 5.1.6 3.5-2h-3zm6.9-5.2c2.4.1 6.6-1.7 7.8 1.5l2.6-2c2.8.2 3.2 2.7 3 5-2.7.5-4.8-1.1-6.5-2.9-1.3 3.2-2 8-6 8.8 1.5-3 3-5.9 4.3-8.9-1.8-.3-4.5.8-5.3-1.5m10.3 1.3c-.5 1.6 0 2.1 1.7 1.6.5-1.6-.1-2.2-1.7-1.7z" class="B C"/><path d="M542.2 208.4l2-.4.2 2.2.5-2h5.4l-.5 2.7h-6.7l-1-2.5z" class="N O"/><path d="M551 208h4.8l.4 3.5a5 5 0 0 1-3-3.4l-1 2.6-.5.1-.6-2.8z" class="l m"/><path d="M382.5 215.2c-1.1-2.5-1.4-5.3.5-7.5 2 2.1 2.6 6-.5 7.5z" class="D E"/><path fill="#b44636" stroke="#b44636" d="M454.2 209.3c1.6-.6 2.2 0 1.7 1.6-1.7.5-2.2 0-1.7-1.7z"/><path d="M492.2 211.2c3-1.5 5.3 3 3.2 5.2-2.1 2.5-6.2 1.2-7.2-1.8 1.8.4 3.5 1.2 5.4 1.2l.6-2.5c-1.2-.4-1.8-1-2-2z" class="B C"/><path d="M516.4 212.3l3.1-.4-2 1.4v.3l2 1.5-3.1-.4v-2.4z" class="X Y"/><path fill="#7b7b7b" stroke="#7b7b7b" d="M519.9 211.8l1.5.8c1.6-.3 3.1-.4 4.7-.5 0 .5-.3 1.4-.5 1.9l-.2.8h-5.6v-3z"/><path fill="#8a8a8a" stroke="#8a8a8a" d="M525.6 214c.6-1 1.3-1.4 2.3-1.5.8.7 1 1.4.5 2.3-1 .5-2 .5-3 0l.3-.8z"/><path d="M437.1 213.2h3c1.6 2.6-2.4 5-3.5 2l.5-2z" class="D E"/><path d="M461.5 213.3c2.6-.9 4.2 2.4 2.4 4.2l-3 1c-.7-1.7-2-4.6.6-5.2m.3 1.8c-1.5 3 3.4.2 0 0z" class="B C"/><path fill="#585d65" stroke="#585d65" d="M539.3 215a40.7 40.7 0 0 1 18.4-1.4c2.5.3 5.2 1 7.3 2.6 0 2-2.5 2.6-4 3.2a41.8 41.8 0 0 1-21.7-.7v-3.6m3.6 0l-.4 3c3.4-.1 6.7 0 10-.7l5.6.8-.5-2.8c-4.9.3-9.8 0-14.7-.3z"/><path d="M461.8 215.2c3.4 0-1.5 3 0 0z" class="D E"/><path d="M543 215.1c4.8.3 9.7.6 14.6.3l.5 2.8-5.7-.8c-3.2.6-6.5.6-9.9.7l.4-3z" class="X Y"/><path d="M416.4 216.3c1-1.5 3.4.2 2.3 1.7-1 1.5-3.5-.3-2.3-1.7z" class="B C"/><path d="M514.5 217.1h7.2c-.2 1.5-.4 3.2-1.1 4.7l-1-4.2-.7 3.1-3.8-.1-.6-3.5z" class="t u"/><path d="M522 216.6l1.6 2.3 1.2-2.4.2 4h-2.7l-.3-3.9z" class="F G"/><path d="M525.6 216.6c1.4.5 3.3.7 3.8 2.4-.7 1.5-2.4 1.9-3.7 2.6v-5m1.2 1.7c-1.6 3 3.4.2 0 0z" class="L M"/><path d="M290.3 278l.3-61.3 1 1.5c.5 1 1.1 1.8 1.8 2.6 2.2.1 4-1.4 5.2-3 2.2.2 4.6-.4 6.6 1 .5 4.4-1 9.4.8 13.7-.5 2.4-1 5-1 7.5l.2 84.3v6.8c-5-.1-9.9 0-14.8-.2.2-10.9-.3-21.8.2-32.8.6-6.7.1-13.5.4-20.3l-.7.2z" class="R S"/><path d="M527 218.3c3.3.2-1.7 3 0 0z" class="d e"/><path fill="#bb4837" stroke="#bb4837" d="M422.8 220.2l4.4.2c.6 1.5 1.3 2.9 2.4 4 .2 3.5 0 7-.4 10.5-.2-3.2.3-6.5-.5-9.7l-2.2-.4c-2.2-.7-4.2-2-3.7-4.6m2.4 1c-.4 1.4.1 2 1.5 1.6.4-1.4 0-2-1.5-1.6z"/><path d="M439 220.4c3.6.2 7.2-.5 10.6.5l1 2.1-7.4 1.1-1 2.8.2-2a96 96 0 0 0-8-.3l4.4-.8.2-3.4z" class="r s"/><path fill="#a84335" stroke="#a84335" d="M451.3 220.6c1.4-.2 1.5 2.2.5 2.8-1.4.3-1.5-2.2-.6-2.8z"/><path d="M474 220c2.7-.2 5.6-.1 8.3.7l-1.4 1.9-1 1.4h-6v-4z" class="r s"/><path fill="#68332c" stroke="#68332c" d="M425.2 221.3c1.4-.4 2 .1 1.5 1.5-1.4.3-1.9-.2-1.5-1.6z"/><path d="M452.8 221l2.7.7.6 2.1c.8 1.7 2.2 3.3 1 5.1-2 1-4.4 0-4.2-2.5l.9-2.1-1-3.3m1.6 5c-.5 1.7 0 2.3 1.6 1.8.6-1.7 0-2.3-1.6-1.8z" class="B C"/><path fill="#80392f" stroke="#80392f" d="M482.3 220.7c3.7-.2-.3 5.2-1.4 1.9l1.4-1.9z"/><path d="M543.3 222c2.2-1 2.1 4.2 0 3.2-1.5-.5-1.3-2.6 0-3.1z" class="t u"/><path fill="#9b9b9b" stroke="#9b9b9b" d="M546.1 222.7c1.4.2 1.6 1 .8 2.2-1.3-.2-1.6-1-.8-2.2z"/><path fill="#969696" stroke="#969696" d="M548.5 222.4c1.4-1.3 2.5 1.3 1.1 2.1-1.4 1.4-2.5-1.3-1.1-2.1z"/><path d="M550.3 225.2l2.2-3.6c-.3 4 2.9.2 4.4 0v3.8l-3-.3-3.6.1z" class="X Y"/><path d="M401 227.5c1-1 1.4-3.1 3.1-3.3 2-.5 4.8.6 4.6 3-.5 2.2-2.6 3.6-4 5.4 1.5.4 3.8-.3 4.5 1.6-2.8.4-5.5.3-8.2.1 1.5-3 6-4.8 5.3-8.6-1.8.5-3.5 1.2-5.2 1.8zm13.5-3.2l3 .1-.1 6.1 1.7 1.3-2.4 2.8-1.8-1.8-4.8-.3c1.2-2.8 2.8-5.6 4.4-8.2m-2.2 6.7l3.3-.1v-5l-3.3 5zm31.5-3c.8-3.1 4.3-4.8 6.9-2.7 2.3 3-1.6 5.4-3.4 7.5 1.1.7 5.3-.5 4.2 1.7-2.6.4-5.2.2-7.8 0 1.7-2.3 3.9-4.3 5.6-6.5.2-3.8-3.6-.5-5.5 0zm11.2 7.3c2-4.2 4.2-8.6 8-11.5-2 4.2-4.4 8.6-8 11.5z" class="B C"/><path d="M514.7 223.9l2.3 2 1.8-1.5 3 1.2v1.9c1.2-.6 2.3-1.4 3.2-2.3.8.5 1.3 1.3 2 2 0-.8.4-2.3.5-3l2 1-.7 2.3c-3.1-.4-6.8 1.1-9.3-1.4l-.2 2.3-1.6-1.5-2.4 1.3c-.3-1.4-.5-2.8-.6-4.3z" class="t u"/><path d="M423.8 227.5l2.7-2.7 2.2.4c.8 3.2.3 6.5.5 9.7-3.4-1-1.4-5.4-2-8l-3.4.6z" class="B C"/><path fill="#352725" stroke="#352725" d="M434.5 224.6l8 .2-.4 2c-1.6 3-2.2 7.7-6.1 8.2 1.3-2.9 2.8-5.7 4.2-8.6-2-.4-4.6.4-5.7-1.8z"/><path fill="#342725" stroke="#342725" d="M478.8 232.8c1.7-3.3 2.8-8.4 7.3-8.6.2 2.8-.3 5.9 1.5 8.3-.9.8-1.7 1.6-2.7 2.3l-1.3-1.7-4.8-.3m2.3-1.5l3.1-.1v-4.5c-1.1 1.5-2.1 3-3 4.6z"/><path d="M412.3 231l3.2-5 .1 4.9h-3.3zm42.1-5c1.6-.5 2.2.1 1.6 1.8-1.6.4-2.1-.1-1.6-1.8zm26.7 5.3l3-4.6.1 4.5-3 .1z" class="D E"/><path d="M539.4 228.3a42 42 0 0 1 23.4.9c2.7.5.8 3.2-1 3.5a43.5 43.5 0 0 1-22.5.2v-4.6m2.6 2.8l4.6 1c3.1-.5 6.4-.7 9.6-.3l-.7-2.6-4.2 1.7.3-2-1.9 2.4-2-2.5-.3 3-1.5-.1-.4-2.6-3.5 2z" class="n o"/><path d="M472.9 230l4.3-.4.5 1.9c-1.6-.4-4.8 1.1-4.8-1.5z" class="B C"/><path fill="#cbcbcc" stroke="#cbcbcc" d="M516 232.2c-.6-1 0-2.8 1-3.1 1 .7 1.3 2.4.6 3.4l-1.7-.3z"/><path d="M518.4 232.8l2.4-4.2 1.8 4.2h-4.2z" class="L M"/><path fill="#c8c9c9" stroke="#c8c9c9" d="M523.4 229.5c1.4 0 1.3 2.4.5 3.2-1.4.1-1.3-2.4-.5-3.2z"/><path d="M526.8 231l1.1-2.5.3 4.4-3-.3-.5-4 2 2.5z" class="L M"/><path d="M541.9 231.1l3.5-2 .4 2.6h1.5l.2-2.9 2.1 2.5 1.9-2.5-.3 2 4.2-1.6.8 2.6c-3.3-.4-6.6-.2-9.7.4l-4.6-1.1z" class="H I"/><path fill="#502d29" stroke="#502d29" d="M460 232c-.2-2.1 2.8-2 4.2-2.4.2 1.5 1.5 3.4 0 4.7-1.4 1.7-4.8.1-4.2-2.3m2.1-.5c-1.6 3 3.3.2 0 0z"/><path fill="#d54f3b" stroke="#d54f3b" d="M462.1 231.5c3.3.2-1.6 3 0 0z"/><path d="M421.3 232c1.9-.7 2.8 2.5.8 2.9-1.9.6-2.8-2.5-.8-2.9z" class="B C"/><path d="M305 240c0-2.6.5-5 1-7.5a25.85 25.85 0 0 1 .9 4l12 87.2-13.7.6-.1-84.3z" class="H I"/><path d="M518 237.7l5.1-1.1c-.7 1.2-1.3 2.4-2.2 3.4-1.5 0-2-1.3-2.8-2.3z" class="N O"/><path d="M545.2 236.3l7.8-.2-1 3-1.9-2.7-.8 3c-1.2 0-2.3-.2-3.4-.3l2-1.5.2-.7-2.8 1.5-.1-2.2z" class="l m"/><path d="M523.1 239.6c-.8-1 .4-3 1.6-2.3.8 1-.4 3-1.6 2.3z" class="N O"/><path d="M351.8 237.8h6.4l-.8 5.1c-1.7 1-3.8.5-5.6.8v-6z" class="D E"/><path d="M358.2 237.9h.7l.2 5.5h7.8l.8-5.8.1.5 1.2 5.3 7.2.1.2-5.7h1.2l.2 5.7 8.5-.1.2 2.5-1.4-.6c-1-.6-2.2-.3-3.4-.1l-1.6.7-.3-1.3c-3.1-.6-1.7 3.8-2.5 5.6l-1.1.6-.9.5-2.2 1.1c.8-2-2.4-2.3-2.5-.3l-1.7-1.6-.3 6.9 7.3-.5.3-3.8h1.9l-.5 4.3 8.9-.8-.2 1.1h-8.5l-.1 3.6 8.7.2a445.05 445.05 0 0 1-28.3 0l-.8-3.6-5.7-.4h.4l5.5-.4c.1-1.9.2-3.8 0-5.8-1.8-.4-3.8-.6-5.7-.8v-.2l5.9-.1.1-5.6-6-.1v-.8c1.8-.3 4 .1 5.6-.8.4-1.7.6-3.3.8-5m.8 6.6v5.8l8.1-.1v-5.7h-8m9.4 0l.1 5.9c2.4-.2 5 .2 7.2-.6.5-1.7.5-3.5.6-5.3h-7.8m-9.2 6l-.4 6.7h8.1c0-1.3 0-2.6-.2-3.9 2.3 0 .7-4-1-2.3-1-.3-1.9 0-2.6 1-.9-1.4-2-1.6-3.4-.6l-.5-1m-.3 7.3l-.1 3.6h8.3l-.2-3.5h-8m9.7 0l-.7 3.4 8.3.2-.2-3.7h-7.4z" class="J K"/><path d="M359 237.9l8.7-.3-.8 5.9h-7.8l-.2-5.6zm8.8.2a91 91 0 0 1 8.6-.3l-.2 5.7H369l-1.2-5.4zm9.8-.3h8.6l.1 5.6-8.5.1-.2-5.7zm9.1 0h8v6h-8v-6zm8.6 0h8.9v6h-8.9v-6z" class="D E"/><path d="M516.3 241c1.1.8 2.6 1.2 3 2.7l.6-.1 1-2.4 2.2 4.2-7.3.1.5-4.5z" class="H I"/><path fill="#575c65" stroke="#575c65" d="M539.4 242.3c6.4-1.6 13.2-2 19.6-.5 2 .4 3.7 1.7 5.3 3-7.1 5.2-16.9 4-25 2v-4.5m3.2 1c.5 1 1.1 2.5 2.6 2.4 3.6-.1 7.3-.6 10.9-1v-1.4c-2.3.2-4.9-.8-6.7 1l-.6-1.5c-.6 1.2-1.4 1.9-2.4 2l-.7-1.3-3-.3z"/><path fill="#a1a2a4" stroke="#a1a2a4" d="M523.2 244.8c-.9-1.3-.6-2 .7-2.3v2.3h-.7z"/><path d="M524.7 241.3l1.8 1.6 1.5-1.2.2 2.1c.8 0 2.3-.3 3.1-.4-1.4.6-3 1-4 2.2l-.8-1.6-1.7 2.2-.1-4.9z" class="F G"/><path d="M412 243c1 .4 1.8 1 2.7 1.6.3-.3 1-1 1.4-1.2l1.6 2.2c.5-.9 1-1.7 1.3-2.6.8 1 .8 3.6 2.7 2.8l2.3-3c-.6 1.2 0 4-2 4-3.5-.3-7-.7-10.4-.2 0-1.2.1-2.4.4-3.6z" class="T U"/><path fill="#7a372e" stroke="#7a372e" d="M426.3 243.4c1.6-1.2 2.8 1.6 1.5 2.5-1.5 1.3-2.8-1.6-1.5-2.5z"/><path d="M456.1 243.3l4.8.2c0 .4.3 1 .4 1.4l1.3-1.4h4v3.1c-2.7 0-5.4-.2-8-.8l-2.7.6.2-3.2m8 1.1c-.3 1.4.2 2 1.6 1.5.4-1.4-.2-1.9-1.5-1.5z" class="J K"/><path fill="#a04133" stroke="#a04133" d="M473.7 243.2l5.3-.3-.2 4.7c-1.6-.8-1.9-2.5-2.3-4l-.9 3.3-1.9-3.7z"/><path d="M542.5 243.2l3 .3.8 1.3c1-.1 1.8-.8 2.4-2l.6 1.5c1.8-1.8 4.4-.8 6.6-1v1.4c-3.5.4-7.2.9-10.8 1-1.5.1-2.1-1.3-2.6-2.5z" class="H I"/><path fill="#72352d" stroke="#72352d" d="M429.3 244.2c1.6-.5 2.1 0 1.5 1.7-1.6.5-2.1-.1-1.5-1.8z"/><path fill="#68332c" stroke="#68332c" d="M434.2 244.2c1.4-.3 1.9.2 1.6 1.6-1.4.3-2-.2-1.6-1.6zm30 .1c1.3-.4 1.9.1 1.5 1.5-1.4.4-2 0-1.5-1.5z"/><path d="M351.8 244.5l6 .1-.1 5.6h-5.9v-5.7zm7.2 0h8.1v5.7h-8v-5.7zm9.6 0h7.8c-.1 1.8-.1 3.6-.6 5.3-2.3.8-4.8.4-7.2.6v-5.9z" class="D E"/><path fill="#e7533d" stroke="#e7533d" d="M377.3 250.2c.8-1.8-.6-6.2 2.5-5.6l.3 1.3.4 1.8c1.7 2 3.3-1.7 1.3-2.5 1-.2 2.3-.5 3.3.1l1.1 5.3c-3 0-6-.2-9-.4z"/><path fill="#e8533e" stroke="#e8533e" d="M386.6 244.3l3.3-.3.5 4.4c.9-.5 4.3-1.3 1-2.3l2.3-2c1.2 1.8 1 4.1 1.1 6.3h-8.5l1.3-3.5-1-2.6z"/><path d="M395.3 244.2h9l-.1 6.2h-8.8l-.1-6.2z" class="D E"/><path fill="#532f2a" stroke="#532f2a" d="M380.1 246l1.6-.8c2 .8.5 4.6-1.1 2.5l-.5-1.8z"/><path d="M115.4 258c0-3.4-.2-6.9.4-10.3.4 7 .2 14 0 21.1l.2 3c.4 9.4.2 18.8.2 28.2 0 2.4.3 5-1.2 7-.7-16.3.3-32.6.4-49z" class="j k"/><path fill="#242a2e" stroke="#242a2e" d="M115.8 247.7c4.8 0 9.5-.5 14.3.2l.7.2v2c-.2 1.6.2 3.2 1.5 4.1l.8.8-.1 1.4c-.5 1.7.3 3.5 1.7 4.6l.2 1.2c.2 1.4.6 2.8 1.2 4-5.7.1-11.4-.7-17.1 0-1.5.2-2.2 1.8-3.2 2.6.2-7 .4-14 0-21z"/><path d="M408.5 251.8c1-2.2 3-3.3 5.1-4 .1 3.8.2 7.6-.1 11.4-2.7-2-1.5-5.5-1.7-8.3l-3.3 1z" class="B C"/><path fill="#302625" stroke="#302625" d="M415.5 251.8c1.2-2 3.2-3.3 5.4-4 0 3.3.3 6.8 0 10.3l-1.8.8-.1-8.3-3.5 1.3z"/><path d="M428.1 251.5c.7-3.3 5.3-4.7 7.3-1.8 1.1 3-2.2 4.9-3.7 6.9 1.2.6 4.4-.6 4.2 1.6-2.6.4-5.3.3-8 .1 1.5-3 6.3-4.8 5.4-8.5-1.8.3-3.5 1-5.2 1.7zm40.2.5c1-2.2 3-3.2 5.1-3.9v10.6h-1.9V251l-3.2 1z" class="B C"/><path d="M519.7 248.6c1.6-.3 3.3-.2 5 0-.4 1.1-.8 2.3-1 3.5l-1.6-2.2-.6 2-2-.2.2-3z" class="N O"/><path d="M480.2 257c1.5-3.5 2.7-8.6 7.2-8.8v6.4l1.7 1.4-3 3-.9-2h-5m2-1.6l3-.3c.4-1.5.3-3 .4-4.5a55 55 0 0 0-3.3 4.8z" class="B C"/><path d="M130.8 250.2c1.7-.2 2.3 2.8 1.5 4-1.3-.9-1.7-2.5-1.5-4z" class="j k"/><path fill="#3e4245" stroke="#3e4245" d="M139.6 253.3l1.2-2.9c0 5.7 0 11.3-.4 17-.7-4.7-.8-9.4-.8-14.1z"/><path d="M351.8 250.5l5.8.8v5.8l-5.6.4-.2-7zm7.6-.1l.6 1c.3 1.7 2.3 2.1 3.3.7.7-1 1.6-1.4 2.6-1.1l1 2.3c.2 1.3.2 2.6.3 4l-8.2-.1c0-2.3.2-4.5.4-6.8z" class="D E"/><path fill="#3e2a27" stroke="#3e2a27" d="M360 251.4c1.3-1 2.4-.8 3.3.7-1 1.4-3 1-3.4-.7z"/><path fill="#312725" stroke="#312725" d="M366 251c1.6-1.7 3.2 2.2.9 2.3l-1-2.3z"/><path d="M369 250.5l1.6 1.6 2.5.3 2.2-1.1.9-.5v2.3a31 31 0 0 1-.3 3.8c-2.4.4-4.9.4-7.3.5l.3-7z" class="D E"/><path fill="#342725" stroke="#342725" d="M370.6 252c0-1.9 3.3-1.5 2.5.4l-2.5-.3z"/><path d="M378.4 250.6c2.4.3 5-.3 7.4.7.5 1.7.5 3.5.7 5.3l-8.9.8.5-4.4.3-2.4zm8.2.1l8-.1.2 5.7c-2.5 0-5.1 1.6-7.6.5-.8-2-.5-4-.6-6.1zm8.8-.1h8.8v7c-3-.6-6-1.5-9-1l.2-6zm86.9 4.8a55 55 0 0 1 3.3-4.8c0 1.5 0 3-.3 4.5l-3 .3z" class="D E"/><path d="M499.4 251l2.8 1.9 1.6-.6-.5 2.5-1.5-1.9-1.3 2-1-3.9z" class="B C"/><path d="M437.1 252h8l-.4 2.6h-7.4l-.2-2.6z" class="J K"/><path d="M490 252.2c2.8 0 5.6-.1 8.4.4l.7 3.3-2.8-2.1c-1.4.7-2.9 1.4-3.7-.5l-2.5 2V252z" class="T U"/><path d="M517 254c2.4-.3 3.3 1.3 3.5 3.5l1.6-3.8c.6 1.5 1.3 3.2 2.4 4.6-2.5-1-5-.5-7.6-.4V254m1.2 1.3c-1.6 2.9 3.3.2 0 0zm7.3-1.1c1.9-.6 2.5 2.4 1.4 3.4-1 0-1.9-1-2.3-2v-.6l1-.8z" class="L M"/><path d="M518 255.3c3.4.2-1.5 2.9 0 0z" class="d e"/><path d="M541 256c6.7-1.8 14-1.7 20.7.4 1.7.3 4.2 2.8 1.5 3.9a35.5 35.5 0 0 1-24.1.4c.5-1.6-.4-4.3 2-4.6m4 1v3l2.1-.6 8 .4v-2.7c-3.3.2-6.7.2-10.1-.1z" class="n o"/><path fill="#373b3d" stroke="#373b3d" opacity=".7" d="M133 256.4c1.7 0 2.4 3.2 1.7 4.6a4.6 4.6 0 0 1-1.7-4.6z"/><path d="M424.2 256.3c1.4-1.1 3.2 1.3 1.7 2.3-1.5 1.1-3.3-1.3-1.7-2.3zm52.9-.1c1.9-.6 2.6 2.5.8 3-1.9.6-2.7-2.6-.8-3z" class="B C"/><path fill="#babcbf" stroke="#babcbf" d="M545.1 257c3.4.4 6.8.4 10.2.2l-.1 2.7-8-.4-2.1.6v-3z"/><path d="M351.6 257.5l5.7.4.8 3.7h-6l-.5-4.1zm7.4.3h8l.3 3.5H359v-3.6zm9.8 0h7.4l.2 3.6c-2.8 0-5.5 0-8.3-.2l.7-3.4zm9 0l8.5-.1.1 3.8-8.7-.2.1-3.5zm9.4.2c2.4-1.1 5 0 7.6.4l.2 2.8.6-4.2 2.4 1.7 2.1-1.3 4.2.3-.3 4a335 335 0 0 0-17 0c-.4-1.4-.3-2.6.2-3.6z" class="D E"/><path fill="#923d31" stroke="#923d31" d="M437.5 259.5c1.8-1.2 3.5 2.7 1.4 3.1-1.5 0-2.4-2.1-1.4-3.1z"/><path fill="#973f32" stroke="#973f32" d="M440.6 259.2c1.3-.8 2.3 1.4 1.4 2.3-1.3.7-2.3-1.5-1.4-2.3z"/><path d="M446.2 259.3c1.4-1.2 2.2 1.3 1 2-1.3 1.3-2.1-1.3-1-2z" class="J K"/><path d="M450.2 259.3l5.7 1.4-.3 2.3-1-2-2.4 1v-2h-1c-.3.6-.6 1.9-.8 2.5l-.2-3.2z" class="B C"/><path fill="#8d3c30" stroke="#8d3c30" d="M458 259.6l6.4-.4-1 4-1-3.5c.3 3-2.3 2.8-4.4 2.7v-2.8z"/><path fill="#8c3c31" stroke="#8c3c31" d="M466.2 259.6c1.4.2 1.7.8.7 2-1.4-.2-1.6-.8-.7-2z"/><path fill="#72352d" stroke="#72352d" d="M443.2 260.1c1.7-.4 2.2.1 1.6 1.8-1.6.5-2.2-.1-1.6-1.8z"/><path fill="#393b3d" stroke="#393b3d" opacity=".6" d="M134.9 262.2c1.7-.1 2.6 2.8 1.7 4h-.5c-.6-1.2-1-2.6-1.2-4z"/><path fill="#59302b" stroke="#59302b" d="M350.5 263.5c5.4-1 11-.6 16.5-.6 12.3.2 24.6-.5 36.8.4 8.3 1.2 16.8.5 25.1.7l77.5.2-.8.7c-1.9.3-3.8.4-5.6.5H366c-5.4-.1-11 .3-16.3-.6l-.9-.1 1.7-1.2z"/><path d="M349.7 264.8c5.4.9 10.9.5 16.3.5h134c1.8 0 3.7 0 5.6-.4.6 3.3.6 6.6.1 9.9-14.5-.7-29.1 0-43.6-.3H362c-4.2 0-8.4-.2-12.5.3-.3-3.3-.2-6.7 0-10m6.2 2.3l-.2 4 5.5-1.5-1.3-2.5c-.7 1-.8 3.6-2.6 2.7-.6-.9-1-1.8-1.4-2.7m6.4.4c0 3.3 3-1.5 0 0m3.4-.4c-.6 1 0 2.5.7 3.3 1.9-.1 1.6-4.8-.7-3.3m4.6 0c-1.4.4-1.1 3 .1 3.4 1.4-.2 1.2-3 0-3.3m2 0a42 42 0 0 0-.4 4.2c1.1-.4 2.2-.9 3.2-1.5.4-1.7-1-3.7-2.8-2.7m4 .1v3.4l11.1.2c1.6.4 2.5-2.3 1.6-3.4-1.4-.3-1.7 1.8-1.7 2.8l-.4-3.1h-7.7l.4.8-2.2.1.3-1-1.5.2m14-.2l.9 4c-.2-1.8.4-2.7 1.7-2.9l.8 2.6 1 .1c0-.5-.4-1.4-.6-2l1-1.8h-4.8m5.6 0v4.3c1.6-.1 4-1.6 1.7-2.9l.7-1.5h-2.4m4.1 0l1.5 4 .8-1.9 1.8 2-.5-2.5 1.8 1.4.4.6c.1-1.4-.3-2.7-.8-4l-2.2 2-.2-1.4-1.1 1.7-1.4-2m7 .2l.4 3.3c1.8 0 3.5 0 5.3.2l-.3-3.6-4 1.6-1.4-1.5m8.2 3.8h3.4l-1.5-4c-2.4 0-1.6 2.5-1.9 4m4.3-3.8c-1.2.6-.8 3.1.7 3 1.4-.6.9-3.4-.7-3m2.8.3c-.8 1-.7 2.9.5 3.5 1.6-.2 1.5-4.9-.5-3.5m3 0c-.7 1-.7 2.9.5 3.5 1.6-.2 1.5-4.9-.4-3.6m2.5-.8v5c1-.8 3.6-.8 3.2-2.6.3-1.7-2.3-1.5-3.2-2.4m8.1 1.8l1 2.6 2.2-2.6.1 2.2 2.6.1-.4-3.3-5.5 1m8.5-1c-.9 1-.3 2.8 1 3.3 2-.2.9-4.1-1-3.3m3.1-.2c-.7 1-.6 2.8 0 3.8 2.1.4 2-4.1 0-3.8m2.8.3v3.3h5.2l.8-1.7c.8 1.2 1.7 2.3 2.7 3.3-.4-1.2 0-3.1-1.3-3.9-2.5-.5-5-.7-7.4-1m8.5-.8l1.1 4.3 3.4-.4c-.6-2.2-2.5-3.2-4.5-4m-25.7 1.6c-.5 1.7 0 2.2 1.6 1.7.5-1.6 0-2.2-1.6-1.7m-70 1c-1.7.2-1 2.6.6 1.9 1.6-.3.8-2.7-.7-2z" class="D E"/><path d="M355.8 267.1c.4 1 .8 1.8 1.4 2.7 1.8 1 1.9-1.7 2.6-2.7l1.3 2.5-5.5 1.4.2-3.9zm6.4.4c3-1.5 0 3.3 0 0z" class="B C"/><path fill="#6b332c" stroke="#6b332c" d="M365.6 267.1c2.3-1.5 2.6 3.2.7 3.3-.8-.8-1.3-2.2-.7-3.3z"/><path fill="#953e32" stroke="#953e32" d="M370.2 267.2c1.3.4 1.6 3 .1 3.3-1.2-.5-1.5-3 0-3.3z"/><path fill="#943e32" stroke="#943e32" d="M372.3 267.2c1.7-1 3.2 1 2.8 2.7-1 .6-2 1.1-3.2 1.5 0-1.4.2-2.8.4-4.2z"/><path fill="#b14536" stroke="#b14536" d="M376.2 267.3l1.5-.2-.3 1c-1.3 2.6 3.9 2.4 2.2 0l-.4-1 7.7.1c0 .8.3 2.3.4 3l.1.7-11-.2-.2-3.4m7.1 1c-.4 1.3.1 1.8 1.5 1.4.4-1.4-.1-1.9-1.5-1.5z"/><path fill="#7a372e" stroke="#7a372e" d="M387.3 270.3c0-1 .3-3.1 1.6-2.8 1 1 0 3.8-1.5 3.4v-.6z"/><path d="M390.2 267.1h4.8l-1 1.9.7 1.9-1-.1-1-2.6c-1.2.2-1.8 1.1-1.6 2.8l-.9-3.9z" class="B C"/><path fill="#81392f" stroke="#81392f" d="M395.8 267h2.4l-.7 1.5c2.4 1.3 0 2.8-1.6 3l-.1-4.5z"/><path d="M400 267l1.4 2 1-1.8.3 1.4 2.3-2c.4 1.3.8 2.6.7 4l-.4-.6-1.8-1.4.5 2.5-1.8-2-.8 2-1.4-4.2zm7 0l1.5 1.6 4-1.6.2 3.6-5.3-.2-.4-3.3m3.8 1.2c-1.4 3 3.4 0 0 0z" class="B C"/><path fill="#873b30" stroke="#873b30" d="M415.2 271c.3-1.6-.5-4.1 1.9-4.1l1.4 4h-3.3z"/><path fill="#7d382e" stroke="#7d382e" d="M419.5 267.1c1.6-.4 2.1 2.4.7 3-1.5.1-1.9-2.4-.7-3z"/><path fill="#74362d" stroke="#74362d" d="M422.3 267.4c2-1.4 2 3.3.5 3.5-1.2-.6-1.3-2.5-.5-3.5zm3.1-.1c2-1.3 2 3.4.4 3.6-1.2-.6-1.2-2.6-.4-3.6z"/><path d="M427.9 266.5c.9.9 3.5.7 3.2 2.4.4 1.8-2.2 1.8-3.1 2.7l-.1-5z" class="p q"/><path d="M436 268.3l5.5-1 .4 3.3-2.6-.1v-2.2c-.9.8-1.6 1.7-2.3 2.6l-1-2.6m4.1-.1c-1.5 3 3.4.1 0 0z" class="B C"/><path fill="#a24233" stroke="#a24233" d="M444.5 267.3c1.9-.8 3 3.1 1 3.3-1.3-.5-1.9-2.3-1-3.3z"/><path d="M447.6 267.1c2-.3 2.1 4.1 0 3.8-.6-1-.7-2.7 0-3.8z" class="T U"/><path d="M450.4 267.4l7.4 1c1.4.8.9 2.7 1.3 4-1-1.1-1.9-2.2-2.7-3.4l-.8 1.8h-5.2v-3.4z" class="J K"/><path fill="#903d31" stroke="#903d31" d="M458.9 266.6c2 .7 4 1.7 4.5 4l-3.4.3-1.1-4.3z"/><path fill="#5c302a" stroke="#5c302a" d="M379.6 268c1.7 2.5-3.5 2.7-2.2.1h2.2z"/><path fill="#61312b" stroke="#61312b" d="M383.3 268.2c1.4-.4 2 .1 1.5 1.5-1.4.4-1.9-.1-1.5-1.5z"/><path d="M410.8 268.3c3.4 0-1.4 3 0 0z" class="D E"/><path fill="#61312b" stroke="#61312b" d="M433.2 268.1c1.6-.5 2.1 0 1.6 1.7-1.6.5-2.1 0-1.6-1.7z"/><path fill="#e0513d" stroke="#e0513d" d="M440.1 268.2c3.4.1-1.5 3 0 0z"/><path d="M363.1 269c1.5-.7 2.3 1.7.7 2-1.5.7-2.3-1.7-.7-2z" class="B C"/><path d="M230.4 281c1.3-8 15.2-7.7 15.9.6l-3.6-.1c-1.6-3-6.8-4.2-8.1-.4 1.7 3.7 7.2 2.6 9.3 6 2.2 3.8-.9 8.5-5 9.1-4.6 1.5-10-.9-11-5.9h4c1.5 1.8 3.6 3.5 6.2 2.6 1.9-.2 3.3-3.2 1.1-4.1-3.5-1.7-9.4-2.6-8.8-7.8z" class="R S"/><path fill="#00191d" stroke="#00191d" d="M349.6 274.8c4.1-.5 8.3-.2 12.4-.3h100c14.6.2 29.2-.4 43.7.3l1 .8c-15.6.8-31.2.1-46.7.3h-94c-5.9 0-11.7.4-17.5-.4l1-.7z"/><path d="M162.1 275.7c4.7.3 10.9-1.3 14.1 3.2 3.2 5.4.9 13.7-5 16.3-4.3 1.4-9 .6-13.4.8l4.3-20.3m3.6 3.5l-2.8 13.4c2.6-.3 5.7.1 7.9-1.8 2.4-2.5 3.5-7 1.3-10-1.6-1.8-4.3-1.3-6.4-1.6zm23.4-3.5h5l2.6 20.3h-4.4l-.5-4.7h-7.3l-2.4 4.7h-4.5l11.5-20.3m1.6 4l-4.4 8.3 5.3-.1c-.3-2.7-.5-5.4-1-8.1zm10.5-4h4.5l1.5 15.6c2.8-5 5.3-10.4 7.9-15.6h4.8L209 296h-5.2l-2.5-20.3zm22.2.3l4.3-.5-4.2 20.4-4.5.1c1.5-6.6 2.7-13.4 4.4-20z" class="R S"/><path d="M284.3 277.8h5c-.6 6.3.6 12.7-.4 19-1.6.4-3.2.6-4.8.8.2-6.6.1-13.2.2-19.8z" class="B C"/><path fill="#3f3f40" stroke="#3f3f40" opacity=".8" d="M290.3 278l.7-.2c-.3 6.8.2 13.6-.4 20.3l-5.8-.4v9.2l-.8.1v-9.4c1.7-.3 3.3-.4 5-.8l.6-.2c.9-6.1-.7-12.6.7-18.6z"/><path d="M165.7 279.2c2.1.3 4.8-.2 6.4 1.7 2.2 3 1.1 7.4-1.3 9.9-2.2 1.9-5.3 1.5-8 1.8l2.9-13.4z" class="P Q"/><path d="M395.7 279.5h2.5l2.4 7.9 2.2-7.8 2.3-.3c-.9 3.6-2.1 7-3.3 10.5h-2.6l-3.5-10.3zm63.8-.1c2.9 0 7.6-.5 7.9 3.6 0 3.3-3.4 3.8-5.9 3.7v3.1h-2v-10.4m2.1 1.6v4.3c1-.7 3.8-.3 3.4-2.1.3-2-2.3-1.6-3.4-2.2zm7.6-1.6c2.6.2 5.9-.5 7.7 1.8.6 1.8-.3 3.5-1.4 5l2 3.6h-2.3c-1-1.7-1.9-3.5-3.8-4.3l-.1 4.2-2 .2v-10.5m2 1.6v3.8c1.6-.5 4-.4 3.6-2.8l-3.5-1zm22.6 2.4c-.7-4.5 6.7-5.7 7.4-1.4-.1 2.6-2.8 4.1-4.3 6h4.6l-.6 1.6c-2.5.3-5 .2-7.5.1 1.4-2.7 3.8-4.4 5.6-6.8-.3-3.6-3.7-.4-5.3.5z" class="F G"/><path d="M190.7 279.8l1 8-5.4.2 4.4-8.2z" class="P Q"/><path d="M424.1 280.5l1.2-.5a12 12 0 0 0 2.7 3l-2.1 1.2c-.2 2.1.6 4 2 5.5-1.2 0-2.4 0-3.5-.2-.7-2-.8-4.3-1.2-6.4l-2 2.1.2 4.5-2.1.2-.2-6.4c-5-.4-.6 6.4-4.8 6.6l-.1-8c2.3.4 5.8-1.4 7 1.5l3-3.1zm56.3 0c2.5-2.4 7.5-1 8 2.6 1.1 3.5-1.6 7.8-5.5 6.9-4.4-.5-5.5-6.8-2.5-9.5m2 1c-2.4 1.6-1.8 6.9 1.5 6.6 4-.5 2.7-8.5-1.5-6.6zm-77.3 2.7c1.3-2.5 5.2-3.5 7-1 .4 2 .1 4.3.2 6.5-2.2-.5-5.4 1-6.9-1.1-1-3.4 3.4-3.5 5.5-4-1.7-1.7-3.8-.5-5.8-.4m3.2 2c-2 .4-.7 3 .9 2.2 2-.4.7-3-.9-2.1zm20.6-1.9c.8-2.9 5.1-3.5 6.7-1 .3 2.1.2 4.3.2 6.4-2.6-.1-8.6 1-6.5-3.6l2-1.2v1l-.2 2.4c.9-.3 3.2-.4 2.4-2l-.3-.5.7-2.3-5 .8z" class="F G"/><path d="M461.6 281c1.1.6 3.7.3 3.4 2.2.4 1.8-2.4 1.4-3.5 2l.1-4.2zm9.8 0l3.5 1c.4 2.4-2 2.3-3.5 2.8v-3.9zm11 .5c4.2-1.9 5.5 6 1.5 6.6-3.3.3-4-5-1.5-6.6z" class="B C"/><path d="M437.7 283.7c1.2-3 5-1 7.3-1.6-.1 3.1.4 6.4-.4 9.4a5 5 0 0 1-7.5-.9c1.9 0 3.8.4 5.6.3a91.3 91.3 0 0 0-.2-7.3l-2.7.3-.2 3.1c.5.5 3.4 1.3 1.6 2.2-3.4 1.4-4.6-3.1-3.5-5.5zm10.6 5.8c-3.2-2.2-1.6-8.5 2.6-7.7 2.4.1 3 2.5 3.5 4.4-2.2 0-4.3.2-6.3.5 1.5 2.4 4.1.8 6.3.8-1.2 2-3.9 3.3-6.1 2m.8-5.8c-1.2 1.5 1.8 2.2 2.6 1.2 1-1.5-1.8-2.2-2.6-1.2z" class="F G"/><path d="M449 283.7c.9-1 3.7-.3 2.7 1.2-.8 1-3.8.3-2.6-1.2zm-40.7 2.6c1.6-.8 2.8 1.7.9 2-1.6.8-2.8-1.7-.9-2z" class="B C"/><path d="M270.4 292.6c2 0 3.8.9 5.6 1.7-1 1.5-2.8 2.7-2.9 4.5.8 1.4 2 2.7 3 4-1.8.3-5.5 3.3-5.7.4.9-1.7 2.3-3.2 2-5.2-.4-1.5-1.2-2.8-1.9-4.1v-1.3z" class="f g"/><path d="M261.3 297a6 6 0 0 1 9.2-3.1c.7 1.3 1.5 2.6 2 4.1.2 2-1.3 3.5-2.1 5.2-4 3.3-10.6-1.2-9-6.2m5-3.2l-.3 3.3-2-2 .8 3c-.8 0-2.3.3-3 .5h3.3c.4 1.4.9 2.8 1.2 4.3-.2-2.3 1.4-3 3.3-2.2l-1.1-1.5 2.2-.5v-.1l-2.6-.5c.3-1 .7-2.2 1.3-3.2l-2.6 2c0-.7-.3-2.3-.5-3.1z" class="b c"/><path d="M266.4 293.8l.6 3.2 2.5-2c-.6 1-1 2-1.3 3.1l2.6.5-2.2.6 1 1.5c-1.8-.8-3.4-.1-3.2 2.2-.3-1.5-.8-2.9-1.2-4.3h-3.4l3-.5-.6-3 2 2 .2-3.3m-.8 4.7l2 .5c1.2-1.6-2.3-2.5-2-.5z" class="Z a"/><path fill="#f9ac87" stroke="#f9ac87" d="M273.1 298.8c.1-1.8 2-3 2.9-4.5 2 2.6 2 5.8 0 8.5l-2.9-4z"/><path d="M265.6 298.5c-.3-2 3.2-1 2 .5l-2-.5z" class="b c"/><path fill="#fd7332" stroke="#fd7332" d="M530 298.2c2.7-1.6 5.9-.6 8.7 0 5.9-2.7 13.4 3.7 10.9 9.9 0-3-1-6-3.3-8 1 2.9 2.2 5.8 1.7 8.9-.9-1.8-1.4-3.7-2-5.6l-.1-.4h-.5l.1.6.5-.2-.8 5 3 1.6 1-1.5c-1.4 4.5-6.4 6-10.6 5l.9-1.3c1-1.4 2-2.8 2.8-4.4h.5c2.5.4 3.3-3.7.6-3.8-.5-.8-1.1-1.4-1.7-2-1.8-2.1-3.8-4.3-6.7-4.4-4.5-.8-9 3-9.3 7.4-.5 3.4 2 6 4.2 8.2-1.7-1.5-3.6-3-4.1-5.3-1-3.7.7-8 4.2-9.7z"/><path d="M525.8 305a8.2 8.2 0 0 1 9.2-7.4c2.9.1 5 2.3 6.7 4.3-.4 2-.1 4 .6 5.9-.8 1.6-1.8 3-2.8 4.4a12 12 0 0 1-9.6 1c-2.2-2.2-4.7-4.8-4.1-8.2m7.2-5.5c-.5 1.6 0 2.2 1.6 1.7.6-1.7 0-2.2-1.6-1.7m-2.7 1.7c.5.6.5.6 0 0m6.5.2c-1.4 3 3.4 0 0 0m-8.8 3.9v.3l3.7.8-2.5 3.2 2.1-.3c.3-.4 1-1.2 1.2-1.7l1.4 4.4c-.5-3 3-4.7 2.8-7.6-.7-1-1.6-1.7-2.7-2.1-2.2.7-3.5 3-6 3m10-.2c.6 3.3 2.9-1.8 0 0m-1.1 3c-1.6 3 3.3.2 0 0z" class="b c"/><path d="M533 299.5c1.6-.5 2.2 0 1.6 1.7-1.6.5-2.1 0-1.6-1.7z" class="Z a"/><path d="M530.3 301.2c.5.6.5.6 0 0z" class="F G"/><path fill="#86c4ce" stroke="#86c4ce" d="M536.8 301.4c3.4 0-1.4 3 0 0z"/><path d="M546.3 300.2a10 10 0 0 1 3.3 7.9l-.3.4-1.1 1.4-3-1.5.8-5c.6 2 1.1 3.8 2 5.6.5-3.1-.6-6-1.7-8.8z" class="F G"/><path d="M528 305.3c2.5 0 3.8-2.3 6-3 1.1.4 2 1.1 2.7 2 .3 3-3.3 4.6-2.8 7.7l-1.4-4.4-1.2 1.7-2.1.3 2.5-3.2-3.7-.8v-.3m4.1-1c-1.9 1 .7 3 2 3.4.8-.7 1.5-1.5 2-2.5-1-1.4-2.4-2.9-4-1z" class="V W"/><path d="M541.7 302l1.7 2a60 60 0 0 1-.6 3.7l-.5.1c-.7-1.9-1-3.9-.6-5.9z" class="T U"/><path fill="#f2ffff" stroke="#f2ffff" d="M545.4 303h.5l.1.4-.5.2-.1-.5z"/><path d="M532.1 304.2c1.6-1.9 3-.4 4 1-.5 1-1.2 1.8-2 2.5-1.3-.3-3.9-2.4-2-3.5z" class="b c"/><path d="M543.4 304c2.7.1 2 4.2-.6 3.7l.6-3.7z" class="F G"/><path fill="#99cfd6" stroke="#99cfd6" d="M538 305.1c2.9-1.8.6 3.3 0 0z"/><path fill="#cdced0" stroke="#cdced0" d="M115.4 306.8c3.6 0 7.2.3 10.8 0l3.9.3-.3 59.8-.9 1c-4 .3-8.2 0-12.3.1-.4-1.6-.6-3.3-.8-4.9 2.8 2 6.3 4 9.8 2.4 3.2-1.5 2.7-5.5 2.8-8.5l-.3-49c-3.8-.1-7.5.1-11.2-.1l-1.5-1z"/><path d="M153.3 307.1h106.3v12h-106v4a306.2 306.2 0 0 0 .5 9.8h-.8c.3-8.6-.1-17.2 0-25.8z" class="H I"/><path d="M115.4 306.8l1.5 1c3.4 2 7.5 1 11.3 1.2.4 16-.1 32 .2 48 0 3 .4 7-2.8 8.5-3.5 1.6-7-.4-9.8-2.4l.2-50.1c-.1-2 .2-4.2-.6-6.2z" class="L M"/><path fill="#fffffe" stroke="#fffffe" d="M116.9 307.9c3.7.2 7.4 0 11.2 0v1.1c-3.7-.1-7.8.7-11.2-1.1z"/><path fill="#85c3cd" stroke="#85c3cd" d="M536.9 308c3.3.3-1.6 3 0 0z"/><path fill="#828385" stroke="#828385" d="M153.5 319l106.2.1v4H153.6l-.1-4z"/><path d="M153.6 323.1h106v3.1h-106v-3z" class="V W"/><path fill="#868789" stroke="#868789" d="M153.6 326.2h106v4.1H153.9l-.2-4.1z"/><path d="M153.8 330.3h105.9v2.6H154l-.2-2.6z" class="Z a"/><path fill="#828385" stroke="#828385" d="M153.2 332.9h106.5v4.1H153.4l-.1 3.3h106.4v3.9H153.2v-11.3z"/><path d="M153.4 337h106.3v3.3H153.3l.1-3.2z" class="V W"/><path d="M153.2 344.2h106.5v7.7c-35.5-.2-71-.1-106.4 0v-7.7z" class="H I"/></g></svg>