<?xml version="1.0" encoding="UTF-8" ?>
<svg id="new weather34 2019 rain marker" width="100px" height="105px" opacity="0.3" stroke-width="0.093715" viewBox="0 0 115 118" version="1.1" xmlns="http://www.w3.org/2000/svg">
<path fill="#f16b4f" stroke="#f16b4f"   d=" M 0.00 8.01 C 4.00 7.97 8.00 8.03 12.01 7.99 C 12.01 8.49 12.01 9.51 12.01 10.01 C 8.00 9.97 4.00 10.03 0.00 9.99 L 0.00 8.01 Z" />
<path fill="#f16b4f" stroke="#f16b4f"   d=" M 102.99 7.99 C 107.00 8.03 111.00 7.97 115.00 8.01 L 115.00 9.99 C 111.00 10.03 106.99 9.97 102.99 10.01 C 102.99 9.51 102.99 8.49 102.99 7.99 Z" />
<path fill="#f16b4f" stroke="#f16b4f"   d=" M 0.00 15.00 C 1.67 15.00 3.34 15.00 5.01 15.00 C 5.01 15.50 5.01 16.49 5.01 16.99 C 3.34 17.00 1.67 17.01 0.00 17.02 L 0.00 15.00 Z" />
<path fill="#f16b4f" stroke="#f16b4f"   d=" M 109.99 15.01 C 111.66 15.00 113.33 14.99 115.00 14.98 L 115.00 17.00 C 113.33 17.00 111.66 17.00 109.99 17.00 C 109.99 16.51 109.99 15.51 109.99 15.01 Z" />
<path fill="#f16b4f" stroke="#f16b4f"   d=" M 0.00 22.00 C 1.67 22.00 3.34 22.00 5.01 22.00 C 5.01 22.49 5.01 23.49 5.01 23.99 C 3.34 24.00 1.67 24.01 0.00 24.02 L 0.00 22.00 Z" />
<path fill="#f16b4f" stroke="#f16b4f"   d=" M 109.99 22.01 C 111.66 22.00 113.33 21.99 115.00 21.98 L 115.00 24.00 C 113.33 24.00 111.66 24.00 109.99 24.00 C 109.99 23.51 109.99 22.51 109.99 22.01 Z" />
<path fill="#f16b4f" stroke="#f16b4f"   d=" M 0.00 29.00 C 1.67 29.00 3.34 29.00 5.01 29.00 C 5.01 29.49 5.01 30.49 5.01 30.99 C 3.34 31.00 1.67 31.01 0.00 31.02 L 0.00 29.00 Z" />
<path fill="#f16b4f" stroke="#f16b4f"   d=" M 109.99 29.01 C 111.66 29.00 113.33 28.99 115.00 28.98 L 115.00 31.00 C 113.33 31.00 111.66 31.00 109.99 31.00 C 109.99 30.51 109.99 29.51 109.99 29.01 Z" />
<path fill="#f16b4f" stroke="#f16b4f"   d=" M 0.00 36.00 C 1.67 36.00 3.34 36.00 5.02 35.99 C 5.02 36.49 5.01 37.48 5.01 37.97 C 3.34 37.99 1.67 38.01 0.00 38.03 L 0.00 36.00 Z" />
<path fill="#f16b4f" stroke="#f16b4f"   d=" M 109.98 36.01 C 111.65 36.00 113.33 35.99 115.00 35.97 L 115.00 38.00 C 113.33 38.00 111.66 37.99 109.99 37.99 C 109.99 37.49 109.98 36.51 109.98 36.01 Z" />
<path fill="#f16b4f" stroke="#f16b4f"   d=" M 0.00 42.01 C 4.00 41.97 8.00 42.03 12.01 41.99 C 12.01 42.49 12.01 43.51 12.01 44.01 C 8.01 43.96 4.00 44.03 0.00 44.00 L 0.00 42.01 Z" />
<path fill="#f16b4f" stroke="#f16b4f"   d=" M 102.99 41.99 C 106.99 42.03 111.00 41.97 115.00 42.01 L 115.00 43.99 C 111.00 44.03 106.99 43.97 102.99 44.01 C 102.99 43.51 102.99 42.49 102.99 41.99 Z" />
<path fill="#06a2b1" stroke="#06a2b1"   d=" M 0.00 49.00 C 1.67 49.00 3.34 49.00 5.02 49.00 C 5.02 49.50 5.01 50.49 5.01 50.98 C 3.34 51.00 1.67 51.01 0.00 51.03 L 0.00 49.00 Z" />
<path fill="#06a2b1" stroke="#06a2b1"   d=" M 109.99 49.02 C 111.66 49.00 113.33 48.99 115.00 48.97 L 115.00 51.00 C 113.33 51.00 111.65 51.00 109.98 51.00 C 109.98 50.50 109.98 49.52 109.99 49.02 Z" />
<path fill="#06a2b1" stroke="#06a2b1"   d=" M 0.00 56.00 C 1.67 56.00 3.34 56.00 5.01 56.00 C 5.01 56.50 5.01 57.49 5.01 57.99 C 3.34 58.00 1.67 58.01 0.00 58.03 L 0.00 56.00 Z" />
<path fill="#06a2b1" stroke="#06a2b1"   d=" M 109.99 56.02 C 111.66 56.00 113.33 55.99 115.00 55.97 L 115.00 58.00 C 113.33 58.00 111.66 58.00 109.99 58.00 C 109.99 57.51 109.99 56.51 109.99 56.02 Z" />
<path fill="#00a4b4" stroke="#00a4b4"   d=" M 0.00 63.00 C 1.67 63.00 3.34 63.00 5.01 63.00 C 5.01 63.50 5.01 64.49 5.01 64.98 C 3.34 65.00 1.67 65.01 0.00 65.03 L 0.00 63.00 Z" />
<path fill="#00a4b4" stroke="#00a4b4"   d=" M 109.99 63.02 C 111.66 63.00 113.33 62.99 115.00 62.97 L 115.00 65.00 C 113.33 65.00 111.66 65.00 109.99 65.00 C 109.99 64.50 109.99 63.51 109.99 63.02 Z" />
<path fill="#00a4b4" stroke="#00a4b4"   d=" M 0.00 70.00 C 1.67 70.00 3.34 70.00 5.01 70.00 C 5.01 70.50 5.01 71.49 5.02 71.98 C 3.34 72.00 1.67 72.01 0.00 72.03 L 0.00 70.00 Z" />
<path fill="#00a4b4" stroke="#00a4b4"   d=" M 109.99 70.02 C 111.66 70.00 113.33 69.99 115.00 69.97 L 115.00 72.00 C 113.33 72.00 111.65 72.00 109.98 72.00 C 109.98 71.50 109.99 70.51 109.99 70.02 Z" />
<path fill="#00a4b4" stroke="#00a4b4"   d=" M 0.00 77.01 C 4.00 76.97 8.01 77.03 12.01 76.99 C 12.01 77.49 12.01 78.51 12.01 79.01 C 8.00 78.96 4.00 79.03 0.00 78.99 L 0.00 77.01 Z" />
<path fill="#00a4b4" stroke="#00a4b4"   d=" M 102.99 76.99 C 106.99 77.03 111.00 76.97 115.00 77.01 L 115.00 78.99 C 111.00 79.03 107.00 78.97 102.99 79.01 C 102.99 78.51 102.99 77.49 102.99 76.99 Z" />
<path fill="#00a4b4" stroke="#00a4b4"   d=" M 0.00 83.00 C 1.67 83.00 3.34 83.00 5.01 83.00 C 5.01 83.50 5.01 84.49 5.01 84.98 C 3.34 85.00 1.67 85.01 0.00 85.03 L 0.00 83.00 Z" />
<path fill="#00a4b4" stroke="#00a4b4"   d=" M 109.98 83.02 C 111.66 83.00 113.33 82.99 115.00 82.97 L 115.00 85.00 C 113.33 85.00 111.66 85.00 109.99 85.00 C 109.99 84.50 109.99 83.51 109.98 83.02 Z" />
<path fill="#00a4b4" stroke="#00a4b4"   d=" M 0.00 90.00 C 1.67 90.00 3.34 90.00 5.01 90.00 C 5.01 90.50 5.01 91.49 5.01 91.98 C 3.34 91.99 1.67 92.01 0.00 92.03 L 0.00 90.00 Z" />
<path fill="#00a4b4" stroke="#00a4b4"   d=" M 109.99 90.02 C 111.66 90.00 113.33 89.99 115.00 89.97 L 115.00 92.00 C 113.33 92.00 111.66 92.00 109.98 92.00 C 109.99 91.50 109.99 90.51 109.99 90.02 Z" />
<path fill="#00a4b4" stroke="#00a4b4"   d=" M 0.00 97.00 C 1.67 97.00 3.34 97.00 5.01 97.00 C 5.01 97.50 5.01 98.49 5.02 98.98 C 3.34 98.99 1.67 99.01 0.00 99.03 L 0.00 97.00 Z" />
<path fill="#00a4b4" stroke="#00a4b4"   d=" M 109.99 97.02 C 111.66 97.00 113.33 96.99 115.00 96.97 L 115.00 99.00 C 113.33 99.00 111.66 99.00 109.98 99.00 C 109.99 98.50 109.99 97.51 109.99 97.02 Z" />
<path fill="#00a4b4" stroke="#00a4b4"   d=" M 0.00 104.00 C 1.67 104.00 3.34 104.00 5.01 104.00 C 5.01 104.50 5.02 105.49 5.02 105.98 C 3.34 105.99 1.67 106.01 0.00 106.03 L 0.00 104.00 Z" />
<path fill="#00a4b4" stroke="#00a4b4"   d=" M 109.99 104.02 C 111.66 104.00 113.33 103.99 115.00 103.97 L 115.00 106.00 C 113.33 106.00 111.65 106.00 109.98 106.00 C 109.98 105.50 109.99 104.51 109.99 104.02 Z" />
<path fill="#00a4b4" stroke="#00a4b4"   d=" M 0.00 111.01 C 4.00 110.97 8.00 111.03 12.01 110.99 C 12.01 111.49 12.01 112.51 12.01 113.01 C 8.01 112.96 4.00 113.03 0.00 112.99 L 0.00 111.01 Z" />
<path fill="#00a4b4" stroke="#00a4b4"   d=" M 102.99 110.99 C 107.00 111.03 111.00 110.97 115.00 111.01 L 115.00 112.99 C 111.00 113.03 106.99 112.97 102.99 113.01 C 102.99 112.51 102.99 111.49 102.99 110.99 Z" />
</svg>